<svg width="467" height="467" viewBox="0 0 467 467" fill="none" xmlns="http://www.w3.org/2000/svg">
<g clip-path="url(#clip0_1_1220)">
<path d="M342.038 392.179C258.918 440.551 157.534 405.21 102.046 349.649C29.3483 276.854 23.3342 157.239 74.6705 86.3284C96.0153 56.8441 140.58 15.997 188.16 21.5034C228.486 26.1699 233.867 59.7549 301.009 112.377C377.141 172.041 410.043 160.072 427.81 197.714C454.286 253.809 414.173 350.198 342.038 392.179Z" fill="#F1F4F5"/>
<path d="M92.3906 163.487C85.6841 165.322 78.7587 161.375 76.9226 154.667C75.0861 147.961 79.034 141.035 85.7407 139.199C92.4472 137.364 99.3726 141.311 101.209 148.017C103.045 154.726 99.0973 161.649 92.3906 163.487ZM114.114 147.02L112.822 142.302L107.486 142.544C106.992 141.505 106.419 140.521 105.771 139.601L108.597 135.075L105.12 131.636L100.618 134.515C99.681 133.871 98.6924 133.308 97.6618 132.83L97.8459 127.489L93.1149 126.249L90.6597 130.986C89.5373 130.898 88.3981 130.906 87.2523 131.011L84.7425 126.295L80.0255 127.587L80.2678 132.922C79.229 133.417 78.2444 133.99 77.3233 134.638L72.7974 131.812L69.3581 135.29L72.2369 139.791C71.5943 140.728 71.0305 141.716 70.5514 142.747L65.2116 142.563L63.9715 147.294L68.7082 149.748C68.6204 150.871 68.6294 152.01 68.7328 153.156L64.0173 155.666L65.309 160.382L70.6452 160.14C71.1396 161.179 71.7124 162.164 72.3601 163.085L69.5348 167.611L73.0119 171.05L77.5131 168.172C78.4501 168.813 79.4393 169.378 80.4697 169.857L80.2856 175.198L85.0166 176.438L87.4716 171.7C88.594 171.788 89.7331 171.78 90.8787 171.675L93.3888 176.392L98.106 175.1L97.8635 169.763C98.9023 169.269 99.8871 168.696 100.808 168.048L105.334 170.875L108.773 167.396L105.894 162.895C106.537 161.959 107.101 160.97 107.58 159.939L112.92 160.123L114.16 155.392L109.423 152.936C109.511 151.814 109.502 150.676 109.399 149.529L114.114 147.02Z" fill="#B4FF5C"/>
<path d="M156.636 127.181C145.16 130.325 133.31 123.569 130.167 112.091C127.025 100.617 133.781 88.7654 145.257 85.6238C156.733 82.4796 168.584 89.2358 171.726 100.713C174.869 112.188 168.113 124.039 156.636 127.181ZM193.809 99.0049L191.599 90.9316L182.468 91.3476C181.622 89.57 180.642 87.8841 179.534 86.3095L184.368 78.5655L178.418 72.6783L170.716 77.605C169.112 76.5058 167.42 75.5402 165.656 74.7208L165.972 65.583L157.876 63.4613L153.674 71.5668C151.754 71.4157 149.804 71.4306 147.844 71.6088L143.549 63.5405L135.477 65.7489L135.892 74.8817C134.114 75.7284 132.429 76.7088 130.854 77.8154L123.109 72.9804L117.224 78.932L122.149 86.6338C121.05 88.2381 120.085 89.929 119.265 91.6917L110.128 91.3773L108.006 99.4728L116.111 103.674C115.961 105.595 115.976 107.544 116.153 109.504L108.084 113.8L110.294 121.873L119.426 121.457C120.272 123.235 121.252 124.92 122.36 126.495L117.526 134.239L123.475 140.126L131.178 135.2C132.782 136.299 134.474 137.264 136.237 138.084L135.922 147.222L144.018 149.343L148.219 141.238C150.14 141.389 152.089 141.374 154.05 141.196L158.345 149.264L166.417 147.056L166.001 137.923C167.779 137.076 169.464 136.098 171.041 134.989L178.785 139.824L184.67 133.873L179.744 126.171C180.844 124.566 181.809 122.876 182.629 121.113L191.765 121.427L193.887 113.332L185.782 109.131C185.933 107.209 185.917 105.261 185.74 103.3L193.809 99.0049Z" fill="#B4FF5C"/>
<path d="M378.497 349.085H119.518C112.23 349.085 106.322 343.176 106.322 335.889V151.181C106.322 143.893 112.23 137.984 119.518 137.984H378.497C385.785 137.984 391.694 143.893 391.694 151.181V335.889C391.694 343.176 385.785 349.085 378.497 349.085Z" fill="white"/>
<path d="M119.519 138.396C112.468 138.396 106.733 144.131 106.733 151.182V335.889C106.733 342.939 112.468 348.674 119.519 348.674H378.497C385.548 348.674 391.283 342.939 391.283 335.889V151.182C391.283 144.131 385.548 138.396 378.497 138.396H119.519ZM378.497 349.496H119.519C112.016 349.496 105.911 343.391 105.911 335.889V151.182C105.911 143.679 112.016 137.574 119.519 137.574H378.497C386 137.574 392.105 143.679 392.105 151.182V335.889C392.105 343.391 386 349.496 378.497 349.496Z" fill="black"/>
<path d="M366.122 323.001H130.768C125.622 323.001 121.449 318.83 121.449 313.683V160.389C121.449 155.241 125.622 151.07 130.768 151.07H366.122C371.27 151.07 375.441 155.241 375.441 160.389V313.683C375.441 318.83 371.27 323.001 366.122 323.001Z" fill="white"/>
<path d="M130.768 151.48C125.856 151.48 121.86 155.476 121.86 160.39V313.684C121.86 318.595 125.856 322.59 130.768 322.59H366.121C371.035 322.59 375.031 318.595 375.031 313.684V160.39C375.031 155.476 371.035 151.48 366.121 151.48H130.768ZM366.121 323.412H130.768C125.403 323.412 121.039 319.048 121.039 313.684V160.39C121.039 155.024 125.403 150.659 130.768 150.659H366.121C371.489 150.659 375.852 155.024 375.852 160.39V313.684C375.852 319.048 371.489 323.412 366.121 323.412Z" fill="black"/>
<path d="M234.988 174.091C238.835 184.252 242.683 216.555 227.866 236.583C213.068 256.588 177.504 267.249 153.952 251.511C125.547 232.531 129.633 185.184 146.928 165.403C156.613 154.328 165.852 157.144 179.218 141.255C192.55 125.41 189.937 114.786 201.603 108.384C215.631 100.684 236.107 106.752 239.741 115.079C242.991 122.526 232.613 128.594 230.63 145.997C230.255 149.263 230.293 151.944 230.568 154.31C231.783 164.749 234.294 172.26 234.988 174.091Z" fill="black"/>
<path d="M195.2 100.488C197.391 103.723 199.14 114.164 194.279 117.458C189.421 120.752 179.792 115.652 177.601 112.418C175.409 109.185 177.573 103.893 182.433 100.6C187.293 97.3058 193.009 97.2559 195.2 100.488Z" fill="black"/>
<path d="M182.929 208.657C182.929 208.657 172.41 182.222 178.607 176.642C178.931 176.35 183.118 175.923 187.405 179.845C191.453 183.548 195.623 191.608 195.623 191.608L196.999 209.857L182.929 208.657Z" fill="white"/>
<path d="M183.218 208.271L196.553 209.407L195.221 191.722C194.791 190.908 190.87 183.574 187.129 180.148C183.125 176.485 179.315 176.788 178.856 176.971C173.296 182.074 182.203 205.646 183.218 208.271ZM196.999 210.268C196.986 210.268 196.975 210.268 196.964 210.266L182.894 209.067C182.739 209.054 182.605 208.954 182.547 208.811C182.114 207.72 171.995 182.042 178.332 176.337C178.915 175.811 183.339 175.568 187.684 179.543C191.737 183.253 195.817 191.087 195.989 191.418C196.013 191.468 196.03 191.522 196.034 191.576L197.408 209.827C197.418 209.946 197.373 210.064 197.287 210.15C197.21 210.225 197.106 210.268 196.999 210.268Z" fill="black"/>
<path d="M262.936 160.671C262.936 160.671 267.034 161.554 270.256 166.53C276.688 176.459 286.625 194.516 302.525 197.216C326.395 201.265 340.857 172.225 338.805 165.718C338.805 165.718 335.378 161.164 329.744 159.791C329.744 159.791 329.685 155.253 334.581 157.401C339.476 159.552 341.438 158.239 343.629 157.726C347.475 156.823 355.651 147.579 358.698 146.403C361.745 145.23 360.792 147.77 360.792 147.77C360.792 147.77 363.778 144.41 365.834 146.095L361.448 151.889C361.448 151.889 364.996 147.201 367.052 149.556L357.876 160.293L364.602 155.014C364.602 155.014 365.535 156.044 363.778 157.872C362.022 159.701 354.872 169.67 348.024 169.67C348.024 169.67 351.713 224.664 310.533 226.898C275.152 228.817 260.747 200.277 260.747 200.277L262.936 160.671Z" fill="white"/>
<path d="M261.162 200.186C261.622 201.054 265.281 207.68 272.665 214.018C279.924 220.249 292.383 227.469 310.51 226.49C320.541 225.945 328.734 222.161 334.86 215.247C349.386 198.849 347.634 169.986 347.616 169.695C347.609 169.582 347.648 169.472 347.727 169.388C347.803 169.305 347.911 169.258 348.024 169.258C353.636 169.258 359.491 162.293 362.307 158.947C362.807 158.348 363.207 157.876 363.482 157.588C364.354 156.682 364.476 156.041 364.431 155.669L358.129 160.616C357.965 160.747 357.726 160.729 357.579 160.577C357.435 160.426 357.426 160.187 357.566 160.027L366.489 149.584C366.232 149.386 365.946 149.296 365.619 149.307C364.185 149.356 362.361 151.367 361.777 152.136C361.64 152.317 361.38 152.353 361.202 152.217C361.02 152.08 360.986 151.823 361.121 151.64L365.24 146.198C363.52 145.359 361.126 148.013 361.098 148.042C360.968 148.191 360.749 148.222 360.582 148.121C360.411 148.017 360.339 147.81 360.409 147.625C360.494 147.393 360.616 146.813 360.411 146.613C360.339 146.54 360.007 146.34 358.846 146.788C357.579 147.275 355.261 149.341 352.806 151.525C349.451 154.508 345.984 157.595 343.72 158.127C343.368 158.208 343.023 158.312 342.656 158.422C340.771 158.988 338.636 159.631 334.415 157.779C332.968 157.144 331.87 157.063 331.151 157.541C330.418 158.023 330.224 158.983 330.175 159.477C335.685 160.958 338.992 165.285 339.134 165.472C339.161 165.508 339.182 165.551 339.197 165.596C340.331 169.192 336.896 178.592 330.154 186.329C325.62 191.533 315.991 199.915 302.457 197.622C287.874 195.147 278.215 179.865 271.824 169.756C271.154 168.696 270.518 167.688 269.912 166.755C267.459 162.963 264.456 161.612 263.317 161.215L261.162 200.186ZM307.198 227.401C290.593 227.401 279.025 220.565 272.103 214.618C264.111 207.75 260.416 200.533 260.379 200.461C260.346 200.398 260.332 200.326 260.334 200.254L262.526 160.647C262.533 160.528 262.591 160.417 262.686 160.345C262.783 160.271 262.905 160.246 263.022 160.271C263.195 160.307 267.324 161.247 270.602 166.306C271.208 167.244 271.846 168.254 272.518 169.316C278.833 179.304 288.372 194.398 302.594 196.811C315.739 199.041 325.113 190.863 329.534 185.79C336.384 177.929 339.312 168.969 338.433 165.912C338.023 165.395 334.733 161.43 329.647 160.19C329.464 160.147 329.336 159.984 329.334 159.797C329.331 159.714 329.322 157.766 330.698 156.855C331.663 156.213 333.027 156.271 334.747 157.026C338.688 158.758 340.586 158.188 342.421 157.635C342.782 157.527 343.156 157.414 343.535 157.326C345.594 156.844 349.136 153.692 352.26 150.912C354.88 148.579 357.146 146.563 358.551 146.022C359.728 145.566 360.526 145.569 360.99 146.029C361.182 146.218 361.279 146.455 361.319 146.694C362.438 145.738 364.462 144.439 366.095 145.776C366.266 145.916 366.295 146.166 366.162 146.342L364.253 148.865C364.692 148.646 365.143 148.502 365.592 148.486C366.293 148.464 366.877 148.732 367.362 149.286C367.497 149.44 367.497 149.67 367.364 149.823L360.875 157.417L364.347 154.691C364.516 154.558 364.76 154.578 364.904 154.738C364.954 154.792 366.074 156.077 364.075 158.156C363.817 158.424 363.427 158.889 362.934 159.475C360.109 162.834 354.308 169.738 348.457 170.067C348.617 173.742 349.253 200.236 335.477 215.788C329.198 222.876 320.814 226.754 310.555 227.309C309.414 227.372 308.294 227.401 307.198 227.401Z" fill="black"/>
<path d="M353.101 156.021C352.997 156.021 352.895 155.983 352.813 155.903C352.651 155.746 352.649 155.484 352.809 155.322L360.501 147.481C360.659 147.317 360.92 147.315 361.082 147.475C361.244 147.634 361.246 147.894 361.086 148.055L353.394 155.899C353.314 155.981 353.208 156.021 353.101 156.021Z" fill="black"/>
<path d="M356.232 157.608C356.128 157.608 356.024 157.571 355.944 157.491C355.784 157.333 355.779 157.073 355.937 156.911L361.157 151.6C361.314 151.438 361.574 151.436 361.736 151.596C361.898 151.756 361.901 152.016 361.741 152.178L356.525 157.486C356.443 157.568 356.337 157.608 356.232 157.608Z" fill="black"/>
<path d="M342.505 166.147C342.451 166.147 342.392 166.136 342.338 166.11C342.131 166.019 342.04 165.775 342.133 165.568C342.227 165.355 344.524 160.38 348.274 161.146C351.576 161.82 353.943 160.972 353.965 160.963C354.178 160.885 354.415 160.992 354.493 161.205C354.572 161.418 354.463 161.653 354.252 161.733C354.147 161.773 351.657 162.678 348.111 161.949C344.992 161.311 342.901 165.86 342.882 165.906C342.812 166.058 342.664 166.147 342.505 166.147Z" fill="black"/>
<path d="M178.607 176.642C178.607 176.642 251.067 156.332 265.711 158.773L270.832 192.915L280.522 219.032C283.306 226.539 281.73 235.009 276.329 240.919C270.289 247.524 260.25 254.505 244.524 255.214C213.993 256.588 199.14 264.113 197.52 250.623C195.904 237.129 193.979 204.764 193.979 204.764C189.098 191.887 183.157 177.013 178.607 176.642Z" fill="white"/>
<path d="M179.991 176.685C184.417 179.215 189.499 191.793 194.362 204.619C194.377 204.657 194.386 204.699 194.388 204.739C194.407 205.064 196.331 237.248 197.93 250.572C198.256 253.307 199.115 255.133 200.632 256.322C204.13 259.063 211.061 258.211 221.548 256.923C227.771 256.158 235.513 255.208 244.505 254.803C260.513 254.082 270.48 246.704 276.024 240.641C281.323 234.847 282.899 226.621 280.136 219.174L270.447 193.058C270.436 193.032 270.43 193.003 270.424 192.976L265.348 159.134C251.425 157.21 189.673 174.013 179.991 176.685ZM208.17 258.954C204.657 258.954 201.989 258.427 200.127 256.967C198.449 255.654 197.465 253.593 197.113 250.672C195.547 237.601 193.669 206.465 193.571 204.852C189.925 195.232 183.166 177.425 178.574 177.051C178.375 177.036 178.217 176.879 178.198 176.681C178.179 176.484 178.305 176.301 178.496 176.248C181.458 175.416 251.213 155.939 265.778 158.368C265.953 158.399 266.089 158.536 266.115 158.714L271.232 192.81L280.907 218.89C283.777 226.626 282.138 235.172 276.63 241.197C270.984 247.374 260.831 254.891 244.542 255.624C235.582 256.028 227.857 256.975 221.649 257.74C216.243 258.402 211.764 258.952 208.17 258.954Z" fill="black"/>
<path d="M227.742 153.398C230.356 153.817 232.893 153.385 234.177 152.228C235.766 150.799 235.63 148.749 235.811 146.22C235.887 145.163 235.894 143.949 236.687 142.705C237.106 142.043 237.637 141.548 238.169 141.173C238.822 140.712 239.02 139.829 238.643 139.123L238.348 138.719C236.023 135.548 234.934 129.898 235.309 124.017L233.682 121.015C229.171 120.351 225.581 120.566 225.173 121.353C225.024 121.642 224.756 121.874 225.045 123.033C226.436 128.63 221.253 129.245 216.785 129.207C212.318 129.17 215.648 136.652 215.648 136.652C215.648 136.652 212.228 133.883 210.007 137.511C208.416 140.112 213.295 142.605 216.186 143.808C216.186 143.808 216.222 161.998 212.539 164.427L202.313 170.936C202.313 170.936 224.692 176.391 240.107 163.316C240.107 163.316 233.254 163.68 230.239 161.349C227.225 159.016 228.048 153.989 227.742 153.398Z" fill="white"/>
<path d="M203.388 170.738C207.745 171.56 225.733 174.13 238.929 163.747C236.789 163.74 232.339 163.489 229.989 161.671C227.541 159.778 227.466 156.342 227.426 154.496C227.419 154.111 227.409 153.676 227.372 153.57C227.3 153.434 227.315 153.274 227.404 153.148C227.496 153.023 227.653 152.965 227.807 152.991C230.34 153.395 232.733 152.976 233.904 151.92C235.143 150.806 235.228 149.229 235.339 147.234C235.358 146.895 235.375 146.548 235.403 146.189L235.42 145.901C235.488 144.871 235.563 143.702 236.34 142.482C236.742 141.85 237.277 141.296 237.932 140.834C238.405 140.502 238.558 139.863 238.296 139.337L238.02 138.961C235.686 135.782 234.519 130.236 234.892 124.108L233.421 121.39C228.646 120.708 225.797 121.115 225.539 121.541C225.518 121.581 225.497 121.622 225.471 121.662C225.352 121.867 225.231 122.075 225.443 122.933C225.908 124.79 225.703 126.286 224.843 127.376C223.244 129.408 219.695 129.637 216.785 129.616C216.037 129.599 215.526 129.833 215.224 130.295C214.27 131.752 215.477 135.256 216.025 136.482C216.101 136.657 216.05 136.859 215.901 136.974C215.75 137.089 215.539 137.089 215.392 136.97C215.377 136.959 213.955 135.833 212.469 136.088C211.645 136.233 210.935 136.783 210.36 137.726C210.096 138.154 210.04 138.586 210.19 139.044C210.629 140.402 212.816 141.958 216.346 143.427C216.499 143.489 216.599 143.64 216.599 143.804C216.602 144.558 216.591 162.246 212.766 164.769L203.388 170.738ZM213.368 172.444C206.924 172.444 202.318 171.36 202.217 171.335C202.056 171.296 201.935 171.164 201.909 171.002C201.883 170.841 201.954 170.677 202.094 170.589L212.319 164.079C215.133 162.224 215.765 149.274 215.778 144.079C213.17 142.97 210.048 141.271 209.407 139.297C209.183 138.607 209.269 137.934 209.659 137.296C210.365 136.142 211.266 135.463 212.332 135.279C213.28 135.115 214.177 135.379 214.834 135.684C214.287 134.125 213.551 131.351 214.536 129.846C215.001 129.139 215.763 128.775 216.791 128.794C219.516 128.826 222.818 128.618 224.198 126.87C224.905 125.973 225.05 124.751 224.647 123.131C224.375 122.041 224.547 121.62 224.762 121.249C224.779 121.219 224.796 121.192 224.811 121.162C225.429 119.967 229.874 120.038 233.742 120.606C233.872 120.625 233.983 120.704 234.045 120.817L235.671 123.821C235.708 123.889 235.725 123.966 235.72 124.042C235.343 129.942 236.478 135.471 238.68 138.475L238.976 138.878C238.988 138.895 238.999 138.912 239.007 138.929C239.484 139.823 239.225 140.93 238.405 141.507C237.839 141.907 237.377 142.382 237.034 142.923C236.37 143.966 236.304 144.975 236.242 145.954L236.223 146.248C236.195 146.602 236.178 146.947 236.159 147.279C236.044 149.378 235.944 151.19 234.456 152.531C233.174 153.683 230.823 154.185 228.228 153.879C228.239 154.043 228.243 154.238 228.247 154.477C228.286 156.187 228.354 159.369 230.491 161.022C233.349 163.234 240.019 162.906 240.087 162.904C240.257 162.893 240.425 162.999 240.491 163.163C240.555 163.327 240.508 163.515 240.372 163.628C231.899 170.817 221.258 172.444 213.368 172.444Z" fill="black"/>
<path d="M227.741 153.807C227.728 153.807 227.714 153.807 227.7 153.806C222.625 153.288 219.159 147.28 219.013 147.025C218.901 146.828 218.97 146.578 219.168 146.466C219.365 146.354 219.617 146.423 219.729 146.62C219.761 146.679 223.13 152.515 227.783 152.989C228.009 153.013 228.174 153.213 228.148 153.44C228.129 153.65 227.95 153.807 227.741 153.807Z" fill="black"/>
<path d="M262.181 209.944C258.946 207.52 248.377 200.464 244.637 202.663C242.149 204.128 239.698 206.392 237.709 212.808L195.402 227.728L195.522 214.855C195.578 208.704 194.193 202.628 191.481 197.108L183.579 181.035C178.647 184.291 174.789 188.965 172.642 194.472C163.951 216.778 166.403 256.934 174.758 259.041C197.207 264.703 240.606 219.673 240.606 219.673C240.606 219.673 252.413 219.615 254.728 219.383C264.316 218.418 264.35 211.568 262.181 209.944Z" fill="white"/>
<path d="M183.418 181.639C178.661 184.887 175.072 189.367 173.025 194.621C169.673 203.223 167.699 215.45 167.608 228.163C167.525 239.89 169.099 250.329 171.716 255.406C172.678 257.27 173.735 258.359 174.858 258.643C196.822 264.186 239.877 219.836 240.311 219.387C240.387 219.307 240.492 219.262 240.604 219.262C240.722 219.26 252.419 219.202 254.687 218.974C260.9 218.349 262.404 215.285 262.762 213.998C263.227 212.328 262.684 210.832 261.935 210.271C258.337 207.576 248.25 201.014 244.846 203.018C242.513 204.389 240.083 206.539 238.101 212.93C238.062 213.053 237.968 213.152 237.845 213.195L195.538 228.115C195.413 228.159 195.273 228.141 195.163 228.062C195.055 227.984 194.991 227.859 194.991 227.724L195.111 214.852C195.167 208.796 193.783 202.723 191.111 197.289L183.418 181.639ZM178.998 259.951C177.457 259.953 176.01 259.781 174.657 259.441C173.296 259.097 172.061 257.866 170.986 255.783C165.347 244.846 164.951 213.079 172.26 194.322C174.424 188.769 178.26 184.056 183.353 180.694C183.452 180.628 183.573 180.608 183.687 180.639C183.801 180.671 183.896 180.75 183.948 180.854L191.849 196.926C194.576 202.474 195.989 208.676 195.931 214.857L195.819 227.145L237.378 212.489C239.431 205.984 241.979 203.75 244.43 202.31C248.997 199.626 261.882 209.205 262.428 209.616C263.582 210.479 264.055 212.416 263.554 214.219C263.151 215.668 261.486 219.115 254.769 219.791C252.587 220.011 242.302 220.075 240.78 220.082C239.547 221.347 229.108 231.95 216.352 241.805C200.737 253.869 188.205 259.951 178.998 259.951Z" fill="black"/>
<path d="M263.343 213.202C263.298 213.202 263.254 213.195 263.211 213.18L248.468 208.125C248.253 208.052 248.14 207.819 248.212 207.604C248.287 207.389 248.521 207.275 248.735 207.348L263.476 212.403C263.691 212.477 263.805 212.711 263.732 212.924C263.674 213.096 263.513 213.202 263.343 213.202Z" fill="black"/>
<path d="M262.508 215.969C262.471 215.969 262.432 215.963 262.39 215.952L248.007 211.674C247.79 211.609 247.665 211.381 247.73 211.164C247.796 210.948 248.02 210.824 248.242 210.888L262.626 215.164C262.843 215.229 262.968 215.457 262.902 215.675C262.85 215.853 262.686 215.969 262.508 215.969Z" fill="black"/>
<path d="M259.766 218.408C259.73 218.408 259.693 218.405 259.656 218.394C254.96 217.088 247.785 215.123 247.267 215.068C247.041 215.068 246.867 214.885 246.867 214.658C246.867 214.431 247.062 214.248 247.29 214.248C247.77 214.248 256.252 216.595 259.876 217.603C260.095 217.663 260.224 217.889 260.162 218.108C260.111 218.291 259.947 218.408 259.766 218.408Z" fill="black"/>
<path d="M183.766 234.66C183.622 234.66 183.482 234.585 183.407 234.451C183.296 234.253 183.367 234.003 183.565 233.89L195.202 227.369C195.4 227.259 195.651 227.33 195.761 227.526C195.873 227.724 195.802 227.976 195.604 228.087L183.966 234.608C183.903 234.643 183.834 234.66 183.766 234.66Z" fill="black"/>
<path d="M271.045 240.264C270.372 238.639 268.788 237.569 267.029 237.569C250.62 237.574 233.959 241.674 217.035 250.103C215.586 250.824 214.39 251.965 213.606 253.381C210.505 258.985 202.22 274.596 197.98 288.714C196.814 292.602 191.918 307.751 189.15 317.001C188.201 320.168 190.568 323.355 193.874 323.362C209.832 323.403 282.507 323.764 294.393 322.054C295.938 321.832 296.969 320.334 296.651 318.806C290.534 289.486 275.108 250.073 271.045 240.264Z" fill="black"/>
<path d="M124.295 333.95C122.971 333.95 121.894 335.026 121.894 336.35V337.121C121.894 338.444 122.971 339.522 124.295 339.522H371.736C373.059 339.522 374.136 338.444 374.136 337.121V336.35C374.136 335.026 373.059 333.95 371.736 333.95H124.295ZM371.736 340.344H124.295C122.518 340.344 121.073 338.898 121.073 337.121V336.35C121.073 334.574 122.518 333.128 124.295 333.128H371.736C373.512 333.128 374.957 334.574 374.957 336.35V337.121C374.957 338.898 373.512 340.344 371.736 340.344Z" fill="black"/>
<path d="M242.143 336.623C242.143 339.393 239.898 341.638 237.128 341.638C234.357 341.638 232.112 339.393 232.112 336.623C232.112 333.853 234.357 331.607 237.128 331.607C239.898 331.607 242.143 333.853 242.143 336.623Z" fill="white"/>
<path d="M237.128 332.018C234.589 332.018 232.523 334.084 232.523 336.623C232.523 339.162 234.589 341.228 237.128 341.228C239.666 341.228 241.732 339.162 241.732 336.623C241.732 334.084 239.666 332.018 237.128 332.018ZM237.128 342.048C234.135 342.048 231.703 339.614 231.703 336.623C231.703 333.63 234.135 331.196 237.128 331.196C240.12 331.196 242.552 333.63 242.552 336.623C242.552 339.614 240.12 342.048 237.128 342.048Z" fill="black"/>
<path d="M312.481 92.5395H254.893C251.633 92.5395 249.138 95.1929 249.138 98.4527V115.12C249.138 118.38 251.633 121.012 254.893 121.012C254.923 121.012 255.8 121.012 256.974 121.012V132.143L264.553 121.012C275.566 121.012 312.481 121.012 312.481 121.012C315.741 121.012 318.535 118.38 318.535 115.12V98.4527C318.535 95.1929 315.741 92.5395 312.481 92.5395Z" fill="white"/>
<path d="M254.892 92.9495C251.895 92.9495 249.549 95.3666 249.549 98.453V115.117C249.549 118.195 251.895 120.603 254.892 120.603H256.976C257.201 120.603 257.385 120.787 257.385 121.012V130.809L264.213 120.782C264.289 120.669 264.418 120.603 264.554 120.603H312.482C315.541 120.603 318.123 118.091 318.123 115.117V98.453C318.123 95.4701 315.541 92.9495 312.482 92.9495H254.892ZM256.976 132.552C256.934 132.552 256.895 132.548 256.854 132.536C256.681 132.481 256.564 132.323 256.564 132.143V121.424H254.892C251.435 121.424 248.728 118.655 248.728 115.117V98.453C248.728 94.9066 251.435 92.1284 254.892 92.1284H312.482C315.985 92.1284 318.947 95.0239 318.947 98.453V115.117C318.947 118.535 315.985 121.424 312.482 121.424H264.77L257.316 132.373C257.236 132.488 257.107 132.552 256.976 132.552Z" fill="black"/>
<path d="M288.758 104.424H306.854C307.907 104.424 308.759 103.571 308.759 102.516V102.178C308.759 101.125 307.907 100.27 306.854 100.27H288.758C287.705 100.27 286.85 101.125 286.85 102.178V102.516C286.85 103.571 287.705 104.424 288.758 104.424Z" fill="#B4FF5C"/>
<path d="M269.274 104.424H279.11C280.163 104.424 281.016 103.571 281.016 102.516V102.178C281.016 101.125 280.163 100.27 279.11 100.27H269.274C268.221 100.27 267.366 101.125 267.366 102.178V102.516C267.366 103.571 268.221 104.424 269.274 104.424Z" fill="#B4FF5C"/>
<path d="M260.822 113.398H306.854C307.908 113.398 308.761 112.544 308.761 111.491V111.151C308.761 110.097 307.908 109.243 306.854 109.243H260.822C259.769 109.243 258.915 110.097 258.915 111.151V111.491C258.915 112.544 259.769 113.398 260.822 113.398Z" fill="#B4FF5C"/>
<path d="M363.1 132.425C362.883 132.113 362.883 131.709 363.1 131.397C363.396 130.966 363.557 130.5 363.557 130.016C363.557 127.759 360.064 125.932 355.755 125.932C351.446 125.932 347.951 127.759 347.951 130.016C347.951 130.5 348.111 130.966 348.41 131.397C348.624 131.709 348.624 132.113 348.41 132.425C348.111 132.858 347.951 133.324 347.951 133.808C347.951 134.878 348.736 135.851 350.023 136.58C349.996 136.701 349.978 136.826 349.978 136.95C349.978 138.619 352.563 139.973 355.755 139.973C358.942 139.973 361.527 138.619 361.527 136.95C361.527 136.826 361.512 136.701 361.483 136.58C362.77 135.851 363.557 134.878 363.557 133.808C363.557 133.324 363.396 132.858 363.1 132.425Z" fill="#B4FF5C"/>
<path d="M376.932 98.7087C376.932 87.1437 367.306 77.2788 355.741 77.2788C344.198 77.2788 334.677 86.8784 334.601 98.4194C334.563 104.299 337.398 109.764 341.262 113.592C344.052 116.351 346.084 119.782 347.07 123.579L347.117 123.763C348.076 127.448 351.404 130.02 355.211 130.02H356.772C360.581 130.02 363.909 127.448 364.865 123.763L364.894 123.651C365.874 119.88 367.825 116.418 370.613 113.697C374.513 109.896 376.932 104.586 376.932 98.7087Z" fill="white"/>
<path d="M355.741 77.6886C344.386 77.6886 335.088 86.9895 335.011 98.423C334.975 103.729 337.359 109.15 341.55 113.298C344.432 116.151 346.481 119.67 347.467 123.475L347.517 123.657C348.426 127.161 351.591 129.61 355.209 129.61H356.772C360.391 129.61 363.558 127.161 364.467 123.657L364.498 123.547C365.513 119.641 367.531 116.135 370.329 113.404C374.321 109.505 376.521 104.287 376.521 98.7103C376.521 87.315 367.004 77.6886 355.741 77.6886ZM356.772 130.431H355.209C351.217 130.431 347.725 127.731 346.72 123.865L346.674 123.681C345.722 120.019 343.75 116.632 340.973 113.882C336.627 109.579 334.152 103.942 334.19 98.4183C334.269 86.5348 343.936 76.8676 355.741 76.8676C367.452 76.8676 377.342 86.8699 377.342 98.7103C377.342 104.512 375.053 109.938 370.901 113.992C368.211 116.616 366.272 119.993 365.293 123.755L365.264 123.865C364.259 127.731 360.767 130.431 356.772 130.431Z" fill="black"/>
<path d="M359.058 94.9899C358.759 95.2587 358.486 95.5941 358.256 95.9984C356.756 98.645 357.245 100.06 357.67 100.667C358.111 101.301 358.879 101.631 359.625 101.503C360.218 101.404 360.65 101.032 360.808 100.481C361.36 98.5462 360.42 96.304 359.058 94.9899ZM352.786 95.1783C352.12 95.9364 351.58 96.9725 351.189 98.2567C350.755 99.6788 350.893 100.88 351.568 101.556C352.005 101.997 352.618 102.153 353.206 101.976C353.928 101.758 354.452 101.092 354.64 100.147C354.927 98.73 354.176 95.9709 352.786 95.1783ZM356.93 127.43C356.703 127.428 356.519 127.244 356.522 127.017C356.567 115.749 363.147 103.026 364.466 100.588C365.251 99.1389 365.55 97.9535 365.382 96.9633C365.134 95.493 364.381 94.5488 363.149 94.1537C362.267 93.8688 360.898 93.8436 359.729 94.5052C361.22 96.0283 362.219 98.5324 361.599 100.708C361.353 101.563 360.668 102.162 359.761 102.314C358.702 102.491 357.62 102.029 356.997 101.138C356.459 100.373 355.819 98.6335 357.539 95.5941C357.794 95.1461 358.091 94.7717 358.417 94.4615C358.369 94.4294 358.32 94.3972 358.274 94.3674C357.397 93.8137 355.949 93.4117 354.53 93.94C354.123 94.0917 353.744 94.3099 353.39 94.5948C354.985 95.709 355.779 98.6519 355.446 100.311C355.194 101.56 354.463 102.454 353.443 102.762C352.572 103.024 351.633 102.785 350.987 102.137C350.094 101.239 349.88 99.7385 350.404 98.0178C350.826 96.6279 351.38 95.6148 351.971 94.875C349.593 94.218 347.934 95.3552 347.484 96.4671C346.958 97.7674 347.151 99.3158 347.985 100.508C349.914 103.267 354.431 111.322 354.651 126.5C354.654 126.727 354.472 126.914 354.247 126.918C354.243 126.918 354.24 126.918 354.24 126.918C354.015 126.918 353.831 126.737 353.829 126.511C353.611 111.561 349.2 103.676 347.314 100.979C346.303 99.5386 346.085 97.7375 346.723 96.1593C347.424 94.4248 349.79 93.2577 352.586 94.2065C353.161 93.6736 353.739 93.3588 354.24 93.1704C355.945 92.5364 357.668 93.0142 358.711 93.6736C358.84 93.7517 358.964 93.839 359.088 93.9331C360.53 93.0004 362.288 93.0142 363.4 93.3703C365.327 93.9883 365.982 95.5895 366.193 96.8255C366.395 98.0201 366.076 99.341 365.187 100.981C363.887 103.387 357.388 115.948 357.342 127.021C357.342 127.247 357.16 127.43 356.93 127.43Z" fill="black"/>
<path d="M365.453 112.261C365.318 112.261 365.185 112.192 365.107 112.069C364.986 111.876 365.043 111.622 365.235 111.503C368.977 109.149 371.672 105.328 372.627 101.015C372.675 100.793 372.895 100.656 373.117 100.704C373.337 100.752 373.477 100.972 373.429 101.192C372.428 105.717 369.598 109.729 365.673 112.197C365.604 112.24 365.529 112.261 365.453 112.261Z" fill="black"/>
<path d="M342.663 109.835C342.55 109.835 342.437 109.788 342.357 109.695C339.518 106.503 337.954 102.39 337.954 98.1147C337.954 91.4441 341.668 85.4579 347.644 82.4895C347.845 82.388 348.09 82.4706 348.192 82.6759C348.293 82.8788 348.211 83.1242 348.008 83.2257C342.314 86.0525 338.775 91.7579 338.775 98.1147C338.775 102.19 340.264 106.109 342.97 109.15C343.121 109.32 343.107 109.58 342.937 109.731C342.857 109.799 342.76 109.835 342.663 109.835Z" fill="black"/>
<path d="M357.087 132.612C356.888 132.612 356.716 132.471 356.681 132.27C356.646 132.045 356.793 131.833 357.018 131.796C357.724 131.674 358.413 131.52 359.068 131.335C359.284 131.273 359.512 131.401 359.573 131.619C359.635 131.838 359.507 132.065 359.289 132.127C358.609 132.319 357.892 132.48 357.155 132.605C357.131 132.61 357.109 132.612 357.087 132.612Z" fill="white"/>
<path d="M353.798 136.623C353.572 136.623 353.389 136.442 353.386 136.216C353.386 135.989 353.566 135.803 353.793 135.801C355.399 135.787 357.752 135.564 359.853 134.58C360.061 134.485 360.304 134.573 360.402 134.779C360.497 134.985 360.408 135.23 360.203 135.325C357.967 136.371 355.488 136.608 353.802 136.623C353.8 136.623 353.798 136.623 353.798 136.623Z" fill="white"/>
<path d="M355.856 72.6492C355.856 72.6492 355.851 72.6492 355.849 72.6492C355.623 72.6442 355.442 72.4556 355.447 72.2299L355.638 62.9803C355.645 62.757 355.827 62.5783 356.05 62.5783C356.052 62.5783 356.055 62.5783 356.06 62.5783C356.286 62.5833 356.467 62.7719 356.462 62.9976L356.268 72.2472C356.263 72.4705 356.08 72.6492 355.856 72.6492Z" fill="black"/>
<path d="M329.049 91.4934L323.143 91.4888C322.917 91.4888 322.732 91.3041 322.732 91.0778C322.732 90.8516 322.917 90.6669 323.143 90.6669L329.049 90.6715C329.278 90.6715 329.46 90.8539 329.46 91.0824C329.46 91.3087 329.275 91.4934 329.049 91.4934Z" fill="black"/>
<path d="M334.5 79.1432C334.433 79.1432 334.365 79.1263 334.303 79.0927L327.643 75.4845C327.445 75.3762 327.371 75.1259 327.479 74.9285C327.587 74.7287 327.835 74.6541 328.035 74.7624L334.695 78.3705C334.895 78.4789 334.97 78.7292 334.861 78.929C334.787 79.0662 334.645 79.1432 334.5 79.1432Z" fill="black"/>
<path d="M382.453 91.4922C382.227 91.4922 382.043 91.3086 382.043 91.082C382.043 90.853 382.227 90.6693 382.453 90.6693L388.361 90.667C388.585 90.667 388.771 90.8506 388.771 91.0772C388.771 91.3038 388.585 91.4874 388.361 91.4874L382.456 91.4922C382.453 91.4922 382.453 91.4922 382.453 91.4922Z" fill="black"/>
<path d="M377.003 79.1432C376.859 79.1432 376.717 79.0662 376.642 78.929C376.534 78.7292 376.609 78.4789 376.809 78.3705L383.469 74.7624C383.666 74.6541 383.916 74.7287 384.025 74.9285C384.133 75.1259 384.059 75.3762 383.859 75.4845L377.201 79.0927C377.138 79.1263 377.071 79.1432 377.003 79.1432Z" fill="black"/>
<path d="M157.912 399.231C157.912 399.231 169.725 404.084 178.142 404.011C179.561 403.998 180.481 402.509 179.883 401.222C179.537 400.479 179.015 399.539 178.233 398.366C175.311 393.978 162.798 386.861 162.798 386.861L160.781 387.735C160.073 388.042 159.785 388.893 160.161 389.568L160.67 390.477L157.317 390.474C156.554 390.474 155.943 391.111 155.983 391.873C156.065 393.423 156.444 396.117 157.912 399.231Z" fill="white"/>
<path d="M158.215 398.91C159.59 399.459 170.234 403.6 177.953 403.6C178.016 403.6 178.077 403.6 178.138 403.6C178.666 403.594 179.131 403.335 179.414 402.887C179.699 402.436 179.735 401.878 179.51 401.394C179.133 400.583 178.588 399.642 177.891 398.594C175.243 394.617 164.303 388.204 162.772 387.319L160.944 388.111C160.71 388.213 160.535 388.404 160.454 388.645C160.372 388.888 160.395 389.144 160.52 389.366L161.029 390.276C161.1 390.405 161.098 390.56 161.024 390.685C160.95 390.81 160.816 390.888 160.67 390.888C160.67 390.888 160.67 390.888 160.67 390.888L157.317 390.885C157.317 390.885 157.316 390.885 157.316 390.885C157.059 390.885 156.82 390.987 156.644 391.172C156.469 391.357 156.38 391.598 156.393 391.852C156.478 393.466 156.865 395.99 158.215 398.91ZM177.955 404.422C169.565 404.422 157.873 399.659 157.756 399.61C157.661 399.571 157.584 399.498 157.54 399.405C156.078 396.302 155.663 393.608 155.573 391.895C155.548 391.415 155.716 390.957 156.048 390.608C156.377 390.261 156.838 390.063 157.316 390.063C157.316 390.063 157.317 390.063 157.318 390.063L159.97 390.066L159.803 389.768C159.567 389.345 159.52 388.839 159.675 388.381C159.83 387.924 160.174 387.55 160.617 387.358L162.634 386.484C162.753 386.431 162.888 386.439 163.001 386.502C163.515 386.796 175.632 393.72 178.575 398.138C179.295 399.22 179.861 400.2 180.255 401.048C180.598 401.786 180.543 402.638 180.108 403.325C179.679 404.004 178.946 404.415 178.146 404.422C178.082 404.422 178.019 404.422 177.955 404.422Z" fill="black"/>
<path d="M178.567 402.22C178.558 402.22 178.548 402.22 178.539 402.218C169.354 401.607 158.535 397.529 158.427 397.488C158.215 397.406 158.108 397.169 158.189 396.957C158.269 396.744 158.508 396.638 158.719 396.72C158.826 396.759 169.533 400.794 178.594 401.398C178.82 401.414 178.991 401.609 178.976 401.837C178.962 402.053 178.781 402.22 178.567 402.22Z" fill="black"/>
<path d="M170.593 397.331C170.522 397.331 170.45 397.312 170.385 397.273C170.189 397.159 170.124 396.907 170.239 396.711L172.048 393.636C172.162 393.44 172.414 393.377 172.61 393.49C172.805 393.606 172.871 393.858 172.755 394.053L170.947 397.127C170.871 397.258 170.733 397.331 170.593 397.331Z" fill="black"/>
<path d="M166.531 396.083C166.46 396.083 166.388 396.065 166.323 396.025C166.127 395.911 166.062 395.659 166.177 395.463L168.45 391.6C168.564 391.406 168.816 391.34 169.012 391.454C169.207 391.57 169.273 391.822 169.158 392.017L166.885 395.88C166.808 396.01 166.671 396.083 166.531 396.083Z" fill="black"/>
<path d="M120.91 323.412C121.272 323.031 147.09 311.878 157.643 309.505C168.196 307.133 172.128 307.109 175.719 313.14C179.31 319.172 158.421 352.081 158.421 352.081L113.983 340.497L120.91 323.412Z" fill="black"/>
<path d="M145.919 336.33C145.863 336.33 145.806 336.317 145.751 336.292C145.544 336.201 145.452 335.956 145.544 335.751C150.525 324.634 158.75 316.688 158.832 316.609C158.996 316.452 159.256 316.458 159.412 316.622C159.569 316.785 159.564 317.046 159.4 317.203C159.319 317.28 151.207 325.122 146.294 336.087C146.226 336.238 146.076 336.33 145.919 336.33Z" fill="white"/>
<path d="M99.7869 338.153C99.7869 338.153 99.7869 344.448 105.746 350.338C113.212 357.72 137.272 352.641 137.272 352.641C137.272 352.641 139.746 356.695 141.362 367.525C142.979 378.356 144.782 392.938 147.459 396.496L170.767 391.464C170.767 391.464 163.036 345.066 157.667 338.756C152.298 332.446 113.231 331.454 113.231 331.454L99.7869 338.153Z" fill="black"/>
<path d="M160.363 344.857C160.193 344.857 160.034 344.752 159.975 344.582C159.006 341.797 158.125 339.927 157.354 339.023C154.533 335.708 136.103 333.292 119.797 332.14C119.57 332.123 119.4 331.927 119.416 331.701C119.432 331.475 119.626 331.307 119.855 331.32C130.1 332.044 154.324 334.195 157.98 338.489C158.828 339.487 159.735 341.392 160.751 344.312C160.825 344.526 160.712 344.76 160.498 344.835C160.453 344.851 160.407 344.857 160.363 344.857Z" fill="white"/>
<path d="M129.337 316.338C129.453 315.968 141.405 297.772 141.405 297.772L144.286 299.878L133.364 316.906L129.337 316.338Z" fill="black"/>
<path d="M88.187 335.844C88.187 335.844 84.0047 329.999 85.7173 316.906C87.4301 303.813 91.62 297.018 96.0034 295.463C100.387 293.911 118.418 296.747 119.826 318.744L88.187 335.844Z" fill="white"/>
<path d="M98.6386 295.514C97.6032 295.514 96.7441 295.637 96.1405 295.852C91.3771 297.539 87.6327 305.429 86.1247 316.959C84.6701 328.079 87.5468 333.946 88.3316 335.3L119.398 318.509C118.609 307.325 113.457 301.678 109.255 298.906C105.48 296.414 101.423 295.514 98.6386 295.514ZM88.1872 336.255C88.0584 336.255 87.9324 336.195 87.8528 336.083C87.6783 335.84 83.5962 329.956 85.3101 316.852C86.8824 304.833 90.7301 296.896 95.8661 295.077C98.249 294.232 104.295 294.649 109.708 298.221C114.097 301.116 119.487 307.024 120.236 318.718C120.246 318.879 120.162 319.03 120.021 319.107L88.3824 336.206C88.3205 336.24 88.2533 336.255 88.1872 336.255Z" fill="black"/>
<path d="M100.786 326.799C100.572 326.799 100.392 326.633 100.376 326.416L99.5084 314.138C99.4923 313.912 99.6627 313.716 99.8891 313.699C100.116 313.676 100.312 313.854 100.328 314.08L101.196 326.358C101.212 326.584 101.041 326.782 100.815 326.797C100.805 326.797 100.795 326.799 100.786 326.799Z" fill="black"/>
<path d="M86.6642 332.478C86.6642 332.478 88.1836 343.473 103.551 339.793C118.918 336.113 126.93 321.827 126.93 321.827C126.93 321.827 135.878 319.914 135.574 314.11C135.574 314.11 132.579 314.911 130.032 314.11C127.485 313.307 124.728 314.127 123.668 315.12C116.402 321.937 93.1919 323.98 86.6642 332.478Z" fill="white"/>
<path d="M87.1011 332.584C87.2509 333.317 88.0231 336.313 90.9213 338.285C93.8845 340.303 98.1014 340.675 103.455 339.393C118.463 335.799 126.493 321.767 126.572 321.625C126.63 321.522 126.729 321.449 126.844 321.425C126.927 321.406 134.925 319.632 135.165 314.622C134.173 314.82 131.928 315.137 129.908 314.5C127.478 313.734 124.885 314.543 123.949 315.421C120.57 318.589 113.986 320.693 107.015 322.919C98.9636 325.49 90.6415 328.148 87.1011 332.584ZM97.7455 340.96C94.8434 340.96 92.401 340.29 90.4461 338.956C86.8424 336.494 86.2795 332.695 86.2573 332.534C86.2422 332.424 86.2715 332.313 86.3386 332.228C89.97 327.5 98.508 324.774 106.765 322.137C113.645 319.94 120.144 317.864 123.387 314.822C124.63 313.656 127.571 312.903 130.156 313.718C132.56 314.476 135.439 313.719 135.468 313.712C135.587 313.68 135.715 313.704 135.815 313.777C135.916 313.85 135.978 313.964 135.984 314.087C136.282 319.775 128.52 321.871 127.195 322.187C126.244 323.78 118.13 336.724 103.647 340.193C101.509 340.705 99.5394 340.96 97.7455 340.96Z" fill="black"/>
<path d="M130.094 317.001C129.846 317.001 129.588 316.996 129.32 316.985C129.094 316.975 128.918 316.785 128.927 316.559C128.936 316.333 129.112 316.153 129.354 316.165C133.773 316.342 135.212 314.922 135.226 314.909C135.384 314.747 135.644 314.743 135.807 314.902C135.969 315.061 135.972 315.32 135.814 315.483C135.75 315.548 134.282 317.001 130.094 317.001Z" fill="black"/>
<path d="M129.632 319.129C129.533 319.129 129.432 319.127 129.33 319.125C129.103 319.122 128.922 318.935 128.927 318.707C128.931 318.481 129.125 318.3 129.345 318.303C133.106 318.389 134.359 317.056 134.371 317.044C134.523 316.878 134.781 316.861 134.949 317.013C135.117 317.162 135.134 317.418 134.987 317.586C134.93 317.652 133.594 319.129 129.632 319.129Z" fill="black"/>
<path d="M103.237 286.753C103.135 286.94 98.7787 294.386 98.7787 294.386L95.775 296.403C96.8834 297.245 98.8402 298.512 101.578 299.239C104.371 299.978 106.741 299.827 108.129 299.635C108.009 299.255 107.806 298.762 107.454 298.245C106.9 297.43 106.239 296.947 105.816 296.687C106.713 295.148 107.609 293.608 108.505 292.069L103.237 286.753Z" fill="white"/>
<path d="M96.4897 296.418C98.0663 297.531 99.811 298.344 101.683 298.841C103.611 299.351 105.587 299.502 107.563 299.291C107.439 299.005 107.29 298.732 107.115 298.477C106.72 297.896 106.211 297.412 105.601 297.038C105.411 296.921 105.349 296.674 105.461 296.482L107.992 292.135L103.323 287.424C102.408 288.995 99.513 293.943 99.1333 294.593C99.1019 294.645 99.0591 294.692 99.0077 294.726L96.4897 296.418ZM105.831 300.204C104.364 300.206 102.906 300.016 101.473 299.635C99.3096 299.061 97.309 298.084 95.5265 296.73C95.421 296.65 95.3607 296.524 95.3644 296.392C95.3683 296.259 95.4357 296.136 95.546 296.063L98.4716 294.096C99.9836 291.513 102.786 286.721 102.876 286.557C102.939 286.443 103.051 286.364 103.18 286.348C103.308 286.333 103.438 286.372 103.529 286.463L108.797 291.782C108.928 291.912 108.954 292.116 108.86 292.277L106.367 296.56C106.929 296.958 107.408 297.447 107.794 298.015C108.107 298.473 108.351 298.977 108.521 299.511C108.558 299.627 108.541 299.752 108.477 299.853C108.412 299.956 108.306 300.025 108.186 300.042C107.4 300.15 106.614 300.204 105.831 300.204Z" fill="black"/>
<path d="M110.899 275.227C108.323 274.893 107.227 277.607 104.168 277.135C102.767 276.918 102.22 276.227 100.858 276.481C99.9561 276.649 98.5449 277.258 98.096 278.448C97.5242 279.963 99.1398 280.76 100.073 284.227C100.729 286.661 100.423 288.09 101.355 288.505C102.298 288.925 103.106 287.685 104.17 288.066C105.547 288.559 105.096 290.96 106.393 292.062C107.284 292.82 109.564 293.272 113.458 291.468C113.295 290.763 113.058 289.318 112.67 288.001C111.454 283.88 110.083 282.869 110.678 281.868C111.59 280.333 114.553 281.463 115.149 280.192C115.767 278.87 113.544 275.571 110.899 275.227Z" fill="black"/>
<path d="M104.915 281.354L105.9 282.173C105.9 282.173 106.603 286.241 107.132 287.614C107.661 288.987 112.036 287.672 112.036 287.672L112.351 286.871L113.558 286.478C113.558 286.478 111.297 282.929 110.766 279.95C110.766 279.95 107.663 278.911 104.915 281.354Z" fill="white"/>
<path d="M104.504 281.36C104.604 281.214 104.724 281.044 104.871 280.891C105.009 280.744 105.2 280.589 105.296 280.534C105.529 280.383 105.756 280.221 106.008 280.099C106.495 279.828 107.027 279.64 107.567 279.507C108.108 279.372 108.667 279.315 109.223 279.322C109.785 279.331 110.317 279.393 110.896 279.561C111.039 279.602 111.139 279.72 111.166 279.856L111.17 279.879C111.36 280.999 111.746 282.111 112.203 283.187C112.667 284.261 113.203 285.322 113.799 286.325C113.882 286.463 113.836 286.643 113.697 286.727L113.666 286.742L113.646 286.751L112.478 287.261L112.733 287.02L112.418 287.821L112.416 287.827C112.369 287.947 112.268 288.031 112.154 288.064C111.26 288.318 110.374 288.513 109.441 288.612C108.974 288.655 108.499 288.677 107.991 288.597C107.738 288.552 107.469 288.485 107.202 288.311C107.068 288.229 106.943 288.1 106.844 287.952C106.806 287.881 106.752 287.778 106.737 287.728L106.677 287.558C106.382 286.661 106.198 285.785 106.006 284.9C105.821 284.014 105.651 283.133 105.495 282.242L105.637 282.488C105.225 282.154 104.828 281.737 104.504 281.36ZM105.325 281.347C105.658 281.515 105.918 281.646 106.162 281.857L106.167 281.861C106.242 281.926 106.288 282.012 106.304 282.102C106.458 282.98 106.628 283.859 106.81 284.73C106.997 285.597 107.187 286.48 107.453 287.289L107.505 287.437C107.523 287.493 107.531 287.485 107.54 287.517C107.571 287.552 107.598 287.594 107.658 287.627C107.766 287.7 107.94 287.756 108.127 287.786C108.507 287.848 108.936 287.835 109.361 287.793C110.213 287.706 111.087 287.515 111.917 287.278L111.654 287.521L111.968 286.719L111.982 286.686C112.025 286.577 112.119 286.503 112.225 286.478L113.469 286.206L113.317 286.632C112.662 285.613 112.086 284.566 111.567 283.473C111.059 282.38 110.613 281.244 110.362 280.024L110.635 280.34C110.21 280.217 109.694 280.148 109.212 280.144C108.722 280.136 108.231 280.189 107.758 280.306C107.285 280.424 106.82 280.587 106.394 280.826C106.172 280.93 105.973 281.074 105.768 281.207C105.639 281.287 105.637 281.311 105.569 281.325C105.512 281.336 105.429 281.33 105.325 281.347Z" fill="black"/>
<path d="M105.441 285.008C105.441 285.008 104.287 282.432 103.226 283.206C102.166 283.977 103.507 286.781 105.441 285.008Z" fill="white"/>
<path d="M103.644 283.471C103.584 283.471 103.53 283.491 103.468 283.536C103.305 283.656 103.233 283.9 103.275 284.194C103.337 284.625 103.618 285.01 103.957 285.131C104.297 285.251 104.646 285.102 104.93 284.896C104.617 284.298 104.114 283.587 103.722 283.482C103.695 283.475 103.669 283.471 103.644 283.471ZM104.206 285.995C103.99 285.995 103.812 285.952 103.681 285.905C103.058 285.683 102.568 285.042 102.462 284.311C102.376 283.712 102.571 283.174 102.985 282.873C103.272 282.664 103.6 282.6 103.934 282.688C104.947 282.957 105.73 284.648 105.815 284.84C105.888 285.001 105.849 285.191 105.718 285.311C105.132 285.847 104.605 285.995 104.206 285.995Z" fill="black"/>
<path d="M89.6423 363.096C89.59 363.096 89.5368 363.087 89.4854 363.064C89.2758 362.979 89.1763 362.738 89.2631 362.528C92.3769 355.006 102.414 353.601 102.84 353.545C103.065 353.517 103.271 353.672 103.301 353.898C103.33 354.122 103.172 354.328 102.948 354.358C102.848 354.371 92.953 355.762 90.0219 362.842C89.9566 363.001 89.8036 363.096 89.6423 363.096Z" fill="black"/>
<path d="M103.645 367.675C103.438 367.675 103.26 367.518 103.237 367.307C102.467 360.061 106.609 355.415 106.786 355.221C106.939 355.054 107.198 355.041 107.366 355.193C107.533 355.346 107.546 355.606 107.394 355.774C107.353 355.818 103.324 360.354 104.054 367.221C104.078 367.447 103.915 367.649 103.689 367.673C103.674 367.675 103.66 367.675 103.645 367.675Z" fill="black"/>
<path d="M322.291 265.342C320.603 261.039 321.14 255.439 322.805 249.177L326.918 252.999L332.57 248.445C330.115 255.814 328.685 262.388 331.713 265.489L322.291 265.342Z" fill="white"/>
<path d="M322.577 264.934L330.833 265.063C328.502 261.706 329.781 255.775 331.75 249.632L327.174 253.317C327.017 253.446 326.788 253.438 326.639 253.299L323.031 249.946C321.392 256.386 321.243 261.3 322.577 264.934ZM331.714 265.9C331.712 265.9 331.71 265.9 331.708 265.9L322.285 265.752C322.12 265.748 321.97 265.645 321.909 265.49C320.36 261.541 320.522 256.169 322.41 249.07C322.446 248.933 322.555 248.823 322.694 248.784C322.831 248.743 322.98 248.778 323.086 248.876L326.937 252.453L332.312 248.124C332.455 248.007 332.656 248.001 332.805 248.106C332.954 248.21 333.017 248.398 332.962 248.571C330.8 255.066 328.994 262.117 332.008 265.201C332.124 265.32 332.157 265.498 332.092 265.651C332.026 265.801 331.877 265.9 331.714 265.9Z" fill="black"/>
<path d="M334.732 354.494H315.761C312.486 354.494 309.822 351.852 309.793 348.578L309.07 267.742C309.041 264.424 311.721 261.719 315.04 261.719H336.372C339.717 261.719 342.407 264.467 342.338 267.809L340.698 348.645C340.632 351.894 337.979 354.494 334.732 354.494Z" fill="black"/>
<path d="M334.217 336.973H315.845C314.48 336.973 313.373 335.865 313.373 334.499C313.373 333.134 314.48 332.026 315.845 332.026H334.217C335.582 332.026 336.689 333.134 336.689 334.499C336.689 335.865 335.582 336.973 334.217 336.973Z" fill="#B4FF5C"/>
<path d="M333.008 349.241H317.53C315.363 349.241 313.611 347.487 313.611 345.324V343.482C313.611 341.317 315.363 339.563 317.53 339.563H333.008C335.172 339.563 336.927 341.317 336.927 343.482V345.324C336.927 347.487 335.172 349.241 333.008 349.241Z" fill="#B4FF5C"/>
<path d="M396.438 354.727H377.47C374.192 354.727 371.53 352.088 371.5 348.811L370.778 267.976C370.749 264.66 373.431 261.955 376.748 261.955H398.08C401.422 261.955 404.114 264.701 404.047 268.045L402.406 348.881C402.341 352.129 399.689 354.727 396.438 354.727Z" fill="black"/>
<path d="M393.811 281.505H380.383C377.653 281.505 375.439 279.29 375.439 276.559V272.531C375.439 269.801 377.653 267.587 380.383 267.587H393.811C396.541 267.587 398.755 269.801 398.755 272.531V276.559C398.755 279.29 396.541 281.505 393.811 281.505Z" fill="#B4FF5C"/>
<path d="M397.365 290.697H377.767C376.74 290.697 375.908 289.865 375.908 288.838V287.118C375.908 286.09 376.74 285.259 377.767 285.259H397.365C398.394 285.259 399.224 286.09 399.224 287.118V288.838C399.224 289.865 398.394 290.697 397.365 290.697Z" fill="#B4FF5C"/>
<path d="M397.215 296.343H377.449C376.468 296.343 375.675 295.547 375.675 294.569C375.675 293.588 376.468 292.794 377.449 292.794H397.215C398.197 292.794 398.99 293.588 398.99 294.569C398.99 295.547 398.197 296.343 397.215 296.343Z" fill="#B4FF5C"/>
<path d="M363.741 355.2H348.396C345.747 355.2 343.591 352.561 343.568 349.284L342.983 268.448C342.96 265.131 345.128 262.426 347.812 262.426H365.066C367.772 262.426 369.948 265.174 369.894 268.517L368.568 349.351C368.514 352.6 366.369 355.2 363.741 355.2Z" fill="black"/>
<path d="M364.038 275.209H348.271C347.017 275.209 345.997 274.191 345.997 272.934V270.334C345.997 269.076 347.017 268.058 348.271 268.058H364.038C365.292 268.058 366.313 269.076 366.313 270.334V272.934C366.313 274.191 365.292 275.209 364.038 275.209Z" fill="#B4FF5C"/>
<path d="M363.916 282.918H348.742C347.323 282.918 346.172 281.768 346.172 280.348C346.172 278.928 347.323 277.778 348.742 277.778H363.916C365.335 277.778 366.486 278.928 366.486 280.348C366.486 281.768 365.335 282.918 363.916 282.918Z" fill="#B4FF5C"/>
<path d="M300.348 394.104C291.182 394.104 282.206 392.83 273.654 390.252C272.07 389.775 270.486 389.249 268.947 388.686C268.734 388.608 268.624 388.373 268.702 388.16C268.779 387.947 269.014 387.838 269.229 387.915C270.753 388.472 272.322 388.993 273.891 389.467C297.193 396.485 323.7 393.762 348.529 381.797C348.735 381.698 348.979 381.784 349.076 381.99C349.175 382.193 349.09 382.44 348.886 382.537C332.972 390.205 316.37 394.104 300.348 394.104Z" fill="black"/>
<path d="M300.348 402.058C290.006 402.058 279.885 400.485 270.318 397.272C265.523 395.662 260.904 393.644 256.595 391.281C256.396 391.171 256.325 390.923 256.433 390.723C256.541 390.525 256.792 390.45 256.99 390.56C261.257 392.901 265.829 394.898 270.581 396.493C301.987 407.042 339.477 399.762 370.871 377.023C371.057 376.89 371.313 376.931 371.445 377.114C371.578 377.297 371.537 377.555 371.354 377.688C349.297 393.665 324.235 402.058 300.348 402.058Z" fill="black"/>
<path d="M351.073 381.047C350.807 381.047 350.535 381.039 350.254 381.023C350.029 381.01 349.855 380.815 349.867 380.589C349.88 380.363 350.073 380.191 350.3 380.203C352.416 380.322 353.98 379.965 354.948 379.136C355.476 378.684 355.755 378.163 356.025 377.66C356.364 377.027 356.717 376.375 357.52 376.158C358.306 375.947 358.942 376.299 359.455 376.58C359.878 376.816 360.148 376.954 360.381 376.861C360.734 376.717 360.807 376.063 360.882 375.37C360.99 374.431 361.108 373.366 362.002 372.876C362.792 372.443 363.676 372.761 364.453 373.039C365.089 373.265 365.686 373.482 366.063 373.246C366.391 373.044 366.424 372.583 366.441 371.849C366.457 371.057 366.48 370.074 367.274 369.447C368.004 368.871 369.129 368.774 370.711 369.15C370.933 369.202 371.069 369.424 371.017 369.645C370.965 369.865 370.742 370.001 370.522 369.949C369.216 369.641 368.295 369.688 367.782 370.093C367.293 370.48 367.277 371.152 367.262 371.866C367.245 372.628 367.227 373.493 366.497 373.945C365.78 374.386 364.967 374.094 364.177 373.812C363.501 373.569 362.863 373.342 362.397 373.597C361.875 373.881 361.788 374.684 361.701 375.46C361.601 376.362 361.497 377.294 360.69 377.621C360.085 377.868 359.537 377.567 359.056 377.3C358.616 377.057 358.198 376.827 357.734 376.952C357.293 377.07 357.083 377.427 356.749 378.047C356.474 378.564 356.127 379.207 355.483 379.76C354.487 380.615 353.004 381.047 351.073 381.047Z" fill="black"/>
<path d="M238.714 9.00781C238.488 9.00781 238.303 8.82509 238.303 8.59671V5.41135C238.303 5.18297 238.488 5.00027 238.714 5.00027C238.942 5.00027 239.125 5.18297 239.125 5.41135V8.59671C239.125 8.82509 238.942 9.00781 238.714 9.00781Z" fill="black"/>
<path d="M238.713 16.4307C238.487 16.4307 238.302 16.2467 238.302 16.0203V12.834C238.302 12.6075 238.487 12.4236 238.713 12.4236C238.941 12.4236 239.124 12.6075 239.124 12.834V16.0203C239.124 16.2467 238.941 16.4307 238.713 16.4307Z" fill="black"/>
<path d="M236.596 11.125H233.411C233.183 11.125 233 10.9424 233 10.7147C233 10.4894 233.183 10.3045 233.411 10.3045H236.596C236.824 10.3045 237.007 10.4894 237.007 10.7147C237.007 10.9424 236.824 11.125 236.596 11.125Z" fill="black"/>
<path d="M244.02 11.125H240.832C240.606 11.125 240.421 10.9424 240.421 10.7147C240.421 10.4894 240.606 10.3045 240.832 10.3045H244.02C244.245 10.3045 244.43 10.4894 244.43 10.7147C244.43 10.9424 244.245 11.125 244.02 11.125Z" fill="black"/>
<path d="M18.2902 195.69C18.0634 195.69 17.8794 195.507 17.8794 195.279V192.093C17.8794 191.867 18.0634 191.682 18.2902 191.682C18.5169 191.682 18.7009 191.867 18.7009 192.093V195.279C18.7009 195.507 18.5169 195.69 18.2902 195.69Z" fill="black"/>
<path d="M18.2902 203.111C18.0634 203.111 17.8794 202.928 17.8794 202.702V199.515C17.8794 199.288 18.0634 199.104 18.2902 199.104C18.5169 199.104 18.7009 199.288 18.7009 199.515V202.702C18.7009 202.928 18.5169 203.111 18.2902 203.111Z" fill="black"/>
<path d="M16.1722 197.809H12.986C12.7592 197.809 12.5752 197.624 12.5752 197.398C12.5752 197.17 12.7592 196.987 12.986 196.987H16.1722C16.399 196.987 16.583 197.17 16.583 197.398C16.583 197.624 16.399 197.809 16.1722 197.809Z" fill="black"/>
<path d="M23.5942 197.809H20.4081C20.1814 197.809 19.9976 197.624 19.9976 197.398C19.9976 197.17 20.1814 196.987 20.4081 196.987H23.5942C23.821 196.987 24.005 197.17 24.005 197.398C24.005 197.624 23.821 197.809 23.5942 197.809Z" fill="black"/>
<path d="M430.713 235.01C430.486 235.01 430.303 234.825 430.303 234.598V231.412C430.303 231.183 430.486 231 430.713 231C430.939 231 431.124 231.183 431.124 231.412V234.598C431.124 234.825 430.939 235.01 430.713 235.01Z" fill="black"/>
<path d="M430.713 242.43C430.486 242.43 430.303 242.245 430.303 242.021V238.832C430.303 238.607 430.486 238.422 430.713 238.422C430.939 238.422 431.124 238.607 431.124 238.832V242.021C431.124 242.245 430.939 242.43 430.713 242.43Z" fill="black"/>
<path d="M428.597 237.124H425.409C425.184 237.124 425 236.94 425 236.715C425 236.488 425.184 236.304 425.409 236.304H428.597C428.822 236.304 429.008 236.488 429.008 236.715C429.008 236.94 428.822 237.124 428.597 237.124Z" fill="black"/>
<path d="M436.017 237.124H432.833C432.605 237.124 432.422 236.941 432.422 236.715C432.422 236.488 432.605 236.305 432.833 236.305H436.017C436.245 236.305 436.428 236.488 436.428 236.715C436.428 236.941 436.245 237.124 436.017 237.124Z" fill="black"/>
<path d="M72.3948 326.169C72.1952 326.291 72.0217 326.526 71.8308 326.935C71.5965 327.43 71.5531 327.613 71.5531 328.17C71.5531 328.926 71.6919 329.257 72.5684 330.535C73.1498 331.379 73.7485 331.979 74.5903 332.535C75.2758 332.979 75.2324 333.031 74.0349 333.127C73.575 333.162 73.0456 333.257 72.8547 333.336C72.4122 333.527 71.2841 334.371 71.1539 334.623C70.9977 334.91 70.9456 336.345 71.0671 336.719C71.206 337.127 71.5878 337.51 72.1258 337.78C73.2366 338.354 73.8614 337.901 75.6143 335.284L76.4039 334.092L76.8031 334.849C77.3498 335.91 77.4713 336.058 77.9225 336.327C78.287 336.545 78.3998 336.562 79.1895 336.553C79.9011 336.553 80.1354 336.519 80.5172 336.353C80.7688 336.24 81.0292 336.066 81.0986 335.962C81.2721 335.719 81.2548 335.066 81.0639 334.649C80.8296 334.127 80.4478 333.857 79.5973 333.596C79.1808 333.475 78.7643 333.344 78.6775 333.309C78.5473 333.257 78.7035 333.136 79.4498 332.683C80.6387 331.979 81.3936 331.283 81.7494 330.587C82.0531 329.97 82.0792 329.587 81.8362 329.065C81.5932 328.526 81.2461 328.344 80.4391 328.344C79.9097 328.344 79.7015 328.387 79.337 328.57C78.6601 328.909 77.7143 329.97 77.1762 331.014L76.7337 331.857L76.6035 331.379C76.5341 331.127 76.43 330.692 76.3692 330.431C76.0915 329.222 75.163 327.387 74.4862 326.717C73.8006 326.03 72.9762 325.813 72.3948 326.169ZM73.5576 326.874C73.9568 327.065 74.4862 327.787 75.0676 328.952C75.3366 329.483 76.1349 332.396 76.0568 332.535C75.9787 332.666 75.2151 332.344 74.7465 331.988C73.6791 331.187 73.037 330.457 72.5684 329.509C72.0824 328.561 72.013 327.839 72.3341 327.222C72.6291 326.648 72.9242 326.561 73.5576 326.874ZM81.142 329.126C81.5151 329.5 81.2288 330.605 80.6126 331.187C80.2655 331.509 77.9052 333.109 77.6101 333.223C77.1068 333.414 76.9767 333.414 76.9767 333.231C76.9767 332.979 77.6362 331.361 77.992 330.761C78.4172 330.039 79.1982 329.231 79.6234 329.083C80.1614 328.892 80.9337 328.918 81.142 329.126ZM75.7271 333.605C75.4754 334.44 74.3994 336.179 73.6184 337.014C73.2105 337.458 72.8808 337.501 72.3427 337.188C71.8134 336.893 71.6485 336.606 71.6138 335.927C71.5618 334.979 71.6746 334.71 72.3341 334.223C72.8721 333.831 72.9502 333.797 74.2605 333.527C75.0155 333.37 75.675 333.231 75.7357 333.223C75.8138 333.214 75.8138 333.309 75.7271 333.605ZM78.9205 334.04C79.9444 334.257 80.5345 334.736 80.5345 335.345C80.5345 335.858 80.1527 336.084 79.3196 336.084C78.3564 336.075 77.9052 335.779 77.4626 334.831C77.0895 334.04 77.0895 334.014 77.5147 333.97C78.2349 333.91 78.3217 333.91 78.9205 334.04Z" fill="#0C0C0C"/>
<path d="M70.434 190.243C69.0175 190.879 67.559 193.465 67.1243 196.134C67.0401 196.66 66.9279 197.144 66.8859 197.199C66.8438 197.254 66.395 197.019 65.8902 196.674C63.0713 194.751 60 195.332 60 197.807C60 199.813 63.3237 203.076 66.5914 204.279C68.0639 204.832 69.284 205.178 69.4944 205.095C70.0694 204.874 72.5657 200.297 73.2949 198.07C74.5711 194.254 74.0803 191.004 72.1029 190.174C71.4998 189.925 71.1212 189.939 70.434 190.243ZM72.0327 191.363C72.6077 191.903 72.8181 192.483 72.8742 193.839C72.9724 195.733 72.5657 197.351 71.3596 199.882C70.8126 201.043 69.4383 203.546 69.0035 204.196C68.7791 204.514 66.1145 203.284 64.5158 202.122C62.6365 200.753 61.1219 198.817 61.1219 197.78C61.1219 196.853 61.6408 196.521 62.9311 196.646C63.8566 196.729 64.9786 197.282 65.9322 198.126C67.4468 199.439 67.9237 199.232 68.148 197.158C68.2182 196.438 68.3865 195.512 68.4986 195.097C69.0736 193.05 70.462 191.087 71.3035 191.087C71.5419 191.087 71.8644 191.211 72.0327 191.363Z" fill="black"/>
<path d="M61.3463 205.482C61.0238 205.731 60.9817 205.87 60.9817 206.575C60.9817 208.691 62.6365 211 64.1231 211C65.806 210.986 67.8535 208.995 67.8535 207.349C67.8535 206.838 67.7834 206.685 67.4188 206.381C66.8578 205.911 66.0164 205.911 64.8944 206.381L64.039 206.727L63.2256 205.966C62.314 205.109 61.9494 205.012 61.3463 205.482ZM62.889 206.907C63.2536 207.322 63.6182 207.695 63.7164 207.736C63.8005 207.764 64.3194 207.612 64.8383 207.391C65.3713 207.169 66.0164 206.948 66.2688 206.907C66.6615 206.838 66.7456 206.865 66.8859 207.169C67.2505 207.972 66.0304 209.424 64.5018 210.032L63.7445 210.322L63.2957 209.894C62.7067 209.327 62.1597 208.331 61.9634 207.474C61.8091 206.768 61.8652 206.16 62.1036 206.16C62.1737 206.16 62.5243 206.506 62.889 206.907Z" fill="black"/>
</g>
<defs>
<clipPath id="clip0_1_1220">
<rect width="467" height="467" fill="white"/>
</clipPath>
</defs>
</svg>
