<svg width="373" height="373" viewBox="0 0 373 373" fill="none" xmlns="http://www.w3.org/2000/svg">
<mask id="mask0_1_957" style="mask-type:luminance" maskUnits="userSpaceOnUse" x="49" y="49" width="275" height="274">
<path d="M258.025 306.442C200.495 339.864 130.325 315.446 91.9196 277.057C41.6032 226.76 37.4407 144.114 72.9721 95.1195C87.7454 74.7478 118.59 46.5251 151.522 50.3297C179.432 53.5539 183.156 76.759 229.628 113.118C282.321 154.341 305.093 146.071 317.39 172.08C335.715 210.838 307.952 277.436 258.025 306.442Z" fill="white"/>
</mask>
<g mask="url(#mask0_1_957)">
<path d="M326.05 188.227L229.532 249.711C226.714 251.507 225.885 255.247 227.679 258.067L259.111 307.407C260.909 310.227 264.649 311.057 267.469 309.261L326.05 271.943V188.227Z" fill="white"/>
<path d="M325.721 188.825L229.709 249.986C227.047 251.683 226.26 255.229 227.957 257.891L259.389 307.231C261.083 309.895 264.629 310.679 267.293 308.984L325.721 271.762V188.825ZM264.227 310.535C262.116 310.535 260.051 309.492 258.836 307.584L227.404 258.243C225.515 255.276 226.391 251.325 229.356 249.435L325.874 187.951C325.975 187.887 326.102 187.882 326.209 187.94C326.312 187.997 326.377 188.108 326.377 188.227V271.943C326.377 272.055 326.32 272.159 326.227 272.219L267.644 309.536C266.585 310.212 265.398 310.535 264.227 310.535Z" fill="black" fill-opacity="0.6"/>
<path d="M233.825 259.081C233.717 259.081 233.61 259.027 233.547 258.93C233.451 258.778 233.495 258.575 233.648 258.477C238.517 255.369 243.395 252.245 248.276 249.116C259.901 241.666 271.921 233.963 283.804 226.527C283.958 226.43 284.16 226.476 284.256 226.63C284.352 226.784 284.305 226.985 284.151 227.082C272.272 234.517 260.254 242.218 248.628 249.668C243.747 252.797 238.871 255.921 233.999 259.03C233.945 259.065 233.884 259.081 233.825 259.081Z" fill="black" fill-opacity="0.6"/>
<path d="M236.027 251.095C236.488 251.817 236.275 252.776 235.553 253.237C234.829 253.697 233.871 253.485 233.41 252.761C232.949 252.039 233.162 251.08 233.884 250.619C234.608 250.158 235.567 250.371 236.027 251.095Z" fill="#B4FF5C"/>
<path d="M241.262 247.759C241.723 248.482 241.51 249.442 240.788 249.901C240.064 250.362 239.105 250.149 238.645 249.427C238.184 248.703 238.398 247.744 239.12 247.284C239.843 246.823 240.803 247.036 241.262 247.759Z" fill="#B4FF5C"/>
<path d="M246.498 244.424C246.958 245.146 246.745 246.106 246.023 246.567C245.299 247.028 244.34 246.814 243.88 246.092C243.419 245.369 243.633 244.409 244.355 243.948C245.078 243.489 246.037 243.701 246.498 244.424Z" fill="#B4FF5C"/>
<path d="M264.168 233.495C264.056 233.495 263.944 233.437 263.883 233.333C263.792 233.176 263.846 232.976 264.004 232.885C267.738 230.711 271.316 228.343 274.778 226.055C277.729 224.105 280.781 222.086 283.882 220.222C284.035 220.128 284.236 220.179 284.33 220.334C284.423 220.49 284.374 220.691 284.218 220.783C281.13 222.641 278.085 224.654 275.14 226.602C271.671 228.895 268.083 231.268 264.333 233.452C264.281 233.482 264.223 233.495 264.168 233.495Z" fill="black" fill-opacity="0.6"/>
<path d="M249.639 242.75C249.531 242.75 249.425 242.698 249.363 242.599C249.265 242.446 249.311 242.244 249.463 242.146L255.964 238.005C256.115 237.909 256.318 237.953 256.416 238.105C256.513 238.259 256.469 238.46 256.315 238.559L249.816 242.699C249.761 242.734 249.699 242.75 249.639 242.75Z" fill="black" fill-opacity="0.6"/>
<path d="M242.892 264.287L263.917 297.29L296.917 276.266L275.896 243.263L242.892 264.287ZM263.817 298.069C263.793 298.069 263.769 298.067 263.745 298.061C263.66 298.043 263.586 297.991 263.539 297.918L242.165 264.363C242.068 264.211 242.112 264.008 242.266 263.911L275.82 242.535C275.893 242.489 275.98 242.472 276.068 242.492C276.152 242.51 276.225 242.562 276.273 242.635L297.648 276.19C297.745 276.342 297.699 276.545 297.548 276.642L263.994 298.018C263.939 298.052 263.879 298.069 263.817 298.069Z" fill="black" fill-opacity="0.6"/>
<path d="M294.163 241.54L286.836 246.208L282.167 238.88L289.496 234.213L294.163 241.54Z" fill="#B4FF5C"/>
<path d="M326.05 210.926L294.507 231.019L299.177 238.346L326.05 221.227V210.926Z" fill="#B4FF5C"/>
<path d="M302.516 254.653L295.189 259.322L290.522 251.994L297.849 247.326L302.516 254.653Z" fill="#B4FF5C"/>
<path d="M326.05 229.36L302.861 244.132L307.531 251.461L326.05 239.662V229.36Z" fill="#B4FF5C"/>
<path d="M310.87 267.768L303.543 272.435L298.874 265.108L306.201 260.439L310.87 267.768Z" fill="#B4FF5C"/>
<path d="M326.05 247.795L311.215 257.245L315.883 264.574L326.05 258.097V247.795Z" fill="white"/>
</g>
<path d="M110.795 306.5C106.859 307.577 102.795 305.26 101.717 301.326C100.64 297.39 102.957 293.326 106.892 292.249C110.828 291.171 114.892 293.487 115.969 297.423C117.047 301.359 114.73 305.423 110.795 306.5ZM123.542 296.838L122.784 294.069L119.653 294.212C119.363 293.602 119.027 293.024 118.647 292.483L120.305 289.827L118.264 287.81L115.623 289.499C115.073 289.121 114.493 288.79 113.888 288.51L113.996 285.376L111.22 284.648L109.779 287.428C109.12 287.377 108.452 287.382 107.779 287.443L106.307 284.675L103.538 285.433L103.681 288.565C103.071 288.854 102.493 289.191 101.953 289.57L99.2968 287.913L97.2786 289.954L98.968 292.595C98.5908 293.145 98.2599 293.726 97.9788 294.33L94.8453 294.221L94.1176 296.998L96.8972 298.439C96.8456 299.097 96.8508 299.767 96.9117 300.438L94.1445 301.911L94.9024 304.68L98.0338 304.537C98.3242 305.147 98.6602 305.724 99.0402 306.264L97.3823 308.92L99.4227 310.939L102.064 309.25C102.614 309.627 103.194 309.957 103.799 310.239L103.691 313.372L106.467 314.1L107.908 311.321C108.567 311.371 109.235 311.367 109.907 311.306L111.38 314.073L114.148 313.316L114.006 310.184C114.616 309.893 115.194 309.557 115.734 309.177L118.39 310.836L120.408 308.795L118.719 306.154C119.096 305.603 119.427 305.023 119.708 304.419L122.841 304.526L123.569 301.751L120.79 300.31C120.841 299.65 120.836 298.982 120.775 298.311L123.542 296.838Z" fill="#B4FF5C"/>
<path d="M147.623 284.699C140.888 286.543 133.934 282.579 132.09 275.844C130.246 269.109 134.211 262.155 140.945 260.311C147.68 258.468 154.634 262.432 156.478 269.166C158.322 275.901 154.358 282.855 147.623 284.699ZM169.436 268.165L168.139 263.428L162.782 263.671C162.285 262.628 161.709 261.639 161.058 260.714L163.896 256.169L160.405 252.715L155.884 255.606C154.944 254.96 153.951 254.395 152.915 253.915L153.1 248.552L148.35 247.306L145.885 252.063C144.758 251.975 143.614 251.984 142.463 252.088L139.943 247.353L135.206 248.649L135.449 254.009C134.407 254.504 133.418 255.08 132.493 255.73L127.948 252.893L124.494 256.385L127.385 260.905C126.74 261.846 126.174 262.838 125.692 263.874L120.331 263.689L119.085 268.439L123.842 270.904C123.753 272.032 123.762 273.175 123.866 274.327L119.131 276.847L120.428 281.584L125.787 281.339C126.283 282.383 126.859 283.371 127.509 284.296L124.672 288.841L128.163 292.295L132.683 289.403C133.624 290.049 134.617 290.616 135.652 291.097L135.467 296.459L140.218 297.703L142.683 292.947C143.81 293.036 144.954 293.027 146.105 292.923L148.625 297.658L153.361 296.36L153.118 291.003C154.161 290.506 155.15 289.931 156.075 289.281L160.62 292.117L164.074 288.626L161.182 284.107C161.828 283.165 162.394 282.172 162.876 281.138L168.238 281.323L169.482 276.571L164.726 274.106C164.814 272.979 164.805 271.835 164.702 270.685L169.436 268.165Z" fill="#B4FF5C"/>
<path d="M52.3665 166.875L108.589 275.861C103.105 265.232 117.403 246.026 143.513 225.764C146.644 223.334 147.583 219.008 145.766 215.487L97.2407 121.422C94.8623 116.81 88.8565 115.504 84.7986 118.736C60.2784 138.271 47.06 156.588 52.3665 166.875Z" fill="white"/>
<path d="M52.6573 166.727L107.211 272.477C105.802 261.612 118.854 244.486 143.311 225.506C146.313 223.177 147.222 219.027 145.474 215.638L96.9488 121.573C95.8566 119.456 93.8932 117.955 91.5627 117.456C89.2442 116.959 86.8529 117.52 85.0021 118.994C59.7203 139.135 47.6287 156.978 52.6573 166.727ZM108.588 276.19C108.47 276.19 108.355 276.125 108.297 276.013L52.075 167.027C49.4572 161.952 51.2042 154.712 57.1271 146.09C62.8107 137.815 72.3085 128.269 84.594 118.482C86.5984 116.885 89.1881 116.277 91.7 116.816C94.2233 117.356 96.3486 118.98 97.5313 121.273L146.056 215.338C147.949 219.007 146.964 223.501 143.713 226.024C130.688 236.132 120.576 246.018 114.47 254.615C108.232 263.398 106.297 270.689 108.874 275.701L108.879 275.713C108.962 275.873 108.899 276.071 108.739 276.153C108.69 276.178 108.639 276.19 108.588 276.19Z" fill="black" fill-opacity="0.6"/>
<path d="M51.4851 172.962L107.708 281.949C102.224 271.32 116.522 252.113 142.632 231.852C145.762 229.421 146.702 225.096 144.885 221.575L96.3594 127.508C93.9809 122.898 87.975 121.591 83.9172 124.824C59.3969 144.358 46.1787 162.676 51.4851 172.962Z" fill="white"/>
<path d="M51.7759 172.815L106.33 278.564C104.92 267.699 117.973 250.572 142.43 231.593C145.432 229.264 146.341 225.114 144.593 221.725L96.0678 127.66C94.9753 125.543 93.0123 124.042 90.6819 123.542C88.3631 123.047 85.9719 123.607 84.1209 125.082C58.839 145.222 46.7475 163.066 51.7759 172.815ZM107.707 282.277C107.589 282.277 107.474 282.212 107.416 282.1L51.1936 173.114C48.5758 168.04 50.3228 160.799 56.2458 152.176C61.9294 143.902 71.4273 134.357 83.7127 124.57C85.7173 122.972 88.3075 122.365 90.8189 122.903C93.3422 123.442 95.4675 125.068 96.6501 127.359L145.175 221.425C147.068 225.094 146.083 229.587 142.832 232.11C129.807 242.219 119.695 252.105 113.589 260.702C107.346 269.492 105.413 276.787 107.998 281.8C108.081 281.96 108.018 282.158 107.857 282.24C107.809 282.266 107.758 282.277 107.707 282.277Z" fill="black" fill-opacity="0.6"/>
<path d="M180.58 75.0232L229.185 169.243C231.098 172.948 235.476 174.643 239.383 173.19C279.454 158.286 311.487 155.35 317.941 167.863L261.72 58.8777C255.368 46.5653 224.257 49.2088 185.09 63.4938C180.421 65.1961 178.301 70.6073 180.58 75.0232Z" fill="white"/>
<path d="M180.87 74.8724L229.476 169.094C231.31 172.65 235.521 174.278 239.266 172.885C277.204 158.774 306.319 155.843 315.984 164.786L261.427 59.0288C255.355 47.2561 225.433 49.1306 185.201 63.8031C183.063 64.5825 181.361 66.2451 180.533 68.3655C179.706 70.4818 179.829 72.854 180.87 74.8724ZM236.516 174.037C233.389 174.037 230.401 172.316 228.894 169.394L180.288 75.1741C179.16 72.9878 179.027 70.4199 179.923 68.1277C180.819 65.8315 182.662 64.0309 184.976 63.1875C204.523 56.0592 222.059 51.8045 235.687 50.8872C249.77 49.938 258.875 52.6498 262.01 58.729L318.232 167.713C318.316 167.875 318.252 168.073 318.092 168.155C317.93 168.239 317.732 168.175 317.65 168.015C314.591 162.086 305.474 159.514 291.291 160.573C277.338 161.616 259.426 166.085 239.496 173.498C238.519 173.862 237.509 174.037 236.516 174.037Z" fill="black" fill-opacity="0.6"/>
<path d="M179.698 81.1104L228.304 175.332C230.216 179.035 234.593 180.73 238.502 179.277C278.573 164.373 310.605 161.437 317.06 173.95L260.84 64.9652C254.488 52.6525 223.377 55.2978 184.208 69.5818C179.54 71.2838 177.421 76.6943 179.698 81.1104Z" fill="white"/>
<path d="M179.99 80.9611L228.594 175.181C230.427 178.736 234.638 180.365 238.386 178.972C276.323 164.86 305.439 161.93 315.103 170.873L260.548 65.1155C254.474 53.3432 224.552 55.2179 184.32 69.8908C182.182 70.6693 180.479 72.3324 179.651 74.4523C178.825 76.5703 178.949 78.9412 179.99 80.9611ZM235.636 180.124C232.508 180.124 229.52 178.404 228.013 175.481L179.407 81.2612C178.279 79.0745 178.146 76.5055 179.041 74.215C179.938 71.9185 181.78 70.1183 184.096 69.275C203.643 62.1445 221.177 57.8909 234.807 56.9731C248.893 56.024 257.993 58.7361 261.128 64.8155L317.351 173.801C317.435 173.962 317.372 174.16 317.209 174.242C317.049 174.326 316.853 174.262 316.768 174.103C313.711 168.173 304.596 165.6 290.411 166.661C276.456 167.702 258.548 172.171 238.613 179.585C237.636 179.949 236.628 180.124 235.636 180.124Z" fill="black" fill-opacity="0.6"/>
<path d="M237.06 116.865C235.915 117.246 234.734 117.59 233.513 117.886C225.731 119.772 224.144 117.89 203.79 117.18C178.923 116.314 170.512 118.745 164.652 121.311C161.311 122.774 158.663 124.341 154.025 127.087C138.241 136.428 134.201 142.316 130.093 140.987C129.151 140.682 128.208 139.994 127.356 138.676C121.04 143.435 113.845 142.381 109.906 141.23C109.909 142.12 109.946 143.027 110.027 143.949C110.262 146.62 110.674 151.297 113.548 155.239C119.734 163.725 134.992 165.609 151.287 160.058C150.255 162.292 141.941 181.101 151.741 198.595C161.863 216.67 184.012 220.298 198.57 217.817C222.312 213.771 241.293 190.84 238.05 177.19C237.491 174.842 235.033 171.45 230.139 164.757C224.352 156.845 219.117 150.68 215.419 146.534C219.396 146.291 233.129 144.964 245.094 133.942C246.179 132.942 247.184 131.921 248.116 130.89C241.305 128.61 238.321 121.588 237.06 116.865Z" fill="white"/>
<path d="M151.287 159.73C151.378 159.73 151.466 159.769 151.53 159.839C151.618 159.936 151.639 160.077 151.584 160.195C150.001 163.625 142.586 181.584 152.025 198.436C161.506 215.359 182.77 220.178 198.514 217.495C211.826 215.225 225.333 206.341 232.928 194.86C237.19 188.417 238.895 182.167 237.729 177.266C237.176 174.934 234.584 171.389 229.875 164.952C225.255 158.637 220.31 152.512 215.175 146.752C215.092 146.659 215.068 146.526 215.115 146.41C215.166 146.293 215.274 146.216 215.399 146.208C221.757 145.82 234.04 143.679 244.871 133.702C245.783 132.863 246.678 131.967 247.539 131.033C241.235 128.671 238.244 122.357 236.834 117.284C235.749 117.636 234.659 117.945 233.592 118.205C228.87 119.349 226.336 119.115 220.781 118.606C217.041 118.262 211.916 117.792 203.777 117.508C178.459 116.625 170.374 119.164 164.784 121.611C161.46 123.067 158.878 124.595 154.19 127.369C147.751 131.18 143.236 134.441 139.939 136.821C135.038 140.359 132.579 142.136 129.992 141.299C128.962 140.965 128.049 140.241 127.275 139.142C121.09 143.623 114.124 142.726 110.238 141.665C110.25 142.43 110.288 143.188 110.353 143.921C110.592 146.635 110.992 151.178 113.812 155.046C119.901 163.401 134.919 165.288 151.181 159.747C151.215 159.736 151.251 159.73 151.287 159.73ZM190.087 218.843C184.396 218.843 178.602 217.953 173.389 216.226C163.63 212.993 156.045 206.953 151.454 198.758C142.374 182.546 148.625 165.351 150.683 160.605C134.419 165.946 119.452 163.896 113.283 155.433C110.355 151.416 109.945 146.761 109.7 143.98C109.622 143.089 109.581 142.163 109.579 141.231C109.578 141.127 109.627 141.029 109.709 140.968C109.792 140.906 109.899 140.886 109.998 140.916C113.722 142.005 120.903 143.128 127.158 138.413C127.231 138.36 127.323 138.338 127.413 138.353C127.502 138.369 127.581 138.421 127.631 138.498C128.361 139.629 129.224 140.361 130.194 140.676C132.465 141.411 134.834 139.698 139.556 136.289C142.863 133.902 147.392 130.631 153.857 126.806C158.566 124.018 161.159 122.484 164.521 121.011C170.177 118.535 178.342 115.966 203.799 116.854C211.957 117.138 217.091 117.609 220.841 117.953C226.485 118.472 228.822 118.686 233.437 117.568C234.595 117.288 235.779 116.945 236.955 116.554C237.04 116.526 237.135 116.534 237.215 116.576C237.294 116.619 237.353 116.693 237.375 116.78C238.737 121.875 241.722 128.405 248.219 130.579C248.325 130.616 248.403 130.701 248.432 130.808C248.46 130.915 248.432 131.029 248.359 131.111C247.383 132.188 246.36 133.222 245.316 134.184C234.703 143.959 222.717 146.314 216.109 146.815C221.098 152.446 225.904 158.415 230.403 164.566C235.52 171.561 237.808 174.754 238.368 177.115C239.576 182.194 237.837 188.625 233.473 195.221C225.784 206.847 212.107 215.842 198.624 218.141C195.866 218.611 192.99 218.843 190.087 218.843Z" fill="black" fill-opacity="0.6"/>
<path d="M267.416 99.901L265.29 101.259L268.541 95.4077C268.699 95.1229 268.71 94.7792 268.569 94.484C268.251 93.8139 267.345 93.7045 266.876 94.2791L262.555 99.5763L265.531 92.1002C265.776 91.4856 265.543 90.7824 264.979 90.4352C264.267 89.9977 263.333 90.2963 263.008 91.0672L260.166 97.8123L261.149 91.9318C261.265 91.2321 260.744 90.548 260.034 90.5532C259.593 90.5567 259.166 90.8119 258.999 91.6766C258.596 93.7531 256.492 102.052 256.492 102.052C256.492 102.052 255.577 101.726 254.398 100.127C253.219 98.5294 252.738 99.4131 252.738 99.4131C252.018 101.849 253.765 104.512 255.039 106.042C250.728 109.966 244.752 114.301 237.059 116.866C238.321 121.588 241.305 128.611 248.117 130.891C255.572 122.652 258.317 113.775 259.345 109.304C262.35 108.068 267.435 102.512 268.566 101.25C268.713 101.087 268.791 100.875 268.791 100.655C268.791 99.9479 268.012 99.519 267.416 99.901Z" fill="white"/>
<path d="M237.456 117.076C238.839 122.07 241.787 128.312 248.018 130.51C254.81 122.936 257.753 114.767 259.027 109.231C259.049 109.126 259.122 109.041 259.221 109.001C262.18 107.784 267.322 102.148 268.323 101.031C268.415 100.929 268.467 100.795 268.467 100.654C268.467 100.444 268.356 100.258 268.171 100.157C267.985 100.055 267.77 100.062 267.593 100.176L265.467 101.533C265.34 101.615 265.175 101.599 265.065 101.497C264.958 101.394 264.931 101.229 265.003 101.099L268.255 95.2479C268.361 95.0568 268.369 94.8223 268.276 94.6242C268.171 94.4088 267.979 94.2681 267.741 94.2403C267.503 94.2107 267.282 94.3011 267.131 94.4852L262.812 99.782C262.708 99.9071 262.529 99.9401 262.39 99.8584C262.251 99.7768 262.192 99.6048 262.251 99.4537L265.227 91.9784C265.413 91.5094 265.235 90.9778 264.808 90.7137C264.549 90.5557 264.237 90.5174 263.948 90.6095C263.66 90.7016 263.427 90.9153 263.311 91.1932L260.467 97.9405C260.403 98.0934 260.236 98.1733 260.074 98.1264C259.916 98.0813 259.815 97.9232 259.841 97.7581L260.825 91.8777C260.868 91.6223 260.793 91.353 260.625 91.1567C260.472 90.9761 260.25 90.877 260.038 90.8805C259.887 90.8823 259.485 90.8857 259.32 91.7387C258.921 93.799 256.895 101.794 256.81 102.132C256.787 102.221 256.728 102.297 256.647 102.341C256.565 102.384 256.47 102.391 256.381 102.36C256.341 102.346 255.359 101.98 254.135 100.321C253.553 99.5318 253.233 99.4919 253.155 99.4971C253.098 99.5006 253.058 99.5336 253.039 99.5544C252.389 101.877 254.166 104.481 255.292 105.833C255.403 105.966 255.389 106.166 255.26 106.284C249.757 111.294 243.769 114.924 237.456 117.076ZM248.117 131.217C248.081 131.217 248.046 131.212 248.013 131.199C241.239 128.934 238.145 122.199 236.743 116.949C236.698 116.781 236.792 116.609 236.957 116.553C243.201 114.472 249.132 110.924 254.588 106.008C253.164 104.231 251.72 101.703 252.425 99.3199C252.432 99.2973 252.441 99.2765 252.451 99.2556C252.472 99.2157 252.672 98.8734 253.11 98.8439C253.594 98.8091 254.098 99.167 254.663 99.9314C255.347 100.857 255.933 101.333 256.278 101.561C256.706 99.8619 258.332 93.3925 258.678 91.6136C258.91 90.4132 259.626 90.2291 260.031 90.2256C260.036 90.2256 260.041 90.2256 260.043 90.2256C260.455 90.2256 260.849 90.4097 261.124 90.7311C261.421 91.0786 261.547 91.5354 261.473 91.9854L260.952 95.1072L262.706 90.9396C262.897 90.4844 263.278 90.137 263.748 89.9859C264.219 89.8347 264.73 89.8973 265.15 90.1561C265.852 90.5887 266.141 91.4555 265.835 92.2199L263.648 97.7199L266.622 94.0718C266.914 93.7139 267.364 93.5332 267.82 93.5888C268.277 93.6444 268.668 93.9276 268.868 94.3445C269.05 94.7336 269.036 95.1905 268.826 95.5658L266.205 100.284L267.24 99.6239C267.621 99.379 268.088 99.3633 268.486 99.5822C268.884 99.7994 269.122 100.201 269.122 100.654C269.122 100.955 269.01 101.245 268.811 101.469C267.407 103.038 262.652 108.187 259.628 109.54C258.307 115.188 255.281 123.46 248.36 131.109C248.296 131.179 248.207 131.217 248.117 131.217Z" fill="black" fill-opacity="0.6"/>
<path d="M124.069 119.864C125.468 117.582 125.066 112.096 123.503 109.431C121.921 106.735 116.482 99.0202 116.482 99.0202C113.792 101.121 117.8 107.322 117.8 107.322C113.152 110.299 115.757 113.459 115.757 113.459C113.882 117.358 116.272 118.688 117.702 119.122C114.598 123.288 109.881 131.182 109.907 141.228C113.845 142.381 121.04 143.435 127.356 138.675C125.582 135.928 124.205 130.429 124.069 119.864Z" fill="white"/>
<path d="M110.235 140.981C113.97 142.033 120.851 143.002 126.918 138.591C124.928 135.272 123.859 128.977 123.742 119.869C123.741 119.806 123.758 119.746 123.79 119.694C125.068 117.607 124.765 112.228 123.221 109.596C121.842 107.247 117.455 100.976 116.43 99.5152C114.544 101.621 118.039 107.087 118.076 107.144C118.123 107.216 118.139 107.306 118.121 107.391C118.102 107.476 118.051 107.551 117.977 107.597C116.447 108.578 115.578 109.668 115.394 110.838C115.177 112.22 116.002 113.24 116.011 113.25C116.092 113.347 116.108 113.485 116.053 113.6C115.364 115.032 115.216 116.217 115.612 117.119C116.042 118.096 117.038 118.576 117.797 118.807C117.899 118.839 117.98 118.918 118.013 119.019C118.047 119.12 118.029 119.231 117.965 119.317C114.456 124.027 110.283 131.595 110.235 140.981ZM116.492 142.528C113.837 142.528 111.488 142.033 109.815 141.543C109.676 141.503 109.58 141.375 109.579 141.228C109.555 131.785 113.633 124.138 117.174 119.285C116.366 118.97 115.46 118.401 115.012 117.381C114.553 116.336 114.677 115.028 115.379 113.494C115.113 113.098 114.538 112.061 114.747 110.737C114.949 109.448 115.826 108.266 117.354 107.225C116.587 105.954 113.696 100.779 116.28 98.7613C116.351 98.7058 116.442 98.6822 116.53 98.6956C116.619 98.7091 116.698 98.7579 116.75 98.8303C116.804 98.9077 122.215 106.587 123.786 109.264C125.299 111.844 125.851 117.438 124.398 119.953C124.524 129.13 125.611 135.368 127.631 138.497C127.725 138.64 127.691 138.832 127.554 138.936C123.893 141.695 119.935 142.528 116.492 142.528Z" fill="black" fill-opacity="0.6"/>
<path d="M120.701 117.832C120.625 117.832 120.549 117.806 120.487 117.753C120.393 117.671 118.212 115.748 119.218 113.589C120.021 111.87 119.899 111.669 119.219 110.558L119.13 110.412C118.261 108.983 119.103 107.718 119.139 107.664C119.193 107.586 119.278 107.534 119.373 107.522C119.468 107.513 119.562 107.544 119.632 107.609L122.769 110.508C122.902 110.632 122.91 110.839 122.787 110.972C122.664 111.104 122.457 111.112 122.324 110.99L119.511 108.389C119.378 108.763 119.277 109.392 119.69 110.071L119.778 110.216C120.543 111.467 120.723 111.914 119.812 113.868C119.016 115.575 120.897 117.24 120.916 117.257C121.052 117.376 121.067 117.583 120.948 117.718C120.884 117.793 120.792 117.832 120.701 117.832Z" fill="black" fill-opacity="0.6"/>
<path d="M117.652 115.271C117.284 115.271 116.918 115.128 116.647 114.849L115.522 113.685C115.397 113.556 115.4 113.348 115.53 113.222C115.66 113.096 115.867 113.1 115.993 113.23L117.118 114.393C117.384 114.669 117.824 114.694 118.12 114.452C118.261 114.337 118.467 114.358 118.581 114.496C118.696 114.637 118.675 114.844 118.535 114.959C118.279 115.168 117.965 115.271 117.652 115.271Z" fill="black" fill-opacity="0.6"/>
<path d="M225.226 284.271C225.293 284.648 236.837 301.317 236.837 301.317L227.521 303.752L218.338 289.396L225.226 284.271Z" fill="white"/>
<path d="M218.779 289.476L227.669 303.376L236.301 301.118C231.649 294.4 226.305 286.634 225.137 284.747L218.779 289.476ZM227.521 304.08C227.411 304.08 227.306 304.025 227.245 303.929L218.062 289.572C217.969 289.427 218.005 289.235 218.142 289.133L225.031 284.008C225.122 283.941 225.243 283.925 225.349 283.966C225.438 284.002 225.507 284.075 225.538 284.166C225.851 284.809 232.616 294.645 237.106 301.13C237.167 301.218 237.182 301.33 237.144 301.43C237.107 301.53 237.024 301.606 236.919 301.633L227.603 304.07C227.576 304.077 227.548 304.08 227.521 304.08Z" fill="black" fill-opacity="0.6"/>
<path d="M227.471 299.081C227.471 299.081 228.554 294.209 233.872 295.604C233.872 295.604 245.21 307.031 250.477 317.194C251.966 320.068 249.329 323.367 246.191 322.572C238.846 320.71 227.046 316.16 218.827 305.299C218.827 305.299 219.842 300.047 222.464 297.242L227.471 299.081Z" fill="white"/>
<path d="M219.178 305.218C227.115 315.631 238.283 320.229 246.27 322.254C247.602 322.591 248.961 322.127 249.819 321.045C250.671 319.971 250.811 318.554 250.185 317.345C245.204 307.731 234.619 296.833 233.704 295.898C232.176 295.514 230.877 295.638 229.843 296.266C228.238 297.242 227.795 299.134 227.791 299.153C227.769 299.246 227.711 299.323 227.627 299.37C227.544 299.414 227.445 299.422 227.357 299.389L222.558 297.625C220.369 300.105 219.358 304.389 219.178 305.218ZM247.136 323.018C246.796 323.018 246.452 322.976 246.11 322.888C237.992 320.832 226.621 316.144 218.565 305.496C218.508 305.421 218.486 305.327 218.505 305.236C218.548 305.018 219.57 299.86 222.224 297.018C222.315 296.921 222.453 296.888 222.577 296.935L227.255 298.653C227.475 297.991 228.089 296.569 229.497 295.71C230.709 294.971 232.208 294.828 233.955 295.286C234.012 295.301 234.065 295.331 234.105 295.373C234.218 295.487 245.537 306.952 250.768 317.044C251.513 318.484 251.347 320.174 250.331 321.453C249.532 322.461 248.366 323.018 247.136 323.018Z" fill="black" fill-opacity="0.6"/>
<path d="M246.1 319.355C242.095 319.355 233.45 317.578 220.934 305.509C220.804 305.383 220.8 305.175 220.925 305.045C221.051 304.916 221.259 304.911 221.389 305.038C238.417 321.459 248.314 318.461 248.41 318.429C248.583 318.372 248.767 318.466 248.825 318.636C248.882 318.808 248.789 318.993 248.618 319.051C248.503 319.09 247.648 319.355 246.1 319.355Z" fill="black" fill-opacity="0.6"/>
<path d="M238.383 310.339C238.29 310.339 238.198 310.3 238.134 310.223C238.016 310.085 238.032 309.878 238.171 309.762L242.237 306.309C242.375 306.193 242.581 306.208 242.699 306.346C242.816 306.484 242.799 306.691 242.66 306.809L238.595 310.261C238.534 310.314 238.457 310.339 238.383 310.339Z" fill="black" fill-opacity="0.6"/>
<path d="M235.509 307.34C235.414 307.34 235.317 307.297 235.253 307.216C235.141 307.073 235.165 306.867 235.306 306.755L239.749 303.236C239.891 303.122 240.099 303.148 240.21 303.289C240.322 303.431 240.299 303.637 240.157 303.749L235.714 307.268C235.652 307.316 235.581 307.34 235.509 307.34Z" fill="black" fill-opacity="0.6"/>
<path d="M196.716 246.32L188.984 252.257L195.774 261.48L203.012 254.578L196.716 246.32Z" fill="white"/>
<path d="M189.439 252.321L195.818 260.987L202.573 254.544L196.655 246.781L189.439 252.321ZM195.774 261.809C195.764 261.809 195.755 261.807 195.744 261.807C195.652 261.798 195.565 261.751 195.51 261.674L188.72 252.451C188.614 252.308 188.644 252.105 188.784 251.997L196.516 246.061C196.584 246.008 196.672 245.985 196.759 245.997C196.846 246.007 196.923 246.053 196.975 246.122L203.272 254.38C203.373 254.513 203.358 254.701 203.237 254.816L196 261.718C195.938 261.776 195.858 261.809 195.774 261.809Z" fill="black" fill-opacity="0.6"/>
<path d="M200.373 260.399L193.187 254.579L191.832 249.703C188.059 249.609 183.823 252.421 181.5 254.229C180.425 255.066 180.072 256.538 180.675 257.761C184.508 265.548 193.151 277.696 197.336 283.417C198.39 284.859 200.673 284.392 201.041 282.645C202.89 273.888 200.373 260.399 200.373 260.399Z" fill="white"/>
<path d="M191.583 250.028C187.937 250.061 183.844 252.821 181.702 254.487C180.75 255.229 180.441 256.545 180.969 257.616C184.722 265.24 192.999 276.932 197.6 283.223C198.015 283.79 198.702 284.051 199.392 283.902C200.07 283.758 200.579 283.249 200.722 282.577C202.444 274.415 200.311 261.924 200.071 260.578L192.98 254.834C192.928 254.79 192.889 254.732 192.871 254.666L191.583 250.028ZM199.006 284.599C198.247 284.599 197.535 284.244 197.071 283.61C192.458 277.302 184.156 265.575 180.381 257.906C179.717 256.555 180.104 254.901 181.299 253.97C183.522 252.241 187.791 249.373 191.652 249.373C191.715 249.373 191.779 249.373 191.841 249.374C191.985 249.379 192.11 249.476 192.149 249.615L193.474 254.39L200.579 260.145C200.638 260.194 200.68 260.263 200.695 260.339C200.719 260.475 203.201 273.992 201.362 282.712C201.166 283.641 200.464 284.342 199.531 284.544C199.355 284.581 199.179 284.599 199.006 284.599Z" fill="black" fill-opacity="0.6"/>
<path d="M197.963 280.254C197.859 280.254 197.757 280.205 197.693 280.114L186.246 263.615C185.463 262.486 185.114 261.066 185.263 259.617C185.548 256.869 184.44 254.05 184.428 254.022C184.36 253.853 184.443 253.664 184.61 253.597C184.78 253.53 184.969 253.612 185.036 253.779C185.084 253.9 186.217 256.778 185.915 259.684C185.782 260.978 186.09 262.241 186.785 263.242L198.232 279.74C198.335 279.889 198.297 280.093 198.15 280.196C198.091 280.235 198.027 280.254 197.963 280.254Z" fill="black" fill-opacity="0.6"/>
<path d="M204.419 167.987C204.419 167.987 226.496 185.418 238.175 201.733C241.44 206.293 241.901 212.294 239.424 217.325C234.047 228.248 222.418 247.835 204.419 257.604L189.303 238.29C189.303 238.29 202.521 223.675 212.238 217.019L187.461 189.247L181.3 175.3L204.419 167.987Z" fill="#0C0C0C" fill-opacity="0.9"/>
<path d="M215.042 298.175C215.827 299.553 233.631 286.539 233.631 286.539C233.631 286.539 220.009 270.595 198.36 189.557C198.109 188.616 194.117 168.796 194.117 168.796L164.535 184.301C164.535 184.301 169.733 218.405 215.042 298.175Z" fill="#0C0C0C" fill-opacity="0.9"/>
<path d="M201.917 202.881C201.772 202.881 201.641 202.785 201.601 202.639L198.818 192.472C198.302 190.582 198.639 188.569 199.746 186.952L201.448 184.462C201.55 184.313 201.754 184.274 201.903 184.377C202.054 184.478 202.091 184.683 201.99 184.832L200.286 187.322C199.288 188.781 198.984 190.595 199.451 192.299L202.233 202.466C202.281 202.64 202.178 202.821 202.003 202.869C201.975 202.878 201.945 202.881 201.917 202.881Z" fill="white"/>
<path d="M219.986 256.068C219.86 256.068 219.739 255.993 219.685 255.869C219.618 255.711 212.899 239.949 210.405 232.03C210.35 231.858 210.447 231.673 210.618 231.62C210.793 231.564 210.975 231.661 211.03 231.833C213.514 239.721 220.221 255.454 220.288 255.612C220.359 255.778 220.282 255.971 220.115 256.042C220.073 256.06 220.03 256.068 219.986 256.068Z" fill="white"/>
<path d="M157.571 131.818C158.134 143.625 159.803 173.086 162.888 184.919C163.285 186.441 164.963 187.232 166.398 186.587C173.445 183.403 193.467 174.912 208.702 173.763C210.873 173.599 212.311 171.439 211.633 169.37C208.715 160.452 202.192 139.517 200.355 125.207C199.832 121.142 196.602 118.007 192.585 117.694C185.17 117.116 173.192 117.54 161.911 123.875C159.092 125.457 157.414 128.545 157.571 131.818Z" fill="white"/>
<path d="M157.898 131.802C158.473 143.829 160.138 173.069 163.207 184.837C163.369 185.464 163.801 185.984 164.389 186.266C164.98 186.55 165.664 186.556 166.263 186.288C173.983 182.802 193.57 174.575 208.676 173.436C209.61 173.365 210.442 172.878 210.96 172.103C211.484 171.323 211.614 170.364 211.322 169.472C208.544 160.985 201.883 139.686 200.031 125.25C199.533 121.359 196.39 118.318 192.561 118.02C184.724 117.41 173.078 117.98 162.073 124.159C159.386 125.666 157.748 128.667 157.898 131.802ZM165.349 187.14C164.923 187.14 164.499 187.045 164.106 186.857C163.343 186.494 162.784 185.816 162.573 185.002C159.489 173.175 157.819 143.879 157.245 131.834C157.083 128.452 158.852 125.217 161.752 123.588C172.9 117.328 184.688 116.749 192.611 117.367C196.749 117.688 200.143 120.969 200.681 125.166C202.526 139.546 209.173 160.799 211.946 169.268C212.301 170.353 212.139 171.518 211.506 172.467C210.872 173.412 209.86 174.003 208.726 174.088C193.722 175.222 174.221 183.414 166.532 186.883C166.154 187.053 165.752 187.14 165.349 187.14Z" fill="black" fill-opacity="0.6"/>
<path d="M171.011 102.512C171.011 102.512 168.71 97.8364 167.9 97.0125C167.089 96.1904 166.462 95.321 168.848 93.7239C171.233 92.1285 177.466 87.8673 181.285 87.8953C185.105 87.9215 187.78 90.3338 186.605 92.0743C185.429 93.8131 184.89 94.546 185.795 94.658C186.702 94.77 187.203 95.781 184.635 97.2679C182.067 98.7566 173.118 105.21 171.011 102.512Z" fill="#0C0C0C"/>
<path d="M184.088 118.758L182.753 111.669C186.768 109.654 185.151 106.857 184.552 104.625C183.905 102.224 181.915 97.009 181.915 97.009C178.62 98.9443 172.161 98.367 172.161 98.367C172.161 98.367 173.087 99.8434 172.555 100.571C172.024 101.298 172.354 104.092 172.354 104.092C172.354 104.092 171.202 103.006 169.968 103.836C169.273 104.302 170.066 106.295 170.635 107.412C171.204 108.53 172.427 108.748 172.427 108.748C172.427 108.748 172.628 108.628 173.041 109.613L170.85 121.161L166.547 122.945L176.121 124.239C179.142 124.645 182.201 123.834 184.621 121.98L188.051 119.354L184.088 118.758Z" fill="white"/>
<path d="M172.594 109.031C172.58 109.039 172.568 109.044 172.555 109.051C172.568 109.046 172.58 109.039 172.594 109.031ZM167.793 122.784L176.164 123.913C179.078 124.307 182.087 123.508 184.422 121.721L187.237 119.563L184.038 119.082C183.901 119.062 183.791 118.955 183.766 118.819L182.431 111.729C182.404 111.585 182.475 111.441 182.606 111.377C185.832 109.758 185.164 107.671 184.52 105.654C184.415 105.326 184.316 105.018 184.235 104.711C183.696 102.711 182.197 98.6876 181.741 97.4772C178.912 98.9233 174.353 98.8249 172.726 98.7351C172.982 99.2996 173.251 100.174 172.819 100.764C172.505 101.193 172.55 102.946 172.68 104.053C172.695 104.189 172.626 104.323 172.502 104.384C172.38 104.446 172.231 104.424 172.131 104.33C172.092 104.294 171.148 103.438 170.151 104.107C169.854 104.307 170.066 105.57 170.927 107.262C171.356 108.105 172.236 108.366 172.443 108.417C172.487 108.415 172.539 108.424 172.587 108.439C172.758 108.495 172.999 108.666 173.343 109.487C173.367 109.546 173.375 109.612 173.363 109.675L171.171 121.221C171.151 121.33 171.076 121.421 170.975 121.464L167.793 122.784ZM177.63 124.668C177.112 124.668 176.593 124.632 176.077 124.563L166.502 123.271C166.356 123.251 166.241 123.135 166.222 122.988C166.203 122.842 166.285 122.7 166.42 122.644L170.561 120.926L172.7 109.651C172.534 109.271 172.424 109.125 172.378 109.073C172.375 109.073 172.371 109.071 172.37 109.071C172.312 109.061 170.978 108.808 170.342 107.561C169.844 106.581 168.793 104.231 169.784 103.563C170.578 103.031 171.387 103.163 171.963 103.439C171.895 102.5 171.858 100.969 172.29 100.378C172.617 99.9319 172.093 98.8758 171.883 98.5418C171.817 98.4367 171.817 98.3028 171.882 98.196C171.946 98.0909 172.065 98.0298 172.19 98.0417C172.255 98.0468 178.585 98.5859 181.75 96.7262C181.831 96.6787 181.933 96.6685 182.024 96.7007C182.114 96.7313 182.186 96.8025 182.221 96.8923C182.302 97.1059 184.225 102.149 184.867 104.54C184.947 104.833 185.042 105.135 185.144 105.453C185.791 107.478 186.592 109.988 183.12 111.848L184.366 118.468L188.099 119.031C188.229 119.051 188.334 119.146 188.368 119.273C188.4 119.401 188.355 119.535 188.25 119.616L184.82 122.24C182.762 123.817 180.207 124.668 177.63 124.668Z" fill="black" fill-opacity="0.6"/>
<path d="M179.056 112.836C175.394 112.836 174.03 110.006 174.014 109.969C173.938 109.804 174.009 109.61 174.174 109.534C174.335 109.458 174.531 109.529 174.607 109.693C174.689 109.867 176.654 113.871 182.626 111.366C182.795 111.297 182.987 111.376 183.056 111.542C183.126 111.709 183.048 111.901 182.88 111.971C181.394 112.593 180.128 112.836 179.056 112.836Z" fill="black" fill-opacity="0.6"/>
<path d="M169.48 100.239L170.707 103.823C170.707 103.823 178.512 108.488 187.803 106.598C189.078 106.339 189.889 105.079 189.599 103.811L188.884 97.5076C188.598 96.2528 187.343 95.4696 186.09 95.7658L169.48 100.239Z" fill="white"/>
<path d="M170.977 103.599C171.921 104.125 179.251 108.003 187.739 106.277C188.267 106.17 188.718 105.861 189.012 105.406C189.305 104.951 189.402 104.411 189.281 103.883C189.279 103.871 189.277 103.859 189.276 103.847L188.56 97.562C188.439 97.0475 188.126 96.6113 187.677 96.3319C187.224 96.049 186.686 95.9604 186.168 96.0831L169.903 100.462L170.977 103.599ZM183.309 107.371C176.105 107.371 170.604 104.142 170.539 104.103C170.473 104.064 170.422 104.001 170.398 103.927L169.171 100.344C169.141 100.257 169.148 100.164 169.191 100.084C169.233 100.004 169.308 99.9439 169.394 99.9218L186.006 95.4476C186.708 95.2823 187.422 95.3999 188.025 95.7764C188.628 96.153 189.047 96.7408 189.206 97.4342C189.207 97.4462 189.207 97.4581 189.209 97.47L189.925 103.757C190.078 104.452 189.95 105.163 189.562 105.762C189.173 106.365 188.57 106.776 187.87 106.919C186.301 107.238 184.769 107.371 183.309 107.371Z" fill="black" fill-opacity="0.6"/>
<path d="M178.311 104.51C178.227 104.51 178.144 104.478 178.078 104.415C177.95 104.286 177.95 104.079 178.078 103.951L181.055 100.975C181.182 100.847 181.389 100.847 181.518 100.975C181.646 101.102 181.646 101.311 181.518 101.438L178.543 104.415C178.479 104.478 178.394 104.51 178.311 104.51Z" fill="black" fill-opacity="0.6"/>
<path d="M182.754 103.931C182.67 103.931 182.587 103.899 182.522 103.835C182.394 103.708 182.394 103.501 182.522 103.373L186.98 98.9147C187.108 98.7868 187.315 98.7868 187.442 98.9147C187.57 99.0425 187.57 99.2495 187.442 99.3773L182.984 103.835C182.92 103.899 182.838 103.931 182.754 103.931Z" fill="black" fill-opacity="0.6"/>
<path d="M127.665 284.019C127.662 284.019 127.659 284.019 127.656 284.019C117.411 283.746 110.897 281.052 108.297 276.012L52.0751 167.026C51.9922 166.865 52.0553 166.668 52.2161 166.585C52.3765 166.503 52.5742 166.565 52.6575 166.726C55.7286 172.68 64.9005 175.249 79.1828 174.155C93.2345 173.081 111.256 168.553 131.298 161.061C135.36 159.544 139.923 161.306 141.911 165.161L190.519 259.386C191.646 261.568 191.78 264.135 190.888 266.423C189.994 268.718 188.155 270.519 185.842 271.368C180.035 273.495 174.319 275.399 168.851 277.024C168.678 277.076 168.495 276.978 168.444 276.803C168.392 276.63 168.49 276.448 168.665 276.396C174.119 274.776 179.823 272.876 185.617 270.752C187.753 269.968 189.451 268.305 190.276 266.186C191.1 264.071 190.976 261.703 189.936 259.686L141.329 165.461C139.493 161.901 135.278 160.274 131.527 161.676C107.82 170.536 87.5336 175.053 73.2372 175.053C64.5041 175.055 58.0075 173.369 54.3255 169.96L108.88 275.713C111.327 280.456 117.826 283.101 127.673 283.364C127.854 283.368 127.997 283.519 127.992 283.699C127.987 283.877 127.842 284.019 127.665 284.019Z" fill="black" fill-opacity="0.6"/>
<path d="M154.932 280.682C154.783 280.682 154.649 280.58 154.613 280.427C154.574 280.251 154.685 280.075 154.861 280.035C159.252 279.038 163.896 277.813 168.665 276.396C168.838 276.345 169.02 276.444 169.072 276.617C169.123 276.791 169.024 276.973 168.851 277.024C164.069 278.446 159.411 279.674 155.005 280.675C154.982 280.68 154.956 280.682 154.932 280.682Z" fill="white"/>
<path d="M137.66 283.599C137.494 283.599 137.351 283.473 137.335 283.304C137.317 283.123 137.448 282.964 137.628 282.946C142.844 282.427 148.641 281.448 154.861 280.035C155.038 279.995 155.213 280.105 155.253 280.283C155.293 280.459 155.183 280.635 155.005 280.675C148.76 282.092 142.935 283.077 137.693 283.598C137.682 283.599 137.671 283.599 137.66 283.599Z" fill="black" fill-opacity="0.6"/>
<path d="M129.348 284.041C128.773 284.041 128.209 284.034 127.656 284.019C127.475 284.014 127.332 283.863 127.337 283.681C127.342 283.501 127.492 283.358 127.673 283.364C130.687 283.443 134.035 283.302 137.628 282.946C137.809 282.928 137.969 283.059 137.987 283.24C138.005 283.419 137.873 283.58 137.693 283.598C134.732 283.892 131.933 284.041 129.348 284.041Z" fill="white"/>
<path d="M218.777 256.408C215.657 256.408 212.633 254.71 211.121 251.778C211.038 251.617 211.099 251.42 211.262 251.336C211.422 251.253 211.62 251.317 211.703 251.478C213.669 255.29 218.405 256.843 222.257 254.941C224.388 253.888 226.542 252.8 228.661 251.706C256.594 237.297 281.237 220.621 298.051 204.75C314.771 188.968 321.73 175.922 317.651 168.013L263.106 62.2806C264.186 70.5261 256.964 82.3779 242.279 96.2397C225.422 112.151 200.725 128.865 172.739 143.303C170.691 144.359 168.609 145.412 166.555 146.428C164.641 147.376 163.22 149.014 162.553 151.042C161.886 153.075 162.058 155.244 163.04 157.147L179.1 188.278C179.183 188.44 179.121 188.637 178.959 188.72C178.798 188.804 178.601 188.74 178.518 188.58L162.458 157.445C161.396 155.386 161.208 153.04 161.931 150.838C162.653 148.642 164.192 146.868 166.264 145.841C168.315 144.826 170.392 143.776 172.438 142.721C200.373 128.311 225.017 111.635 241.828 95.7649C258.535 79.9941 265.498 66.9553 261.437 59.0462L261.429 59.0284C261.346 58.8661 261.409 58.6703 261.569 58.5872C261.729 58.5041 261.927 58.5674 262.012 58.7276L318.233 167.713C322.458 175.904 315.451 189.226 298.5 205.226C281.645 221.138 256.948 237.852 228.961 252.29C226.839 253.383 224.68 254.474 222.546 255.527C221.339 256.126 220.049 256.408 218.777 256.408Z" fill="black" fill-opacity="0.6"/>
<path d="M211.412 251.956C211.293 251.956 211.179 251.891 211.121 251.778L200.122 230.459C200.04 230.298 200.103 230.099 200.264 230.017C200.423 229.934 200.622 229.996 200.704 230.157L211.703 251.478C211.785 251.638 211.722 251.836 211.561 251.918C211.513 251.944 211.463 251.956 211.412 251.956Z" fill="white"/>
<path d="M200.413 230.636C200.295 230.636 200.18 230.571 200.122 230.459L195.443 221.387C195.359 221.226 195.424 221.029 195.585 220.946C195.744 220.864 195.943 220.926 196.025 221.088L200.704 230.157C200.787 230.319 200.725 230.516 200.564 230.599C200.516 230.624 200.464 230.636 200.413 230.636Z" fill="black" fill-opacity="0.6"/>
<path d="M195.734 221.565C195.616 221.565 195.501 221.501 195.443 221.387L178.518 188.58C178.436 188.419 178.498 188.22 178.66 188.138C178.819 188.055 179.018 188.117 179.1 188.278L196.025 221.088C196.108 221.249 196.046 221.446 195.885 221.529C195.837 221.553 195.785 221.565 195.734 221.565Z" fill="white"/>
<path d="M179.011 157.125C178.894 157.125 178.779 157.061 178.721 156.948C178.637 156.788 178.7 156.59 178.861 156.507C223.164 133.653 258.624 105.152 267.098 85.584C267.169 85.4181 267.361 85.3405 267.527 85.4128C267.695 85.4852 267.77 85.6776 267.7 85.8434C259.169 105.54 223.587 134.172 179.162 157.089C179.113 157.116 179.062 157.125 179.011 157.125Z" fill="black" fill-opacity="0.6"/>
<path d="M184.357 168.438C184.236 168.438 184.123 168.373 184.063 168.26C183.982 168.099 184.045 167.902 184.206 167.819C228.508 144.965 263.967 116.462 272.441 96.894C272.513 96.7279 272.705 96.6516 272.873 96.7245C273.037 96.7957 273.115 96.989 273.042 97.1551C264.513 116.85 228.932 145.482 184.506 168.4C184.458 168.426 184.408 168.438 184.357 168.438Z" fill="black" fill-opacity="0.6"/>
<path d="M203.88 172.08C203.765 172.08 203.655 172.02 203.595 171.913C203.506 171.756 203.561 171.556 203.719 171.467C214.779 165.197 225.17 158.612 234.599 151.893C234.747 151.787 234.951 151.823 235.056 151.969C235.16 152.117 235.126 152.321 234.978 152.426C225.531 159.158 215.123 165.757 204.041 172.037C203.991 172.066 203.936 172.08 203.88 172.08Z" fill="black" fill-opacity="0.6"/>
<path d="M242.423 146.855C242.326 146.855 242.227 146.813 242.162 146.727C242.053 146.584 242.08 146.379 242.223 146.268C260.613 132.208 273.243 118.69 277.784 108.206C277.856 108.04 278.05 107.965 278.214 108.037C278.38 108.109 278.457 108.302 278.385 108.468C273.802 119.052 261.1 132.661 242.621 146.789C242.563 146.835 242.492 146.855 242.423 146.855Z" fill="black" fill-opacity="0.6"/>
<path d="M223.205 175.075C223.096 175.075 222.989 175.021 222.928 174.92C222.831 174.766 222.879 174.565 223.033 174.469C234.021 167.608 244.009 160.564 252.721 153.532C252.864 153.419 253.069 153.441 253.183 153.582C253.296 153.722 253.274 153.929 253.133 154.042C244.401 161.091 234.389 168.15 223.379 175.025C223.325 175.059 223.266 175.075 223.205 175.075Z" fill="black" fill-opacity="0.6"/>
<path d="M258.915 149.108C258.823 149.108 258.73 149.069 258.666 148.996C258.548 148.859 258.561 148.652 258.699 148.533C271.138 137.733 279.585 127.701 283.13 119.517C283.202 119.352 283.392 119.275 283.559 119.347C283.726 119.418 283.802 119.611 283.731 119.779C280.148 128.051 271.641 138.165 259.129 149.028C259.066 149.082 258.99 149.108 258.915 149.108Z" fill="black" fill-opacity="0.6"/>
<path d="M205.73 213.684C205.613 213.684 205.498 213.619 205.439 213.507C205.357 213.346 205.42 213.149 205.581 213.065C207.601 212.022 209.644 210.948 211.648 209.871C211.807 209.786 212.006 209.845 212.092 210.005C212.177 210.165 212.118 210.363 211.958 210.448C209.95 211.527 207.906 212.603 205.881 213.647C205.833 213.672 205.781 213.684 205.73 213.684Z" fill="black" fill-opacity="0.6"/>
<path d="M211.803 210.487C211.686 210.487 211.573 210.424 211.515 210.315C211.428 210.156 211.488 209.957 211.648 209.871C218.087 206.414 224.418 202.79 230.463 199.101C230.617 199.007 230.82 199.057 230.914 199.21C231.008 199.366 230.96 199.567 230.805 199.661C224.749 203.357 218.408 206.985 211.958 210.448C211.909 210.475 211.855 210.487 211.803 210.487Z" fill="white"/>
<path d="M230.633 199.709C230.523 199.709 230.416 199.654 230.353 199.553C230.259 199.399 230.308 199.196 230.462 199.102C246.581 189.27 260.949 178.804 272.015 168.833C283.002 158.932 290.541 149.704 293.816 142.141C293.887 141.976 294.078 141.899 294.246 141.971C294.413 142.043 294.488 142.237 294.416 142.401C287.616 158.105 263.836 179.51 230.805 199.662C230.751 199.694 230.693 199.709 230.633 199.709Z" fill="black" fill-opacity="0.6"/>
<path d="M211.075 224.995C210.957 224.995 210.842 224.931 210.784 224.818C210.7 224.656 210.764 224.459 210.924 224.376C217.911 220.773 224.792 216.97 231.378 213.074C231.533 212.982 231.734 213.034 231.827 213.189C231.919 213.346 231.867 213.546 231.712 213.638C225.114 217.54 218.223 221.349 211.225 224.959C211.176 224.983 211.125 224.995 211.075 224.995Z" fill="white"/>
<path d="M231.545 213.684C231.433 213.684 231.325 213.626 231.264 213.523C231.17 213.368 231.223 213.166 231.378 213.074C266.175 192.49 292.147 169.644 299.161 153.452C299.232 153.286 299.424 153.209 299.591 153.282C299.758 153.354 299.834 153.545 299.762 153.711C292.697 170.025 266.622 192.987 231.713 213.638C231.659 213.669 231.602 213.684 231.545 213.684Z" fill="black" fill-opacity="0.6"/>
<path d="M216.419 236.307C216.3 236.307 216.185 236.242 216.127 236.13C216.045 235.969 216.107 235.77 216.268 235.688C220.354 233.58 224.433 231.39 228.389 229.177C228.546 229.089 228.746 229.146 228.836 229.304C228.924 229.462 228.867 229.661 228.709 229.75C224.746 231.966 220.661 234.159 216.568 236.27C216.521 236.295 216.47 236.307 216.419 236.307Z" fill="black" fill-opacity="0.6"/>
<path d="M228.549 229.792C228.435 229.792 228.325 229.731 228.263 229.623C228.175 229.465 228.231 229.265 228.39 229.177C267.039 207.57 296.917 182.287 304.505 164.763C304.578 164.598 304.769 164.521 304.935 164.592C305.102 164.665 305.177 164.858 305.106 165.025C301.361 173.667 292.298 184.26 278.894 195.658C265.332 207.188 247.978 218.976 228.709 229.75C228.658 229.778 228.604 229.792 228.549 229.792Z" fill="black" fill-opacity="0.6"/>
<path d="M280.923 243.864C280.822 243.864 280.722 243.818 280.658 243.73C280.551 243.584 280.583 243.378 280.729 243.272C281.796 242.492 282.858 241.705 283.885 240.934C284.029 240.825 284.235 240.855 284.344 241C284.452 241.144 284.424 241.349 284.279 241.458C283.249 242.231 282.185 243.02 281.115 243.8C281.058 243.843 280.989 243.864 280.923 243.864ZM274.517 248.425C274.414 248.425 274.313 248.376 274.248 248.284C274.145 248.136 274.18 247.931 274.33 247.829C275.403 247.082 276.485 246.322 277.545 245.57C277.691 245.464 277.895 245.5 278 245.646C278.105 245.793 278.07 245.998 277.923 246.104C276.864 246.857 275.78 247.62 274.704 248.367C274.646 248.406 274.581 248.425 274.517 248.425ZM268.011 252.836C267.905 252.836 267.802 252.783 267.739 252.688C267.638 252.537 267.678 252.334 267.831 252.234C268.931 251.506 270.016 250.778 271.091 250.05C271.24 249.949 271.444 249.987 271.547 250.138C271.648 250.287 271.608 250.492 271.459 250.593C270.383 251.321 269.294 252.051 268.193 252.78C268.137 252.818 268.074 252.836 268.011 252.836ZM261.415 257.106C261.306 257.106 261.2 257.052 261.137 256.953C261.041 256.8 261.087 256.598 261.238 256.502C262.354 255.796 263.455 255.09 264.545 254.384C264.697 254.286 264.901 254.329 264.999 254.481C265.097 254.634 265.055 254.837 264.901 254.935C263.811 255.642 262.706 256.348 261.591 257.055C261.537 257.089 261.476 257.106 261.415 257.106ZM254.736 261.246C254.624 261.246 254.518 261.189 254.457 261.088C254.363 260.933 254.412 260.731 254.565 260.637C255.692 259.954 256.806 259.271 257.912 258.586C258.066 258.49 258.268 258.537 258.364 258.692C258.458 258.845 258.411 259.047 258.258 259.142C257.151 259.829 256.033 260.513 254.905 261.198C254.853 261.23 254.794 261.246 254.736 261.246Z" fill="black" fill-opacity="0.6"/>
<path d="M287.285 239.081C287.187 239.081 287.091 239.037 287.027 238.953C286.916 238.811 286.941 238.605 287.084 238.493C288.124 237.691 289.163 236.875 290.173 236.067C290.314 235.956 290.521 235.978 290.633 236.12C290.746 236.261 290.722 236.467 290.582 236.581C289.568 237.388 288.527 238.207 287.485 239.013C287.426 239.059 287.357 239.081 287.285 239.081ZM284.082 241.524C283.982 241.524 283.884 241.479 283.818 241.392C283.709 241.248 283.739 241.043 283.884 240.934L283.962 240.875C284.108 240.766 284.314 240.796 284.421 240.94C284.529 241.085 284.501 241.291 284.355 241.4L284.278 241.458C284.219 241.503 284.149 241.524 284.082 241.524Z" fill="white"/>
<path d="M292.922 234.595C292.826 234.595 292.731 234.554 292.668 234.475C292.553 234.335 292.571 234.129 292.713 234.014C293.742 233.168 294.756 232.322 295.727 231.499C295.865 231.381 296.071 231.399 296.189 231.536C296.305 231.675 296.289 231.881 296.151 231.999C295.176 232.825 294.162 233.673 293.129 234.52C293.068 234.571 292.993 234.595 292.922 234.595Z" fill="black" fill-opacity="0.6"/>
<path d="M298.586 229.792C298.495 229.792 298.404 229.755 298.339 229.68C298.219 229.544 298.234 229.337 298.369 229.217C299.364 228.343 300.347 227.463 301.292 226.599C301.425 226.476 301.634 226.485 301.756 226.62C301.877 226.752 301.868 226.96 301.734 227.082C300.786 227.949 299.801 228.834 298.802 229.71C298.739 229.765 298.662 229.792 298.586 229.792Z" fill="white"/>
<path d="M321.136 204.475C321.079 204.475 321.021 204.46 320.97 204.429C320.813 204.336 320.761 204.135 320.855 203.98C321.547 202.814 322.172 201.66 322.71 200.547C322.789 200.384 322.985 200.317 323.148 200.396C323.311 200.475 323.38 200.671 323.299 200.833C322.751 201.962 322.12 203.134 321.418 204.314C321.356 204.418 321.247 204.475 321.136 204.475ZM316.704 210.967C316.637 210.967 316.565 210.944 316.506 210.898C316.363 210.789 316.337 210.583 316.444 210.439C317.264 209.372 318.037 208.306 318.746 207.273C318.847 207.123 319.051 207.085 319.202 207.188C319.351 207.289 319.388 207.493 319.285 207.642C318.571 208.685 317.791 209.761 316.966 210.837C316.903 210.922 316.805 210.967 316.704 210.967ZM311.669 217.003C311.592 217.003 311.514 216.975 311.451 216.918C311.318 216.797 311.306 216.59 311.427 216.456C312.318 215.464 313.185 214.469 313.996 213.496C314.113 213.359 314.318 213.339 314.458 213.455C314.597 213.572 314.615 213.778 314.5 213.916C313.681 214.895 312.812 215.896 311.915 216.894C311.848 216.966 311.76 217.003 311.669 217.003ZM306.235 222.683C306.15 222.683 306.066 222.652 306.003 222.587C305.874 222.458 305.876 222.251 306.005 222.123C306.947 221.191 307.874 220.251 308.759 219.329C308.882 219.198 309.092 219.194 309.221 219.319C309.352 219.444 309.358 219.652 309.231 219.781C308.342 220.71 307.413 221.654 306.465 222.59C306.402 222.652 306.318 222.683 306.235 222.683ZM301.513 227.168C301.426 227.168 301.337 227.131 301.271 227.061C301.15 226.928 301.16 226.721 301.293 226.598C301.932 226.012 302.563 225.429 303.18 224.847C303.311 224.723 303.519 224.729 303.642 224.86C303.767 224.993 303.761 225.2 303.628 225.324C303.009 225.908 302.376 226.494 301.735 227.082C301.672 227.139 301.593 227.168 301.513 227.168Z" fill="black" fill-opacity="0.6"/>
<path d="M83.4773 261.833C83.3837 261.833 83.2908 261.794 83.226 261.716C83.1099 261.577 83.1281 261.37 83.2667 261.254C83.8744 260.745 84.49 260.235 85.1131 259.724C85.2533 259.61 85.4595 259.63 85.5744 259.769C85.6891 259.909 85.6686 260.117 85.5288 260.23C84.9072 260.74 84.2935 261.249 83.6876 261.757C83.6263 261.807 83.5516 261.833 83.4773 261.833ZM77.5428 266.992C77.4533 266.992 77.3642 266.956 77.2996 266.885C77.1782 266.75 77.1886 266.543 77.3229 266.422C78.2788 265.557 79.2707 264.678 80.2709 263.809C80.4078 263.69 80.6147 263.705 80.733 263.842C80.8518 263.978 80.8372 264.185 80.7006 264.305C79.7037 265.17 78.7151 266.046 77.7623 266.907C77.6996 266.964 77.621 266.992 77.5428 266.992ZM71.8286 272.394C71.7443 272.394 71.66 272.362 71.596 272.297C71.4684 272.169 71.4695 271.962 71.5979 271.833C72.5087 270.931 73.4613 270.009 74.4295 269.094C74.5611 268.97 74.7682 268.976 74.8927 269.108C75.017 269.239 75.011 269.446 74.8795 269.57C73.9152 270.482 72.9664 271.399 72.0593 272.299C71.9954 272.363 71.9119 272.394 71.8286 272.394ZM66.4044 278.086C66.3267 278.086 66.2487 278.06 66.1862 278.003C66.0513 277.882 66.04 277.675 66.1605 277.54C67.0126 276.588 67.9133 275.616 68.8376 274.646C68.9629 274.516 69.17 274.512 69.3009 274.635C69.4319 274.761 69.4368 274.968 69.3119 275.099C68.3921 276.063 67.4961 277.032 66.6487 277.978C66.5839 278.049 66.4944 278.086 66.4044 278.086ZM61.3851 284.137C61.3158 284.137 61.2463 284.116 61.1871 284.071C61.0429 283.96 61.0149 283.755 61.1246 283.611C61.8929 282.6 62.7198 281.561 63.5823 280.524C63.698 280.386 63.9049 280.366 64.0437 280.483C64.1829 280.597 64.202 280.805 64.0863 280.944C63.2296 281.973 62.4089 283.004 61.6462 284.008C61.5817 284.092 61.484 284.137 61.3851 284.137ZM56.9816 290.646C56.9253 290.646 56.8682 290.631 56.816 290.601C56.66 290.509 56.6077 290.309 56.6993 290.152C57.3365 289.066 58.0488 287.943 58.8158 286.815C58.9176 286.665 59.1214 286.627 59.271 286.728C59.4208 286.83 59.4596 287.034 59.3579 287.183C58.5987 288.299 57.8945 289.411 57.2645 290.483C57.2034 290.588 57.0939 290.646 56.9816 290.646ZM53.6364 297.747C53.6011 297.747 53.5653 297.741 53.5301 297.729C53.359 297.669 53.2678 297.482 53.3265 297.312C53.7323 296.129 54.2405 294.895 54.837 293.645C54.9147 293.481 55.1105 293.412 55.2737 293.49C55.4369 293.569 55.506 293.764 55.4281 293.927C54.8426 295.155 54.344 296.365 53.9462 297.524C53.8997 297.66 53.7726 297.747 53.6364 297.747ZM52.3843 305.456C52.2108 305.456 52.0662 305.318 52.0574 305.144C52.0439 304.878 52.0372 304.61 52.0372 304.338C52.0372 303.321 52.133 302.251 52.3221 301.16C52.3531 300.981 52.5223 300.862 52.7007 300.893C52.879 300.924 52.9985 301.093 52.9676 301.272C52.7852 302.327 52.6925 303.358 52.6925 304.338C52.6925 304.598 52.6989 304.856 52.7116 305.111C52.7209 305.292 52.5818 305.445 52.401 305.454C52.3955 305.456 52.3898 305.456 52.3843 305.456ZM157.026 306.621C156.888 306.621 156.761 306.534 156.715 306.397C156.657 306.226 156.75 306.039 156.921 305.982C158.155 305.568 159.395 305.145 160.641 304.714C160.811 304.656 160.997 304.747 161.057 304.917C161.117 305.089 161.026 305.275 160.854 305.335C159.607 305.766 158.365 306.188 157.13 306.603C157.096 306.615 157.06 306.621 157.026 306.621ZM149.548 309.053C149.407 309.053 149.279 308.963 149.234 308.823C149.18 308.65 149.276 308.467 149.449 308.413C150.689 308.022 151.936 307.624 153.191 307.215C153.363 307.16 153.548 307.254 153.604 307.425C153.66 307.598 153.566 307.782 153.394 307.838C152.138 308.247 150.887 308.647 149.646 309.038C149.613 309.048 149.579 309.053 149.548 309.053ZM142.022 311.337C141.881 311.337 141.75 311.245 141.708 311.101C141.657 310.928 141.757 310.746 141.931 310.696C143.178 310.33 144.433 309.957 145.696 309.574C145.868 309.52 146.051 309.618 146.104 309.791C146.157 309.965 146.059 310.148 145.886 310.2C144.621 310.584 143.364 310.958 142.115 311.324C142.084 311.333 142.053 311.337 142.022 311.337ZM54.9714 312.752C54.8719 312.752 54.7736 312.707 54.7093 312.622C54.1532 311.882 53.6763 311.088 53.2922 310.261C53.1142 309.878 52.9532 309.483 52.8134 309.083C52.7535 308.913 52.8434 308.725 53.0142 308.665C53.1846 308.605 53.3718 308.696 53.4318 308.866C53.5644 309.245 53.7174 309.621 53.8863 309.985C54.2514 310.77 54.7043 311.524 55.2329 312.228C55.3417 312.373 55.3126 312.577 55.168 312.686C55.109 312.731 55.0399 312.752 54.9714 312.752ZM134.451 313.462C134.306 313.462 134.174 313.365 134.134 313.219C134.087 313.044 134.191 312.863 134.366 312.817C135.615 312.482 136.89 312.132 138.154 311.777C138.328 311.728 138.509 311.83 138.558 312.004C138.607 312.179 138.505 312.359 138.331 312.408C137.064 312.764 135.787 313.114 134.536 313.45C134.507 313.457 134.479 313.462 134.451 313.462ZM126.832 315.409C126.684 315.409 126.55 315.309 126.514 315.158C126.471 314.982 126.579 314.806 126.755 314.763C128.01 314.458 129.292 314.139 130.566 313.812C130.743 313.768 130.92 313.874 130.965 314.05C131.01 314.224 130.904 314.403 130.729 314.448C129.452 314.775 128.167 315.094 126.91 315.4C126.884 315.406 126.858 315.409 126.832 315.409ZM119.166 317.159C119.014 317.159 118.878 317.055 118.845 316.901C118.808 316.723 118.92 316.549 119.097 316.511C120.357 316.243 121.647 315.956 122.932 315.662C123.108 315.622 123.284 315.733 123.325 315.91C123.365 316.086 123.255 316.262 123.078 316.303C121.79 316.596 120.497 316.883 119.234 317.151C119.211 317.157 119.188 317.159 119.166 317.159ZM61.0631 317.604C61.0138 317.604 60.9639 317.592 60.9167 317.568C59.6631 316.941 58.5244 316.231 57.5321 315.46C57.3893 315.349 57.3637 315.143 57.4747 315C57.5857 314.857 57.7916 314.831 57.9344 314.942C58.8928 315.688 59.995 316.374 61.21 316.983C61.3719 317.063 61.4374 317.26 61.3564 317.422C61.299 317.536 61.1833 317.604 61.0631 317.604ZM111.452 318.685C111.296 318.685 111.158 318.575 111.129 318.417C111.097 318.239 111.215 318.068 111.393 318.036C112.661 317.806 113.959 317.559 115.251 317.304C115.428 317.268 115.601 317.384 115.636 317.562C115.671 317.739 115.556 317.911 115.378 317.947C114.083 318.203 112.781 318.45 111.51 318.681C111.49 318.684 111.471 318.685 111.452 318.685ZM103.69 319.95C103.53 319.95 103.39 319.833 103.366 319.67C103.341 319.491 103.465 319.324 103.644 319.298C104.915 319.116 106.221 318.915 107.524 318.703C107.701 318.673 107.871 318.794 107.9 318.973C107.929 319.152 107.808 319.321 107.63 319.349C106.322 319.563 105.013 319.764 103.737 319.947C103.721 319.95 103.706 319.95 103.69 319.95ZM68.4832 320.143C68.4594 320.143 68.4354 320.14 68.4112 320.135C67.0633 319.833 65.7784 319.478 64.5917 319.079C64.4199 319.021 64.3276 318.836 64.385 318.664C64.4426 318.493 64.629 318.4 64.8 318.458C65.9655 318.849 67.2288 319.199 68.5547 319.495C68.7312 319.536 68.8422 319.71 68.8027 319.888C68.7684 320.04 68.6332 320.143 68.4832 320.143ZM95.8846 320.902C95.7181 320.902 95.5754 320.776 95.5589 320.607C95.541 320.426 95.6727 320.267 95.8526 320.249C97.1213 320.124 98.4337 319.979 99.7532 319.816C99.9327 319.795 100.096 319.922 100.118 320.103C100.14 320.282 100.012 320.446 99.8329 320.467C98.5083 320.629 97.1908 320.776 95.917 320.901C95.9059 320.902 95.8952 320.902 95.8846 320.902ZM76.2561 321.287C76.2472 321.287 76.2378 321.287 76.2287 321.287C74.8726 321.174 73.5516 321.026 72.3026 320.846C72.1236 320.82 71.9993 320.653 72.0253 320.474C72.0511 320.295 72.217 320.171 72.3963 320.197C73.6323 320.376 74.9397 320.522 76.2827 320.634C76.4631 320.649 76.5972 320.807 76.5823 320.987C76.5679 321.159 76.4247 321.287 76.2561 321.287ZM88.0422 321.463C87.8675 321.463 87.7224 321.325 87.715 321.149C87.7074 320.968 87.8478 320.816 88.0286 320.808C89.299 320.755 90.6163 320.679 91.9441 320.583C92.1259 320.57 92.2815 320.705 92.2945 320.886C92.3075 321.066 92.1717 321.223 91.9912 321.237C90.6569 321.334 89.3331 321.41 88.056 321.462C88.0514 321.463 88.0468 321.463 88.0422 321.463ZM83.3498 321.565C82.269 321.565 81.1991 321.547 80.1698 321.513C79.9888 321.507 79.8471 321.356 79.8532 321.174C79.8591 320.993 80.0081 320.853 80.1917 320.858C81.4535 320.899 82.7694 320.916 84.1094 320.907C84.2837 320.896 84.4381 321.05 84.4394 321.232C84.4406 321.413 84.2952 321.56 84.1142 321.562C83.8582 321.563 83.6032 321.565 83.3498 321.565Z" fill="black" fill-opacity="0.6"/>
<path d="M113.329 73.201C110.61 68.4398 104.631 66.8527 100.084 69.7451C95.6498 72.5643 94.3073 78.4732 97.0446 83.1067C98.3642 85.3399 100.389 86.8631 102.66 87.5167C104.403 88.0182 105.899 89.1883 106.817 90.796L107.363 91.7521C107.814 92.5409 108.797 92.8114 109.559 92.3568L115.119 89.0362C115.881 88.5816 116.133 87.573 115.682 86.7823L115.139 85.832C114.233 84.2467 113.93 82.3591 114.37 80.5918C114.971 78.1783 114.661 75.5319 113.329 73.201Z" fill="#B4FF5C"/>
<path d="M115.65 96.4768C113.752 97.6094 111.304 96.9341 110.18 94.9673L108.859 92.6551L115.731 88.5506L117.052 90.8629C118.175 92.8296 117.548 95.3425 115.65 96.4768Z" fill="white"/>
<path d="M109.304 92.7703L110.465 94.8023C110.974 95.6933 111.788 96.3241 112.756 96.5792C113.689 96.8238 114.657 96.6875 115.483 96.193C117.225 95.1535 117.801 92.8332 116.768 91.0249L115.613 89.0016L109.304 92.7703ZM113.67 97.3531C113.31 97.3531 112.948 97.306 112.59 97.2134C111.45 96.9129 110.493 96.1721 109.896 95.1273L108.575 92.8157C108.487 92.6602 108.539 92.4628 108.692 92.372L115.564 88.2678C115.639 88.2224 115.729 88.2102 115.815 88.2329C115.9 88.2556 115.972 88.3098 116.016 88.3866L117.337 90.6999C118.546 92.8175 117.865 95.5343 115.819 96.7556C115.158 97.1505 114.42 97.3531 113.67 97.3531Z" fill="black" fill-opacity="0.6"/>
<path d="M96.9459 63.7354C96.8324 63.7354 96.7221 63.6767 96.6613 63.5713L91.844 55.1667C91.7541 55.0104 91.8084 54.8093 91.9655 54.7194C92.1221 54.6296 92.3227 54.6843 92.4127 54.8405L97.2299 63.2451C97.3199 63.4033 97.2656 63.6025 97.1084 63.6924C97.0572 63.7217 97.0012 63.7354 96.9459 63.7354Z" fill="black" fill-opacity="0.6"/>
<path d="M81.0399 94.9153C80.9262 94.9153 80.8158 94.8558 80.7552 94.7509C80.6654 94.5935 80.7198 94.3941 80.8767 94.3032L91.828 88.0319C91.9854 87.9427 92.1853 87.9969 92.2751 88.1543C92.365 88.3117 92.3106 88.5111 92.1538 88.6021L81.2025 94.8716C81.1511 94.9013 81.0951 94.9153 81.0399 94.9153Z" fill="black" fill-opacity="0.6"/>
<path d="M120.204 72.7897C120.089 72.7897 119.978 72.7294 119.918 72.6219C119.83 72.4636 119.886 72.2638 120.044 72.1752L131.37 65.8591C131.529 65.7705 131.728 65.8271 131.816 65.9854C131.904 66.1437 131.847 66.3435 131.69 66.4302L120.364 72.7482C120.313 72.7765 120.258 72.7897 120.204 72.7897Z" fill="black" fill-opacity="0.6"/>
<path d="M88.8167 75.7485C88.7871 75.7485 88.7572 75.7448 88.7275 75.7374L78.0736 72.7317C77.8995 72.6837 77.7981 72.5009 77.8472 72.3273C77.8963 72.1538 78.0776 72.0522 78.2516 72.1021L88.9053 75.106C89.0796 75.1559 89.181 75.3368 89.1317 75.5104C89.091 75.6544 88.9596 75.7485 88.8167 75.7485Z" fill="black" fill-opacity="0.6"/>
<path d="M111.092 63.7014C111.063 63.7014 111.033 63.6975 111.004 63.6896C110.83 63.6403 110.728 63.459 110.775 63.2856L113.883 52.026C113.931 51.8526 114.111 51.7501 114.286 51.7974C114.461 51.8467 114.563 52.0261 114.515 52.2015L111.407 63.459C111.367 63.6048 111.235 63.7014 111.092 63.7014Z" fill="black" fill-opacity="0.6"/>
<path d="M297.108 53.7215C297.102 53.7215 297.094 53.7215 297.088 53.7215C295.834 53.6505 294.518 53.6131 293.177 53.6072C292.993 53.6072 292.85 53.4595 292.85 53.2783C292.85 53.0971 292.997 52.9513 293.177 52.9513C294.532 52.9572 295.859 52.9966 297.126 53.0675C297.305 53.0774 297.443 53.231 297.433 53.4122C297.423 53.5875 297.279 53.7215 297.108 53.7215ZM285.32 53.9007C285.15 53.9007 285.006 53.7707 284.995 53.5974C284.981 53.4181 285.117 53.2605 285.296 53.2467C286.637 53.1463 287.959 53.0715 289.233 53.0222C289.407 53.0163 289.566 53.1562 289.572 53.3374C289.58 53.5186 289.44 53.6702 289.257 53.6762C287.992 53.7254 286.677 53.8002 285.345 53.9007C285.337 53.9007 285.327 53.9007 285.32 53.9007ZM304.902 54.6885C304.88 54.6885 304.859 54.6846 304.837 54.6807C303.624 54.4305 302.326 54.2217 300.984 54.0602C300.803 54.0386 300.675 53.8751 300.697 53.6958C300.718 53.5166 300.88 53.3886 301.061 53.4102C302.422 53.5737 303.738 53.7864 304.969 54.0386C305.146 54.076 305.258 54.2493 305.223 54.4266C305.192 54.5802 305.056 54.6885 304.902 54.6885ZM277.5 54.724C277.34 54.724 277.199 54.6038 277.177 54.4384C277.153 54.2592 277.279 54.0957 277.459 54.072C278.78 53.8948 280.096 53.7372 281.37 53.6013C281.554 53.5836 281.713 53.7136 281.731 53.8928C281.751 54.074 281.619 54.2355 281.439 54.2533C280.171 54.3872 278.861 54.5448 277.543 54.7201C277.532 54.722 277.516 54.724 277.5 54.724ZM269.734 55.9472C269.578 55.9472 269.44 55.8369 269.411 55.6773C269.379 55.5001 269.497 55.3287 269.675 55.2972C270.984 55.0608 272.292 54.8402 273.561 54.6393C273.74 54.6117 273.907 54.7339 273.935 54.9131C273.962 55.0904 273.84 55.2598 273.661 55.2873C272.399 55.4863 271.097 55.7069 269.793 55.9413C269.773 55.9452 269.753 55.9472 269.734 55.9472ZM312.343 57.1546C312.294 57.1546 312.243 57.1447 312.196 57.1211C311.108 56.5735 309.899 56.0831 308.603 55.6635C308.432 55.6084 308.337 55.4232 308.392 55.2519C308.447 55.0786 308.633 54.984 308.806 55.0411C310.131 55.4705 311.372 55.9728 312.491 56.5341C312.653 56.6149 312.718 56.8118 312.635 56.9734C312.58 57.0896 312.464 57.1546 312.343 57.1546ZM262.022 57.4894C261.873 57.4894 261.739 57.385 261.703 57.2334C261.664 57.0561 261.776 56.8808 261.953 56.8434C263.25 56.5578 264.546 56.2859 265.808 56.0338C265.983 55.9984 266.157 56.1126 266.192 56.2899C266.23 56.4671 266.113 56.6405 265.936 56.6759C264.679 56.9281 263.385 57.1999 262.095 57.4815C262.07 57.4874 262.046 57.4894 262.022 57.4894ZM254.372 59.2976C254.224 59.2976 254.091 59.1991 254.055 59.0514C254.01 58.8761 254.116 58.6968 254.291 58.6515C255.574 58.3285 256.86 58.0133 258.115 57.7179C258.294 57.6746 258.467 57.7849 258.509 57.9602C258.552 58.1374 258.442 58.3127 258.266 58.3541C257.014 58.6515 255.729 58.9647 254.453 59.2877C254.425 59.2956 254.398 59.2976 254.372 59.2976ZM246.775 61.3322C246.633 61.3322 246.499 61.2377 246.46 61.0939C246.411 60.9186 246.511 60.7374 246.687 60.6882C247.955 60.3297 249.231 59.9791 250.482 59.6442C250.657 59.5989 250.837 59.7013 250.884 59.8766C250.929 60.05 250.825 60.2312 250.652 60.2765C249.405 60.6113 248.13 60.9619 246.864 61.3204C246.834 61.3283 246.805 61.3322 246.775 61.3322ZM318.345 62.1043C318.243 62.1043 318.142 62.0551 318.079 61.9645C317.366 60.9521 316.482 60.0185 315.448 59.1853C315.306 59.073 315.286 58.8662 315.398 58.7244C315.513 58.5845 315.717 58.5609 315.859 58.6752C316.941 59.5457 317.866 60.5247 318.615 61.5863C318.717 61.734 318.684 61.9389 318.534 62.0433C318.477 62.0846 318.412 62.1043 318.345 62.1043ZM239.235 63.5639C239.096 63.5639 238.966 63.4733 238.922 63.3334C238.869 63.1601 238.966 62.9769 239.139 62.9237C240.394 62.5357 241.66 62.1516 242.905 61.7833C243.078 61.7301 243.261 61.8306 243.313 62.0039C243.364 62.1772 243.263 62.3584 243.09 62.4116C241.847 62.778 240.585 63.162 239.332 63.5481C239.3 63.5579 239.267 63.5639 239.235 63.5639ZM320.72 69.4788C320.545 69.4788 320.399 69.3389 320.393 69.1616C320.35 67.8301 320.139 66.5597 319.767 65.3838C319.714 65.2105 319.81 65.0273 319.982 64.9722C320.153 64.917 320.338 65.0135 320.393 65.1849C320.781 66.4179 321.002 67.7494 321.049 69.14C321.055 69.3212 320.913 69.4709 320.732 69.4788C320.728 69.4788 320.726 69.4788 320.72 69.4788ZM319.454 77.1959C319.422 77.1959 319.385 77.19 319.351 77.1782C319.18 77.121 319.087 76.9359 319.145 76.7645C319.57 75.4705 319.895 74.2059 320.104 73.0064C320.135 72.8272 320.301 72.709 320.482 72.7386C320.659 72.7701 320.779 72.9395 320.748 73.1187C320.535 74.3497 320.202 75.6458 319.767 76.9694C319.72 77.1073 319.592 77.1959 319.454 77.1959ZM316.243 84.3596C316.19 84.3596 316.135 84.3458 316.086 84.3182C315.928 84.2315 315.869 84.0306 315.958 83.8731C316.614 82.6873 317.206 81.5154 317.717 80.3887C317.791 80.2233 317.986 80.1504 318.15 80.2252C318.315 80.3001 318.388 80.4951 318.315 80.6586C317.795 81.8029 317.195 82.9906 316.531 84.1902C316.47 84.2985 316.358 84.3596 316.243 84.3596ZM312.024 90.9914C311.959 90.9914 311.892 90.9698 311.835 90.9304C311.687 90.824 311.652 90.6191 311.758 90.4734C312.538 89.3783 313.275 88.2871 313.953 87.2294C314.049 87.0777 314.252 87.0324 314.404 87.1309C314.555 87.2274 314.601 87.4303 314.504 87.5839C313.823 88.6495 313.078 89.7505 312.292 90.8536C312.229 90.9422 312.127 90.9914 312.024 90.9914ZM307.205 97.2018C307.13 97.2018 307.055 97.1762 306.994 97.1249C306.856 97.0087 306.838 96.8019 306.954 96.6641C307.811 95.6398 308.638 94.6136 309.416 93.613C309.529 93.4712 309.732 93.4436 309.875 93.5559C310.019 93.6662 310.045 93.873 309.934 94.0149C309.151 95.0214 308.317 96.0535 307.457 97.0836C307.392 97.1604 307.299 97.2018 307.205 97.2018ZM303.413 101.535C303.334 101.535 303.255 101.505 303.192 101.448C303.058 101.326 303.05 101.119 303.173 100.985C303.586 100.532 303.992 100.081 304.392 99.6323C304.512 99.4964 304.719 99.4846 304.855 99.6048C304.989 99.7249 305 99.9317 304.882 100.068C304.479 100.519 304.071 100.972 303.655 101.429C303.592 101.5 303.502 101.535 303.413 101.535Z" fill="black" fill-opacity="0.6"/>
<path d="M85.1854 147.181C85.0935 147.181 85.0024 147.143 84.9376 147.068C84.8193 146.931 84.8339 146.725 84.9707 146.605C85.946 145.761 86.9537 144.9 87.9655 144.05C88.1042 143.933 88.3103 143.951 88.4271 144.09C88.5435 144.229 88.5256 144.435 88.3871 144.552C87.3778 145.4 86.3728 146.258 85.3998 147.101C85.3379 147.154 85.2614 147.181 85.1854 147.181ZM79.3263 152.426C79.2383 152.426 79.1504 152.391 79.086 152.321C78.963 152.188 78.9708 151.981 79.1036 151.859C80.0489 150.983 81.0287 150.091 82.0154 149.207C82.1504 149.087 82.3576 149.099 82.478 149.233C82.5987 149.369 82.5874 149.574 82.4525 149.695C81.4684 150.576 80.4916 151.465 79.549 152.339C79.486 152.397 79.4062 152.426 79.3263 152.426ZM73.6612 157.88C73.5777 157.88 73.494 157.848 73.43 157.785C73.3018 157.657 73.3015 157.449 73.4294 157.321C74.3363 156.411 75.2821 155.483 76.2398 154.561C76.3702 154.437 76.5779 154.44 76.7031 154.57C76.8286 154.701 76.8246 154.908 76.6942 155.034C75.7396 155.951 74.7974 156.878 73.8932 157.783C73.8292 157.848 73.7452 157.88 73.6612 157.88ZM68.2409 163.577C68.1626 163.577 68.084 163.549 68.0213 163.492C67.887 163.371 67.8766 163.164 67.998 163.029C68.8579 162.079 69.7601 161.108 70.6793 160.142C70.8045 160.011 71.0116 160.007 71.1424 160.13C71.2737 160.256 71.2786 160.463 71.1538 160.594C70.2386 161.555 69.3402 162.522 68.4841 163.469C68.4194 163.541 68.3303 163.577 68.2409 163.577ZM63.1447 169.564C63.0732 169.564 63.0013 169.54 62.9409 169.493C62.7993 169.381 62.7757 169.175 62.8884 169.033C63.6821 168.035 64.526 167.011 65.3964 165.991C65.5137 165.852 65.7206 165.836 65.8585 165.954C65.9961 166.072 66.0125 166.277 65.8954 166.416C65.0294 167.431 64.1903 168.45 63.4013 169.44C63.3366 169.523 63.2411 169.564 63.1447 169.564ZM58.5068 175.911C58.4448 175.911 58.3818 175.893 58.3263 175.858C58.1753 175.758 58.134 175.555 58.2339 175.403C58.9338 174.346 59.6937 173.257 60.4927 172.166C60.5997 172.02 60.8048 171.989 60.9504 172.096C61.0965 172.202 61.1283 172.408 61.0211 172.554C60.2283 173.636 59.4744 174.716 58.7803 175.765C58.7173 175.861 58.6131 175.911 58.5068 175.911ZM54.5793 182.716C54.5315 182.716 54.4826 182.706 54.4365 182.683C54.2737 182.604 54.206 182.409 54.2848 182.246C54.8343 181.114 55.4611 179.94 56.1477 178.758C56.2388 178.601 56.4394 178.548 56.5956 178.639C56.7521 178.73 56.8052 178.93 56.7145 179.086C56.0359 180.254 55.4167 181.414 54.8744 182.531C54.8177 182.649 54.7009 182.716 54.5793 182.716ZM51.9037 190.09C51.8798 190.09 51.8556 190.087 51.8315 190.081C51.6548 190.042 51.544 189.866 51.5836 189.69C51.8577 188.469 52.2412 187.191 52.7234 185.887C52.7862 185.717 52.9752 185.63 53.1443 185.693C53.3139 185.755 53.4008 185.943 53.3381 186.114C52.8659 187.391 52.4908 188.643 52.223 189.833C52.1887 189.985 52.0535 190.09 51.9037 190.09ZM142.972 197.763C142.836 197.763 142.709 197.678 142.662 197.542C142.604 197.371 142.695 197.184 142.866 197.126C144.096 196.705 145.333 196.274 146.576 195.834C146.747 195.774 146.934 195.864 146.994 196.034C147.055 196.205 146.965 196.392 146.795 196.452C145.549 196.893 144.31 197.324 143.078 197.745C143.043 197.757 143.007 197.763 142.972 197.763ZM51.7181 197.882C51.5678 197.882 51.4325 197.778 51.3986 197.626C51.1628 196.565 51.0432 195.434 51.0432 194.266C51.0432 194.058 51.047 193.848 51.0544 193.638C51.0611 193.457 51.209 193.314 51.3936 193.321C51.5744 193.327 51.7158 193.48 51.7094 193.66C51.7023 193.865 51.6985 194.066 51.6985 194.266C51.6985 195.386 51.8127 196.47 52.0383 197.484C52.0775 197.66 51.966 197.835 51.7894 197.875C51.7657 197.879 51.7415 197.882 51.7181 197.882ZM135.505 200.229C135.366 200.229 135.237 200.14 135.193 200.001C135.138 199.828 135.233 199.645 135.406 199.589C136.643 199.195 137.889 198.793 139.142 198.378C139.314 198.321 139.499 198.415 139.556 198.587C139.613 198.758 139.52 198.943 139.348 199C138.092 199.415 136.844 199.819 135.604 200.214C135.571 200.225 135.538 200.229 135.505 200.229ZM127.984 202.526C127.842 202.526 127.711 202.433 127.669 202.29C127.619 202.115 127.718 201.935 127.892 201.883C129.134 201.52 130.4 201.142 131.656 200.759C131.829 200.705 132.012 200.804 132.065 200.977C132.117 201.15 132.02 201.332 131.847 201.386C130.589 201.769 129.32 202.148 128.076 202.512C128.045 202.521 128.014 202.526 127.984 202.526ZM55.5674 204.596C55.4869 204.596 55.4062 204.567 55.343 204.508C54.3406 203.565 53.5001 202.509 52.845 201.371C52.7547 201.214 52.8086 201.014 52.9654 200.925C53.1222 200.834 53.3227 200.887 53.4128 201.044C54.036 202.127 54.8364 203.131 55.792 204.031C55.9237 204.155 55.9301 204.362 55.8062 204.494C55.7417 204.562 55.6546 204.596 55.5674 204.596ZM120.408 204.632C120.262 204.632 120.13 204.534 120.091 204.388C120.045 204.213 120.149 204.034 120.324 203.988C121.575 203.658 122.851 203.312 124.115 202.96C124.29 202.912 124.47 203.013 124.518 203.188C124.567 203.363 124.465 203.543 124.291 203.591C123.024 203.944 121.745 204.291 120.491 204.62C120.463 204.628 120.435 204.632 120.408 204.632ZM112.774 206.523C112.625 206.523 112.491 206.42 112.456 206.269C112.415 206.093 112.525 205.917 112.701 205.875C113.954 205.586 115.239 205.278 116.52 204.961C116.695 204.917 116.873 205.023 116.916 205.199C116.96 205.375 116.853 205.553 116.677 205.596C115.393 205.914 114.105 206.223 112.849 206.514C112.824 206.52 112.799 206.523 112.774 206.523ZM105.084 208.164C104.931 208.164 104.793 208.055 104.763 207.898C104.729 207.721 104.844 207.549 105.022 207.515C106.279 207.27 107.573 207.006 108.869 206.729C109.045 206.691 109.219 206.805 109.257 206.981C109.295 207.158 109.182 207.333 109.005 207.37C107.706 207.648 106.407 207.913 105.147 208.158C105.126 208.162 105.105 208.164 105.084 208.164ZM62.2941 208.559C62.2564 208.559 62.2182 208.553 62.1807 208.538C60.8684 208.055 59.6524 207.494 58.567 206.87C58.41 206.779 58.3558 206.579 58.446 206.423C58.5364 206.266 58.737 206.212 58.8934 206.302C59.9471 206.908 61.1295 207.454 62.4075 207.924C62.5773 207.986 62.6641 208.176 62.6016 208.344C62.5527 208.477 62.4274 208.559 62.2941 208.559ZM97.3366 209.508C97.1772 209.508 97.0376 209.392 97.0131 209.229C96.9861 209.05 97.1092 208.883 97.2881 208.856C98.5528 208.665 99.8561 208.453 101.162 208.227C101.341 208.195 101.51 208.315 101.541 208.494C101.572 208.671 101.452 208.841 101.274 208.873C99.9637 209.099 98.6554 209.313 97.386 209.504C97.3692 209.507 97.3528 209.508 97.3366 209.508ZM69.9223 210.405C69.9067 210.405 69.8911 210.403 69.8753 210.402C68.5137 210.206 67.2044 209.96 65.9837 209.672C65.8076 209.63 65.6987 209.454 65.7402 209.278C65.7818 209.102 65.9585 208.992 66.1345 209.035C67.3362 209.319 68.6262 209.56 69.9684 209.753C70.1476 209.778 70.2718 209.945 70.246 210.124C70.2228 210.287 70.0827 210.405 69.9223 210.405ZM89.5345 210.482C89.3677 210.482 89.225 210.357 89.2088 210.187C89.1912 210.006 89.323 209.847 89.5031 209.829C90.77 209.707 92.0815 209.56 93.4016 209.395C93.58 209.371 93.7447 209.499 93.7674 209.678C93.7899 209.857 93.6627 210.021 93.4832 210.044C92.1569 210.211 90.8392 210.359 89.5665 210.481C89.5558 210.482 89.5451 210.482 89.5345 210.482ZM81.6886 210.982C81.5117 210.982 81.3659 210.84 81.3613 210.663C81.3565 210.482 81.4991 210.332 81.68 210.326C82.9453 210.293 84.2623 210.232 85.595 210.147C85.7786 210.138 85.9314 210.272 85.9431 210.453C85.9547 210.633 85.8176 210.788 85.6372 210.8C84.2965 210.887 82.9708 210.948 81.6976 210.981C81.6944 210.982 81.6915 210.982 81.6886 210.982ZM77.7577 211C77.7554 211 77.7535 211 77.7514 211C76.3946 210.975 75.0673 210.915 73.8061 210.823C73.6257 210.809 73.4901 210.652 73.5034 210.472C73.5165 210.291 73.6726 210.156 73.854 210.169C75.1034 210.26 76.4187 210.32 77.7635 210.345C77.9445 210.348 78.0884 210.497 78.085 210.678C78.0817 210.857 77.9357 211 77.7577 211Z" fill="black" fill-opacity="0.6"/>
<path d="M240.954 267.253C240.776 267.253 240.63 267.11 240.627 266.932L240.588 265.19C240.585 265.009 240.728 264.858 240.909 264.855C241.089 264.852 241.24 264.994 241.244 265.176L241.282 266.917C241.285 267.099 241.142 267.249 240.961 267.253C240.958 267.253 240.957 267.253 240.954 267.253Z" fill="black" fill-opacity="0.6"/>
<path d="M241.085 273.351C240.907 273.351 240.761 273.209 240.757 273.03L240.719 271.287C240.716 271.107 240.86 270.958 241.04 270.953C241.218 270.952 241.371 271.093 241.376 271.274L241.413 273.017C241.416 273.197 241.273 273.346 241.092 273.351C241.089 273.351 241.088 273.351 241.085 273.351Z" fill="black" fill-opacity="0.6"/>
<path d="M237.137 269.461C236.958 269.461 236.81 269.316 236.81 269.136C236.809 268.955 236.953 268.808 237.134 268.806L238.851 268.793C239.036 268.8 239.181 268.936 239.181 269.118C239.183 269.299 239.038 269.446 238.857 269.448L237.14 269.461C237.138 269.461 237.138 269.461 237.137 269.461Z" fill="black" fill-opacity="0.6"/>
<path d="M243.147 269.413C242.968 269.413 242.82 269.269 242.82 269.088C242.819 268.907 242.963 268.76 243.144 268.758L244.862 268.745C244.863 268.745 244.863 268.745 244.865 268.745C245.044 268.745 245.191 268.89 245.193 269.07C245.193 269.251 245.048 269.398 244.868 269.4L243.15 269.413C243.148 269.413 243.148 269.413 243.147 269.413Z" fill="black" fill-opacity="0.6"/>
<path d="M166.233 76.5553C165.05 77.0862 164.511 78.5038 165.033 79.7135C165.287 80.3046 165.752 80.7552 166.342 80.9851C166.919 81.2095 167.549 81.1931 168.113 80.9377C169.297 80.4068 169.834 78.991 169.314 77.7795C169.059 77.1902 168.593 76.7377 168.004 76.5097C167.426 76.2853 166.798 76.3017 166.233 76.5553ZM167.174 81.797C166.813 81.797 166.452 81.7295 166.104 81.5945C165.349 81.3026 164.756 80.726 164.43 79.9725C163.768 78.4363 164.456 76.6356 165.964 75.9569C166.691 75.6303 167.499 75.6102 168.241 75.8985C168.996 76.1922 169.59 76.7687 169.915 77.5204C170.577 79.0585 169.89 80.8592 168.381 81.5361C167.995 81.7094 167.584 81.797 167.174 81.797Z" fill="#0C0C0C"/>
</svg>
