<svg width="374" height="374" viewBox="0 0 374 374" fill="none" xmlns="http://www.w3.org/2000/svg">
<path d="M112.725 245H112.681C112.357 245 112.082 244.744 112.057 244.413L111.702 238.754C111.676 238.412 111.938 238.112 112.282 238.092C112.625 238.068 112.925 238.33 112.944 238.673L113.307 244.332C113.331 244.682 113.069 244.976 112.725 245ZM110.501 245.168C110.421 245.444 110.17 245.619 109.903 245.619C109.494 245.619 109.179 245.224 109.302 244.813C109.52 244.089 109.509 243.289 109.277 242.571C109.165 242.246 109.347 241.891 109.677 241.784C110.009 241.678 110.358 241.859 110.464 242.183C110.776 243.146 110.788 244.208 110.501 245.168ZM107.042 305.935H106.998C106.673 305.935 106.398 305.685 106.379 305.354C105.269 289.377 104.046 263.133 102.907 246.581C102.882 246.237 103.138 245.937 103.488 245.918C103.825 245.893 104.125 246.149 104.15 246.499C105.26 262.448 106.481 288.698 107.623 305.266C107.648 305.609 107.392 305.91 107.042 305.935ZM91.6145 259.578L90.5277 264.631C90.4656 264.925 90.209 265.124 89.9218 265.124C89.5044 265.124 89.2253 264.747 89.3099 264.368L90.39 259.316C90.4656 258.979 90.7961 258.76 91.1335 258.842C91.4709 258.909 91.6833 259.241 91.6145 259.578ZM69.4418 295.735L67.2183 298.958C67.0235 299.246 66.6274 299.31 66.3502 299.114C66.0691 298.921 65.9942 298.527 66.194 298.246L68.4176 295.03C68.6111 294.742 69.0047 294.674 69.2857 294.867C69.573 295.067 69.6417 295.454 69.4418 295.735ZM65.0197 291.169C64.7012 291.032 64.5638 290.664 64.7075 290.345C65.507 288.565 66.7499 286.991 68.2988 285.798C68.5737 285.586 68.9672 285.636 69.1795 285.91C69.3856 286.185 69.3356 286.579 69.0608 286.785C67.6742 287.853 66.5625 289.264 65.8443 290.857C65.6969 291.178 65.3263 291.311 65.0197 291.169ZM56.2508 322.118C56.1695 322.386 55.9197 322.555 55.6573 322.555C55.2422 322.555 54.9335 322.155 55.0577 321.743C61.2724 301.99 60.5411 262.954 66.8187 242.989C66.9185 242.658 67.2684 242.477 67.5993 242.577C67.9303 242.683 68.1115 243.033 68.0115 243.364C61.7898 263.139 62.521 302.176 56.2508 322.118ZM53.5275 257.649C54.1022 257.633 54.3905 258.36 53.9523 258.736C53.1403 259.453 52.397 260.234 52.472 261.052C52.5087 261.428 52.7392 261.904 52.8404 262.207C53.3777 263.687 53.334 265.375 52.7281 266.837C52.6281 267.073 52.397 267.217 52.1534 267.217C51.7016 267.217 51.4058 266.756 51.5788 266.355C52.0659 265.181 52.0972 263.825 51.6664 262.626C51.4505 262.087 51.2705 261.648 51.2291 261.164C51.1291 260.066 51.7225 259.173 52.5094 258.379C52.2595 258.016 52.1971 257.535 52.3532 257.136C52.6031 256.492 53.2215 256.168 53.6274 255.949C54.4825 255.495 54.4629 255.343 53.9334 254.507C53.7835 254.256 53.6212 254.007 53.5087 253.72C53.1841 252.907 53.2902 251.927 53.8023 251.022C54.2145 250.285 54.8329 249.703 55.3762 249.185C55.6261 248.947 56.0196 248.96 56.2569 249.21C56.4943 249.46 56.4881 249.853 56.2319 250.091C55.7323 250.572 55.2139 251.059 54.8891 251.639C54.5706 252.203 54.4895 252.801 54.6706 253.257C54.9903 254.031 56.7345 255.745 54.2145 257.048C53.9396 257.199 53.6023 257.38 53.515 257.592C53.515 257.604 53.5213 257.623 53.5275 257.649ZM116.279 230.254C109.496 230.542 103.051 229.928 96.2864 229.348C94.6685 219.624 94.2318 209.7 95 199.868C92.0394 201.648 87.9171 200.961 84.8129 199.456C83.732 207.663 82.4268 216.67 80.3967 224.695C76.6373 225.214 72.7083 225.395 68.7986 225.183C69.8477 227.375 70.9471 229.542 72.1027 231.685C66.2315 232.915 60.273 233.689 54.2832 233.989C48.8868 265.624 47.4503 295.948 44.3649 323.386C53.4213 323.267 63.1835 322.211 69.4169 322.324C75.5003 293.249 78.4168 260.102 86.8804 227.762C87.211 258.048 88.7848 292.831 94.7314 322.711C100.528 322.273 109.484 321.762 115.279 321.324C118.091 292.65 118.384 258.948 116.279 230.254Z" fill="#0C0C0C"/>
<path d="M275.01 165.447L272.574 160.519C272.346 160.055 272.535 159.492 272.999 159.263C273.463 159.034 274.025 159.224 274.254 159.688L276.691 164.616C276.92 165.08 276.73 165.642 276.266 165.872C275.802 166.099 275.241 165.911 275.01 165.447Z" fill="#040606" fill-opacity="0.6"/>
<path d="M274.927 165.426C274.794 164.926 275.089 164.413 275.589 164.278L280.4 162.987C280.899 162.852 281.414 163.15 281.547 163.647C281.682 164.148 281.387 164.662 280.886 164.796L276.074 166.087C275.582 166.22 275.064 165.93 274.927 165.426Z" fill="#040606" fill-opacity="0.6"/>
<path d="M280.67 164.512C280.185 164.331 279.94 163.792 280.12 163.307L281.604 159.348C281.785 158.864 282.326 158.617 282.81 158.798C283.295 158.981 283.54 159.52 283.359 160.005L281.877 163.964C281.695 164.448 281.155 164.695 280.67 164.512Z" fill="#040606" fill-opacity="0.6"/>
<path d="M287.547 161.805L282.322 160.577C281.817 160.46 281.505 159.955 281.624 159.452C281.741 158.947 282.244 158.637 282.749 158.754L287.974 159.98C288.479 160.098 288.79 160.602 288.672 161.105C288.555 161.606 288.055 161.922 287.547 161.805Z" fill="#040606" fill-opacity="0.6"/>
<path d="M286.637 166.333C286.132 166.221 285.813 165.722 285.924 165.216L286.929 160.665C287.041 160.16 287.541 159.841 288.046 159.953C288.551 160.065 288.87 160.564 288.758 161.069L287.753 165.619C287.643 166.124 287.144 166.445 286.637 166.333Z" fill="#040606" fill-opacity="0.6"/>
<path d="M289.651 169.472C288.745 168.179 287.561 167.046 286.23 166.195C285.794 165.916 285.667 165.336 285.946 164.9C286.225 164.464 286.804 164.338 287.241 164.616C288.775 165.597 290.14 166.904 291.186 168.396C291.482 168.82 291.379 169.404 290.957 169.701C290.533 169.998 289.948 169.896 289.651 169.472Z" fill="#040606" fill-opacity="0.6"/>
<path d="M289.805 169.429C289.536 168.985 289.674 168.409 290.116 168.14C291.599 167.234 293.187 166.496 294.835 165.944C295.326 165.782 295.858 166.045 296.02 166.536C296.185 167.027 295.92 167.557 295.429 167.721C293.914 168.228 292.456 168.907 291.094 169.74C290.657 170.007 290.078 169.874 289.805 169.429Z" fill="#040606" fill-opacity="0.6"/>
<path d="M297.53 172.291C296.731 170.584 295.721 168.982 294.523 167.529C294.192 167.13 294.249 166.541 294.65 166.212C295.049 165.883 295.64 165.938 295.967 166.339C297.266 167.913 298.363 169.649 299.226 171.497C299.447 171.966 299.244 172.524 298.776 172.743C298.3 172.963 297.747 172.755 297.53 172.291Z" fill="#040606" fill-opacity="0.6"/>
<path d="M293.683 175.592C293.419 175.146 293.569 174.572 294.014 174.307C295.274 173.562 296.399 172.623 297.351 171.511C297.689 171.118 298.282 171.072 298.675 171.41C299.067 171.746 299.111 172.338 298.775 172.731C297.685 173.999 296.405 175.073 294.966 175.922C294.522 176.185 293.946 176.038 293.683 175.592Z" fill="#040606" fill-opacity="0.6"/>
<path d="M294.417 179.95C293.906 179.95 293.487 179.54 293.48 179.027L293.424 175.476C293.415 174.959 293.828 174.534 294.344 174.524C294.35 174.524 294.355 174.524 294.361 174.524C294.872 174.524 295.288 174.934 295.297 175.447L295.354 178.998C295.361 179.517 294.95 179.942 294.431 179.95C294.426 179.95 294.422 179.95 294.417 179.95Z" fill="#040606" fill-opacity="0.6"/>
<path d="M298.41 181.534C297.301 180.886 295.63 180.442 294.311 180.014C293.817 179.853 293.551 179.323 293.709 178.832C293.871 178.341 294.397 178.07 294.89 178.23C295.151 178.315 295.426 178.402 295.707 178.49C296.913 178.863 298.282 179.289 299.356 179.918C299.802 180.177 299.953 180.751 299.691 181.199C299.43 181.646 298.856 181.795 298.41 181.534Z" fill="#040606" fill-opacity="0.6"/>
<path d="M297.196 187.573C296.696 187.448 296.388 186.94 296.515 186.438C296.981 184.569 297.28 182.818 297.889 180.758C298.035 180.261 298.557 179.978 299.052 180.123C299.549 180.268 299.832 180.789 299.686 181.285C299.098 183.281 298.794 185.043 298.333 186.89C298.226 187.317 297.694 187.7 297.196 187.573Z" fill="#040606" fill-opacity="0.6"/>
<path d="M297.035 187.798C295.449 187.546 294.073 187.204 292.288 186.618C291.796 186.457 291.529 185.928 291.688 185.436C291.851 184.946 292.378 184.675 292.872 184.838C294.556 185.391 295.85 185.713 297.33 185.949C297.842 186.031 298.19 186.51 298.107 187.022C298.025 187.535 297.544 187.88 297.035 187.798Z" fill="#040606" fill-opacity="0.6"/>
<path d="M288.493 189.108C288.224 188.665 288.365 188.088 288.808 187.82C290.295 186.919 291.291 186.034 291.855 185.117C292.127 184.677 292.704 184.54 293.146 184.812C293.585 185.083 293.722 185.659 293.45 186.101C292.728 187.276 291.526 188.362 289.78 189.422C289.334 189.692 288.76 189.546 288.493 189.108Z" fill="#040606" fill-opacity="0.6"/>
<path d="M290.188 194.068C289.779 192.335 289.218 190.629 288.521 188.996C288.318 188.522 288.539 187.971 289.016 187.767C289.491 187.565 290.041 187.787 290.245 188.262C290.983 189.991 291.578 191.801 292.01 193.638C292.129 194.142 291.817 194.647 291.313 194.766C290.806 194.884 290.304 194.567 290.188 194.068Z" fill="#040606" fill-opacity="0.6"/>
<path d="M285.447 196.432C285.288 195.939 285.56 195.411 286.053 195.253C287.672 194.735 289.206 193.991 290.615 193.042C291.046 192.754 291.626 192.867 291.917 193.295C292.205 193.725 292.093 194.306 291.662 194.597C290.108 195.644 288.412 196.465 286.625 197.038C286.123 197.197 285.601 196.917 285.447 196.432Z" fill="#040606" fill-opacity="0.6"/>
<path d="M285.569 196.676L283.142 192.961C282.86 192.529 282.982 191.949 283.416 191.665C283.848 191.383 284.429 191.504 284.712 191.938L287.138 195.652C287.42 196.085 287.298 196.665 286.865 196.949C286.436 197.23 285.854 197.113 285.569 196.676Z" fill="#040606" fill-opacity="0.6"/>
<path d="M278.223 192.965C278.207 192.447 278.614 192.017 279.131 192.001C280.7 191.957 281.734 191.772 283.657 191.563C284.178 191.51 284.636 191.879 284.691 192.392C284.747 192.906 284.375 193.369 283.862 193.425C282.029 193.624 280.862 193.827 279.183 193.874C278.679 193.893 278.237 193.489 278.223 192.965Z" fill="#040606" fill-opacity="0.6"/>
<path d="M276.667 198.177C276.199 197.955 276 197.396 276.222 196.928L278.329 192.472C278.551 192.006 279.11 191.805 279.578 192.027C280.045 192.248 280.245 192.807 280.023 193.275L277.915 197.73C277.693 198.199 277.135 198.397 276.667 198.177Z" fill="#040606" fill-opacity="0.6"/>
<path d="M276.921 198.333C274.875 197.942 273.966 197.488 271.589 196.668C271.099 196.499 270.84 195.966 271.009 195.477C271.178 194.987 271.708 194.729 272.2 194.897C274.616 195.731 275.395 196.134 277.272 196.492C277.779 196.589 278.113 197.081 278.016 197.589C277.919 198.101 277.422 198.432 276.921 198.333Z" fill="#040606" fill-opacity="0.6"/>
<path d="M271.692 196.707C271.183 196.618 270.842 196.133 270.933 195.622L271.763 190.907C271.853 190.399 272.337 190.058 272.849 190.148C273.358 190.237 273.699 190.724 273.61 191.233L272.778 195.948C272.689 196.452 272.209 196.8 271.692 196.707Z" fill="#040606" fill-opacity="0.6"/>
<path d="M272.109 191.859C271.054 190.799 269.935 189.649 268.904 188.612C268.54 188.246 268.54 187.652 268.907 187.287C269.274 186.922 269.867 186.924 270.233 187.29C271.244 188.307 272.455 189.551 273.438 190.537C273.802 190.905 273.801 191.498 273.433 191.864C273.068 192.227 272.474 192.227 272.109 191.859Z" fill="#040606" fill-opacity="0.6"/>
<path d="M263.889 190.665C263.681 190.19 263.899 189.639 264.372 189.431C265.971 188.732 267.56 187.965 269.097 187.152C269.553 186.911 270.121 187.084 270.362 187.54C270.604 187.999 270.43 188.565 269.973 188.807C268.395 189.644 266.763 190.431 265.122 191.148C264.648 191.355 264.096 191.136 263.889 190.665Z" fill="#040606" fill-opacity="0.6"/>
<path d="M263.827 190.918C262.407 189.401 261.266 187.664 260.434 185.76C260.227 185.286 260.444 184.734 260.918 184.527C261.393 184.32 261.944 184.536 262.152 185.01C262.897 186.719 263.922 188.275 265.196 189.636C265.549 190.014 265.53 190.607 265.152 190.96C264.772 191.315 264.179 191.292 263.827 190.918Z" fill="#040606" fill-opacity="0.6"/>
<path d="M260.527 185.984C260.242 185.553 260.362 184.972 260.793 184.687L265.425 181.629C265.854 181.345 266.437 181.463 266.722 181.896C267.007 182.326 266.888 182.908 266.457 183.193L261.825 186.251C261.397 186.535 260.816 186.418 260.527 185.984Z" fill="#040606" fill-opacity="0.6"/>
<path d="M264.913 182.636C264.66 181.211 264.226 179.569 263.956 178.065C263.866 177.556 264.203 177.068 264.712 176.978C265.224 176.884 265.709 177.225 265.801 177.734C266.053 179.145 266.488 180.804 266.758 182.305C266.85 182.812 266.511 183.3 266 183.392C265.498 183.484 265.005 183.148 264.913 182.636Z" fill="#040606" fill-opacity="0.6"/>
<path d="M264.601 178.791L260.162 177.094C259.679 176.911 259.436 176.37 259.622 175.885C259.806 175.402 260.351 175.162 260.831 175.345L265.268 177.04C265.751 177.225 265.994 177.768 265.81 178.249C265.624 178.736 265.079 178.976 264.601 178.791Z" fill="#040606" fill-opacity="0.6"/>
<path d="M260.062 176.96C259.577 176.781 259.328 176.241 259.508 175.756L261.469 170.448C261.649 169.961 262.19 169.714 262.673 169.894C263.158 170.073 263.407 170.611 263.228 171.096L261.266 176.406C261.088 176.886 260.552 177.14 260.062 176.96Z" fill="#040606" fill-opacity="0.6"/>
<path d="M262.033 171.745C261.54 171.586 261.27 171.059 261.427 170.566C261.585 170.073 262.112 169.803 262.605 169.959C264.212 170.474 265.948 170.676 267.633 170.541C268.14 170.5 268.6 170.884 268.642 171.4C268.683 171.916 268.299 172.368 267.783 172.409C265.887 172.561 263.894 172.34 262.033 171.745Z" fill="#040606" fill-opacity="0.6"/>
<path d="M267.161 172.174C266.742 171.871 266.644 171.287 266.947 170.866L269.406 167.433C269.707 167.012 270.293 166.915 270.712 167.218C271.133 167.519 271.23 168.105 270.928 168.524L268.469 171.957C268.168 172.378 267.581 172.473 267.161 172.174Z" fill="#040606" fill-opacity="0.6"/>
<path d="M269.334 168.263L267.059 163.487C266.838 163.02 267.036 162.461 267.503 162.239C267.971 162.016 268.53 162.216 268.751 162.682L271.026 167.458C271.249 167.926 271.05 168.485 270.582 168.708C270.116 168.929 269.557 168.731 269.334 168.263Z" fill="#040606" fill-opacity="0.6"/>
<path d="M267.064 163.402C266.855 162.927 267.071 162.375 267.544 162.166C269.342 161.373 271.119 160.191 273.025 159.353C273.5 159.144 274.052 159.359 274.259 159.833C274.468 160.306 274.252 160.86 273.779 161.067C271.976 161.862 270.21 163.04 268.298 163.881C267.83 164.089 267.273 163.879 267.064 163.402Z" fill="#040606" fill-opacity="0.6"/>
<path d="M286.767 184.149C284.197 187.052 279.628 187.93 276.158 186.206C272.7 184.471 270.66 180.274 271.447 176.491C272.243 172.698 275.791 169.653 279.654 169.487C287.722 169.125 292.098 178.171 286.767 184.149Z" fill="#B4FF5C"/>
<path d="M335.301 107.649C333.664 107.369 333.357 104.802 333.805 103.082C333.692 102.852 333.67 102.575 333.773 102.316C334.498 100.503 336.363 100.509 337.072 102.284C337.825 104.175 337.387 108.01 335.301 107.649ZM325.303 107.67C324.256 107.67 323.652 106.625 323.46 105.562C323.34 104.894 323.353 103.925 323.573 103.082C323.458 102.852 323.438 102.575 323.541 102.316C324.264 100.503 326.129 100.509 326.838 102.284C327.521 103.998 327.26 107.67 325.303 107.67ZM314.391 108.061C312.575 108.061 312.182 105.291 312.658 103.473C312.543 103.242 312.524 102.965 312.626 102.707C313.35 100.893 315.215 100.9 315.925 102.675C316.606 104.386 316.35 108.061 314.391 108.061ZM341.975 94.9503H308.868C305.646 94.9503 303.024 97.5728 303.024 100.795V107.741C303.024 110.963 305.646 113.585 308.868 113.585H341.975C345.197 113.585 347.82 110.963 347.82 107.741V100.795C347.82 97.5728 345.197 94.9503 341.975 94.9503Z" fill="#B4FF5C"/>
<path d="M211.086 94.7007C213.782 102.209 217.439 109.398 222.503 115.308C227.569 121.217 234.114 125.801 241.393 127.543C248.576 129.262 256.083 128.176 263.267 126.45C269.225 125.018 275.048 121.807 279.324 117.101C282.731 113.351 284.914 109.464 286.424 104.469C288.318 98.1981 289.822 91.63 289.264 85.0619C288.175 98.2301 281.117 110.668 270.751 117.691C260.383 124.716 246.944 126.165 235.495 121.492C224.046 116.82 214.852 106.134 211.376 93.4596" fill="#C2C3C1"/>
<path d="M249.504 125.968C246.454 125.968 243.416 125.6 240.476 124.876C240.301 124.833 240.139 124.793 239.969 124.746C236.155 123.756 232.478 122.144 229.059 119.963C228.782 119.798 228.494 119.603 228.199 119.398C227.981 119.266 227.728 119.09 227.48 118.906C227.096 118.64 226.694 118.348 226.3 118.049C224.795 116.905 223.323 115.607 221.926 114.195C221.685 113.949 221.444 113.697 221.211 113.446C213.636 105.361 209.462 94.6023 209.462 83.1503C209.462 82.8371 209.462 82.5312 209.476 82.2198C209.502 81.7021 209.945 81.3092 210.458 81.3273C210.974 81.3509 211.372 81.789 211.348 82.3067C211.336 82.5909 211.336 82.8661 211.336 83.1503C211.336 94.1244 215.329 104.429 222.581 112.168C222.806 112.41 223.032 112.648 223.26 112.877C224.594 114.228 225.999 115.466 227.435 116.558C227.808 116.84 228.186 117.117 228.572 117.383C228.801 117.555 229.013 117.7 229.227 117.832C229.524 118.039 229.775 118.211 230.04 118.366C233.32 120.459 236.816 121.991 240.46 122.937C240.628 122.984 240.769 123.019 240.912 123.053C243.718 123.745 246.604 124.094 249.504 124.094C271.61 124.094 289.291 103.887 287.555 79.9569C287.519 79.441 287.906 78.992 288.422 78.954C288.929 78.9196 289.387 79.3052 289.425 79.8212C290.149 89.8394 287.631 99.6332 282.247 107.796L282.054 108.095C274.535 119.291 262.37 125.968 249.504 125.968Z" fill="#040606" fill-opacity="0.6"/>
<path d="M287.651 74.8528C287.217 74.8528 286.829 74.5498 286.736 74.1097C282.849 55.6296 267.192 42.2158 249.504 42.2158C238.815 42.2158 228.547 47.0712 221.333 55.5334C220.998 55.9264 220.408 55.9756 220.013 55.6378C219.62 55.3042 219.573 54.7126 219.909 54.3175C227.478 45.4357 238.264 40.3428 249.504 40.3428C258.658 40.3428 267.607 43.7326 274.706 49.8858C281.687 55.9387 286.61 64.405 288.571 73.7228C288.677 74.2305 288.351 74.7259 287.846 74.8323C287.78 74.8466 287.717 74.8528 287.651 74.8528Z" fill="#040606" fill-opacity="0.6"/>
<path d="M210.768 78.3146C210.729 78.3146 210.688 78.3107 210.647 78.3068C210.134 78.2406 209.772 77.7717 209.838 77.2579C210.768 70.0365 213.44 63.1478 217.567 57.3314C217.867 56.9091 218.451 56.8099 218.875 57.1096C219.295 57.4092 219.396 57.993 219.095 58.4153C215.144 63.9807 212.586 70.5794 211.696 77.4973C211.636 77.9701 211.233 78.3146 210.768 78.3146Z" fill="#040606" fill-opacity="0.6"/>
<path d="M281.462 107.28C277.112 104.679 270.807 100.856 265.734 102.682C263.976 103.314 262.685 104.693 261.029 105.51C257.062 107.463 252.704 107.717 248.536 106.299C245.676 105.327 243.207 103.514 240.33 102.612C238.299 101.975 237.241 102.386 235.279 103.092C231.619 104.408 228.065 106.123 224.757 108.273C223.249 109.254 222.234 110.911 221.906 112.783C221.906 112.79 221.899 112.805 221.899 112.812C230.016 121.588 242.062 126.115 253.498 124.983C264.936 123.85 274.959 117.504 281.462 107.28Z" fill="#0C0C0C"/>
<path d="M259.396 97.7502C259.358 97.7502 259.318 97.7466 259.28 97.7429C258.766 97.6792 258.401 97.2107 258.465 96.6968C258.948 92.8511 258.726 91.1926 258.27 87.3087C258.219 86.884 258.463 86.4794 258.862 86.3245C259.644 86.022 260.073 85.3403 260.612 84.4764C260.636 84.4126 261.923 82.7085 261.086 80.8167C260.594 79.7013 259.32 78.9303 258.316 79.1308C257.454 79.3021 256.872 80.4467 257.373 81.214C257.656 81.6459 257.534 82.2274 257.102 82.5099C256.668 82.7924 256.088 82.6721 255.804 82.2383C254.585 80.3701 255.771 77.7256 257.951 77.2936C259.816 76.92 261.95 78.1357 262.799 80.0585C263.525 81.6988 263.34 83.6563 262.309 85.2984C261.709 86.2552 261.175 87.1465 260.206 87.7425C260.627 91.3348 260.8 93.1428 260.324 96.9301C260.266 97.404 259.861 97.7502 259.396 97.7502Z" fill="#040606" fill-opacity="0.6"/>
<path d="M243.508 95.3048C243.465 95.3048 243.422 95.3048 243.377 95.3029C241.499 95.2712 239.814 94.5545 238.634 93.2835C237.05 91.5776 236.604 89.252 236.378 87.2008C235.656 80.6385 235.93 75.6645 237.296 70.571C237.429 70.0708 237.946 69.7741 238.444 69.9085C238.942 70.0428 239.239 70.5561 239.107 71.0563C237.804 75.9127 237.546 80.6796 238.241 86.9955C238.442 88.8302 238.797 90.7059 240.006 92.0087C240.837 92.9009 242.046 93.4067 243.411 93.4291C244.797 93.4515 246.188 92.94 247.069 92.0554C247.433 91.6877 248.028 91.6877 248.392 92.0516C248.76 92.4156 248.762 93.0091 248.396 93.3749C247.173 94.6049 245.398 95.3048 243.508 95.3048Z" fill="#040606" fill-opacity="0.6"/>
<path d="M255.663 64.4654L255.963 60.997C256.009 60.4809 256.464 60.0957 256.978 60.1439C257.494 60.1901 257.875 60.6427 257.831 61.1588L257.671 62.9844C258.316 62.7322 259.09 62.5011 259.882 62.4317C260.404 62.3874 260.851 62.7668 260.897 63.2829C260.941 63.799 260.56 64.2535 260.046 64.2978C259.008 64.3883 257.831 64.9025 257.072 65.3512C256.417 65.7402 255.595 65.2241 255.663 64.4654Z" fill="#040606" fill-opacity="0.6"/>
<path d="M256.398 81.6201C254.38 78.9936 252.389 75.0392 252.54 71.779C250.098 71.9973 247.756 71.7283 245.327 71.5567C244.352 71.4865 244.325 71.6191 242.599 70.9483C242.336 70.8469 240.557 69.2792 240.862 68.9029C238.325 72.0851 233.637 71.8179 231.432 68.3354C229.691 65.5841 230.293 61.542 232.481 59.1943C234.676 56.8466 238.13 56.1661 241.096 57.0864C244.094 58.0205 246.083 60.2414 247.944 62.7977C249.509 64.9582 253.091 63.5309 255.312 64.3362C259.565 65.8883 262.018 69.0003 261.607 73.6509C261.458 75.3141 260.944 77.0125 260.47 78.5724C259.62 78.0206 258.448 78.0849 257.629 78.6894C256.81 79.2939 256.233 80.5652 256.398 81.6201Z" fill="#040606" fill-opacity="0.6"/>
<path d="M242.933 70.0726C242.942 70.0765 242.95 70.0804 242.96 70.0843C242.95 70.0804 242.94 70.0765 242.933 70.0726ZM253.475 71.8216C253.36 74.2768 254.641 77.2152 255.934 79.3046C256.787 77.6652 258.372 77.0254 259.865 77.3326C260.219 76.1255 260.559 74.8265 260.673 73.5686C261.041 69.429 258.936 66.6568 254.99 65.217C253 64.4931 249.107 66.0015 247.184 63.3487C245.274 60.7232 243.461 58.8041 240.816 57.9805C238.03 57.1158 235.027 57.8435 233.167 59.8331C231.193 61.9499 230.77 65.5378 232.224 67.8326C233.086 69.1962 234.563 70.1 236.076 70.1919C238.648 70.3387 240.196 68.2649 240.135 68.3119C240.699 67.6154 241.823 68.0361 241.798 68.9281C242.037 69.2627 242.717 69.9063 242.999 70.098C244.517 70.6869 244.138 70.5187 246.64 70.7163C248.63 70.8708 250.51 71.0195 252.456 70.8454C253.027 70.7965 253.503 71.2601 253.475 71.8216ZM255.655 82.1921C253.677 79.6176 251.852 76.0297 251.619 72.7763C249.459 72.8663 247.368 72.6413 245.261 72.4906C244.204 72.4143 244.101 72.5376 242.26 71.8216C241.99 71.7179 241.227 71.1232 240.642 70.4639C237.341 73.2321 232.793 72.2383 230.641 68.8342C228.728 65.8156 229.236 61.3004 231.797 58.5556C234.145 56.0417 237.905 55.1164 241.373 56.1924C244.695 57.2273 246.857 59.7138 248.702 62.2472C249.876 63.8671 253.266 62.5974 255.631 63.4563C260.757 65.3265 263.38 69.2999 262.373 74.9635C262.136 76.3114 261.745 77.5987 261.367 78.8448C261.185 79.4396 260.483 79.6978 259.961 79.3574C259.448 79.0268 258.701 79.062 258.186 79.4435C257.611 79.8661 257.218 80.7973 257.323 81.4761C257.474 82.4328 256.246 82.959 255.655 82.1921Z" fill="#040606" fill-opacity="0.6"/>
<path d="M240.562 86.497C239.832 85.7502 239.832 84.7291 239.832 84.2385C239.83 82.3598 240.045 80.4811 240.47 78.6569C240.586 78.1536 241.089 77.8393 241.594 77.9574C242.1 78.0755 242.412 78.5788 242.294 79.0821C241.901 80.7664 241.703 82.5015 241.707 84.2385C241.707 84.6274 241.729 85.0089 241.901 85.187C241.927 85.207 241.985 85.2251 242.04 85.2306C242.287 84.8944 242.737 84.7545 243.142 84.9163C243.624 85.1088 243.858 85.6539 243.666 86.1354C243.471 86.6169 243.043 86.9585 242.487 87.0693C241.807 87.2056 241.033 86.9785 240.562 86.497Z" fill="#040606" fill-opacity="0.6"/>
<path d="M242.456 90.4069C242.254 90.4069 242.049 90.3893 241.847 90.356C241.338 90.2699 240.992 89.7871 241.076 89.2779C241.162 88.7669 241.645 88.421 242.156 88.5071C242.672 88.5931 243.232 88.4456 243.661 88.1173C244.072 87.803 244.66 87.8785 244.974 88.2894C245.29 88.6985 245.213 89.2867 244.802 89.6027C244.123 90.1259 243.294 90.4069 242.456 90.4069Z" fill="#040606" fill-opacity="0.6"/>
<path d="M246.092 101.526C245.601 101.526 245.189 101.143 245.158 100.647C245.083 99.4124 245.078 98.6243 245.073 97.862C245.066 97.0894 245.061 96.3598 244.988 95.1751C244.957 94.6583 245.351 94.2154 245.866 94.1845C246.396 94.1467 246.827 94.5467 246.858 95.0618C246.934 96.2962 246.941 97.0843 246.946 97.8466C246.951 98.6192 246.958 99.3489 247.028 100.532C247.059 101.049 246.668 101.493 246.151 101.524C246.13 101.526 246.111 101.526 246.092 101.526Z" fill="#040606" fill-opacity="0.6"/>
<path d="M294.623 69.6543C294.21 69.6543 293.834 69.3815 293.719 68.9651C289.932 55.0799 280.508 42.952 268.516 36.5205C268.062 36.2769 267.889 35.7085 268.133 35.2526C268.378 34.7966 268.947 34.6259 269.403 34.8695C281.839 41.5383 291.606 54.0993 295.528 68.4717C295.664 68.9714 295.37 69.4856 294.87 69.621C294.787 69.6439 294.704 69.6543 294.623 69.6543Z" fill="#040606" fill-opacity="0.6"/>
<path d="M208.733 228.567C218.682 230.192 228.63 231.817 238.578 233.443C258.068 236.626 277.739 239.427 297.516 238.888C300.129 238.816 302.775 238.679 305.283 237.857C307.791 237.037 310.181 235.46 311.605 233.04C306.554 237.526 299.548 236.098 293.098 235.35C282.406 234.123 271.509 233.822 260.807 232.716C250.056 231.604 239.297 230.561 228.534 229.584C225.502 229.31 222.471 229.04 219.439 228.776C216.768 228.543 213.193 227.552 210.597 228.114C210.408 228.155 211.983 229.215 212.105 229.261C213.073 229.623 214.065 229.599 215.082 229.663C217.521 229.816 219.959 229.97 222.396 230.122C227.275 230.429 232.149 230.735 237.026 231.041C246.78 231.653 256.533 232.266 266.284 232.879L208.733 228.567Z" fill="#C2C3C1"/>
<path d="M206.696 149.177C206.813 150.436 205.93 151.547 204.725 151.659C203.517 151.772 202.446 150.841 202.329 149.581C202.212 148.322 203.095 147.21 204.301 147.098C205.508 146.986 206.58 147.916 206.696 149.177Z" fill="#040606" fill-opacity="0.6"/>
<path d="M213.113 149.947C212.424 151.008 211.042 151.332 210.027 150.672C209.012 150.011 208.748 148.616 209.439 147.555C210.128 146.496 211.51 146.172 212.525 146.833C213.539 147.493 213.804 148.887 213.113 149.947Z" fill="#040606" fill-opacity="0.6"/>
<path d="M220.791 149.235C220.101 150.297 218.719 150.621 217.704 149.959C216.689 149.299 216.425 147.903 217.115 146.844C217.805 145.784 219.187 145.46 220.202 146.12C221.217 146.78 221.481 148.175 220.791 149.235Z" fill="#040606" fill-opacity="0.6"/>
<path d="M301.342 236.898L208.705 228.839C208.189 228.793 207.807 228.338 207.853 227.823C207.898 227.308 208.365 226.928 208.868 226.973L210.856 227.148C306.443 235.298 301.729 235.449 303.812 234.776C305.993 234.063 307.34 232.169 307.34 229.937V138.763C307.34 136.326 305.72 134.326 303.309 133.791C302.73 133.658 302.123 133.618 301.497 133.672L277.757 135.732C277.249 135.779 276.788 135.396 276.742 134.88C276.697 134.364 277.08 133.911 277.594 133.865L301.338 131.805C302.163 131.735 302.962 131.79 303.722 131.964C307.004 132.693 309.214 135.426 309.214 138.763C309.212 234.963 309.22 230.06 309.205 230.253C309.051 234.201 305.644 237.253 301.342 236.898Z" fill="#040606" fill-opacity="0.6"/>
<path d="M195.266 222.319C194.747 222.319 194.328 221.9 194.328 221.382V147.32C194.328 143.887 196.781 140.879 199.797 140.615L272.514 134.303C273.026 134.254 273.484 134.639 273.528 135.154C273.573 135.671 273.192 136.124 272.677 136.169L199.96 142.482C197.889 142.663 196.202 144.833 196.202 147.32V221.382C196.202 221.9 195.783 222.319 195.266 222.319Z" fill="#040606" fill-opacity="0.6"/>
<path d="M301.633 132.261C306.995 131.279 310.668 134.643 312.194 138.135C313.719 141.626 313.51 145.594 313.379 149.403C312.489 175.366 314.55 201.689 313.798 227.282C313.655 232.161 309.942 235.994 305.106 236.668C303.808 236.849 302.765 236.819 301.077 236.536C304.402 236.372 306.837 233.931 308.053 230.832C309.271 227.733 308.533 223.622 308.506 220.293C308.313 196.666 308.472 173.888 308.281 150.26C308.252 146.734 309.18 141.514 307.997 138.191C306.812 134.87 305.07 133.051 301.633 132.261Z" fill="#040606" fill-opacity="0.6"/>
<path d="M199.725 157.838C199.209 157.838 198.787 157.42 198.787 156.902C198.787 156.384 199.207 155.964 199.725 155.964C214.966 155.956 230.095 155.174 244.727 154.417C264.507 153.394 262.721 153.603 277.417 152.826C284.939 152.429 292.715 152.018 300.557 151.874C300.562 151.874 300.568 151.874 300.575 151.874C301.084 151.874 301.5 152.281 301.511 152.793C301.521 153.309 301.11 153.737 300.592 153.748C292.784 153.892 285.022 154.301 277.517 154.697C273.283 154.92 268.906 155.152 264.578 155.333C243.037 156.232 221.649 157.827 199.725 157.838Z" fill="#040606" fill-opacity="0.6"/>
<path d="M57.3223 211.765C57.2479 211.765 57.1717 211.755 57.096 211.736C56.5941 211.612 56.2878 211.103 56.4122 210.601C57.6321 205.689 58.8234 200.574 59.9523 195.4C60.0628 194.894 60.5616 194.572 61.0673 194.684C61.573 194.794 61.8938 195.293 61.7834 195.798C60.6501 200.992 59.4552 206.123 58.2311 211.053C58.1249 211.479 57.7426 211.765 57.3223 211.765Z" fill="#040606" fill-opacity="0.6"/>
<path d="M109.749 230.941C105.299 230.941 100.838 230.546 96.3018 229.755C95.7916 229.666 95.4506 229.181 95.5403 228.671C95.6293 228.16 96.1178 227.821 96.6242 227.909C105.022 229.374 113.153 229.448 121.452 228.137C121.023 222.649 120.673 217.031 120.41 211.424C120.385 210.908 120.784 210.469 121.301 210.444C121.816 210.416 122.257 210.819 122.282 211.337C122.558 217.216 122.929 223.108 123.387 228.848C123.425 229.332 123.088 229.765 122.609 229.846C118.293 230.576 114.026 230.941 109.749 230.941Z" fill="#040606" fill-opacity="0.6"/>
<path d="M121.173 208.357C120.673 208.357 120.258 207.963 120.237 207.459C119.988 201.302 119.836 194.94 119.788 188.55C119.775 185.34 119.782 182.359 119.811 179.438C119.816 178.923 120.234 178.509 120.748 178.509C120.751 178.509 120.754 178.509 120.757 178.509C121.274 178.514 121.69 178.939 121.685 179.456C121.656 182.369 121.649 185.341 121.662 188.541C121.71 194.904 121.86 201.245 122.111 207.382C122.13 207.899 121.728 208.336 121.211 208.356C121.198 208.357 121.186 208.357 121.173 208.357Z" fill="#040606" fill-opacity="0.6"/>
<path d="M63.9221 228.694C63.3714 228.773 62.799 228.659 62.2601 228.798C61.344 229.034 60.7701 229.915 60.0212 230.493C58.4929 231.673 56.2211 231.492 54.5778 230.479C52.9346 229.466 51.8229 227.778 50.9776 226.043C50.1324 224.307 49.4965 222.467 48.5159 220.804C49.623 223.268 50.8441 225.869 53.1151 227.334C54.8272 228.437 57.0064 228.746 58.9867 228.269C59.8617 228.058 60.6947 227.704 61.5228 227.351C62.3267 227.008 63.1772 226.629 63.6555 225.897C64.2694 224.959 64.0801 223.67 63.4892 222.716C62.8984 221.763 61.9757 221.072 61.0749 220.404C62.4829 221.448 69.4702 227.896 63.9221 228.694Z" fill="#C2C3C1"/>
<path d="M60.1411 224.459C59.6837 223.89 59.1653 223.247 58.5889 222.592C58.2467 222.204 58.2839 221.613 58.6719 221.27C59.0604 220.927 59.6533 220.966 59.9943 221.354C60.598 222.039 61.1306 222.7 61.6008 223.284C62.4559 224.345 63.5141 225.669 63.9252 225.534C64.0509 225.492 64.1168 225.428 64.1504 225.313C64.2089 225.113 64.1583 224.757 63.9088 224.45C61.5649 221.568 59.4647 219.005 57.4977 216.849C57.1493 216.467 57.1763 215.875 57.5587 215.526C57.9405 215.178 58.5333 215.203 58.8822 215.587C60.8822 217.78 63.0006 220.363 65.3629 223.268C66.5062 224.676 66.2088 226.753 64.5115 227.313C62.7435 227.894 61.3817 225.998 60.1411 224.459Z" fill="#040606" fill-opacity="0.6"/>
<path d="M63.8126 217.056C63.3455 217.056 62.9411 216.709 62.8838 216.233C62.6209 214.046 58.9191 211.58 56.827 211.766C54.993 211.929 54.519 210.874 54.2695 210.307C54.2055 210.161 54.1451 210.023 54.0835 209.951C53.7469 209.559 53.7919 208.967 54.1854 208.631C54.5782 208.293 55.1711 208.34 55.5059 208.732C55.7481 209.015 55.8798 209.314 55.9848 209.553C56.0317 209.659 56.1098 209.836 56.1481 209.869C56.1487 209.869 56.2635 209.936 56.6605 209.899C59.6834 209.634 64.3507 212.747 64.7441 216.008C64.8058 216.522 64.4397 216.988 63.9262 217.05C63.8877 217.055 63.8498 217.056 63.8126 217.056Z" fill="#040606" fill-opacity="0.6"/>
<path d="M54.6829 229.28C54.4322 229.28 54.209 229.251 54.0443 229.205C53.2727 229 52.3791 228.194 51.9937 227.687C48.4804 223.088 45.6594 218.588 43.6105 214.315C43.3867 213.849 43.5838 213.289 44.0503 213.065C44.5158 212.842 45.0762 213.037 45.3001 213.505C47.294 217.663 50.0473 222.052 53.4843 226.551C53.7448 226.895 54.3224 227.34 54.5335 227.396C54.6359 227.42 54.836 227.407 54.9842 227.368C54.7829 227.018 54.5822 226.67 54.3791 226.32C54.1199 225.873 54.2723 225.3 54.7195 225.04C55.1672 224.78 55.7405 224.932 56.0003 225.38C56.2784 225.86 56.5542 226.339 56.8305 226.822C56.8914 226.929 56.9311 227.048 56.9464 227.169C57.1102 228.468 56.0129 229.28 54.6829 229.28Z" fill="#040606" fill-opacity="0.6"/>
<path d="M55.2382 227.807C54.9509 227.377 55.0662 226.795 55.4962 226.507C55.9243 226.219 56.5068 226.334 56.796 226.765C57.154 227.3 57.7128 227.453 57.9921 227.441C58.0042 227.092 57.7328 226.69 57.5541 226.466C57.3974 226.269 57.2973 226.118 57.1985 225.967C57.0771 225.781 56.9715 225.622 56.6978 225.322C56.3483 224.941 56.3745 224.348 56.7563 223.998C57.1369 223.65 57.7297 223.675 58.0799 224.056C58.4562 224.467 58.6202 224.719 58.7655 224.939C58.8369 225.048 58.9075 225.158 59.0204 225.299C59.9781 226.503 59.9517 227.503 59.7614 228.131C59.5735 228.748 59.0332 229.18 58.3153 229.287C57.1629 229.456 55.9122 228.814 55.2382 227.807Z" fill="#040606" fill-opacity="0.6"/>
<path d="M58.0955 227.278C57.8185 226.842 57.9472 226.263 58.384 225.986C58.8213 225.709 59.4002 225.837 59.6776 226.274C60.3791 227.38 61.3887 227.021 61.161 225.902C61.0579 225.394 61.3849 224.9 61.8917 224.796C62.3985 224.694 62.8939 225.019 62.997 225.527C63.6416 228.69 59.9127 230.137 58.0955 227.278Z" fill="#040606" fill-opacity="0.6"/>
<path d="M49.5331 235.777C49.2105 235.777 48.9061 235.61 48.734 235.33C45.2342 229.618 43.1695 226.063 41.4256 219.421C41.3605 219.17 41.4013 218.903 41.5393 218.684C41.6771 218.465 41.8991 218.312 42.1534 218.263C42.4199 218.211 43.1524 218.107 44.3271 217.942C45.2628 217.81 46.3236 217.66 46.5717 217.612C47.0793 217.508 47.5733 217.837 47.6759 218.344C47.7776 218.851 47.4496 219.345 46.9426 219.447C46.6602 219.505 45.827 219.623 44.5882 219.797C44.2284 219.848 43.8491 219.901 43.5111 219.949C45.075 225.517 46.8908 228.722 50.0113 233.827C57.3135 232.805 62.9886 232.142 70.3523 230.642C69.366 228.38 68.4274 226.521 67.5161 224.716C66.4206 222.547 65.2897 220.308 64.076 217.375L63.4806 217.414C61.7588 217.524 60.9731 217.575 59.1067 217.922C58.5975 218.017 58.1083 217.68 58.0144 217.171C57.9198 216.663 58.2554 216.174 58.764 216.08C60.7414 215.712 61.6173 215.656 63.3618 215.545L64.6237 215.463C65.0262 215.432 65.4045 215.669 65.5563 216.046C66.839 219.22 68.0333 221.584 69.1886 223.872C70.2517 225.977 71.3515 228.154 72.528 230.966C72.7548 231.507 72.4319 232.123 71.8564 232.244C63.6729 233.966 57.6654 234.641 49.6636 235.767C49.6203 235.773 49.5764 235.777 49.5331 235.777Z" fill="#040606" fill-opacity="0.6"/>
<path d="M92.6944 160.325C92.0227 175.481 92.6352 190.693 94.5232 205.745C94.1874 194.506 94.2173 183.254 94.6115 172.018C94.8097 166.359 95.1014 160.703 95.4844 155.055C95.6737 152.27 95.8854 149.486 96.1195 146.705C96.2287 145.402 97.1659 140.601 95.1366 143.117C93.6951 144.904 93.6129 149.633 93.3392 151.847C92.9905 154.661 92.8201 157.495 92.6944 160.325Z" fill="#C2C3C1"/>
<path d="M140.069 170.254C139.671 170.254 139.302 170 139.176 169.6C138.987 169.003 138.772 168.419 138.538 167.862C137.113 164.339 134.877 160.932 132.714 157.638C130.951 154.954 129.13 152.18 127.718 149.314C125.786 148.103 123.841 146.933 121.931 145.835C121.482 145.578 121.328 145.005 121.585 144.556C121.843 144.108 122.416 143.954 122.865 144.211C124.87 145.364 126.915 146.594 128.941 147.87C129.09 147.963 129.209 148.097 129.286 148.254C130.661 151.098 132.501 153.899 134.28 156.609C136.493 159.979 138.781 163.464 140.27 167.148C140.522 167.745 140.756 168.384 140.962 169.033C141.119 169.527 140.846 170.053 140.352 170.209C140.258 170.24 140.163 170.254 140.069 170.254Z" fill="#040606" fill-opacity="0.6"/>
<path d="M95.9295 229.312C95.4411 229.312 95.0289 228.933 94.9953 228.438L94.981 228.222C94.9325 227.502 94.8838 226.781 94.8397 226.053C94.833 226.003 94.8299 225.952 94.8308 225.902C94.3595 218.408 94.0535 210.344 93.9203 201.935C93.9085 201.346 93.901 200.766 93.8935 200.188L93.8904 199.976C93.6466 180.668 94.3048 159.588 95.7447 140.623C95.7754 140.216 96.0664 139.876 96.4635 139.782C99.8049 138.992 101.817 137.415 104.1 135.436C104.373 135.2 104.757 135.141 105.087 135.285C106.201 135.768 107.304 136.264 108.407 136.771C108.427 136.778 108.447 136.785 108.466 136.796C112.572 138.685 116.594 140.718 120.425 142.836C120.878 143.087 121.042 143.657 120.792 144.109C120.542 144.564 119.969 144.726 119.519 144.476C115.745 142.389 111.781 140.386 107.736 138.522C107.717 138.515 107.697 138.506 107.678 138.497C106.746 138.069 105.816 137.65 104.879 137.238C102.785 139.024 100.7 140.563 97.5631 141.434C96.1621 160.172 95.5241 180.924 95.7642 199.951L95.7664 200.164C95.7746 200.737 95.7814 201.312 95.7941 201.882C95.9265 210.311 96.2332 218.368 96.7052 225.853C96.7059 225.865 96.7066 225.878 96.7075 225.891C96.7516 226.631 96.8017 227.364 96.8504 228.095L96.8661 228.312C96.9005 228.828 96.51 229.275 95.9931 229.31C95.9722 229.311 95.9505 229.312 95.9295 229.312Z" fill="#040606" fill-opacity="0.6"/>
<path d="M51.0731 154.058C50.9096 154.059 50.7442 154.017 50.5943 153.927C50.1496 153.662 50.0038 153.086 50.2691 152.642C51.8446 149.998 57.1641 141.312 59.4555 140.552C67.2341 137.973 73.7245 136.261 79.8827 135.164C81.4491 134.886 83.0558 134.641 84.6603 134.435C84.9781 134.394 85.3021 134.522 85.5055 134.773C86.8414 136.414 89.2836 137.672 92.0393 138.136C92.5493 138.223 92.8935 138.707 92.8075 139.217C92.7207 139.727 92.2374 140.068 91.7266 139.984C88.7084 139.476 86.0732 138.164 84.4021 136.359C82.9929 136.546 81.5852 136.765 80.2104 137.009C74.144 138.089 67.7361 139.78 60.0448 142.33C59.2616 142.639 56.2058 146.34 51.8782 153.601C51.7032 153.895 51.3922 154.058 51.0731 154.058Z" fill="#040606" fill-opacity="0.6"/>
<path d="M39.2188 213.227C38.8302 213.227 38.4717 212.985 38.3367 212.605C34.4015 201.546 35.6914 189.171 36.4289 184.364C36.4423 184.275 36.4528 184.211 36.4576 184.172C36.4844 183.758 36.776 182.941 38.3863 178.682C39.2353 176.438 40.2924 173.643 41.2878 170.869C43.167 165.626 46.0898 160 48.2112 156.204C48.4637 155.751 49.0358 155.591 49.486 155.843C49.938 156.095 50.0996 156.666 49.847 157.118C47.7605 160.852 44.8876 166.379 43.0518 171.502C42.0502 174.29 40.9907 177.093 40.1385 179.346C39.2427 181.715 38.3966 183.954 38.3216 184.344C38.3314 184.295 38.3295 184.257 38.3295 184.231C38.3295 184.258 38.3185 184.401 38.2807 184.648C37.5829 189.201 36.3716 200.734 39.8313 211.189C44.2185 210.136 51.5287 207.794 54.8175 205.922C55.2663 205.666 55.8385 205.823 56.0954 206.273C56.3514 206.722 56.1941 207.295 55.7446 207.55C51.9459 209.711 43.6817 212.266 39.4213 213.206C39.3536 213.22 39.2859 213.227 39.2188 213.227Z" fill="#040606" fill-opacity="0.6"/>
<path d="M61.88 191.824C61.8159 191.824 61.7513 191.816 61.6867 191.803C61.1804 191.697 60.8559 191.2 60.9621 190.695C61.9759 185.857 62.9249 180.992 63.7824 176.231C63.7848 176.206 63.7885 176.18 63.7927 176.156C64.8267 170.486 65.7823 164.682 66.6327 158.911L66.6638 158.71C66.6748 158.631 66.6863 158.553 66.6992 158.477C66.7864 157.968 67.2683 157.625 67.7805 157.711C68.2906 157.799 68.6333 158.284 68.5461 158.793L68.5186 158.975C68.5076 159.052 68.496 159.13 68.4833 159.206C67.6361 164.957 66.6809 170.76 65.6471 176.434C65.6445 176.456 65.6415 176.48 65.6372 176.503C64.7736 181.3 63.8178 186.205 62.7956 191.078C62.7034 191.52 62.3137 191.824 61.88 191.824Z" fill="#040606" fill-opacity="0.6"/>
<path d="M80.5222 225.795C80.461 225.795 80.3981 225.788 80.3361 225.775C79.8288 225.674 79.5006 225.18 79.6022 224.672C84.9011 198.328 88.2836 170.396 89.386 143.892C89.4079 143.376 89.8169 142.965 90.3615 142.996C90.8776 143.018 91.2801 143.454 91.2584 143.971C90.1521 170.57 86.7569 198.605 81.4394 225.042C81.3503 225.487 80.9591 225.795 80.5222 225.795Z" fill="#040606" fill-opacity="0.6"/>
<path d="M139.39 168.451C139.2 168.451 139.009 168.394 138.844 168.275C138.423 167.974 138.328 167.388 138.629 166.968C145.01 158.081 146.697 155.707 153.513 146.21C153.815 145.79 154.401 145.695 154.82 145.996C155.242 146.299 155.337 146.884 155.036 147.304C148.275 156.719 146.556 159.141 140.151 168.06C139.968 168.315 139.681 168.451 139.39 168.451Z" fill="#040606" fill-opacity="0.6"/>
<path d="M138.099 190.481C137.003 190.481 135.9 190.233 134.874 189.727C128.3 186.482 122.981 181.674 119.674 178.214C119.317 177.84 119.331 177.246 119.705 176.889C120.081 176.531 120.672 176.545 121.03 176.92C124.231 180.271 129.375 184.924 135.703 188.046C137.709 189.036 140.107 188.692 141.813 187.172C146.318 183.153 152.824 177.1 157.273 170.96C160.324 166.753 163.04 162.367 165.355 157.918C161.489 154.445 157.765 151.117 154.015 147.742C153.631 147.395 153.6 146.804 153.945 146.419C154.294 146.033 154.885 146.003 155.269 146.349C159.417 150.084 163.145 153.413 167.145 157.007C167.46 157.291 167.545 157.752 167.352 158.131C164.924 162.886 162.044 167.572 158.791 172.059C154.233 178.347 147.63 184.493 143.059 188.57C141.649 189.828 139.881 190.481 138.099 190.481Z" fill="#040606" fill-opacity="0.6"/>
<path d="M55.4425 207.508C55.0272 207.508 54.6478 207.23 54.5374 206.809C53.2456 201.901 50.8923 188.637 51.9525 187.003C53.3029 184.922 54.8827 182.699 56.4094 180.549C58.5257 177.569 60.7142 174.488 62.441 171.597C62.7069 171.152 63.2826 171.008 63.7255 171.273C64.1702 171.537 64.3153 172.112 64.05 172.557C62.2848 175.513 60.0751 178.624 57.9372 181.634C56.369 183.842 54.8868 185.928 53.5689 187.954C53.2359 189.388 54.5881 199.639 56.3489 206.332C56.4806 206.833 56.1817 207.344 55.6816 207.476C55.6018 207.498 55.5212 207.508 55.4425 207.508Z" fill="#040606" fill-opacity="0.6"/>
<path d="M154.618 148.113C154.193 147.818 154.089 147.234 154.384 146.809C155.581 145.091 158.715 140.115 160.574 138.641C161.029 138.279 161.646 137.787 162.317 137.371C162.342 137.35 162.37 137.33 162.399 137.314C163.246 136.8 163.958 136.505 164.644 136.388C166.653 136.035 168.586 136.974 169.866 137.593C170.66 137.975 171.653 138.452 172.407 139.235C173.347 140.222 173.671 141.549 173.236 142.616C172.586 144.225 170.57 144.737 168.863 144.532C167.996 144.422 166.497 143.784 165.863 143.818C165.567 144.254 165.478 145.407 165.643 145.711C165.955 146.124 165.868 146.702 165.456 147.015C165.044 147.327 164.45 147.238 164.138 146.825C163.44 145.904 163.654 144.121 164.078 143.19C164.843 141.496 166.269 141.853 168.041 142.394C168.437 142.515 168.846 142.639 169.094 142.672C170.065 142.791 171.237 142.562 171.5 141.912C171.653 141.536 171.469 140.969 171.053 140.531C170.574 140.035 169.893 139.685 169.052 139.28C165.583 137.6 164.614 137.823 161.739 140.107C160.143 141.374 156.873 146.508 155.923 147.879C155.625 148.305 155.041 148.408 154.618 148.113Z" fill="#040606" fill-opacity="0.6"/>
<path d="M165.263 157.11C164.929 156.715 164.98 156.124 165.377 155.79C168.368 153.274 173.351 152.232 176.068 149.942C176.834 149.299 177.701 148.573 178.078 147.682C178.597 146.444 177.806 144.859 176.407 145.625C174.168 146.845 174.101 146.971 172.98 147.939C172.67 148.211 172.488 148.584 172.565 148.79C172.645 148.854 172.737 148.883 172.794 148.89C173.122 148.547 173.665 148.502 174.047 148.802C174.455 149.12 174.528 149.708 174.208 150.116C173.315 151.258 171.347 150.798 170.817 149.464C170.452 148.486 170.82 147.342 171.745 146.531C172.98 145.475 173.088 145.299 175.456 144.01C178.498 142.348 181.025 145.5 179.805 148.408C179.252 149.717 178.155 150.638 177.273 151.377C174.288 153.894 169.294 154.943 166.583 157.224C166.188 157.556 165.596 157.506 165.263 157.11Z" fill="#040606" fill-opacity="0.6"/>
<path d="M168.67 147.521C167.411 146.18 168.922 143.745 170.316 142.85C170.752 142.571 171.331 142.696 171.611 143.134C171.891 143.568 171.764 144.149 171.33 144.427C170.675 144.847 170.038 145.921 170.066 146.27C170.482 146.687 171.148 146.897 171.649 146.504C172.054 146.183 172.644 146.253 172.964 146.659C173.285 147.065 173.215 147.654 172.809 147.975C171.578 148.946 169.799 148.722 168.67 147.521Z" fill="#040606" fill-opacity="0.6"/>
<path d="M178.42 145.155C177.921 145.018 177.626 144.505 177.761 144.005C177.922 143.41 177.798 142.727 177.439 142.226C177.134 141.802 176.588 141.633 176.106 141.569C175.177 142.13 171.802 144.149 171.257 144.484C170.814 144.752 170.239 144.616 169.967 144.174C169.697 143.733 169.836 143.155 170.276 142.886C170.578 142.701 171.688 142.035 172.807 141.365C175.655 139.657 175.55 139.65 175.939 139.673C177.287 139.752 178.33 140.257 178.96 141.132C179.652 142.095 179.879 143.352 179.57 144.495C179.435 144.991 178.923 145.29 178.42 145.155Z" fill="#040606" fill-opacity="0.6"/>
<path d="M176.228 100.66C175.554 101.101 175.659 104.579 175.645 104.843C175.567 114.349 179.462 124.46 186.333 132.582C186.862 133.205 187.681 134.142 188.284 134.809C188.816 135.395 189.512 135.664 189.722 135.554C189.857 135.485 190.319 135.024 190.609 132.042C191.083 127.149 188.184 114.838 180.778 104.304C180.18 103.458 179.35 102.232 178.695 101.519C177.264 99.9644 176.891 100.227 176.228 100.66ZM186.894 136.065C186.279 135.386 185.441 134.43 184.902 133.793C172.712 119.381 173.832 104.75 173.774 104.445C173.774 102.208 173.884 99.9525 175.203 99.0924C176.671 98.1339 177.997 97.9934 180.073 100.251C180.805 101.045 182.21 103.053 182.334 103.26C187.002 109.912 190.324 117.637 191.936 125.601C192.331 127.546 192.703 129.849 192.477 132.191C192.273 134.272 191.947 136.519 190.577 137.222C189.349 137.85 187.815 137.083 186.894 136.065Z" fill="#040606" fill-opacity="0.6"/>
<path d="M154.385 137.44C151.614 136.463 149.402 134.101 148.612 131.273C147.822 128.443 148.489 125.275 150.353 123.006C151.684 121.385 153.477 120.321 155.282 119.189C162.486 114.629 168.869 108.327 174.255 100.456C174.547 100.029 175.131 99.9198 175.558 100.212C175.985 100.505 176.094 101.087 175.801 101.514C170.271 109.597 163.704 116.075 156.283 120.772L155.755 121.105C154.254 122.046 152.835 122.936 151.801 124.195C150.319 125.999 149.788 128.518 150.417 130.766C151.771 135.614 157.565 137.654 161.657 134.723C162.077 134.424 162.663 134.519 162.964 134.94C163.266 135.36 163.169 135.945 162.747 136.246C160.361 137.956 157.155 138.414 154.385 137.44Z" fill="#040606" fill-opacity="0.6"/>
<path d="M162.886 139.053C162.445 139.053 162.077 138.752 161.977 138.342C161.828 137.867 161.247 135.859 161.247 135.498C161.247 134.979 161.667 134.555 162.182 134.555C162.654 134.555 163.043 134.897 163.109 135.348C163.306 136.206 163.525 137.02 163.781 137.832C163.809 137.923 163.823 138.019 163.823 138.113C163.823 138.631 163.403 139.053 162.886 139.053Z" fill="#040606" fill-opacity="0.6"/>
<path d="M168.073 150.579C166.836 149.967 166.359 148.974 165.937 148.099C165.44 147.066 165.258 146.843 164.189 144.234L164.065 143.933C163.868 143.454 164.095 142.907 164.574 142.71C165.057 142.514 165.601 142.741 165.798 143.22L165.923 143.524C166.963 146.06 167.117 146.226 167.626 147.287C168.032 148.132 168.273 148.587 168.9 148.896C169.678 149.277 170.771 148.932 171.651 148.618C172.138 148.444 172.674 148.699 172.846 149.187C173.02 149.674 172.765 150.21 172.278 150.383C170.871 150.883 169.421 151.237 168.073 150.579Z" fill="#040606" fill-opacity="0.6"/>
<path d="M186.838 136.043C180.833 133.409 175.137 132.898 168.911 134.435C168.412 134.559 167.9 134.253 167.776 133.751C167.651 133.248 167.96 132.741 168.461 132.616C175.017 130.997 181.276 131.558 187.592 134.329C188.065 134.536 188.281 135.089 188.074 135.563C187.867 136.033 187.317 136.254 186.838 136.043Z" fill="#040606" fill-opacity="0.6"/>
<path d="M176.073 115.275C176.072 115.275 176.072 115.275 176.072 115.275C175.553 115.275 175.133 114.856 175.133 114.339C175.133 113.82 175.553 113.402 176.072 113.402C176.072 113.402 176.072 113.402 176.073 113.402C178.021 113.402 178.798 112.909 180.826 112.251C181.321 112.094 181.848 112.364 182.007 112.854C182.166 113.347 181.896 113.874 181.405 114.035C179.398 114.684 178.384 115.275 176.073 115.275Z" fill="#040606" fill-opacity="0.6"/>
<path d="M180.051 126.666C179.71 126.277 179.748 125.683 180.139 125.344C181.437 124.207 182.28 123.734 184.063 122.49C184.486 122.195 185.07 122.299 185.367 122.724C185.664 123.147 185.558 123.732 185.135 124.027C183.388 125.245 182.574 125.702 181.372 126.754C180.984 127.094 180.393 127.055 180.051 126.666Z" fill="#040606" fill-opacity="0.6"/>
<path d="M181.497 114.059C181.343 114.604 181.331 116.17 182.107 118.402C182.887 120.633 183.867 121.854 184.328 122.184C184.484 121.639 184.495 120.073 183.717 117.841C182.94 115.61 181.958 114.39 181.497 114.059ZM179.538 114.979C179.514 113.056 180.237 112.4 180.845 112.187C182.626 111.567 184.458 114.272 185.487 117.225C186.216 119.319 187.057 123.333 184.98 124.056C182.267 125.003 179.58 118.381 179.538 114.979Z" fill="#040606" fill-opacity="0.6"/>
<path d="M169.779 133.62C164.752 129.146 161.854 122.775 161.617 115.681C161.599 115.164 162.005 114.732 162.522 114.714C163.034 114.693 163.471 115.102 163.489 115.619C163.708 122.196 166.384 128.091 171.025 132.22C171.411 132.563 171.445 133.155 171.103 133.542C170.759 133.928 170.167 133.965 169.779 133.62Z" fill="#040606" fill-opacity="0.6"/>
<path d="M160.036 136.788C154.419 133.964 151.196 128.334 151.827 122.448C151.881 121.933 152.343 121.565 152.858 121.616C153.372 121.67 153.745 122.133 153.689 122.647C153.143 127.75 155.965 132.644 160.877 135.114C161.34 135.347 161.526 135.91 161.294 136.372C161.061 136.835 160.499 137.022 160.036 136.788Z" fill="#040606" fill-opacity="0.6"/>
<path d="M173.796 142.804C173.279 142.804 172.86 142.388 172.86 141.87V141.864C172.86 141.347 173.279 140.928 173.796 140.928C174.314 140.928 174.733 141.347 174.733 141.864C174.733 142.382 174.314 142.804 173.796 142.804Z" fill="#040606" fill-opacity="0.6"/>
<path d="M176.264 140.986C175.753 140.907 175.404 140.428 175.483 139.916C175.578 139.305 175.353 138.731 174.865 138.344C174.533 138.083 174.257 138.042 173.377 138.34C172.596 138.603 171.876 139.128 171.207 139.644C170.796 139.961 170.208 139.883 169.892 139.473C169.577 139.064 169.653 138.476 170.062 138.16C170.858 137.547 171.722 136.919 172.78 136.563C173.749 136.237 174.88 135.965 176.03 136.877C177.045 137.683 177.533 138.927 177.334 140.205C177.256 140.706 176.788 141.065 176.264 140.986Z" fill="#040606" fill-opacity="0.6"/>
<path d="M165.335 137.447C165.082 136.995 165.244 136.424 165.695 136.171C167.338 135.25 169.263 132.864 171.951 133.371C173.518 133.668 174.796 135.225 174.41 136.805C174.287 137.306 173.779 137.615 173.275 137.491C172.773 137.367 172.466 136.861 172.589 136.358C172.707 135.879 172.14 135.313 171.6 135.211C169.917 134.89 168.337 136.837 166.61 137.806C166.156 138.061 165.588 137.895 165.335 137.447Z" fill="#040606" fill-opacity="0.6"/>
<path d="M55.0547 336.534C55.0444 336.534 55.034 336.534 55.023 336.533C54.8278 336.527 54.6327 336.524 54.4362 336.521L54.1459 336.516C53.5695 336.509 52.9834 336.5 52.3935 336.488C49.8696 336.437 47.8141 334.464 47.7135 331.998C47.6354 330.071 47.6799 328.123 47.733 326.294L47.7379 326.085C47.7659 324.998 47.7934 323.932 47.8031 322.918C47.8081 322.4 48.2362 322.007 48.7492 321.989C49.2664 321.995 49.6817 322.418 49.6769 322.936C49.6671 323.96 49.6397 325.036 49.611 326.134L49.6055 326.345C49.5543 328.145 49.5098 330.054 49.586 331.921C49.6464 333.4 50.8962 334.583 52.4314 334.615C53.0163 334.626 53.5976 334.636 54.1758 334.642L54.4655 334.648C54.6729 334.651 54.8791 334.654 55.0853 334.661C55.6025 334.678 56.0075 335.111 55.9904 335.628C55.9739 336.135 55.5579 336.534 55.0547 336.534Z" fill="#040606" fill-opacity="0.6"/>
<path d="M75.9033 337.296C76.1823 337.207 76.4815 337.097 76.658 336.789C76.9864 336.216 76.6573 335.296 76.1651 334.997C75.6722 334.699 75.1097 334.831 74.5842 334.959C68.7814 336.379 63.0114 335.538 57.265 336.362C57.8278 341.709 73.3148 338.127 75.9033 337.296Z" fill="#C2C3C1"/>
<path d="M67.8995 336.862C65.2725 336.862 62.7467 336.773 60.1416 336.682L58.2844 336.617C57.7672 336.6 57.3621 336.167 57.3792 335.65C57.3963 335.133 57.8105 334.742 58.3466 334.745L60.2075 334.809C64.9181 334.975 69.3658 335.13 74.5997 334.761C75.0895 334.727 75.5331 334.529 75.7567 334.245C75.9086 334.053 75.9033 333.889 75.8854 333.781C75.8008 333.271 75.6243 332.801 75.361 332.384C75.0917 331.959 74.4063 331.247 72.6711 330.267C71.1804 329.426 69.8415 328.913 68.0501 328.495C66.0721 328.03 64.1514 327.634 62.388 327.876C62.1185 327.912 61.8465 327.83 61.6421 327.651C61.4383 327.471 61.322 327.212 61.3244 326.94C61.3267 326.655 61.3201 326.37 61.3103 326.09C61.2849 325.116 61.1866 324.096 61.2078 323.06C61.2188 322.543 61.6293 322.116 62.1642 322.143C62.6814 322.155 63.092 322.582 63.0816 323.1C63.0694 323.683 63.0999 324.267 63.1328 324.886C63.1511 325.235 63.17 325.584 63.1804 325.934C64.9272 325.874 66.6821 326.249 68.4771 326.67C70.4527 327.131 71.9349 327.7 73.5921 328.635C75.2802 329.588 76.3768 330.487 76.9438 331.381C77.3425 332.013 77.6088 332.716 77.7337 333.476C77.8474 334.164 77.6678 334.849 77.228 335.406C76.6708 336.112 75.7612 336.557 74.7314 336.631C72.3173 336.801 70.0739 336.862 67.8995 336.862Z" fill="#040606" fill-opacity="0.6"/>
<path d="M103.946 334.717C103.935 334.717 103.925 334.717 103.914 334.717C103.719 334.71 103.524 334.707 103.327 334.704L103.037 334.699C102.46 334.692 101.875 334.683 101.284 334.67C98.7607 334.619 96.7052 332.647 96.605 330.18C96.483 327.195 96.6633 324.289 96.694 321.101C96.6992 320.586 97.1173 320.172 97.6312 320.172C97.6342 320.172 97.6372 320.172 97.6402 320.172C98.1578 320.177 98.5729 320.601 98.5677 321.118C98.5572 322.244 98.5251 323.417 98.4966 324.528C98.445 326.328 98.4009 328.238 98.4779 330.104C98.5378 331.583 99.787 332.766 101.323 332.797C101.908 332.809 102.489 332.818 103.067 332.826L103.356 332.83C103.564 332.834 103.77 332.837 103.976 332.844C104.493 332.861 104.899 333.294 104.882 333.811C104.865 334.318 104.449 334.717 103.946 334.717Z" fill="#040606" fill-opacity="0.6"/>
<path d="M124.795 335.479C125.074 335.39 125.373 335.279 125.55 334.972C125.878 334.399 125.548 333.478 125.056 333.18C124.564 332.882 124.001 333.013 123.476 333.142C117.673 334.562 111.903 333.721 106.156 334.545C106.719 339.891 122.206 336.31 124.795 335.479Z" fill="#C2C3C1"/>
<path d="M116.793 335.044C114.168 335.044 111.642 334.956 109.037 334.865L107.176 334.8C106.659 334.783 106.254 334.35 106.271 333.832C106.288 333.316 106.69 332.915 107.238 332.927L109.103 332.992C113.811 333.157 118.257 333.313 123.491 332.945C123.98 332.909 124.424 332.712 124.648 332.428C124.8 332.235 124.794 332.071 124.777 331.964C124.692 331.454 124.516 330.983 124.251 330.567C123.86 329.949 122.955 329.237 121.562 328.45C120.071 327.609 118.732 327.095 116.942 326.677C114.963 326.213 113.044 325.816 111.28 326.058C111.009 326.094 110.739 326.013 110.535 325.834C110.33 325.655 110.214 325.397 110.216 325.124C110.218 324.84 110.211 324.556 110.201 324.275C110.191 323.897 110.172 323.529 110.152 323.162C110.12 322.538 110.085 321.894 110.099 321.243C110.111 320.732 110.527 320.326 111.036 320.326C111.043 320.326 111.05 320.326 111.057 320.327C111.574 320.337 111.984 320.766 111.973 321.283C111.961 321.864 111.991 322.447 112.024 323.063C112.043 323.414 112.061 323.766 112.071 324.116C113.804 324.059 115.573 324.432 117.368 324.853C119.344 325.314 120.826 325.883 122.483 326.818C124.171 327.771 125.268 328.67 125.834 329.564C126.235 330.195 126.5 330.9 126.625 331.659C126.739 332.346 126.558 333.032 126.119 333.589C125.562 334.294 124.653 334.741 123.623 334.813C121.21 334.984 118.967 335.044 116.793 335.044Z" fill="#040606" fill-opacity="0.6"/>
<path d="M85.6885 130.928C85.1753 130.928 84.7573 130.515 84.7512 130C84.7041 125.577 84.9218 124.14 85.4461 120.666C85.5105 120.236 85.58 119.776 85.6548 119.274C84.6622 118.775 83.7025 118.135 83.0496 117.017C82.4399 115.972 82.3322 114.346 82.8005 113.238C83.0981 112.533 83.6232 112.054 84.2785 111.89C85.173 111.664 86.0176 111.953 86.6968 112.184L86.8449 112.235C93.8604 114.573 99.8354 108.058 102.078 105.149C102.27 104.902 102.581 104.766 102.888 104.788C103.202 104.811 103.483 104.989 103.637 105.263C103.976 105.868 104.382 106.446 104.776 107.004C105.621 108.205 106.496 109.446 106.818 111.081C107.49 114.52 107.335 118.127 106.37 121.515C106.02 122.75 104.643 126.928 101.646 128.758C99.1 130.31 95.3303 129.366 92.8744 126.561C92.5334 126.171 92.573 125.58 92.9628 125.238C93.3533 124.898 93.9441 124.937 94.2845 125.327C96.0864 127.385 98.9512 128.208 100.669 127.159C102.589 125.986 103.943 123.21 104.568 121.003C105.453 117.896 105.595 114.591 104.979 111.443C104.734 110.201 104.01 109.171 103.244 108.085C103.071 107.839 102.896 107.591 102.724 107.336C97.643 113.395 91.6905 115.823 86.2495 114.011L86.0909 113.958C85.5777 113.783 85.0916 113.618 84.7348 113.709C84.6375 113.732 84.5627 113.881 84.5261 113.966C84.2695 114.576 84.3914 115.598 84.6683 116.072C85.138 116.879 85.8755 117.328 87.0715 117.873C87.4508 118.046 87.6691 118.449 87.6094 118.861C87.4957 119.64 87.3925 120.327 87.2982 120.947C86.7761 124.41 86.5802 125.709 86.6249 129.98C86.631 130.499 86.2158 130.922 85.6981 130.928C85.6952 130.928 85.6915 130.928 85.6885 130.928Z" fill="#040606" fill-opacity="0.6"/>
<path d="M102.42 121.114C102.195 121.114 101.97 121.07 101.756 120.979C101.281 120.776 101.059 120.227 101.26 119.75C101.453 119.296 101.959 119.073 102.42 119.227C102.488 119.183 102.57 119.066 102.574 118.988C102.59 118.63 102.302 118.174 102.024 117.734L101.981 117.666C101.518 116.931 101.075 116.047 101.297 115.06C101.411 114.557 101.912 114.241 102.417 114.353C102.922 114.467 103.239 114.968 103.124 115.473C103.052 115.795 103.323 116.279 103.566 116.666L103.609 116.733C104 117.355 104.489 118.128 104.445 119.073C104.415 119.757 104.008 120.442 103.41 120.818C103.099 121.015 102.758 121.114 102.42 121.114Z" fill="#040606" fill-opacity="0.6"/>
<path d="M101.295 124.006C100.815 124.006 100.335 123.884 99.9224 123.644C99.4752 123.382 99.324 122.81 99.5843 122.363C99.844 121.915 100.419 121.764 100.865 122.024C101.083 122.151 101.386 122.169 101.622 122.07C102.099 121.869 102.649 122.092 102.85 122.568C103.051 123.045 102.828 123.594 102.351 123.796C102.018 123.936 101.657 124.006 101.295 124.006Z" fill="#040606" fill-opacity="0.6"/>
<path d="M102.086 139.414C101.613 139.414 101.206 139.057 101.156 138.576C101.059 137.663 100.707 135.613 100.366 133.631C100.004 131.521 99.6618 129.529 99.5585 128.553C99.5047 128.037 99.878 127.578 100.393 127.523C100.902 127.467 101.368 127.841 101.423 128.357C101.519 129.272 101.871 131.326 102.213 133.314C102.575 135.418 102.916 137.406 103.018 138.378C103.073 138.894 102.7 139.354 102.186 139.41C102.153 139.413 102.119 139.414 102.086 139.414Z" fill="#040606" fill-opacity="0.6"/>
<path d="M105.379 105.18C105.378 105.18 105.378 105.18 105.377 105.18C105.033 105.18 104.754 104.903 104.752 104.558C104.745 102.772 103.609 100.999 101.988 100.246C101.675 100.101 101.539 99.7306 101.685 99.4166C101.829 99.1043 102.199 98.968 102.514 99.113C104.592 100.076 105.994 102.263 106.001 104.554C106.003 104.899 105.724 105.179 105.379 105.18ZM88.0089 100.476C86.2152 101.335 84.7761 102.977 84.1583 104.868C84.0723 105.132 83.8276 105.299 83.5651 105.299C83.5007 105.299 83.4357 105.291 83.3706 105.268C83.043 105.161 82.8643 104.809 82.9713 104.482C83.6922 102.272 85.3737 100.353 87.4696 99.3493C87.7793 99.1992 88.1526 99.332 88.3021 99.6426C88.4517 99.9531 88.3201 100.326 88.0089 100.476ZM106.467 97.4861C105.794 97.1014 105.089 96.9531 104.404 97.0376C103.579 94.8052 101.422 93.1163 99.0217 92.9524C96.7224 92.8006 94.4476 94.0531 93.2742 96.0077C91.9824 95.1054 90.3765 94.6172 88.632 94.6138C88.626 94.6138 88.6216 94.6138 88.6147 94.6138C86.106 94.6138 83.604 95.6351 81.9194 97.3499C78.8257 100.498 77.0164 107.763 78.2669 112.015C78.8804 114.099 80.3427 115.968 81.7571 117.772C83.6572 120.198 85.4508 122.489 84.9647 124.94C84.9647 124.94 84.9647 124.94 84.9647 124.942C84.8636 125.449 85.1927 125.942 85.6999 126.043C85.762 126.056 85.8233 126.062 85.8847 126.062C86.3215 126.062 86.7135 125.753 86.8016 125.308C86.8016 125.308 86.8016 125.308 86.8025 125.308C86.9213 124.707 87.1023 123.777 87.2835 122.848C87.4637 121.925 87.6431 121.003 87.7613 120.41C87.8714 119.851 88.0568 118.916 87.5377 118.103C87.1083 117.432 86.4164 117.168 85.8607 116.956C85.7403 116.911 85.6213 116.866 85.5069 116.816C84.8936 116.551 84.4073 116.076 84.2061 115.55C84.0101 115.033 84.0954 114.425 84.4194 114.042C84.7358 113.665 84.9795 113.613 85.2981 113.653C85.2981 113.653 85.2981 113.653 85.299 113.653C85.5899 113.689 85.9347 113.81 86.2998 113.937C86.8541 114.13 87.4824 114.351 88.1683 114.358C90.128 114.382 92.3504 114.408 94.4252 113.772C96.483 113.138 98.4548 112.038 99.8341 110.753C101.195 109.483 101.53 109.509 102.653 109.595C103.161 109.635 103.793 109.683 104.642 109.636C107.372 109.485 110.207 107.238 110.077 104.133C109.983 101.875 108.575 98.6903 106.467 97.4861Z" fill="#040606" fill-opacity="0.6"/>
<path d="M191.432 86.6069L146.971 85.1161C143.221 84.9873 140.276 81.8341 140.405 78.0897L140.921 62.6438C141.049 58.8993 144.203 55.9491 147.947 56.072L190.746 57.514C191.264 57.5315 191.668 57.9647 191.65 58.4818C191.633 58.9989 191.194 59.4047 190.682 59.3872L147.885 57.9452C145.176 57.871 142.887 59.994 142.794 62.7062L142.278 78.1522C142.185 80.8663 144.318 83.1493 147.034 83.2449L191.495 84.7337C194.257 84.8195 196.497 82.6615 196.581 79.9649L197.067 64.515C197.121 62.7764 196.237 61.1179 194.758 60.1891C194.32 59.912 194.188 59.3345 194.465 58.8974C194.74 58.4584 195.32 58.3276 195.755 58.6028C197.795 59.8828 199.014 62.1716 198.94 64.5735L198.452 80.0234C198.397 81.8419 197.635 83.5298 196.308 84.7746C194.981 86.0176 193.25 86.6693 191.432 86.6069Z" fill="#040606" fill-opacity="0.6"/>
<path d="M164.492 76.0308L160.09 75.0297C159.956 74.9992 159.816 75.0373 159.715 75.1308L156.395 78.1894C156.141 78.4239 155.727 78.2637 155.696 77.9186L155.289 73.4241C155.276 73.2868 155.197 73.1648 155.077 73.098L151.142 70.8861C150.841 70.7163 150.865 70.274 151.183 70.1386L155.332 68.3614C155.458 68.3061 155.55 68.1936 155.577 68.0601L156.465 63.6342C156.533 63.2948 156.961 63.1804 157.188 63.4417L160.161 66.8378C160.252 66.9407 160.387 66.9941 160.524 66.977L165.007 66.4545C165.351 66.4145 165.592 66.7863 165.414 67.0838L163.102 70.9604C163.032 71.0787 163.024 71.2236 163.081 71.3475L164.964 75.4492C165.108 75.7638 164.829 76.109 164.492 76.0308Z" fill="#B4FF5C"/>
<path d="M185.048 76.2617L180.622 75.2556C180.491 75.2251 180.355 75.2613 180.256 75.3528L176.918 78.4283C176.669 78.657 176.266 78.5007 176.235 78.1654L175.825 73.6454C175.813 73.512 175.736 73.392 175.619 73.3272L171.663 71.1015C171.368 70.9358 171.391 70.5051 171.702 70.3717L175.874 68.5843C175.997 68.531 176.087 68.4224 176.113 68.2909L177.007 63.8395C177.073 63.508 177.491 63.3975 177.713 63.6509L180.702 67.0675C180.79 67.1685 180.922 67.22 181.056 67.2047L185.564 66.6788C185.899 66.6388 186.134 67.0008 185.962 67.2924L183.637 71.1892C183.568 71.3054 183.56 71.4464 183.616 71.5684L185.509 75.6939C185.65 76.0007 185.378 76.3361 185.048 76.2617Z" fill="#B4FF5C"/>
<path d="M230.656 46.9277C230.654 46.9277 230.652 46.9277 230.648 46.9277L204.739 46.6914C204.222 46.6854 203.806 46.2633 203.811 45.7463C203.817 45.2273 204.255 44.8395 204.756 44.8173L230.664 45.0536C231.183 45.0577 231.597 45.4818 231.593 45.9988C231.589 46.5137 231.171 46.9277 230.656 46.9277Z" fill="#040606" fill-opacity="0.6"/>
<path d="M166.784 57.7193C166.419 57.3535 166.419 56.7593 166.784 56.3936L178.322 44.8558C178.5 44.6779 178.758 44.585 178.993 44.5809L199.367 44.7689C199.884 44.775 200.299 45.1973 200.295 45.7147C200.29 46.228 199.871 46.6423 199.358 46.6423C199.355 46.6423 199.353 46.6423 199.349 46.6423L179.37 46.4584L168.109 57.7193C167.743 58.0851 167.15 58.0851 166.784 57.7193Z" fill="#040606" fill-opacity="0.6"/>
<path d="M324.343 95.6712L320.6 83.0041H289.468C288.952 83.0041 288.532 82.5857 288.532 82.0673C288.532 81.5488 288.952 81.1305 289.468 81.1305H321.3C321.717 81.1305 322.081 81.4027 322.199 81.8011L326.141 95.1408C326.287 95.6372 326.003 96.1577 325.508 96.3038C325.016 96.4499 324.491 96.1717 324.343 95.6712Z" fill="#040606" fill-opacity="0.6"/>
<path d="M243.975 175.308H208.979C208.635 175.308 208.355 175.028 208.355 174.682C208.355 174.338 208.635 174.058 208.979 174.058H243.975C244.319 174.058 244.599 174.338 244.599 174.682C244.599 175.028 244.319 175.308 243.975 175.308ZM225.805 186.354C223.713 186.354 222.016 184.659 222.016 182.565C222.016 180.473 223.713 178.776 225.805 178.776C227.899 178.776 229.595 180.473 229.595 182.565C229.595 184.659 227.899 186.354 225.805 186.354ZM247.873 166.695L205.869 167.413C204.428 167.437 203.27 168.615 203.27 170.057V188.302C203.27 189.745 204.428 190.921 205.869 190.947L247.873 191.665C249.352 191.69 250.564 190.498 250.564 189.021V169.339C250.564 167.862 249.352 166.669 247.873 166.695Z" fill="#0C0C0C"/>
<path d="M295.103 209.604C295.017 209.604 259.195 209.071 259.12 209.069C258.775 209.064 258.5 208.781 258.504 208.436C258.509 208.094 258.788 207.82 259.129 207.82C263.683 207.888 291.337 208.299 295.113 208.355C295.458 208.36 295.732 208.644 295.727 208.989C295.723 209.33 295.445 209.604 295.103 209.604ZM275.677 220.46C273.583 220.46 271.887 218.763 271.887 216.67C271.887 214.577 273.583 212.88 275.677 212.88C277.768 212.88 279.465 214.577 279.465 216.67C279.465 218.763 277.768 220.46 275.677 220.46ZM297.995 202.342L255.997 201.307C254.555 201.272 253.349 202.399 253.29 203.841L252.528 222.07C252.469 223.512 253.576 224.736 255.016 224.82L296.953 227.29C298.429 227.377 299.689 226.237 299.749 224.76L300.572 205.096C300.633 203.619 299.473 202.379 297.995 202.342Z" fill="#0C0C0C"/>
<path d="M142.06 338.569H39.5634C39.0462 338.569 38.6265 338.149 38.6265 337.632C38.6265 337.115 39.0462 336.695 39.5634 336.695H142.06C142.578 336.695 142.997 337.115 142.997 337.632C142.997 338.149 142.578 338.569 142.06 338.569Z" fill="#040606" fill-opacity="0.6"/>
<path d="M247.331 138.178C246.813 138.178 246.393 137.759 246.393 137.242V125.015C246.393 124.496 246.813 124.078 247.331 124.078C247.848 124.078 248.266 124.496 248.266 125.015V137.242C248.266 137.759 247.848 138.178 247.331 138.178Z" fill="#040606" fill-opacity="0.6"/>
<path d="M301.38 259.93C301.095 259.498 301.216 258.917 301.648 258.632C313.482 250.842 321.389 237.218 322.282 223.077C322.314 222.561 322.75 222.169 323.275 222.201C323.792 222.234 324.184 222.679 324.152 223.195C323.221 237.911 314.993 252.09 302.678 260.197C302.241 260.484 301.662 260.358 301.38 259.93Z" fill="#040606" fill-opacity="0.6"/>
<path d="M319.558 258.7C318.645 258.7 318.271 257.524 319.015 256.998C322.688 254.406 325.23 250.197 325.813 245.74C325.881 245.227 326.356 244.868 326.864 244.933C327.377 245.001 327.739 245.471 327.673 245.984C327.021 250.95 324.188 255.64 320.096 258.529C319.932 258.645 319.743 258.7 319.558 258.7Z" fill="#040606" fill-opacity="0.6"/>
<path d="M122.199 70.3882C122.098 70.3882 121.995 70.3718 121.895 70.3371C121.405 70.1696 121.145 69.6365 121.312 69.1463C125.26 57.6303 133.131 47.7524 143.474 41.3326C143.912 41.061 144.49 41.1958 144.764 41.6349C145.037 42.0741 144.902 42.6521 144.462 42.9258C134.485 49.1189 126.892 58.6454 123.085 69.755C122.951 70.1431 122.588 70.3882 122.199 70.3882Z" fill="#040606" fill-opacity="0.6"/>
<path d="M118.554 57.6521C118.455 57.6521 118.355 57.6379 118.257 57.6035C117.766 57.4414 117.501 56.9106 117.665 56.4203C119.412 51.1789 123.194 46.6527 128.042 44.0027C128.497 43.7555 129.066 43.9216 129.314 44.3754C129.562 44.8293 129.395 45.3986 128.941 45.6478C124.503 48.073 121.042 52.2142 119.442 57.0119C119.311 57.4049 118.946 57.6521 118.554 57.6521Z" fill="#040606" fill-opacity="0.6"/>
<path d="M28.3221 206.828C27.8989 206.828 27.5153 206.539 27.4116 206.11C24.1514 192.536 27.4731 177.276 36.0806 166.285C36.399 165.878 36.9882 165.806 37.3957 166.124C37.8031 166.445 37.8745 167.032 37.5555 167.441C29.2926 177.991 26.1038 192.642 29.2341 205.672C29.3548 206.175 29.0449 206.681 28.5417 206.801C28.468 206.82 28.3942 206.828 28.3221 206.828Z" fill="#040606" fill-opacity="0.6"/>
<path d="M236.795 207.321C227.239 206.611 217.536 206.425 207.96 206.765C207.423 206.782 207.007 206.379 206.989 205.863C206.972 205.345 207.376 204.912 207.893 204.893C217.538 204.55 227.309 204.738 236.935 205.451C237.45 205.489 237.838 205.94 237.799 206.455C237.763 206.954 237.335 207.356 236.795 207.321Z" fill="#040606" fill-opacity="0.6"/>
<path d="M228.464 215.838L215.349 214.783C214.833 214.742 214.448 214.29 214.491 213.773C214.531 213.258 214.992 212.872 215.499 212.916L228.613 213.971C229.13 214.011 229.515 214.463 229.472 214.979C229.432 215.503 228.97 215.88 228.464 215.838Z" fill="#040606" fill-opacity="0.6"/>
<path d="M191.936 307.853C196.412 308.468 200.999 309.119 204.981 311.31C208.963 313.503 212.276 317.598 212.292 322.241C213.485 316.957 214.678 311.673 215.871 306.389C203.516 306.379 197.539 308.889 188.725 306.31L191.936 307.853Z" fill="#C2C3C1"/>
<path d="M189.139 335.799C186.163 335.72 183.568 333.607 182.687 330.542L180.109 321.573C179.965 321.075 180.252 320.556 180.751 320.413C181.243 320.269 181.766 320.557 181.909 321.054L184.487 330.024C185.142 332.3 187.033 333.868 189.191 333.926C194.232 334.067 199.297 333.596 204.422 333.74C207.018 333.818 208.937 332.526 209.511 330.294C211.412 322.88 213.159 315.133 215.152 307.733C203.251 307.476 190.257 308.566 178.25 308.313L180.647 316.666C180.79 317.163 180.503 317.682 180.005 317.825C179.508 317.966 178.989 317.68 178.847 317.183L176.097 307.602C175.921 306.991 176.394 306.39 177.025 306.408C189.678 306.78 203.632 305.516 216.397 305.891C217.002 305.909 217.433 306.489 217.272 307.075C215.167 314.749 213.314 323.007 211.326 330.761C210.53 333.852 207.867 335.709 204.37 335.613C199.346 335.471 194.265 335.942 189.139 335.799Z" fill="#040606" fill-opacity="0.6"/>
<path d="M182.93 313.184C182.516 312.874 182.43 312.288 182.738 311.873C183.048 311.458 183.635 311.372 184.05 311.68C188.965 315.342 189.064 312.717 191.658 312.055C193.246 311.653 194.528 312.348 195.809 312.327C197.19 312.29 198.588 311.244 200.156 310.639C202.181 309.858 204.825 310.185 205.735 312.33C205.937 312.806 205.715 313.356 205.238 313.559C204.764 313.761 204.212 313.539 204.01 313.063C203.533 311.936 201.862 311.989 200.83 312.387C199.289 312.982 197.775 314.15 195.859 314.2C194.468 314.24 193.12 313.614 192.12 313.871C191.353 314.067 190.516 314.854 189.463 315.22C188.992 315.384 184.888 314.641 182.93 313.184Z" fill="#040606" fill-opacity="0.6"/>
<path d="M186.998 323.094C186.568 322.805 186.454 322.224 186.742 321.794C187.031 321.365 187.616 321.25 188.043 321.538C189.282 322.371 190.923 322.422 192.509 322.354C195.393 322.232 198.28 321.808 201.092 321.096C201.59 320.97 202.103 321.272 202.231 321.773C202.357 322.275 202.053 322.784 201.552 322.912C198.616 323.656 195.6 324.098 192.588 324.227C190.604 324.312 188.653 324.205 186.998 323.094Z" fill="#040606" fill-opacity="0.6"/>
<path d="M204.644 285.367C204.302 285.326 204.058 285.015 204.099 284.673L204.456 281.717C204.497 281.374 204.808 281.131 205.15 281.171C205.494 281.213 205.737 281.524 205.695 281.866L205.34 284.822C205.298 285.162 204.99 285.408 204.644 285.367ZM199.291 298.807L197.379 301.498C197.18 301.777 196.791 301.846 196.508 301.645C196.228 301.445 196.161 301.056 196.36 300.774L198.272 298.083C198.474 297.803 198.864 297.736 199.144 297.936C199.425 298.136 199.491 298.526 199.291 298.807ZM192.48 288.878C192.227 289.109 191.83 289.09 191.597 288.833L191.343 288.551C191.11 288.295 191.129 287.9 191.385 287.669C191.639 287.437 192.034 287.455 192.266 287.71L192.526 287.995C192.757 288.252 192.737 288.647 192.48 288.878ZM190.564 284.862L188.708 280.664C188.569 280.349 188.712 279.981 189.026 279.841C189.346 279.701 189.711 279.845 189.852 280.159L191.706 284.357C191.845 284.673 191.703 285.042 191.386 285.181C191.066 285.322 190.702 285.173 190.564 284.862ZM220.327 289.135C220.094 288.736 219.608 288.568 219.178 288.732C214.357 290.6 209.668 292.927 205.207 295.665C207.674 287.276 208.085 278.082 206.344 269.493C206.254 269.049 205.842 268.723 205.407 268.742C204.955 268.751 204.572 269.082 204.501 269.529C203.273 277.111 200.981 284.378 197.681 291.165C194.24 282.691 189.202 274.899 183.027 268.527C182.702 268.191 182.18 268.146 181.802 268.421C181.425 268.696 181.307 269.206 181.526 269.619C185.22 276.556 186.031 284.926 186.531 292.594C182.374 289.235 177.371 287.077 172.222 286.456C171.273 286.342 170.784 287.565 171.55 288.137C177.829 292.823 182.675 299.709 185.194 307.528C185.354 308.025 185.886 308.29 186.373 308.132C186.782 308.001 187.033 307.615 187.018 307.206L204.273 306.565C204.29 306.971 204.564 307.335 204.978 307.439C205.486 307.566 205.989 307.259 206.115 306.757C207.758 300.187 212.644 296.295 217.818 292.174C218.581 291.566 219.348 290.955 220.11 290.331C220.467 290.04 220.558 289.533 220.327 289.135Z" fill="#B4FF5C"/>
<path d="M168.501 335.978C167.986 335.978 167.568 335.564 167.563 335.049C167.559 334.532 167.974 334.109 168.492 334.104L236.645 333.498C236.648 333.498 236.653 333.498 236.654 333.498C237.167 333.498 237.587 333.912 237.591 334.426C237.596 334.944 237.18 335.367 236.663 335.372L168.508 335.978C168.505 335.978 168.502 335.978 168.501 335.978Z" fill="#040606" fill-opacity="0.6"/>
</svg>
