<svg width="379" height="379" viewBox="0 0 379 379" fill="none" xmlns="http://www.w3.org/2000/svg">
<g clip-path="url(#clip0_71_387)">
<path d="M124.949 226.365C128.079 230.965 128.502 236.212 125.893 238.084C123.284 239.956 118.632 237.746 115.501 233.146C112.371 228.548 111.949 223.302 114.558 221.429C117.166 219.556 121.819 221.766 124.949 226.365ZM117.56 196.221C114.943 201.632 112.165 211.254 110.149 211.75C108.133 212.244 103.867 200.536 98.2755 196.424C92.6841 192.314 80.3953 188.297 72.6375 207.725C66.2679 223.676 65.6374 264.2 99.0443 283.232C167.513 322.239 182.596 227.513 144.733 200.399C127.657 188.17 120.177 190.811 117.56 196.221Z" fill="white"/>
<path d="M128.814 292.861C119.82 292.861 109.782 289.734 98.8791 283.523C80.3436 272.964 73.2695 256.418 70.5989 244.396C67.1785 229 69.3923 214.952 72.3277 207.603C75.5477 199.539 79.8498 194.686 85.1146 193.181C91.1662 191.451 96.4723 194.686 98.473 196.157C101.539 198.411 104.178 202.85 106.298 206.416C107.742 208.844 109.377 211.588 110.069 211.426C111.219 211.144 112.968 206.649 114.511 202.683C115.126 201.104 115.761 199.471 116.388 198.005C116.461 197.837 116.657 197.756 116.826 197.831C116.995 197.902 117.074 198.099 117.001 198.267C116.379 199.723 115.745 201.351 115.133 202.924C113.006 208.391 111.615 211.734 110.228 212.073C109.11 212.351 107.915 210.439 105.725 206.757C103.635 203.243 101.035 198.869 98.0779 196.695C96.1565 195.282 91.065 192.174 85.298 193.822C80.242 195.269 76.0866 199.988 72.9472 207.85C66.1259 224.931 66.8263 264.495 99.2095 282.944C123.879 296.997 144.714 294.844 156.374 277.037C163.14 266.704 166.025 251.755 164.093 237.043C162.079 221.702 155.175 208.608 145.152 201.12C145.005 201.01 144.975 200.8 145.085 200.653C145.195 200.506 145.404 200.474 145.552 200.585C155.717 208.18 162.717 221.436 164.754 236.957C166.707 251.822 163.783 266.941 156.932 277.403C151.505 285.691 143.834 290.871 134.749 292.382C132.826 292.702 130.846 292.861 128.814 292.861Z" fill="black"/>
<path d="M96.2985 205.025C99.7097 206.835 100.961 211.154 99.0943 214.671C97.2274 218.19 92.9485 219.574 89.5373 217.764C86.1261 215.954 84.8744 211.633 86.7415 208.116C88.6084 204.598 92.8874 203.213 96.2985 205.025Z" fill="#B4FF5C"/>
<path d="M84.5128 225.561C83.8252 225.561 83.1312 225.67 82.4515 225.89C80.7297 226.447 79.3063 227.649 78.4441 229.272C76.6663 232.623 77.8587 236.748 81.1017 238.47C84.3455 240.191 88.4299 238.866 90.2079 235.517C91.07 233.892 91.2674 232.039 90.7636 230.3C90.2608 228.566 89.1197 227.153 87.5503 226.319C86.6014 225.816 85.5643 225.561 84.5128 225.561ZM84.1341 239.89C82.9979 239.89 81.8529 239.624 80.7891 239.06C77.221 237.165 75.9048 232.635 77.8549 228.96C78.7987 227.182 80.3584 225.866 82.2464 225.255C84.1379 224.644 86.133 224.812 87.8629 225.731C89.5931 226.648 90.8508 228.205 91.4043 230.115C91.9566 232.021 91.741 234.051 90.7971 235.829C89.4282 238.408 86.8079 239.89 84.1341 239.89Z" fill="black"/>
<path d="M90.1863 248.626C87.7512 248.626 85.3632 249.978 84.1138 252.332C83.2517 253.957 83.0543 255.808 83.5582 257.547C84.0609 259.283 85.202 260.696 86.7716 261.53C88.3409 262.362 90.1519 262.515 91.87 261.959C93.5922 261.403 95.0153 260.2 95.8774 258.577C97.6554 255.226 96.463 251.101 93.22 249.379C92.2558 248.867 91.2166 248.626 90.1863 248.626ZM89.808 262.955C88.6488 262.955 87.5054 262.674 86.4588 262.118C84.7286 261.201 83.4709 259.642 82.9176 257.734C82.3651 255.827 82.5807 253.798 83.5247 252.02C85.4749 248.345 89.9643 246.897 93.5328 248.789C97.1008 250.683 98.4169 255.214 96.4667 258.889C95.523 260.667 93.9633 261.983 92.0753 262.594C91.3282 262.835 90.5646 262.955 89.808 262.955Z" fill="black"/>
<path d="M106.346 263.58C103.911 263.58 101.523 264.934 100.274 267.288C99.4115 268.914 99.2139 270.765 99.7179 272.503C100.221 274.238 101.362 275.652 102.931 276.484C104.5 277.318 106.312 277.471 108.03 276.915C109.752 276.357 111.175 275.156 112.037 273.531C113.815 270.182 112.623 266.056 109.38 264.335C108.415 263.823 107.376 263.58 106.346 263.58ZM105.968 277.911C104.809 277.911 103.665 277.631 102.618 277.074C100.888 276.155 99.6305 274.599 99.0772 272.69C98.5248 270.783 98.7405 268.754 99.6844 266.976C101.635 263.301 106.125 261.852 109.692 263.745C113.261 265.639 114.577 270.17 112.626 273.845C111.683 275.623 110.123 276.939 108.235 277.549C107.488 277.791 106.724 277.911 105.968 277.911Z" fill="white"/>
<path d="M85.1426 173.853L91.7516 165.912L138.128 208.894L143.689 217.664C143.689 217.664 134.517 213.677 134.127 213.372L85.1426 173.853Z" fill="white"/>
<path d="M85.6156 173.806L134.337 213.113C134.665 213.338 139.274 215.375 142.824 216.924L137.869 209.109L91.7828 166.396L85.6156 173.806ZM143.688 217.998C143.644 217.998 143.599 217.989 143.556 217.971C142.018 217.302 134.325 213.95 133.922 213.636L84.9332 174.113C84.8636 174.056 84.8195 173.975 84.8107 173.887C84.8019 173.797 84.8291 173.709 84.8862 173.64L91.4952 165.699C91.5537 165.628 91.6386 165.585 91.73 165.579C91.8205 165.574 91.9111 165.605 91.9782 165.667L138.355 208.65C138.376 208.668 138.394 208.691 138.41 208.715L143.97 217.487C144.049 217.61 144.037 217.77 143.942 217.881C143.877 217.957 143.784 217.998 143.688 217.998Z" fill="black"/>
<path d="M85.1426 173.853L91.7516 165.912L102.022 175.43L96.0872 182.682L85.1426 173.853Z" fill="white"/>
<path d="M85.6156 173.806L96.0388 182.215L101.565 175.461L91.7828 166.395L85.6156 173.806ZM96.087 183.015C96.0134 183.015 95.9395 182.993 95.8777 182.943L84.9332 174.112C84.8636 174.056 84.8195 173.974 84.8107 173.886C84.8019 173.797 84.8291 173.709 84.8862 173.639L91.4952 165.698C91.5537 165.627 91.6386 165.584 91.73 165.578C91.8205 165.574 91.9111 165.604 91.9782 165.666L102.249 175.185C102.378 175.305 102.392 175.505 102.28 175.641L96.3452 182.894C96.2793 182.974 96.1836 183.015 96.087 183.015Z" fill="black"/>
<path d="M71.3259 169.234C77.052 173.945 81.6697 175.055 85.1888 173.944C85.1902 173.944 85.1929 173.942 85.1929 173.942L91.8153 165.898C91.8153 165.898 91.817 165.885 91.8177 165.877C92.2519 162.16 90.2715 157.783 84.4863 153.023C75.8979 145.955 57.2563 144.138 57.2563 144.138C57.2563 144.138 62.7372 162.168 71.3259 169.234Z" fill="black"/>
<path d="M166.247 232.409L133.316 241.507L83.2373 60.2157L116.169 51.1196L166.247 232.409Z" fill="white"/>
<path d="M83.6477 60.4491L133.549 241.095L165.837 232.177L115.936 51.53L83.6477 60.4491ZM133.316 241.84C133.17 241.84 133.035 241.743 132.994 241.596L82.9159 60.3042C82.8923 60.2196 82.9036 60.129 82.9473 60.0504C82.991 59.9739 83.0633 59.9175 83.1487 59.8933L116.08 50.797C116.257 50.7486 116.441 50.8533 116.491 51.0306L166.569 232.321C166.593 232.406 166.581 232.497 166.537 232.574C166.493 232.651 166.422 232.707 166.336 232.732L133.405 241.828C133.375 241.835 133.345 241.84 133.316 241.84Z" fill="black"/>
<path d="M153.859 216.41C153.71 216.41 153.574 216.31 153.536 216.158C153.49 215.979 153.6 215.799 153.779 215.753L160.89 213.957C161.069 213.913 161.249 214.021 161.295 214.2C161.34 214.378 161.231 214.559 161.054 214.604L153.941 216.401C153.913 216.407 153.886 216.41 153.859 216.41Z" fill="black"/>
<path d="M152.521 211.888C152.369 211.888 152.231 211.784 152.196 211.629C152.155 211.45 152.267 211.271 152.446 211.23L159.685 209.567C159.864 209.526 160.043 209.639 160.084 209.819C160.126 209.998 160.014 210.177 159.834 210.218L152.596 211.881C152.571 211.885 152.545 211.888 152.521 211.888Z" fill="black"/>
<path d="M151.435 207.635C151.286 207.635 151.15 207.533 151.112 207.383C151.067 207.204 151.175 207.022 151.354 206.977L158.466 205.182C158.644 205.138 158.826 205.244 158.871 205.423C158.915 205.602 158.807 205.782 158.629 205.827L151.517 207.624C151.49 207.63 151.462 207.635 151.435 207.635Z" fill="black"/>
<path d="M148.731 204.163C148.58 204.163 148.443 204.06 148.407 203.907C148.364 203.728 148.475 203.547 148.654 203.505L157.099 201.51C157.278 201.469 157.458 201.578 157.501 201.758C157.543 201.937 157.431 202.118 157.252 202.159L148.808 204.155C148.782 204.161 148.756 204.163 148.731 204.163Z" fill="black"/>
<path d="M145.72 186.944C145.571 186.944 145.435 186.844 145.397 186.692C145.352 186.513 145.46 186.333 145.639 186.288L152.751 184.493C152.93 184.447 153.11 184.555 153.155 184.734C153.201 184.913 153.092 185.093 152.913 185.138L145.802 186.935C145.774 186.941 145.747 186.944 145.72 186.944Z" fill="black"/>
<path d="M142.184 183.704C142.034 183.704 141.897 183.601 141.86 183.448C141.817 183.269 141.928 183.088 142.107 183.046L151.382 180.82C151.563 180.779 151.741 180.889 151.785 181.067C151.828 181.246 151.717 181.427 151.538 181.469L142.262 183.695C142.236 183.701 142.21 183.704 142.184 183.704Z" fill="black"/>
<path d="M148.851 199.575C148.702 199.575 148.566 199.475 148.528 199.323C148.483 199.144 148.591 198.964 148.77 198.918L155.882 197.122C156.06 197.078 156.241 197.186 156.286 197.365C156.332 197.542 156.224 197.724 156.045 197.769L148.933 199.564C148.906 199.572 148.878 199.575 148.851 199.575Z" fill="black"/>
<path d="M147.512 195.052C147.36 195.052 147.223 194.948 147.187 194.793C147.146 194.614 147.258 194.435 147.438 194.395L154.676 192.731C154.855 192.691 155.034 192.803 155.076 192.982C155.117 193.162 155.005 193.341 154.825 193.382L147.587 195.043C147.562 195.049 147.537 195.052 147.512 195.052Z" fill="black"/>
<path d="M146.759 190.707C146.61 190.707 146.474 190.605 146.436 190.455C146.391 190.276 146.499 190.094 146.678 190.049L153.789 188.254C153.968 188.21 154.15 188.316 154.194 188.495C154.24 188.674 154.132 188.856 153.953 188.9L146.841 190.696C146.813 190.704 146.786 190.707 146.759 190.707Z" fill="black"/>
<path d="M143.515 179.287C143.363 179.287 143.226 179.182 143.19 179.029C143.149 178.849 143.261 178.67 143.441 178.629L150.679 176.967C150.859 176.926 151.038 177.039 151.079 177.217C151.12 177.396 151.008 177.575 150.829 177.618L143.59 179.279C143.565 179.285 143.54 179.287 143.515 179.287Z" fill="black"/>
<path d="M142.429 175.033C142.28 175.033 142.144 174.933 142.106 174.781C142.061 174.602 142.169 174.42 142.348 174.376L149.46 172.58C149.638 172.536 149.82 172.644 149.865 172.821C149.91 173 149.802 173.182 149.623 173.227L142.511 175.022C142.484 175.03 142.456 175.033 142.429 175.033Z" fill="black"/>
<path d="M141.091 170.51C140.939 170.51 140.802 170.406 140.766 170.251C140.725 170.072 140.837 169.893 141.017 169.851L148.255 168.189C148.434 168.147 148.613 168.261 148.654 168.44C148.696 168.62 148.584 168.799 148.404 168.84L141.166 170.501C141.141 170.507 141.116 170.51 141.091 170.51Z" fill="black"/>
<path d="M140.005 166.255C139.856 166.255 139.72 166.154 139.681 166.003C139.636 165.824 139.745 165.644 139.923 165.598L147.035 163.802C147.214 163.758 147.395 163.865 147.44 164.044C147.485 164.223 147.377 164.404 147.198 164.449L140.086 166.245C140.059 166.252 140.032 166.255 140.005 166.255Z" fill="black"/>
<path d="M137.301 162.785C137.15 162.785 137.013 162.682 136.977 162.527C136.934 162.348 137.045 162.169 137.224 162.127L145.669 160.132C145.847 160.091 146.028 160.2 146.07 160.379C146.112 160.559 146.001 160.738 145.822 160.781L137.378 162.776C137.352 162.782 137.326 162.785 137.301 162.785Z" fill="black"/>
<path d="M134.29 145.566C134.141 145.566 134.005 145.464 133.966 145.314C133.921 145.136 134.03 144.954 134.208 144.91L141.32 143.113C141.499 143.069 141.68 143.177 141.725 143.354C141.77 143.533 141.662 143.715 141.484 143.761L134.371 145.555C134.344 145.563 134.317 145.566 134.29 145.566Z" fill="black"/>
<path d="M130.754 142.325C130.603 142.325 130.467 142.222 130.43 142.069C130.387 141.89 130.497 141.711 130.676 141.667L139.952 139.443C140.132 139.4 140.312 139.51 140.355 139.688C140.397 139.867 140.287 140.048 140.108 140.092L130.832 142.316C130.806 142.322 130.78 142.325 130.754 142.325Z" fill="black"/>
<path d="M137.421 158.196C137.272 158.196 137.136 158.096 137.097 157.944C137.052 157.765 137.161 157.585 137.339 157.54L144.451 155.745C144.629 155.701 144.811 155.807 144.856 155.986C144.901 156.165 144.793 156.345 144.614 156.39L137.502 158.187C137.475 158.193 137.448 158.196 137.421 158.196Z" fill="black"/>
<path d="M136.082 153.675C135.93 153.675 135.793 153.571 135.757 153.416C135.716 153.236 135.828 153.057 136.008 153.016L143.246 151.354C143.426 151.313 143.604 151.426 143.646 151.605C143.687 151.783 143.575 151.962 143.395 152.005L136.157 153.666C136.132 153.672 136.107 153.675 136.082 153.675Z" fill="black"/>
<path d="M135.329 149.327C135.18 149.327 135.044 149.227 135.006 149.075C134.96 148.896 135.069 148.716 135.247 148.67L142.359 146.874C142.538 146.83 142.719 146.938 142.764 147.116C142.809 147.295 142.701 147.476 142.522 147.521L135.411 149.316C135.383 149.324 135.356 149.327 135.329 149.327Z" fill="black"/>
<path d="M132.085 137.909C131.933 137.909 131.796 137.804 131.76 137.65C131.719 137.471 131.831 137.292 132.011 137.251L139.249 135.588C139.429 135.547 139.608 135.659 139.649 135.838C139.69 136.018 139.578 136.197 139.398 136.238L132.16 137.9C132.135 137.906 132.11 137.909 132.085 137.909Z" fill="black"/>
<path d="M130.998 133.654C130.849 133.654 130.714 133.553 130.675 133.403C130.63 133.223 130.738 133.042 130.917 132.997L138.029 131.201C138.207 131.157 138.389 131.265 138.434 131.443C138.479 131.622 138.371 131.803 138.192 131.849L131.08 133.644C131.053 133.65 131.025 133.654 130.998 133.654Z" fill="black"/>
<path d="M129.66 129.132C129.509 129.132 129.371 129.027 129.336 128.872C129.295 128.693 129.407 128.515 129.586 128.473L136.825 126.811C137.004 126.769 137.183 126.882 137.224 127.062C137.266 127.241 137.154 127.419 136.974 127.461L129.735 129.123C129.71 129.129 129.685 129.132 129.66 129.132Z" fill="black"/>
<path d="M128.574 124.877C128.425 124.877 128.289 124.776 128.251 124.625C128.206 124.446 128.314 124.265 128.493 124.221L135.605 122.424C135.783 122.38 135.964 122.487 136.01 122.665C136.055 122.845 135.947 123.026 135.768 123.071L128.656 124.868C128.629 124.874 128.601 124.877 128.574 124.877Z" fill="black"/>
<path d="M125.871 121.404C125.72 121.404 125.583 121.302 125.547 121.149C125.504 120.969 125.615 120.79 125.794 120.747L134.239 118.752C134.418 118.711 134.598 118.821 134.64 119C134.682 119.178 134.571 119.359 134.392 119.4L125.948 121.396C125.922 121.403 125.896 121.404 125.871 121.404Z" fill="black"/>
<path d="M122.859 104.187C122.71 104.187 122.574 104.086 122.536 103.935C122.491 103.756 122.599 103.574 122.778 103.53L129.89 101.733C130.068 101.689 130.25 101.796 130.295 101.975C130.34 102.154 130.232 102.336 130.053 102.38L122.941 104.176C122.914 104.183 122.886 104.187 122.859 104.187Z" fill="black"/>
<path d="M119.323 100.947C119.173 100.947 119.036 100.844 119 100.691C118.957 100.511 119.067 100.332 119.246 100.289L128.522 98.0635C128.702 98.0221 128.881 98.1307 128.924 98.31C128.967 98.4893 128.857 98.6703 128.677 98.7134L119.402 100.937C119.375 100.944 119.349 100.947 119.323 100.947Z" fill="black"/>
<path d="M125.991 116.817C125.842 116.817 125.706 116.716 125.668 116.565C125.623 116.386 125.731 116.204 125.91 116.159L133.022 114.365C133.2 114.319 133.381 114.426 133.427 114.605C133.472 114.784 133.363 114.965 133.185 115.011L126.073 116.807C126.046 116.813 126.018 116.817 125.991 116.817Z" fill="black"/>
<path d="M124.652 112.295C124.5 112.295 124.363 112.189 124.327 112.036C124.286 111.856 124.398 111.678 124.578 111.636L131.816 109.974C131.995 109.933 132.175 110.045 132.216 110.223C132.257 110.403 132.145 110.582 131.965 110.625L124.727 112.285C124.702 112.292 124.677 112.295 124.652 112.295Z" fill="black"/>
<path d="M123.899 107.947C123.75 107.947 123.614 107.847 123.576 107.696C123.531 107.518 123.639 107.337 123.818 107.291L130.929 105.496C131.108 105.45 131.289 105.558 131.335 105.737C131.38 105.915 131.271 106.096 131.093 106.142L123.981 107.937C123.953 107.944 123.926 107.947 123.899 107.947Z" fill="black"/>
<path d="M120.655 96.5284C120.503 96.5284 120.366 96.4253 120.33 96.2698C120.289 96.0916 120.401 95.9116 120.581 95.8697L127.819 94.2079C127.999 94.1677 128.178 94.2795 128.219 94.4595C128.26 94.6377 128.148 94.8177 127.968 94.8579L120.73 96.5197C120.705 96.5267 120.68 96.5284 120.655 96.5284Z" fill="black"/>
<path d="M119.569 92.2726C119.42 92.2726 119.284 92.1732 119.246 92.0206C119.201 91.8432 119.309 91.6622 119.488 91.6161L126.6 89.8204C126.778 89.776 126.96 89.8843 127.005 90.0617C127.05 90.2409 126.942 90.4219 126.763 90.468L119.651 92.2637C119.624 92.269 119.596 92.2726 119.569 92.2726Z" fill="black"/>
<path d="M118.23 87.752C118.078 87.752 117.941 87.6475 117.906 87.4944C117.864 87.3143 117.976 87.136 118.156 87.0945L125.395 85.432C125.574 85.3905 125.753 85.5022 125.794 85.6824C125.835 85.8625 125.723 86.0408 125.544 86.0822L118.305 87.7448C118.28 87.7502 118.255 87.752 118.23 87.752Z" fill="black"/>
<path d="M117.144 83.4991C116.995 83.4991 116.859 83.3985 116.821 83.2468C116.776 83.0676 116.884 82.8866 117.063 82.8409L124.175 81.0456C124.353 81.0018 124.534 81.1078 124.58 81.287C124.625 81.4661 124.517 81.6471 124.338 81.6928L117.226 83.4881C117.199 83.4954 117.171 83.4991 117.144 83.4991Z" fill="black"/>
<path d="M114.44 80.0264C114.289 80.0264 114.152 79.9228 114.116 79.7692C114.074 79.5897 114.185 79.4101 114.364 79.3676L122.808 77.3725C122.987 77.3318 123.167 77.441 123.209 77.6205C123.252 77.8 123.141 77.9795 122.961 78.0221L114.517 80.0172C114.492 80.0227 114.466 80.0264 114.44 80.0264Z" fill="black"/>
<path d="M111.429 62.8076C111.28 62.8076 111.144 62.7079 111.106 62.5554C111.061 62.3775 111.169 62.1956 111.348 62.1507L118.46 60.3559C118.638 60.3109 118.82 60.4184 118.865 60.5963C118.91 60.7762 118.802 60.9561 118.623 61.0011L111.511 62.7978C111.484 62.8037 111.456 62.8076 111.429 62.8076Z" fill="black"/>
<path d="M107.894 59.5674C107.743 59.5674 107.607 59.4645 107.57 59.3123C107.527 59.1323 107.637 58.9523 107.816 58.9088L117.092 56.6839C117.273 56.6424 117.452 56.7512 117.494 56.9312C117.538 57.1111 117.427 57.2911 117.248 57.3326L107.972 59.5575C107.946 59.5634 107.92 59.5674 107.894 59.5674Z" fill="black"/>
<path d="M114.56 75.4385C114.411 75.4385 114.276 75.3371 114.237 75.1869C114.192 75.0085 114.3 74.8264 114.479 74.7814L121.591 72.9863C121.769 72.9413 121.951 73.0483 121.996 73.2267C122.041 73.4069 121.933 73.5872 121.754 73.6322L114.642 75.4291C114.615 75.4348 114.587 75.4385 114.56 75.4385Z" fill="black"/>
<path d="M113.221 70.9161C113.069 70.9161 112.932 70.8113 112.897 70.6571C112.855 70.478 112.968 70.299 113.147 70.2571L120.386 68.5963C120.565 68.5544 120.744 68.6668 120.785 68.8458C120.826 69.0248 120.714 69.2039 120.535 69.2458L113.296 70.9085C113.271 70.9142 113.246 70.9161 113.221 70.9161Z" fill="black"/>
<path d="M112.469 66.5693C112.32 66.5693 112.184 66.4689 112.146 66.3182C112.1 66.1385 112.209 65.9588 112.387 65.9124L119.499 64.1175C119.678 64.0731 119.859 64.1813 119.904 64.359C119.949 64.5387 119.841 64.7184 119.662 64.7648L112.551 66.5597C112.523 66.5674 112.496 66.5693 112.469 66.5693Z" fill="black"/>
<path d="M88.1831 118.385L77.1787 126.598L154.469 229.731C155.292 230.827 157.104 231 158.903 230.11C161.057 229.044 162.952 227.63 164.586 225.868C165.95 224.398 166.295 222.613 165.473 221.517L88.1831 118.385Z" fill="white"/>
<path d="M77.645 126.667L154.734 229.532C155.465 230.505 157.118 230.622 158.753 229.812C160.861 228.769 162.741 227.367 164.339 225.643C165.58 224.306 165.936 222.692 165.205 221.718L88.1148 118.853L77.645 126.667ZM156.652 231.011C155.624 231.011 154.736 230.645 154.201 229.932L76.9109 126.799C76.8577 126.729 76.835 126.639 76.8477 126.551C76.8605 126.465 76.9072 126.385 76.9782 126.332L87.9825 118.119C88.1302 118.009 88.3386 118.039 88.4488 118.187L165.739 221.318C166.666 222.555 166.291 224.52 164.829 226.097C163.175 227.879 161.23 229.33 159.049 230.41C158.233 230.814 157.406 231.011 156.652 231.011Z" fill="black"/>
<path d="M142.525 207.551C142.423 207.551 142.323 207.505 142.258 207.417L109.59 163.827C109.479 163.68 109.509 163.471 109.657 163.361C109.804 163.25 110.013 163.28 110.123 163.427L142.792 207.017C142.902 207.164 142.872 207.373 142.725 207.484C142.665 207.529 142.594 207.551 142.525 207.551Z" fill="black"/>
<path d="M102.387 153.994C102.286 153.994 102.185 153.948 102.12 153.86L87.9401 134.939C87.8298 134.792 87.8596 134.583 88.0071 134.472C88.1546 134.363 88.3638 134.392 88.4741 134.539L102.654 153.46C102.764 153.607 102.734 153.816 102.587 153.927C102.527 153.971 102.456 153.994 102.387 153.994Z" fill="black"/>
<path d="M156.065 217.276C155.963 217.276 155.863 217.231 155.798 217.143L101.48 144.664C101.369 144.517 101.399 144.308 101.547 144.197C101.694 144.088 101.903 144.117 102.014 144.265L156.332 216.744C156.442 216.891 156.412 217.099 156.265 217.209C156.204 217.255 156.135 217.276 156.065 217.276Z" fill="black"/>
<path d="M70.0548 99.5469L70.0661 99.5589C69.3017 100.502 67.9671 101.606 66.9587 102.359C65.9503 103.111 65.3242 103.469 64.2019 103.936L77.1678 126.585C81.7256 125.034 85.3937 122.296 88.1722 118.371L70.0548 99.5469Z" fill="white"/>
<path d="M64.6778 104.096L77.3202 126.177C81.5841 124.672 85.0874 122.057 87.7398 118.402L70.0811 100.054C69.1474 101.1 67.7514 102.183 67.1584 102.626C66.2412 103.311 65.6156 103.685 64.6778 104.096ZM77.1681 126.917C77.051 126.917 76.9394 126.855 76.8787 126.749L63.9125 104.101C63.8648 104.017 63.8553 103.919 63.8864 103.828C63.9173 103.737 63.9858 103.663 64.074 103.627C65.17 103.172 65.7724 102.829 66.7595 102.09C67.3718 101.634 68.866 100.475 69.7444 99.4244C69.7613 99.3815 69.7874 99.3403 69.8231 99.306C69.9551 99.1789 70.1659 99.1824 70.2938 99.3145L70.3053 99.3248C70.3075 99.3283 70.3094 99.33 70.3116 99.3317L88.4128 118.14C88.5237 118.255 88.5374 118.432 88.4447 118.564C85.6379 122.528 81.8799 125.333 77.2756 126.9C77.24 126.912 77.2038 126.917 77.1681 126.917Z" fill="black"/>
<path d="M67.4102 102.117C68.4186 101.365 69.3015 100.503 70.0659 99.5591L58.9925 88.0545C58.0172 87.0407 55.5735 88.8641 56.2719 90.0838L64.2017 103.937C65.3238 103.471 66.4018 102.869 67.4102 102.117Z" fill="black"/>
<path d="M144.271 59.1729H144.009C143.756 59.1729 143.55 58.9673 143.55 58.7138V54.111C143.55 53.8575 143.756 53.6519 144.009 53.6519H144.271C144.523 53.6519 144.73 53.8575 144.73 54.111V58.7138C144.73 58.9673 144.523 59.1729 144.271 59.1729Z" fill="black"/>
<path d="M138.15 160.884C137.882 161.402 137.739 161.976 137.734 162.562L137.643 173.158L159.45 172.131L158.534 161.415C158.484 160.822 158.29 160.251 157.973 159.756L157.626 159.215C156.938 158.142 156.86 156.771 157.424 155.613L157.499 155.461C157.791 154.858 157.917 154.186 157.86 153.517L151.179 75.2989C151.09 74.2594 150.867 73.2369 150.516 72.2596L150.445 72.0619C146.623 72.4216 142.801 72.4423 138.978 72.7247L138.755 73.5307C138.582 74.1558 138.492 74.8036 138.487 75.4533L137.871 154.205C137.865 154.928 138.072 155.634 138.462 156.233C139.183 157.334 139.25 158.762 138.637 159.944L138.15 160.884Z" fill="white"/>
<path d="M139.236 73.0419L139.076 73.6207C138.911 74.2183 138.825 74.8348 138.82 75.455L138.204 154.206C138.199 154.868 138.384 155.505 138.741 156.051C139.529 157.256 139.602 158.806 138.933 160.097L138.446 161.038C138.203 161.507 138.072 162.035 138.067 162.565L137.979 172.807L159.087 171.814L158.202 161.443C158.156 160.906 157.979 160.384 157.691 159.937L157.344 159.394C156.596 158.229 156.513 156.724 157.124 155.465L157.198 155.316C157.465 154.768 157.579 154.155 157.527 153.546L150.846 75.3268C150.761 74.3314 150.55 73.353 150.218 72.4179C148.135 72.6064 146.027 72.6988 143.985 72.7893C142.428 72.8591 140.82 72.9288 139.236 73.0419ZM137.642 173.492C137.556 173.492 137.473 173.458 137.411 173.397C137.345 173.333 137.308 173.246 137.309 173.154L137.4 162.559C137.406 161.924 137.563 161.292 137.854 160.729L138.341 159.79C138.9 158.713 138.839 157.42 138.183 156.415C137.754 155.759 137.531 154.994 137.537 154.202L138.152 75.4512C138.158 74.7726 138.252 74.0958 138.433 73.4416L138.656 72.6366C138.694 72.5009 138.812 72.4047 138.953 72.3934C140.622 72.269 142.317 72.1955 143.956 72.1238C146.074 72.0296 148.264 71.9334 150.414 71.7298C150.565 71.711 150.707 71.8071 150.759 71.9504L150.83 72.1483C151.19 73.1513 151.419 74.2013 151.511 75.2702L158.193 153.489C158.253 154.219 158.118 154.951 157.798 155.607L157.724 155.759C157.213 156.809 157.283 158.065 157.906 159.034L158.253 159.575C158.599 160.116 158.811 160.742 158.866 161.387L159.781 172.102C159.789 172.193 159.76 172.283 159.701 172.351C159.64 172.419 159.555 172.46 159.465 172.464L137.658 173.49C137.652 173.492 137.647 173.492 137.642 173.492Z" fill="black"/>
<path d="M137.995 191.187L137.566 172.785L159.502 172.016L159.931 190.417C160.009 193.789 157.408 196.615 154.121 196.73L144.089 197.083C140.802 197.198 138.073 194.557 137.995 191.187Z" fill="white"/>
<path d="M138.328 191.178C138.365 192.749 139.002 194.195 140.122 195.252C141.201 196.269 142.607 196.801 144.077 196.75L154.109 196.398C157.209 196.289 159.671 193.61 159.597 190.425L159.176 172.362L137.907 173.108L138.328 191.178ZM143.881 197.42C142.31 197.42 140.82 196.827 139.664 195.737C138.413 194.557 137.702 192.943 137.661 191.195L137.233 172.792C137.228 172.61 137.372 172.459 137.554 172.451L159.489 171.682C159.579 171.672 159.665 171.711 159.73 171.773C159.796 171.834 159.833 171.919 159.835 172.008L160.264 190.41C160.347 193.957 157.596 196.942 154.132 197.063L144.101 197.415C144.027 197.418 143.954 197.42 143.881 197.42Z" fill="black"/>
<path d="M142.964 158.117C142.783 158.117 142.635 157.973 142.631 157.791C142.626 157.606 142.772 157.454 142.956 157.45L153.345 157.2C153.52 157.195 153.682 157.341 153.686 157.524C153.691 157.709 153.545 157.862 153.362 157.867L142.972 158.117C142.969 158.117 142.967 158.117 142.964 158.117Z" fill="white"/>
<path d="M143.486 191.754C143.304 191.754 143.155 191.608 143.152 191.425L142.924 177.341C142.921 177.156 143.068 177.004 143.252 177.001C143.422 177 143.588 177.145 143.591 177.33L143.819 191.414C143.822 191.599 143.675 191.751 143.491 191.754C143.489 191.754 143.488 191.754 143.486 191.754Z" fill="white"/>
<path d="M143.492 56.4143L138.978 72.7256C142.8 72.4426 146.622 72.4229 150.445 72.0627L144.827 56.4143H143.492Z" fill="black"/>
<path d="M198.946 97.7929H170.995C164.464 97.7929 159.17 103.088 159.17 109.619V117.379H166.018V112.64C166.018 107.578 169.777 103.476 174.414 103.476H194.255C198.891 103.476 202.65 107.578 202.65 112.64V117.379H210.772V109.619C210.772 103.088 205.479 97.7929 198.946 97.7929Z" fill="#B4FF5C"/>
<path d="M247.566 300.621H118.685C113.695 300.621 109.687 296.17 109.822 290.776L113.844 129.862C114.051 121.601 120.829 115.024 129.092 115.066L238.615 115.628C247.248 115.672 254.293 122.553 254.541 131.183L259.033 287.832C259.234 294.83 254.042 300.621 247.566 300.621Z" fill="white"/>
<path d="M129.015 115.399C121.025 115.399 114.377 121.875 114.177 129.871L110.155 290.786C110.089 293.411 111.062 295.954 112.824 297.761C114.414 299.39 116.496 300.288 118.685 300.288H247.565C250.431 300.288 253.157 299.11 255.235 296.972C257.536 294.603 258.799 291.275 258.7 287.841L254.209 131.194C253.964 122.695 247.113 116.006 238.614 115.962L129.09 115.401C129.065 115.401 129.039 115.399 129.015 115.399ZM247.565 300.955H118.685C116.314 300.955 114.063 299.986 112.347 298.226C110.46 296.292 109.418 293.573 109.488 290.767L113.511 129.853C113.719 121.5 120.667 114.733 129.015 114.733C129.041 114.733 129.067 114.733 129.094 114.733L238.615 115.294C247.479 115.339 254.621 122.316 254.874 131.174L259.368 287.822C259.47 291.436 258.139 294.939 255.712 297.436C253.509 299.706 250.615 300.955 247.565 300.955Z" fill="black"/>
<path d="M226.007 188.094H144.364C134.333 188.094 126.201 179.962 126.201 169.932V117.709C126.201 115.811 127.74 114.273 129.638 114.273H240.403C241.852 114.273 243.027 115.447 243.027 116.897V171.075C243.027 180.476 235.407 188.094 226.007 188.094Z" fill="#B4FF5C"/>
<path d="M234.629 300.278H137.005V229.538C137.005 225.855 139.991 222.868 143.675 222.868H225.29C230.448 222.868 234.629 227.049 234.629 232.208V300.278Z" fill="black"/>
<path d="M229.638 300.437H141.278V234.502C141.278 230.818 144.264 227.831 147.948 227.831H220.299C225.457 227.831 229.638 232.013 229.638 237.172V300.437Z" fill="white"/>
<path d="M141.611 300.104H229.304V237.172C229.304 232.206 225.266 228.165 220.299 228.165H147.948C144.454 228.165 141.611 231.008 141.611 234.502V300.104ZM229.638 300.771H141.278C141.093 300.771 140.944 300.623 140.944 300.438V234.502C140.944 230.641 144.086 227.498 147.948 227.498H220.299C225.633 227.498 229.971 231.839 229.971 237.172V300.438C229.971 300.623 229.823 300.771 229.638 300.771Z" fill="black"/>
<path d="M271.979 286.627C271.791 290.368 268.391 293.277 264.346 293.144L262.693 293.089C252.703 293.089 244.603 285.594 244.603 276.35V229.36C244.603 225.468 248.013 222.312 252.22 222.312H263.42C266.653 222.312 269.396 224.531 269.798 227.498C272.391 246.56 273 266.309 271.979 286.627Z" fill="white"/>
<path d="M252.221 222.645C248.206 222.645 244.939 225.658 244.939 229.36V276.35C244.939 285.396 252.903 292.756 262.694 292.756L264.358 292.811C268.191 292.932 271.467 290.156 271.646 286.61C272.696 265.759 271.963 245.886 269.469 227.543C269.089 224.751 266.489 222.645 263.422 222.645H252.221ZM264.611 293.482C264.519 293.482 264.428 293.481 264.336 293.478L262.684 293.423C252.536 293.423 244.271 285.764 244.271 276.35V229.36C244.271 225.289 247.837 221.978 252.221 221.978H263.422C266.821 221.978 269.706 224.333 270.13 227.454C272.631 245.837 273.364 265.751 272.314 286.644C272.121 290.465 268.693 293.482 264.611 293.482Z" fill="black"/>
<path d="M271.482 241.354H245.41C243.322 241.354 241.727 239.875 242.055 238.239L245.032 223.356C245.334 221.849 246.983 220.747 248.906 220.765L267.44 220.943C270.015 220.967 272.195 222.457 272.603 224.472L275.304 237.801C275.681 239.666 273.865 241.354 271.482 241.354Z" fill="black"/>
<path d="M98.7249 288.882C98.9132 292.624 102.312 295.533 106.357 295.4L108.01 295.345C118 295.345 126.1 287.85 126.1 278.605V231.615C126.1 227.724 122.689 224.568 118.483 224.568H107.283C104.051 224.568 101.309 226.787 100.905 229.754C98.3127 248.816 97.7024 268.565 98.7249 288.882Z" fill="white"/>
<path d="M107.283 224.901C104.215 224.901 101.615 227.007 101.235 229.8C98.7411 248.142 98.0084 268.014 99.0578 288.866C99.2364 292.412 102.507 295.182 106.346 295.067L107.998 295.012C117.8 295.012 125.766 287.652 125.766 278.606V231.616C125.766 227.914 122.499 224.901 118.483 224.901H107.283ZM106.094 295.738C102.012 295.738 98.5839 292.721 98.3917 288.899C97.34 268.006 98.0745 248.092 100.574 229.71C100.999 226.589 103.883 224.234 107.283 224.234H118.483C122.866 224.234 126.433 227.545 126.433 231.616V278.606C126.433 288.02 118.168 295.679 108.01 295.679L106.368 295.734C106.276 295.737 106.185 295.738 106.094 295.738Z" fill="black"/>
<path d="M99.2217 243.61H125.293C127.383 243.61 128.977 242.131 128.65 240.495L125.672 225.612C125.371 224.105 123.721 223.003 121.797 223.021L103.264 223.199C100.688 223.223 98.5078 224.713 98.0996 226.728L95.3999 240.057C95.0224 241.921 96.8392 243.61 99.2217 243.61Z" fill="#B4FF5C"/>
<path d="M270.354 82.7536H194.566C191.775 82.7536 189.512 85.0163 189.512 87.8061C189.512 90.5977 191.775 92.8605 194.566 92.8605H270.354C273.146 92.8605 275.409 90.5977 275.409 87.8061C275.409 85.0163 273.146 82.7536 270.354 82.7536Z" fill="white"/>
<path d="M194.565 83.088C191.963 83.088 189.845 85.204 189.845 87.8077C189.845 90.4096 191.963 92.5275 194.565 92.5275H270.355C272.958 92.5275 275.076 90.4096 275.076 87.8077C275.076 85.204 272.958 83.088 270.355 83.088H194.565ZM270.355 93.1935H194.565C191.594 93.1935 189.177 90.7772 189.177 87.8077C189.177 84.8365 191.594 82.4202 194.565 82.4202H270.355C273.324 82.4202 275.742 84.8365 275.742 87.8077C275.742 90.7772 273.324 93.1935 270.355 93.1935Z" fill="black"/>
<path d="M220.202 66.6594H178.343C175.752 66.6594 173.651 68.7596 173.651 71.3522C173.651 73.9429 175.752 76.043 178.343 76.043H220.202C222.794 76.043 224.895 73.9429 224.895 71.3522C224.895 68.7596 222.794 66.6594 220.202 66.6594Z" fill="white"/>
<path d="M178.343 66.9939C175.94 66.9939 173.984 68.9486 173.984 71.3522C173.984 73.7558 175.94 75.7104 178.343 75.7104H220.203C222.607 75.7104 224.561 73.7558 224.561 71.3522C224.561 68.9486 222.607 66.9939 220.203 66.9939H178.343ZM220.203 76.378H178.343C175.571 76.378 173.317 74.1241 173.317 71.3522C173.317 68.5803 175.571 66.3264 178.343 66.3264H220.203C222.973 66.3264 225.229 68.5803 225.229 71.3522C225.229 74.1241 222.973 76.378 220.203 76.378Z" fill="black"/>
<path d="M239.27 71.3522C239.27 73.9429 237.168 76.043 234.577 76.043C231.984 76.043 229.884 73.9429 229.884 71.3522C229.884 68.7596 231.984 66.6594 234.577 66.6594C237.168 66.6594 239.27 68.7596 239.27 71.3522Z" fill="white"/>
<path d="M234.576 66.9939C232.173 66.9939 230.218 68.9486 230.218 71.3522C230.218 73.7558 232.173 75.7104 234.576 75.7104C236.98 75.7104 238.936 73.7558 238.936 71.3522C238.936 68.9486 236.98 66.9939 234.576 66.9939ZM234.576 76.378C231.806 76.378 229.552 74.1241 229.552 71.3522C229.552 68.5803 231.806 66.3264 234.576 66.3264C237.348 66.3264 239.602 68.5803 239.602 71.3522C239.602 74.1241 237.348 76.378 234.576 76.378Z" fill="black"/>
<path d="M283.328 119.687C279.982 120.604 276.527 118.633 275.612 115.285C274.695 111.937 276.666 108.48 280.011 107.564C283.355 106.647 286.811 108.618 287.726 111.966C288.641 115.314 286.672 118.77 283.328 119.687ZM294.164 111.467L293.52 109.112L290.858 109.233C290.61 108.715 290.327 108.222 290.002 107.764L291.412 105.504L289.677 103.788L287.432 105.225C286.965 104.903 286.472 104.622 285.958 104.384L286.05 101.718L283.689 101.099L282.463 103.463C281.906 103.42 281.337 103.423 280.765 103.476L279.513 101.122L277.159 101.767L277.282 104.43C276.762 104.678 276.271 104.963 275.813 105.286L273.555 103.876L271.838 105.611L273.275 107.858C272.954 108.325 272.672 108.82 272.434 109.334L269.77 109.242L269.153 111.605L271.514 112.83C271.47 113.39 271.476 113.958 271.526 114.53L269.174 115.783L269.819 118.138L272.481 118.017C272.726 118.535 273.013 119.026 273.336 119.486L271.927 121.746L273.661 123.462L275.908 122.026C276.374 122.347 276.867 122.629 277.381 122.867L277.291 125.533L279.65 126.152L280.873 123.787C281.435 123.831 282.001 123.827 282.574 123.775L283.826 126.128L286.178 125.484L286.059 122.82C286.575 122.573 287.068 122.287 287.526 121.964L289.786 123.374L291.5 121.64L290.064 119.392C290.383 118.923 290.666 118.431 290.905 117.916L293.569 118.008L294.188 115.646L291.823 114.42C291.868 113.861 291.863 113.292 291.812 112.72L294.164 111.467Z" fill="#B4FF5C"/>
<path d="M154.218 322.085C147.925 322.085 141.585 321.539 135.237 320.449C135.055 320.417 134.933 320.246 134.965 320.064C134.996 319.882 135.167 319.761 135.35 319.791C148.293 322.015 161.207 321.959 173.735 319.621C173.917 319.588 174.09 319.706 174.125 319.888C174.158 320.069 174.039 320.243 173.858 320.276C167.397 321.481 160.834 322.085 154.218 322.085Z" fill="black"/>
<path d="M129.428 319.289C129.404 319.289 129.38 319.286 129.355 319.281C127.644 318.895 125.909 318.464 124.196 317.996C124.018 317.947 123.913 317.765 123.962 317.586C124.01 317.409 124.193 317.305 124.371 317.353C126.074 317.817 127.8 318.247 129.501 318.63C129.681 318.67 129.794 318.849 129.754 319.028C129.719 319.184 129.581 319.289 129.428 319.289Z" fill="black"/>
<path d="M153.47 316.829C141.077 316.829 128.683 314.516 116.505 309.921C116.332 309.855 116.245 309.664 116.31 309.492C116.375 309.319 116.568 309.232 116.74 309.298C131.949 315.036 147.496 317.191 162.946 315.707C163.134 315.69 163.293 315.824 163.31 316.007C163.328 316.189 163.193 316.353 163.01 316.371C159.834 316.676 156.65 316.829 153.47 316.829Z" fill="black"/>
<path d="M309.958 114.138C309.897 114.138 309.834 114.12 309.778 114.085C309.623 113.985 309.576 113.779 309.676 113.625C315.923 103.851 318.54 96.7983 312.291 91.8497C312.146 91.7361 312.123 91.5265 312.236 91.3815C312.352 91.2365 312.559 91.213 312.706 91.3267C319.326 96.5691 316.507 104.176 310.24 113.983C310.175 114.083 310.067 114.138 309.958 114.138Z" fill="black"/>
<path d="M305.714 120.495C305.65 120.495 305.583 120.476 305.527 120.437C305.373 120.334 305.335 120.126 305.44 119.974C306.237 118.808 307.173 117.435 308.063 116.096C308.165 115.942 308.371 115.9 308.525 116.003C308.678 116.103 308.72 116.311 308.618 116.465C307.726 117.806 306.788 119.183 305.989 120.349C305.926 120.444 305.822 120.495 305.714 120.495Z" fill="black"/>
<path d="M312.606 81.4883C312.531 81.4883 312.456 81.4634 312.393 81.4135C310.329 79.7122 307.892 78.0149 305.154 76.3674C304.996 76.2714 304.945 76.0659 305.039 75.9085C305.135 75.751 305.34 75.7011 305.498 75.7952C308.264 77.4599 310.728 79.1765 312.817 80.8969C312.961 81.0141 312.98 81.2253 312.863 81.3674C312.796 81.448 312.702 81.4883 312.606 81.4883Z" fill="black"/>
<path d="M312.997 118.939C312.919 118.939 312.841 118.911 312.777 118.857C312.639 118.735 312.623 118.525 312.745 118.386C324.884 104.48 325.336 93.2212 314.164 82.9502C314.029 82.8244 314.019 82.6129 314.142 82.4791C314.268 82.3414 314.48 82.3334 314.613 82.4592C320.551 87.916 323.232 93.6064 322.809 99.8556C322.414 105.704 319.286 111.909 313.248 118.825C313.182 118.901 313.089 118.939 312.997 118.939Z" fill="black"/>
<path d="M263.555 64.5518C263.473 64.5518 263.39 64.5227 263.326 64.4605C263.194 64.3324 263.188 64.1208 263.316 63.9888L264.543 62.7075C264.669 62.5736 264.883 62.5697 265.015 62.6959C265.147 62.824 265.152 63.0356 265.024 63.1676L263.795 64.4489C263.731 64.5188 263.644 64.5518 263.555 64.5518Z" fill="black"/>
<path d="M259.261 69.0381C259.177 69.0381 259.094 69.0075 259.029 68.9462C258.897 68.818 258.891 68.6075 259.02 68.4735L260.246 67.1932C260.375 67.0593 260.585 67.0554 260.719 67.1817C260.851 67.31 260.857 67.5205 260.729 67.6544L259.502 68.9348C259.437 69.0036 259.349 69.0381 259.261 69.0381Z" fill="black"/>
<path d="M260.463 64.624C260.38 64.624 260.295 64.591 260.231 64.527L258.985 63.3025C258.853 63.1725 258.853 62.961 258.981 62.829C259.109 62.699 259.322 62.6971 259.452 62.8252L260.698 64.0516C260.828 64.1816 260.83 64.3931 260.702 64.5231C260.636 64.591 260.551 64.624 260.463 64.624Z" fill="black"/>
<path d="M264.827 68.9111C264.741 68.9111 264.657 68.8805 264.592 68.8154L263.345 67.5903C263.215 67.4602 263.213 67.2496 263.342 67.1175C263.472 66.9855 263.684 66.9855 263.814 67.1137L265.061 68.3407C265.191 68.4709 265.193 68.6814 265.062 68.8116C264.997 68.8786 264.911 68.9111 264.827 68.9111Z" fill="black"/>
<path d="M194.92 310.465H310.844C314.032 310.465 316.617 307.885 316.617 304.702L316.61 143.466C316.526 139.148 314.444 136.671 310.842 136.671H194.918C192.052 136.671 189.609 138.755 189.151 141.591L189.145 304.702C189.145 307.885 191.73 310.465 194.92 310.465Z" fill="black"/>
<path d="M190.126 310.615H306.067C309.256 310.615 311.841 308.03 311.841 304.841L311.833 143.277C311.749 138.95 309.665 136.489 306.067 136.489H190.123C187.256 136.489 184.814 138.582 184.354 141.423L184.351 304.841C184.351 308.03 186.936 310.615 190.126 310.615Z" fill="white"/>
<path d="M184.688 141.45L184.685 304.84C184.685 306.294 185.25 307.66 186.278 308.688C187.306 309.716 188.672 310.281 190.126 310.281H306.067C307.52 310.281 308.886 309.716 309.914 308.688C310.941 307.66 311.508 306.294 311.508 304.84L311.5 143.278C311.42 139.118 309.489 136.823 306.067 136.823H190.123C187.415 136.823 185.134 138.767 184.688 141.45ZM306.067 310.948H190.126C188.495 310.948 186.96 310.313 185.807 309.159C184.653 308.006 184.018 306.471 184.018 304.84L184.021 141.424C184.021 141.406 184.022 141.387 184.025 141.37C184.513 138.35 187.077 136.155 190.123 136.155H306.067C309.857 136.155 312.08 138.75 312.167 143.27L312.174 304.84C312.174 306.471 311.538 308.006 310.385 309.159C309.233 310.313 307.698 310.948 306.067 310.948Z" fill="black"/>
<path d="M223.707 148.958H275.74C277.658 148.958 279.21 147.405 279.21 145.488V134.888C279.21 132.971 277.658 131.418 275.74 131.418H223.707C221.792 131.418 220.239 132.971 220.239 134.888V145.488C220.239 147.405 221.792 148.958 223.707 148.958Z" fill="white"/>
<path d="M223.709 131.751C221.98 131.751 220.572 133.158 220.572 134.888V145.488C220.572 147.219 221.98 148.625 223.709 148.625H275.74C277.47 148.625 278.878 147.219 278.878 145.488V134.888C278.878 133.158 277.47 131.751 275.74 131.751H223.709ZM275.74 149.292H223.709C221.611 149.292 219.905 147.586 219.905 145.488V134.888C219.905 132.791 221.611 131.084 223.709 131.084H275.74C277.839 131.084 279.544 132.791 279.544 134.888V145.488C279.544 147.586 277.839 149.292 275.74 149.292Z" fill="black"/>
<path d="M250.26 131.039C247.576 131.376 245.319 129.119 245.658 126.437C245.888 124.608 247.366 123.132 249.193 122.902C251.877 122.563 254.132 124.82 253.795 127.504C253.564 129.331 252.088 130.807 250.26 131.039ZM249.696 117.209C244.12 117.209 239.621 121.73 239.621 127.306V142.439C239.621 143.799 240.723 144.901 242.085 144.901H257.309C258.668 144.901 259.771 143.799 259.771 142.439V127.306C259.771 121.73 255.272 117.209 249.696 117.209Z" fill="white"/>
<path d="M249.725 123.201C249.562 123.201 249.398 123.212 249.234 123.231C247.565 123.442 246.2 124.807 245.989 126.476C245.84 127.654 246.232 128.803 247.062 129.633C247.892 130.463 249.041 130.854 250.219 130.706C251.888 130.495 253.253 129.131 253.464 127.461C253.612 126.285 253.219 125.135 252.391 124.305C251.677 123.59 250.725 123.201 249.725 123.201ZM249.726 131.404C248.551 131.404 247.43 130.945 246.591 130.106C245.613 129.128 245.153 127.776 245.328 126.394C245.574 124.426 247.184 122.818 249.151 122.57C250.532 122.397 251.886 122.857 252.862 123.833C253.838 124.809 254.3 126.163 254.125 127.544C253.879 129.513 252.269 131.121 250.302 131.368C250.109 131.392 249.918 131.404 249.726 131.404ZM249.698 117.542C244.325 117.542 239.955 121.921 239.955 127.305V142.437C239.955 143.611 240.911 144.566 242.085 144.566H257.309C258.483 144.566 259.436 143.611 259.436 142.437V127.305C259.436 121.921 255.069 117.542 249.698 117.542ZM257.309 145.234H242.085C240.541 145.234 239.288 143.979 239.288 142.437V127.305C239.288 121.554 243.956 116.874 249.698 116.874C255.435 116.874 260.104 121.554 260.104 127.305V142.437C260.104 143.979 258.851 145.234 257.309 145.234Z" fill="black"/>
<path d="M285.836 153.711C284.339 153.711 283.124 154.928 283.124 156.421V164.494C283.124 165.989 284.339 167.206 285.836 167.206H293.907C295.402 167.206 296.617 165.989 296.617 164.494V156.421C296.617 154.928 295.402 153.711 293.907 153.711H285.836ZM293.907 167.871H285.836C283.972 167.871 282.457 166.358 282.457 164.494V156.421C282.457 154.559 283.972 153.044 285.836 153.044H293.907C295.771 153.044 297.286 154.559 297.286 156.421V164.494C297.286 166.358 295.771 167.871 293.907 167.871Z" fill="black"/>
<path d="M288.812 164.685C288.76 164.685 288.707 164.679 288.655 164.67C288.348 164.613 288.097 164.392 288.001 164.096L286.308 159.68C286.243 159.509 286.328 159.316 286.499 159.251C286.671 159.186 286.866 159.27 286.931 159.442L288.63 163.874C288.666 163.984 288.745 164.008 288.778 164.015C288.807 164.021 288.883 164.026 288.944 163.963L293.624 156.492C293.721 156.337 293.927 156.29 294.082 156.387C294.239 156.485 294.286 156.69 294.189 156.848L289.496 164.34C289.487 164.351 289.478 164.362 289.469 164.374C289.307 164.573 289.063 164.685 288.812 164.685Z" fill="black"/>
<path d="M285.836 175.034C284.339 175.034 283.124 176.251 283.124 177.745V185.817C283.124 187.313 284.339 188.529 285.836 188.529H293.907C295.402 188.529 296.617 187.313 296.617 185.817V177.745C296.617 176.251 295.402 175.034 293.907 175.034H285.836ZM293.907 189.195H285.836C283.972 189.195 282.457 187.679 282.457 185.817V177.745C282.457 175.883 283.972 174.367 285.836 174.367H293.907C295.771 174.367 297.286 175.883 297.286 177.745V185.817C297.286 187.679 295.771 189.195 293.907 189.195Z" fill="black"/>
<path d="M288.812 186.005C288.76 186.005 288.707 186.002 288.655 185.993C288.35 185.935 288.097 185.715 288.001 185.42L286.308 181.004C286.243 180.831 286.328 180.638 286.499 180.573C286.671 180.506 286.866 180.593 286.931 180.764L288.63 185.196C288.666 185.307 288.745 185.33 288.778 185.335C288.807 185.343 288.883 185.348 288.944 185.285L293.624 177.814C293.721 177.657 293.927 177.61 294.082 177.709C294.239 177.807 294.286 178.013 294.189 178.168L289.496 185.66C289.487 185.673 289.478 185.684 289.469 185.695C289.307 185.893 289.063 186.005 288.812 186.005Z" fill="black"/>
<path d="M282.79 204.555C282.606 204.555 282.457 204.407 282.457 204.222V198.229C282.457 196.828 283.596 195.687 284.997 195.687H294.744C296.146 195.687 297.286 196.828 297.286 198.229V204.14C297.286 204.323 297.137 204.473 296.952 204.473C296.768 204.473 296.617 204.323 296.617 204.14V198.229C296.617 197.196 295.778 196.355 294.744 196.355H284.997C283.965 196.355 283.124 197.196 283.124 198.229V204.222C283.124 204.407 282.975 204.555 282.79 204.555Z" fill="black"/>
<path d="M199.355 159.212C198.402 159.212 197.626 159.988 197.626 160.944C197.626 161.897 198.402 162.673 199.355 162.673H254.74C255.693 162.673 256.469 161.897 256.469 160.944C256.469 159.988 255.693 159.212 254.74 159.212H199.355ZM254.74 163.34H199.355C198.033 163.34 196.958 162.266 196.958 160.944C196.958 159.622 198.033 158.544 199.355 158.544H254.74C256.062 158.544 257.136 159.622 257.136 160.944C257.136 162.266 256.062 163.34 254.74 163.34Z" fill="black"/>
<path d="M199.356 180.534C198.402 180.534 197.626 181.31 197.626 182.264C197.626 183.219 198.402 183.995 199.356 183.995H220.207C221.16 183.995 221.936 183.219 221.936 182.264C221.936 181.31 221.16 180.534 220.207 180.534H199.356ZM220.207 184.662H199.356C198.034 184.662 196.959 183.585 196.959 182.264C196.959 180.943 198.034 179.867 199.356 179.867H220.207C221.529 179.867 222.603 180.943 222.603 182.264C222.603 183.585 221.529 184.662 220.207 184.662Z" fill="black"/>
<path d="M231.695 180.535C230.741 180.535 229.965 181.312 229.965 182.264C229.965 183.22 230.741 183.996 231.695 183.996H266.214C267.168 183.996 267.945 183.22 267.945 182.264C267.945 181.312 267.168 180.535 266.214 180.535H231.695ZM266.214 184.663H231.695C230.372 184.663 229.297 183.586 229.297 182.264C229.297 180.944 230.372 179.868 231.695 179.868H266.214C267.536 179.868 268.612 180.944 268.612 182.264C268.612 183.586 267.536 184.663 266.214 184.663Z" fill="black"/>
<path d="M199.356 201.857C198.402 201.857 197.626 202.633 197.626 203.586C197.626 204.54 198.402 205.316 199.356 205.316H236.602C237.557 205.316 238.333 204.54 238.333 203.586C238.333 202.633 237.557 201.857 236.602 201.857H199.356ZM236.602 205.983H199.356C198.034 205.983 196.959 204.908 196.959 203.586C196.959 202.264 198.034 201.19 199.356 201.19H236.602C237.924 201.19 239.001 202.264 239.001 203.586C239.001 204.908 237.924 205.983 236.602 205.983Z" fill="black"/>
<path d="M199.357 223.203C198.403 223.203 197.627 223.978 197.627 224.934C197.627 225.887 198.403 226.664 199.357 226.664H244.92C245.876 226.664 246.649 225.887 246.649 224.934C246.649 223.978 245.876 223.203 244.92 223.203H199.357ZM244.92 227.331H199.357C198.035 227.331 196.96 226.256 196.96 224.934C196.96 223.613 198.035 222.535 199.357 222.535H244.92C246.243 222.535 247.319 223.613 247.319 224.934C247.319 226.256 246.243 227.331 244.92 227.331Z" fill="black"/>
<path d="M225.813 244.582C224.859 244.582 224.083 245.358 224.083 246.312C224.083 247.266 224.859 248.042 225.813 248.042H240.232C241.187 248.042 241.963 247.266 241.963 246.312C241.963 245.358 241.187 244.582 240.232 244.582H225.813ZM240.232 248.709H225.813C224.491 248.709 223.416 247.634 223.416 246.312C223.416 244.99 224.491 243.915 225.813 243.915H240.232C241.554 243.915 242.63 244.99 242.63 246.312C242.63 247.634 241.554 248.709 240.232 248.709Z" fill="black"/>
<path d="M280.813 315.189L281.163 320.789C281.182 320.943 281.077 321.086 280.941 321.093L278.21 321.263C278.091 321.271 277.989 321.175 277.974 321.042L277.073 315.803L280.813 315.189Z" fill="white"/>
<path d="M277.457 316.077L278.292 320.924L280.842 320.766L280.504 315.576L277.457 316.077ZM278.195 321.597C277.913 321.597 277.678 321.381 277.642 321.084L276.744 315.859C276.728 315.771 276.747 315.681 276.799 315.608C276.853 315.536 276.931 315.487 277.019 315.473L280.758 314.859C280.853 314.841 280.948 314.869 281.02 314.928C281.095 314.985 281.139 315.073 281.146 315.167L281.497 320.767C281.516 320.922 281.464 321.095 281.355 321.225C281.253 321.347 281.114 321.418 280.962 321.427L278.229 321.595C278.219 321.597 278.207 321.597 278.195 321.597Z" fill="black"/>
<path d="M281.595 319.364C281.777 320.014 282.158 321.845 282.32 322.947C282.42 323.639 281.983 324.292 281.315 324.474C279.424 324.985 274.906 324.964 271.144 325.129C270.886 325.141 270.409 325.015 270.2 324.391C269.484 322.273 273.438 321.618 277.345 319.465C277.423 319.423 277.517 319.427 277.588 319.477C277.633 319.509 277.69 319.549 277.758 319.591C278.437 320.025 279.568 320.025 280.258 319.609L281.037 319.141C281.252 319.012 281.529 319.123 281.595 319.364Z" fill="white"/>
<path d="M277.45 319.788C276.268 320.434 275.087 320.946 274.041 321.398C271.532 322.485 270.134 323.155 270.514 324.283C270.686 324.791 271.057 324.803 271.128 324.795C272.093 324.753 273.107 324.722 274.114 324.694C276.938 324.609 279.859 324.521 281.228 324.151C281.736 324.013 282.064 323.516 281.988 322.996C281.837 321.944 281.457 320.109 281.275 319.453C281.27 319.439 281.261 319.429 281.247 319.422C281.228 319.415 281.214 319.424 281.209 319.425L280.428 319.895C279.63 320.375 278.352 320.365 277.578 319.873C277.529 319.842 277.488 319.814 277.45 319.788ZM271.109 325.464C270.684 325.464 270.124 325.213 269.882 324.496C269.286 322.73 271.267 321.872 273.777 320.787C274.823 320.332 276.013 319.818 277.184 319.172C277.373 319.068 277.609 319.081 277.781 319.206C277.821 319.234 277.875 319.271 277.935 319.31C278.508 319.674 279.493 319.68 280.087 319.324L280.865 318.854C281.058 318.739 281.287 318.72 281.493 318.802C281.702 318.886 281.854 319.057 281.915 319.274C282.106 319.953 282.489 321.797 282.649 322.899C282.774 323.754 282.238 324.569 281.402 324.795C279.956 325.186 277.129 325.27 274.134 325.359C273.13 325.389 272.119 325.42 271.158 325.462C271.142 325.462 271.125 325.464 271.109 325.464Z" fill="black"/>
<path d="M282.434 323.446C282.439 323.465 282.439 323.479 282.441 323.483C282.541 324.176 281.884 324.601 281.257 324.895C279.393 325.77 271.872 325.268 271.583 325.248C271.576 325.248 271.572 325.248 271.567 325.248C271.474 325.25 270.518 325.25 270.243 324.655C270.208 324.583 270.187 324.478 270.175 324.381C270.154 324.222 270.165 324.061 270.199 323.905C270.229 323.778 270.354 323.697 270.48 323.731C271.876 324.087 275.136 324.205 278.393 323.847C280.558 323.608 281.499 323.136 282.002 322.836C282.137 322.754 282.312 322.833 282.344 322.991C282.37 323.123 282.403 323.282 282.434 323.446Z" fill="white"/>
<path d="M271.563 324.916C271.574 324.916 271.593 324.916 271.598 324.916C274.267 325.099 279.681 325.266 281.115 324.594C281.858 324.244 282.165 323.918 282.109 323.533L282.432 323.447L282.104 323.512L282.042 323.198C281.455 323.529 280.447 323.958 278.428 324.179C275.095 324.546 271.907 324.405 270.506 324.08C270.494 324.17 270.494 324.256 270.504 324.338C270.52 324.461 270.541 324.508 270.544 324.517C270.695 324.841 271.284 324.923 271.561 324.916H271.563ZM276.302 325.748C274.092 325.748 271.976 325.612 271.558 325.583C271.36 325.578 270.293 325.562 269.939 324.797C269.895 324.702 269.862 324.581 269.843 324.426C269.817 324.235 269.827 324.035 269.874 323.833C269.906 323.685 269.999 323.553 270.129 323.472C270.26 323.394 270.412 323.371 270.56 323.407C271.841 323.735 275.009 323.885 278.355 323.516C280.398 323.292 281.314 322.857 281.828 322.551C281.984 322.457 282.177 322.445 282.344 322.519C282.512 322.593 282.634 322.746 282.67 322.927L282.76 323.383L282.771 323.439C282.922 324.482 281.814 325.002 281.398 325.198C280.478 325.63 278.35 325.748 276.302 325.748Z" fill="black"/>
<path d="M277.075 321.509C277.006 321.509 276.934 321.487 276.875 321.44L275.734 320.572C275.588 320.461 275.559 320.252 275.671 320.105C275.782 319.958 275.991 319.929 276.138 320.041L277.28 320.91C277.426 321.022 277.453 321.231 277.343 321.378C277.276 321.465 277.178 321.509 277.075 321.509Z" fill="black"/>
<path d="M275.561 322.13C275.493 322.13 275.422 322.109 275.363 322.063L274.364 321.314C274.217 321.204 274.187 320.994 274.297 320.847C274.407 320.7 274.617 320.67 274.764 320.781L275.763 321.529C275.91 321.64 275.939 321.849 275.829 321.996C275.763 322.084 275.663 322.13 275.561 322.13Z" fill="black"/>
<path d="M288.766 264.398C288.766 264.398 290.935 268.736 291.664 273.307C292.343 277.563 294.839 295.083 300.923 309.136C301.613 310.73 300.818 312.388 299.121 312.758C298.442 312.905 298.159 312.664 297.57 312.378C297.267 312.231 296.765 311.795 296.765 311.795C296.765 311.795 285.994 302.794 281.601 279.174C278.778 263.982 279.248 265.188 279.248 265.188L288.766 264.398Z" fill="black"/>
<path d="M285.743 266.382C285.743 266.382 287.009 274.628 284.616 280.728C282.316 286.592 280.85 309.587 281.705 316.23C281.758 316.648 281.469 317.031 281.052 317.088C280.006 317.235 278.12 317.435 276.83 317.194C276.592 317.149 276.404 316.974 276.342 316.741C275.492 313.371 268.427 282.904 273.407 267.29L285.743 266.382Z" fill="black"/>
<path d="M283.411 287.864C283.233 287.864 283.084 287.722 283.079 287.54C283.075 287.405 282.995 284.204 284.315 281.13C284.769 280.076 284.83 279.033 284.786 277.692C284.781 277.507 284.925 277.352 285.109 277.346C285.296 277.328 285.447 277.486 285.454 277.669C285.499 279.064 285.428 280.23 284.93 281.392C283.665 284.333 283.746 287.488 283.746 287.52C283.751 287.704 283.606 287.858 283.422 287.864C283.419 287.864 283.415 287.864 283.411 287.864Z" fill="white"/>
<path d="M274.809 271.471C274.744 271.471 274.699 271.501 274.677 271.521C274.653 271.542 274.611 271.589 274.609 271.665L274.466 276.117C274.448 276.731 274.796 277.291 275.358 277.541L277.622 278.555C278.178 278.804 278.831 278.737 279.324 278.379L280.79 277.32C281.16 277.051 281.387 276.636 281.413 276.178L281.663 271.516C281.668 271.433 281.623 271.381 281.597 271.357C281.573 271.333 281.515 271.297 281.432 271.307C280.145 271.494 277.575 271.764 274.831 271.472C274.824 271.471 274.817 271.471 274.809 271.471ZM278.318 279.371C277.989 279.371 277.658 279.303 277.348 279.163L275.086 278.15C274.277 277.788 273.773 276.982 273.8 276.096L273.942 271.644C273.949 271.404 274.058 271.175 274.239 271.018C274.421 270.86 274.66 270.783 274.902 270.808C277.571 271.092 280.08 270.828 281.337 270.646C281.595 270.608 281.853 270.687 282.047 270.865C282.24 271.04 282.343 271.291 282.328 271.553L282.078 276.215C282.044 276.872 281.716 277.473 281.181 277.859L279.716 278.919C279.304 279.218 278.813 279.371 278.318 279.371Z" fill="white"/>
<path d="M289.738 278.319C289.601 278.319 289.465 278.287 289.338 278.222L286.847 276.956C286.58 276.821 286.401 276.562 286.369 276.265L285.806 271.079C285.756 270.609 286.082 270.184 286.55 270.112L289.584 269.642C289.764 269.616 289.935 269.739 289.963 269.921C289.992 270.102 289.867 270.272 289.686 270.301L286.652 270.771C286.537 270.789 286.458 270.892 286.471 271.007L287.031 276.194C287.04 276.267 287.083 276.329 287.148 276.362L289.639 277.628C289.713 277.664 289.797 277.658 289.863 277.611L291.36 276.555C291.511 276.448 291.718 276.485 291.824 276.635C291.932 276.785 291.896 276.994 291.745 277.1L290.248 278.157C290.094 278.265 289.917 278.319 289.738 278.319Z" fill="white"/>
<path d="M299.131 315.427C298.8 313.766 298.655 313.424 297.858 312.145C297.267 311.193 298.705 309.759 299.44 309.648C300.661 309.396 300.466 309.785 301.865 311.576L302.96 312.923C302.96 312.923 299.423 316.878 299.131 315.427Z" fill="white"/>
<path d="M299.454 316.075C299.395 316.075 299.339 316.069 299.287 316.054C299.14 316.016 298.885 315.89 298.807 315.492C298.516 314.039 298.425 313.659 297.846 312.691C297.751 312.534 297.804 312.329 297.96 312.235C298.118 312.141 298.325 312.191 298.419 312.349C299.05 313.405 299.164 313.88 299.46 315.359C299.469 315.409 299.482 315.425 299.482 315.425C299.798 315.502 301.2 314.35 302.521 312.911L301.663 311.865C301.255 311.344 301.004 310.937 300.781 310.566C300.686 310.407 300.738 310.202 300.896 310.108C301.053 310.013 301.257 310.064 301.354 310.222C301.566 310.577 301.804 310.963 302.184 311.45L303.219 312.711C303.323 312.838 303.319 313.022 303.209 313.145C302.396 314.053 300.472 316.075 299.454 316.075Z" fill="black"/>
<path d="M298.941 314.804L300.356 312.668C301.017 311.67 302.422 311.521 303.276 312.358L304.897 313.718C304.897 313.718 305.206 314.654 305.107 315.257C304.979 316.042 304.727 317.163 304.238 318.272C303.485 319.979 301.403 323.41 300.662 324.615C300.508 324.867 300.119 325.117 299.849 324.996C299.527 324.853 299.194 324.594 298.872 324.292C298.375 323.825 298.542 321.642 298.72 320.122C298.834 319.148 298.75 316.661 298.707 315.636C298.696 315.34 298.776 315.049 298.941 314.804Z" fill="white"/>
<path d="M301.942 312.147C301.887 312.147 301.833 312.15 301.777 312.156C301.31 312.206 300.894 312.46 300.633 312.851L299.216 314.987C299.093 315.176 299.031 315.396 299.04 315.622C299.081 316.654 299.167 319.162 299.049 320.161C298.663 323.454 299.025 323.977 299.1 324.048C299.436 324.363 299.732 324.578 299.985 324.691C300.043 324.718 300.275 324.607 300.378 324.439C301.203 323.097 303.2 319.797 303.932 318.137C304.414 317.044 304.658 315.939 304.778 315.202C304.84 314.818 304.694 314.204 304.605 313.91L303.059 312.613C302.748 312.308 302.352 312.147 301.942 312.147ZM300.002 325.362C299.904 325.362 299.807 325.343 299.711 325.3C299.389 325.156 299.038 324.906 298.645 324.534C298.343 324.253 297.988 323.484 298.388 320.084C298.5 319.132 298.414 316.665 298.373 315.649C298.36 315.282 298.457 314.925 298.661 314.618L300.079 312.482C300.448 311.924 301.04 311.564 301.707 311.494C302.373 311.423 303.029 311.652 303.509 312.12L305.11 313.463C305.157 313.503 305.192 313.554 305.213 313.613C305.247 313.716 305.545 314.644 305.436 315.31C305.31 316.084 305.052 317.249 304.542 318.405C303.794 320.103 301.777 323.435 300.946 324.789C300.774 325.068 300.39 325.362 300.002 325.362Z" fill="black"/>
<path d="M298.772 317.571C298.627 317.571 298.492 317.474 298.45 317.327C298.402 317.148 298.507 316.965 298.684 316.916L300.207 316.498C300.386 316.448 300.569 316.552 300.619 316.731C300.667 316.909 300.562 317.092 300.385 317.141L298.861 317.559C298.831 317.568 298.8 317.571 298.772 317.571Z" fill="black"/>
<path d="M298.885 318.933C298.738 318.933 298.605 318.834 298.564 318.687C298.514 318.509 298.618 318.325 298.797 318.276L300.321 317.857C300.498 317.809 300.683 317.914 300.731 318.091C300.78 318.268 300.675 318.452 300.498 318.5L298.974 318.92C298.944 318.928 298.915 318.933 298.885 318.933Z" fill="black"/>
<path d="M300.44 325.107C300.284 325.107 300.138 325.083 300.003 325.036C299.548 324.88 298.41 324.54 298.537 322.909C298.668 321.217 299.954 320.356 300.893 319.247C301.61 318.399 301.538 314.858 301.765 314.163C302.168 312.92 303.985 312.732 304.897 313.718C305.475 314.339 305.542 315.69 305.486 316.684C305.381 318.543 304.286 322.247 302.907 324.034C302.232 324.907 301.192 325.107 300.44 325.107Z" fill="white"/>
<path d="M303.405 313.421C303.281 313.421 303.155 313.435 303.031 313.462C302.558 313.567 302.211 313.859 302.078 314.267C302.016 314.464 301.971 315.049 301.924 315.668C301.791 317.454 301.648 318.868 301.147 319.462C300.922 319.726 300.68 319.978 300.444 320.22C299.68 321.01 298.959 321.754 298.867 322.935C298.772 324.16 299.436 324.492 300.066 324.708L300.11 324.721C300.211 324.756 300.322 324.774 300.438 324.774C300.988 324.774 302.005 324.651 302.639 323.831C304.028 322.037 305.054 318.387 305.15 316.665C305.225 315.358 305.043 314.367 304.651 313.946C304.341 313.611 303.878 313.421 303.405 313.421ZM300.438 325.441C300.248 325.441 300.065 325.411 299.892 325.352L299.853 325.338C299.361 325.171 298.059 324.727 298.203 322.884C298.312 321.463 299.151 320.596 299.965 319.756C300.192 319.521 300.429 319.279 300.637 319.032C301.04 318.556 301.172 316.788 301.26 315.618C301.322 314.799 301.359 314.323 301.446 314.061C301.652 313.423 302.178 312.966 302.889 312.81C303.705 312.631 304.589 312.898 305.141 313.491C305.809 314.212 305.878 315.636 305.818 316.703C305.715 318.51 304.632 322.344 303.168 324.239C302.358 325.285 301.11 325.441 300.438 325.441Z" fill="black"/>
<path d="M300.44 325.441C299.978 325.441 299.556 325.262 299.284 324.949C299.039 324.667 298.932 324.298 298.986 323.912C299.237 322.1 300.213 321.163 301.246 320.173C301.981 319.465 302.195 316.756 302.283 315.599C302.323 315.102 302.342 314.878 302.375 314.754C302.535 314.165 303.253 313.639 304.007 313.556C304.71 313.48 305.305 313.797 305.639 314.428C305.725 314.591 305.663 314.793 305.5 314.879C305.337 314.966 305.136 314.902 305.048 314.74C304.789 314.25 304.378 314.185 304.08 314.22C303.568 314.276 303.095 314.641 303.017 314.929C303 315.002 302.974 315.333 302.949 315.651C302.794 317.645 302.557 319.84 301.708 320.654C300.719 321.601 299.866 322.42 299.648 324.003C299.62 324.198 299.669 324.374 299.787 324.51C299.933 324.679 300.171 324.774 300.44 324.774C300.603 324.774 300.764 324.765 300.922 324.744C301.102 324.724 301.271 324.849 301.293 325.032C301.317 325.216 301.19 325.382 301.006 325.406C300.82 325.429 300.631 325.441 300.44 325.441Z" fill="black"/>
<path d="M290.903 230.23C290.903 230.23 292.544 225.229 292.625 223.589C292.707 221.948 291.068 214.403 290.41 211.943C290.41 211.943 291.025 207.339 287.516 206.529C287.272 206.473 287.114 206.279 287.024 206.045C286.733 205.277 286.62 204.76 286.34 203.832C286.104 203.059 284.982 203.388 285.075 204.276C285.111 204.611 285.46 207.43 285.601 208.566C285.619 208.715 285.549 208.923 285.451 209.038C285.217 209.308 284.971 209.869 285.456 210.874C286.207 212.426 286.526 211.974 287.331 213.26C288.132 214.546 288.38 219.162 288.432 221.625C288.487 224.089 287.469 226.177 286.932 227.088C286.397 227.997 290.903 230.23 290.903 230.23Z" fill="white"/>
<path d="M285.791 203.731C285.767 203.731 285.746 203.733 285.726 203.738C285.552 203.772 285.376 203.945 285.408 204.241C285.44 204.565 285.789 207.382 285.931 208.524C285.962 208.763 285.868 209.063 285.703 209.254C285.428 209.574 285.446 210.083 285.757 210.728C286.141 211.525 286.391 211.741 286.679 211.992C286.936 212.214 287.225 212.467 287.612 213.082C288.516 214.531 288.719 219.534 288.764 221.617C288.822 224.238 287.704 226.434 287.22 227.255C287.181 227.616 288.802 228.774 290.704 229.757C291.082 228.574 292.225 224.893 292.292 223.571C292.371 222.005 290.767 214.575 290.089 212.029C290.077 211.986 290.073 211.942 290.079 211.9C290.102 211.724 290.609 207.584 287.439 206.853C287.11 206.777 286.852 206.532 286.713 206.163C286.51 205.632 286.391 205.211 286.251 204.723C286.185 204.486 286.111 204.229 286.019 203.928C285.972 203.772 285.879 203.731 285.791 203.731ZM290.902 230.563C290.852 230.563 290.801 230.553 290.755 230.528C290.116 230.213 286.918 228.579 286.587 227.474C286.514 227.222 286.578 227.033 286.645 226.917C287.1 226.144 288.151 224.082 288.097 221.632C288.029 218.372 287.714 214.506 287.046 213.437C286.713 212.905 286.485 212.706 286.242 212.495C285.926 212.221 285.6 211.939 285.156 211.017C284.575 209.818 284.933 209.125 285.198 208.819C285.241 208.769 285.277 208.654 285.271 208.607C285.122 207.432 284.779 204.646 284.743 204.311C284.673 203.633 285.117 203.18 285.593 203.084C286.075 202.987 286.512 203.254 286.657 203.734C286.751 204.039 286.825 204.3 286.893 204.541C287.033 205.034 287.145 205.422 287.335 205.927C287.396 206.086 287.481 206.178 287.59 206.203C291.103 207.014 290.807 211.314 290.747 211.918C291.371 214.274 293.043 221.879 292.957 223.605C292.874 225.271 291.287 230.128 291.22 230.334C291.19 230.425 291.121 230.501 291.031 230.537C290.99 230.556 290.947 230.563 290.902 230.563Z" fill="black"/>
<path d="M288.32 224.989C287.705 224.855 287.083 225.168 286.785 225.721C286.185 226.844 281.892 231.52 281.257 232.023C280.463 232.651 278.19 236.442 273.298 236.339C273.01 236.333 272.728 236.433 272.506 236.617C271.943 237.082 270.625 237.998 268.345 238.689C266.96 239.107 265.859 240.426 265.734 243.443C265.583 247.028 261.856 254.046 262.941 256.731C264.832 261.405 267.856 260.089 270.715 259.141C270.715 259.141 270.91 259.141 270.742 263.345C270.484 269.773 270.326 270.046 279.221 269.455C285.904 269.011 292.016 268.064 292.081 266.659C292.126 265.63 290.345 260.043 289.973 253.33C289.6 246.618 290.776 236.363 291.521 233.753C292.188 231.417 291.317 225.641 288.32 224.989Z" fill="white"/>
<path d="M270.715 258.809C270.805 258.809 270.897 258.85 270.959 258.915C271.072 259.032 271.241 259.209 271.074 263.36L271.063 263.669C270.95 266.425 270.889 267.943 271.62 268.655C272.47 269.481 274.476 269.436 279.198 269.124C289.065 268.467 291.722 267.215 291.747 266.645C291.761 266.348 291.564 265.455 291.313 264.324C290.782 261.906 289.89 257.86 289.637 253.35C289.264 246.59 290.459 236.257 291.2 233.661C291.661 232.05 291.32 228.819 290.177 226.908C289.643 226.013 288.993 225.478 288.249 225.316C287.791 225.216 287.31 225.448 287.079 225.88C286.455 227.047 282.174 231.721 281.462 232.286C281.343 232.379 281.153 232.596 280.933 232.844C279.806 234.116 277.466 236.752 273.29 236.674C273.084 236.662 272.883 236.74 272.718 236.874C272.118 237.369 270.766 238.306 268.441 239.008C266.971 239.454 266.171 240.95 266.065 243.458C266.001 245.009 265.317 247.093 264.592 249.299C263.645 252.181 262.667 255.161 263.25 256.606C264.922 260.742 267.463 259.887 270.154 258.98L270.61 258.827C270.644 258.815 270.679 258.809 270.715 258.809ZM274.761 270C272.936 270 271.822 269.783 271.155 269.133C270.211 268.212 270.276 266.589 270.396 263.642L270.409 263.332C270.502 261.016 270.482 260.011 270.453 259.582L270.366 259.612C267.635 260.531 264.54 261.574 262.631 256.856C261.955 255.184 262.929 252.225 263.959 249.09C264.635 247.025 265.339 244.889 265.4 243.43C265.518 240.609 266.476 238.907 268.247 238.37C270.461 237.702 271.733 236.824 272.294 236.36C272.579 236.123 272.942 236.005 273.302 236.007C277.165 236.087 279.291 233.69 280.434 232.403C280.694 232.107 280.884 231.894 281.049 231.763C281.659 231.28 285.92 226.635 286.49 225.566C286.862 224.872 287.642 224.503 288.39 224.664C289.323 224.867 290.116 225.507 290.75 226.565C292.014 228.68 292.339 232.098 291.84 233.845C291.11 236.404 289.931 246.616 290.305 253.313C290.552 257.769 291.438 261.783 291.966 264.18C292.255 265.496 292.431 266.29 292.413 266.675C292.328 268.531 285.204 269.392 279.243 269.789C277.407 269.91 275.936 270 274.761 270Z" fill="black"/>
<path d="M270.203 259.948C270.068 259.948 269.939 259.863 269.89 259.727C269.83 259.554 269.918 259.364 270.088 259.302C270.135 259.283 272.486 258.261 272.094 251.698C272.082 251.515 272.223 251.357 272.406 251.346C272.587 251.333 272.749 251.475 272.759 251.659C273.188 258.829 270.433 259.888 270.316 259.93C270.279 259.942 270.242 259.948 270.203 259.948Z" fill="black"/>
<path d="M278.797 222.263C278.964 222.846 279.29 224.276 279.639 224.726C280.5 225.833 281.254 229.371 279.894 231.795C279.121 233.173 279.047 234.275 279.106 234.927C279.145 235.358 278.94 235.773 278.58 236.011L278.564 236.022C277.691 236.595 276.692 236.948 275.653 237.051L275.349 237.08C274.858 237.128 274.39 236.866 274.174 236.422C273.519 235.071 272.095 232.283 271.175 231.575C269.95 230.629 262.947 222.719 267.612 220.258C275.708 215.986 278.274 220.451 278.797 222.263Z" fill="white"/>
<path d="M273.57 218.793C271.93 218.793 269.988 219.381 267.766 220.553C266.907 221.007 266.451 221.668 266.374 222.576C266.108 225.676 270.311 230.486 271.379 231.309C272.332 232.045 273.728 234.735 274.475 236.276C274.63 236.593 274.967 236.781 275.318 236.747L275.622 236.718C276.602 236.621 277.557 236.283 278.383 235.742C278.658 235.56 278.803 235.263 278.775 234.957C278.708 234.232 278.799 233.068 279.604 231.631C280.881 229.357 280.173 225.952 279.378 224.93C279.079 224.546 278.836 223.69 278.59 222.77C278.547 222.609 278.509 222.466 278.478 222.354C278.324 221.824 277.675 220.03 275.743 219.209C275.092 218.931 274.366 218.793 273.57 218.793ZM275.237 237.419C274.663 237.419 274.128 237.09 273.875 236.567C272.666 234.075 271.579 232.307 270.971 231.838C270.13 231.187 265.403 226.091 265.71 222.52C265.807 221.383 266.394 220.523 267.457 219.962C270.94 218.125 273.817 217.665 276.004 218.595C278.207 219.532 278.944 221.567 279.119 222.169C279.152 222.284 279.19 222.432 279.236 222.598C279.395 223.202 279.665 224.211 279.903 224.521C280.817 225.693 281.617 229.407 280.187 231.957C279.464 233.244 279.382 234.265 279.439 234.896C279.489 235.449 279.231 235.983 278.765 236.289C277.835 236.9 276.774 237.275 275.686 237.382L275.382 237.411C275.334 237.416 275.285 237.419 275.237 237.419Z" fill="black"/>
<path d="M278.563 228.26C278.561 228.26 278.557 228.26 278.554 228.26C277.621 228.235 277.019 227.161 276.908 226.108C276.809 225.193 277.088 224.539 277.637 224.406C278.239 224.259 278.624 224.947 278.667 225.026C278.752 225.19 278.691 225.391 278.528 225.478C278.364 225.564 278.164 225.504 278.078 225.341C277.988 225.174 277.842 225.047 277.796 225.055C277.64 225.093 277.512 225.479 277.57 226.037C277.652 226.792 278.048 227.579 278.571 227.593C278.756 227.597 278.901 227.75 278.896 227.934C278.893 228.115 278.744 228.26 278.563 228.26Z" fill="black"/>
<path d="M280.565 223.184C280.565 223.184 280.306 216.668 276.02 215.804C271.736 214.94 266.593 216.354 265.196 218.255C263.798 220.156 265.013 223.329 265.013 223.329C265.013 223.329 263.355 226.334 265.548 227.707C267.743 229.081 269.934 232.622 272.22 231.458C274.506 230.295 275.752 228.964 275.652 226.634C275.52 223.545 280.565 223.184 280.565 223.184Z" fill="black"/>
<path d="M187.784 307.816L186.339 317.951L182.646 317.966L182.472 307.996L187.784 307.816Z" fill="white"/>
<path d="M182.812 308.32L182.974 317.631L186.05 317.619L187.397 308.164L182.812 308.32ZM182.646 318.3C182.464 318.3 182.316 318.154 182.313 317.971L182.138 308.003C182.135 307.821 182.278 307.671 182.46 307.663L187.772 307.483C187.875 307.474 187.966 307.519 188.031 307.594C188.098 307.666 188.127 307.765 188.113 307.864L186.67 317.998C186.647 318.163 186.506 318.285 186.341 318.285L182.648 318.3C182.646 318.3 182.646 318.3 182.646 318.3Z" fill="black"/>
<path d="M186.464 327.641C185.016 327.797 182.857 327.858 179.972 327.604C178.941 327.514 178.214 326.557 178.381 325.535C178.828 322.785 180.078 317.932 182.048 315.707L183.021 317.093L183.599 315.66C183.691 315.505 186.139 315.402 186.191 315.693L186.34 317.093L187.73 315.536L187.654 320.649C187.645 321.215 187.698 321.778 187.813 322.332L188.177 324.099C188.397 325.164 188.125 326.29 187.383 327.083C187.091 327.392 186.769 327.608 186.464 327.641Z" fill="white"/>
<path d="M182.026 316.257C180.235 318.589 179.105 323.158 178.709 325.59C178.644 325.99 178.749 326.404 178.997 326.724C179.245 327.042 179.602 327.236 180.001 327.271C183.082 327.542 185.196 327.441 186.429 327.309C186.629 327.288 186.887 327.122 187.138 326.854C187.789 326.161 188.056 325.156 187.851 324.166L187.486 322.399C187.367 321.822 187.311 321.233 187.32 320.645L187.382 316.425L186.588 317.315C186.5 317.414 186.362 317.45 186.238 317.411C186.112 317.37 186.023 317.259 186.007 317.129L185.877 315.893C185.474 315.811 184.255 315.839 183.855 315.919L183.33 317.218C183.285 317.331 183.18 317.411 183.059 317.425C182.935 317.44 182.818 317.385 182.748 317.285L182.026 316.257ZM183.661 328.109C182.624 328.109 181.387 328.062 179.943 327.936C179.357 327.885 178.834 327.6 178.471 327.133C178.109 326.668 177.956 326.066 178.051 325.482C178.168 324.759 179.273 318.339 181.798 315.486C181.866 315.41 181.966 315.372 182.066 315.373C182.169 315.379 182.261 315.431 182.321 315.514L182.941 316.4L183.289 315.536C183.295 315.519 183.304 315.504 183.314 315.489C183.571 315.057 185.766 315.198 185.98 315.237C186.114 315.261 186.465 315.326 186.52 315.636L186.591 316.31L187.481 315.314C187.573 315.21 187.722 315.175 187.851 315.225C187.98 315.275 188.065 315.402 188.063 315.54L187.987 320.655C187.978 321.193 188.03 321.735 188.139 322.264L188.504 324.031C188.753 325.233 188.424 326.46 187.625 327.31C187.255 327.705 186.867 327.933 186.5 327.973C185.819 328.046 184.877 328.109 183.661 328.109Z" fill="black"/>
<path d="M183.824 326.301C182.809 326.301 181.549 326.223 180.122 325.972C179.94 325.94 179.819 325.767 179.851 325.587C179.883 325.405 180.056 325.285 180.238 325.315C183.793 325.941 186.336 325.443 186.362 325.438C186.543 325.403 186.719 325.518 186.755 325.699C186.791 325.879 186.676 326.055 186.496 326.091C186.429 326.105 185.434 326.301 183.824 326.301Z" fill="black"/>
<path d="M185.004 322.415H181.654C181.469 322.415 181.32 322.265 181.32 322.081C181.32 321.896 181.469 321.748 181.654 321.748H185.004C185.189 321.748 185.337 321.896 185.337 322.081C185.337 322.265 185.189 322.415 185.004 322.415Z" fill="black"/>
<path d="M214.294 308.721L215.595 320.534L220.563 321.574L220.261 307.722L214.294 308.721Z" fill="white"/>
<path d="M215.9 320.256L220.22 321.161L219.935 308.115L214.661 308.997L215.9 320.256ZM220.563 321.907C220.54 321.907 220.517 321.906 220.495 321.9L215.527 320.86C215.384 320.831 215.278 320.714 215.263 320.57L213.964 308.757C213.944 308.581 214.065 308.421 214.24 308.392L220.205 307.394C220.302 307.378 220.399 307.404 220.473 307.466C220.548 307.528 220.592 307.619 220.595 307.716L220.896 321.566C220.899 321.668 220.854 321.765 220.777 321.83C220.716 321.881 220.64 321.907 220.563 321.907Z" fill="black"/>
<path d="M213.493 326.167C213.384 324.097 213.382 320.284 214.642 318.446L218.617 319.862V319.013C218.617 318.74 218.812 318.515 219.061 318.499L221.277 318.372C222.105 318.325 222.93 318.496 223.685 318.868C225.913 319.964 232.694 322.775 233.634 325.934C233.912 326.866 233.183 327.799 232.211 327.826C229.979 327.89 224.614 327.961 214.986 327.63C214.184 327.603 213.535 326.968 213.493 326.167Z" fill="white"/>
<path d="M214.781 318.851C213.715 320.675 213.721 324.175 213.826 326.149C213.859 326.783 214.363 327.275 214.998 327.298C224.529 327.624 229.868 327.56 232.201 327.492C232.573 327.482 232.924 327.295 233.143 326.993C233.349 326.708 233.411 326.357 233.314 326.029C232.529 323.391 227.121 320.854 224.521 319.635C224.141 319.456 223.806 319.3 223.537 319.168C222.834 318.821 222.058 318.663 221.297 318.705L219.08 318.833C219.009 318.837 218.95 318.919 218.95 319.013V319.862C218.95 319.971 218.897 320.073 218.809 320.135C218.719 320.197 218.607 320.212 218.504 320.176L214.781 318.851ZM227.759 328.214C224.802 328.214 220.622 328.158 214.975 327.964C213.991 327.93 213.212 327.165 213.16 326.184C213.047 324.045 213.054 320.171 214.367 318.258C214.452 318.132 214.611 318.082 214.754 318.132L218.283 319.389V319.013C218.283 318.563 218.616 318.192 219.042 318.167L221.259 318.04C222.135 317.99 223.026 318.172 223.831 318.569C224.097 318.699 224.427 318.854 224.805 319.031C227.697 320.388 233.084 322.914 233.954 325.838C234.11 326.367 234.011 326.93 233.682 327.385C233.344 327.853 232.797 328.143 232.22 328.159C231.263 328.187 229.803 328.214 227.759 328.214Z" fill="black"/>
<path d="M226.224 326.251C223.404 326.251 219.593 326.127 215.428 325.644C215.246 325.623 215.115 325.458 215.136 325.275C215.157 325.091 215.325 324.959 215.506 324.982C223.968 325.963 230.964 325.452 231.034 325.447C231.219 325.434 231.378 325.57 231.392 325.754C231.406 325.939 231.269 326.098 231.084 326.111C231.049 326.114 229.182 326.251 226.224 326.251Z" fill="black"/>
<path d="M224.992 322.87C224.925 322.87 224.857 322.849 224.798 322.806L220.971 320.055C220.821 319.947 220.788 319.738 220.895 319.589C221.003 319.439 221.211 319.406 221.361 319.514L225.187 322.265C225.336 322.373 225.371 322.582 225.263 322.731C225.198 322.822 225.096 322.87 224.992 322.87Z" fill="black"/>
<path d="M215.846 226.182C215.846 226.182 222.968 280.934 221.45 313.546L219.228 313.769C218.033 313.887 216.831 313.918 215.632 313.857L213.525 313.751C213.525 313.751 205.03 258.321 200.789 250.094C200.789 250.094 189.255 300.04 188.811 311.976C188.811 311.976 183.684 312.491 181.64 311.756C180.542 300.237 180.226 282.423 180.171 274.938C180.013 253.517 182.061 243.786 183.183 239.17C184.214 234.931 185.319 231.487 186.127 229.157L188.824 221.463L215.846 226.182Z" fill="black"/>
<path d="M200.912 251.23C200.893 251.23 200.873 251.229 200.853 251.224C200.671 251.192 200.552 251.018 200.583 250.838L201.244 247.154C201.605 245.836 202.638 244.869 203.946 244.599L205.054 244.369C205.235 244.332 205.41 244.448 205.448 244.628C205.486 244.808 205.37 244.986 205.189 245.022L204.081 245.253C203.02 245.471 202.183 246.256 201.895 247.301L201.24 250.956C201.211 251.117 201.07 251.23 200.912 251.23Z" fill="white"/>
<path d="M186.297 244.94C186.136 244.94 185.995 244.825 185.968 244.661C185.937 244.481 186.06 244.308 186.242 244.278C192.409 243.25 193.646 238.427 193.658 238.379C193.702 238.2 193.883 238.091 194.062 238.133C194.241 238.177 194.35 238.358 194.307 238.537C194.294 238.59 192.949 243.837 186.351 244.936C186.333 244.939 186.313 244.94 186.297 244.94Z" fill="white"/>
<path d="M216.165 240.615C216.121 240.615 216.076 240.606 216.033 240.588C212.163 238.906 212.257 235.233 212.258 235.195C212.265 235.012 212.412 234.854 212.604 234.875C212.788 234.881 212.932 235.038 212.926 235.221C212.919 235.364 212.863 238.484 216.299 239.975C216.467 240.05 216.546 240.245 216.471 240.415C216.417 240.541 216.294 240.615 216.165 240.615Z" fill="white"/>
<path d="M182.415 230.785C181.767 232.998 180.752 236.062 181.876 237.534C183.918 240.207 185.613 239.778 188.136 238.859C193.18 237.02 201.228 234.116 203.578 235.73L203.683 230.785H182.415Z" fill="black"/>
<path d="M211.338 183.354C215.527 183.334 219.353 185.703 221.186 189.445C223.31 193.779 226.307 205.125 226.424 210.081C226.629 218.74 219.041 219.228 218.817 219.242C218.814 219.242 218.812 219.243 218.812 219.246C218.836 219.497 219.722 228.908 219.793 230.579C219.92 233.633 214.254 238.401 207.745 236.053C201.269 233.715 183.576 229.06 181.779 233.024C181.776 233.03 181.769 233.027 181.77 233.021L189.193 205.486C189.194 205.483 189.191 205.48 189.188 205.48L183.095 205.774C183.094 205.774 183.094 205.774 183.092 205.774L178.13 202.904C178.129 202.902 178.127 202.901 178.127 202.898L179.384 197.333C181.772 187.824 188.157 183.461 196.398 183.423L211.338 183.354Z" fill="white"/>
<path d="M186.443 231.147C188.204 231.147 190.415 231.381 193.066 231.848C198.44 232.794 204.501 234.528 207.858 235.739C210.961 236.858 214.355 236.397 216.936 234.502C218.52 233.339 219.51 231.805 219.46 230.592C219.39 228.938 218.517 219.673 218.48 219.278C218.464 219.097 218.599 218.93 218.781 218.91C219.105 218.892 226.288 218.401 226.091 210.088C225.972 205.08 222.936 193.773 220.888 189.591C219.122 185.986 215.374 183.668 211.34 183.687L196.4 183.757C187.837 183.796 181.908 188.646 179.709 197.415L178.506 202.737L183.177 205.437L189.171 205.146C189.284 205.142 189.393 205.195 189.46 205.283C189.523 205.368 189.543 205.481 189.513 205.581L182.419 231.896C183.276 231.397 184.619 231.147 186.443 231.147ZM211.272 237.007C210.054 237.007 208.823 236.796 207.632 236.367C199.533 233.444 183.621 229.768 182.084 233.162C182.011 233.32 181.822 233.4 181.66 233.341C181.497 233.282 181.405 233.103 181.449 232.936L188.755 205.835L183.112 206.107C183.047 206.112 182.982 206.094 182.926 206.062L177.964 203.192C177.838 203.121 177.771 202.969 177.801 202.828L179.06 197.26C181.343 188.161 187.499 183.131 196.398 183.09L211.337 183.02C211.354 183.02 211.37 183.02 211.388 183.02C215.656 183.02 219.616 185.479 221.487 189.298C223.562 193.535 226.638 204.995 226.758 210.072C226.947 218.075 220.733 219.348 219.175 219.542C219.334 221.239 220.062 229.045 220.125 230.565C220.187 232.014 219.116 233.729 217.33 235.04C215.562 236.338 213.44 237.007 211.272 237.007Z" fill="black"/>
<path d="M191.8 204.596C190.662 204.386 190.972 203.065 186.972 202.827C175.426 202.139 181.021 196.277 187.636 197.394C189.828 197.764 190.689 199.181 191.515 199.542C198.434 202.562 194.07 205.016 191.8 204.596Z" fill="white"/>
<path d="M191.861 204.268C192.952 204.47 194.617 203.9 194.887 203.019C195.169 202.099 193.891 200.942 191.382 199.846C191.071 199.711 190.783 199.47 190.448 199.19C189.793 198.641 188.977 197.957 187.579 197.722C184.598 197.217 181.858 198.166 180.93 199.375C180.629 199.769 180.556 200.148 180.718 200.501C180.945 201.001 182.014 202.197 186.991 202.493C189.788 202.66 190.581 203.35 191.16 203.854C191.41 204.071 191.576 204.215 191.861 204.268ZM192.347 204.976C192.137 204.976 191.932 204.96 191.739 204.923C191.276 204.838 191.006 204.605 190.722 204.356C190.216 203.917 189.523 203.313 186.952 203.159C183.082 202.928 180.717 202.105 180.11 200.778C179.846 200.199 179.949 199.557 180.401 198.968C181.449 197.604 184.463 196.52 187.69 197.064C189.267 197.33 190.198 198.109 190.877 198.679C191.171 198.926 191.426 199.138 191.648 199.235C195.363 200.856 195.805 202.293 195.525 203.215C195.191 204.303 193.659 204.976 192.347 204.976Z" fill="black"/>
<path d="M206.336 184.974C206.721 184.645 206.518 184.016 206.013 183.956L205.229 183.86C204.389 183.76 203.687 183.199 203.414 182.426L202.124 172.902L199.479 173.848L195.98 172.117L196.292 182.294C196.266 183.181 195.689 183.965 194.832 184.271L193.81 184.636C193.272 184.829 193.246 185.56 193.768 185.787C195.851 186.695 204.318 186.701 206.336 184.974Z" fill="white"/>
<path d="M196.33 172.663L196.626 182.283C196.597 183.336 195.937 184.23 194.946 184.585L193.923 184.952C193.745 185.015 193.727 185.167 193.725 185.211C193.724 185.256 193.732 185.406 193.901 185.481C195.807 186.313 204.187 186.375 206.119 184.721C206.225 184.63 206.205 184.515 206.192 184.469C206.179 184.432 206.129 184.304 205.972 184.286L205.189 184.192C204.219 184.075 203.419 183.44 203.099 182.537C203.091 182.515 203.087 182.493 203.084 182.47L201.848 173.354L199.591 174.162C199.506 174.193 199.412 174.186 199.332 174.147L196.33 172.663ZM198.901 186.725C196.63 186.725 194.538 186.486 193.635 186.093C193.272 185.934 193.045 185.579 193.058 185.188C193.072 184.797 193.322 184.457 193.698 184.322L194.72 183.957C195.451 183.696 195.937 183.04 195.959 182.285L195.646 172.128C195.642 172.011 195.701 171.9 195.799 171.837C195.898 171.773 196.022 171.765 196.127 171.818L199.5 173.486L202.012 172.589C202.106 172.555 202.212 172.564 202.297 172.617C202.383 172.669 202.441 172.758 202.455 172.857L203.739 182.346C203.981 182.993 204.565 183.445 205.27 183.53L206.052 183.624C206.424 183.669 206.721 183.919 206.83 184.275C206.936 184.626 206.83 184.991 206.552 185.229C205.305 186.295 201.942 186.725 198.901 186.725Z" fill="black"/>
<path d="M203.297 165.33C207.804 166.988 207.028 169.905 207.028 169.905C206.972 170.707 206.94 172.176 207.09 172.708C207.213 173.148 207.933 173.974 207.968 174.22C208.001 174.464 207.612 174.964 206.831 175.141C206.831 175.141 206.535 179.039 205.514 179.677C204.492 180.317 200.558 179.09 200.558 179.09L199.895 178.825C197.762 177.97 196.46 176.193 195.84 173.992C195.84 173.992 192.969 161.526 203.297 165.33Z" fill="white"/>
<path d="M199.856 164.942C198.819 164.942 197.979 165.222 197.344 165.781C194.838 167.987 196.151 173.859 196.165 173.918C196.798 176.164 198.132 177.759 200.02 178.516L200.681 178.781C202.121 179.228 204.688 179.8 205.336 179.395C205.943 179.016 206.382 176.665 206.499 175.115C206.51 174.97 206.614 174.849 206.757 174.817C207.342 174.683 207.592 174.368 207.632 174.26C207.589 174.165 207.441 173.95 207.33 173.789C207.093 173.443 206.849 173.087 206.769 172.799C206.587 172.15 206.655 170.473 206.696 169.882C206.698 169.861 206.701 169.84 206.707 169.82C206.733 169.714 207.325 167.167 203.182 165.642C201.913 165.175 200.802 164.942 199.856 164.942ZM204.539 180.194C203.071 180.194 200.973 179.569 200.458 179.409L199.771 179.134C197.685 178.299 196.215 176.551 195.519 174.083C195.455 173.81 194.098 167.751 196.901 165.281C198.316 164.035 200.506 163.946 203.413 165.016C207.861 166.655 207.436 169.574 207.36 169.95C207.294 170.915 207.294 172.202 207.41 172.619C207.462 172.8 207.704 173.154 207.88 173.411C208.136 173.786 208.273 173.991 208.299 174.172C208.356 174.588 207.912 175.146 207.145 175.4C207.053 176.416 206.704 179.327 205.691 179.961C205.423 180.127 205.013 180.194 204.539 180.194Z" fill="black"/>
<path d="M201.813 163.219C202.997 163.508 204.155 164.248 204.768 164.313C205.756 164.419 206.469 163.152 207.715 163.611C208.813 164.016 209.428 164.95 209.584 166.001C209.612 166.176 209.618 166.361 209.601 166.56C209.369 169.221 207.704 169.785 207.028 169.906C207.028 169.906 203.115 169.543 202.351 169.728C201.637 169.901 200.534 171.012 200.202 172.592C200.159 172.795 199.982 172.945 199.773 172.961C199.527 172.979 199.306 172.81 199.265 172.571C199.134 171.811 198.777 170.295 198.007 170.251C197.109 170.2 195.964 171.974 197.139 173.086C197.5 173.429 197.38 174.054 196.918 174.24C196.533 174.395 196.051 174.404 195.531 173.981C195.531 173.981 193.213 169.919 194.32 166.492C195.425 163.064 200.237 162.834 201.813 163.219Z" fill="black"/>
<path d="M208.106 174.26C208.017 174.26 207.927 174.224 207.86 174.153C207.736 174.018 207.744 173.807 207.879 173.683C208.083 173.492 208.306 172.996 208.343 172.318C208.364 171.891 208.305 171.476 208.177 171.175C208.076 170.934 207.951 170.822 207.876 170.818C207.874 170.818 207.873 170.818 207.87 170.818C207.716 170.818 207.433 171.168 207.309 171.817C207.275 171.997 207.099 172.115 206.919 172.082C206.739 172.047 206.619 171.873 206.654 171.691C206.837 170.727 207.325 170.123 207.909 170.152C208.277 170.17 208.591 170.442 208.791 170.916C208.958 171.31 209.035 171.821 209.008 172.352C208.967 173.137 208.716 173.818 208.332 174.171C208.268 174.232 208.186 174.26 208.106 174.26Z" fill="black"/>
<path d="M204.259 172.266C204.236 172.699 204.321 173.125 204.491 173.433C204.574 173.583 204.753 173.84 205.011 173.853C205.394 173.871 205.876 173.26 205.923 172.351C205.944 171.917 205.861 171.491 205.691 171.183C205.608 171.033 205.429 170.777 205.171 170.764C204.78 170.753 204.306 171.356 204.259 172.266ZM205.032 174.52C205.014 174.52 204.995 174.52 204.977 174.519C204.545 174.497 204.166 174.226 203.907 173.755C203.675 173.335 203.564 172.793 203.593 172.231C203.657 170.992 204.359 170.051 205.205 170.098C205.635 170.119 206.016 170.391 206.275 170.862C206.507 171.282 206.618 171.822 206.589 172.386C206.527 173.597 205.847 174.52 205.032 174.52Z" fill="black"/>
<path d="M204.065 171.755C204.056 171.755 204.045 171.755 204.036 171.753L199.735 171.369C199.552 171.353 199.415 171.191 199.432 171.007C199.448 170.824 199.608 170.687 199.794 170.704L204.095 171.089C204.278 171.106 204.413 171.268 204.397 171.451C204.382 171.624 204.236 171.755 204.065 171.755Z" fill="black"/>
<path d="M197.209 190.227C197.209 190.227 198.884 192.853 200.393 192.39C201.184 192.146 201.957 189.555 202.274 189.463C203.285 189.169 205.211 188.688 206.393 186.577C207.497 184.604 207.257 183.551 206.972 183.065C206.84 182.843 206.843 182.565 206.987 182.351C207.2 182.039 207.404 181.568 207.191 181.083C207.116 180.913 207.124 180.717 207.197 180.546C207.477 179.892 207.997 178.39 206.987 178.093C206.713 178.013 206.417 178.116 206.251 178.345C205.931 178.787 205.261 179.621 204.433 180.147C203.264 180.892 202.562 181.401 201.974 181.736C201.471 182.022 201.205 179.509 199.996 178.566C198.921 177.728 198.555 178.151 198.448 178.545C198.34 178.939 199.006 179.095 199.385 180.969C199.829 183.161 199.363 185.006 199.23 185.993C199.072 187.15 197.209 190.227 197.209 190.227Z" fill="white"/>
<path d="M197.603 190.217C198.122 190.961 199.337 192.366 200.294 192.071C200.637 191.966 201.148 190.867 201.422 190.276C201.787 189.492 201.925 189.217 202.181 189.143L202.309 189.105C203.328 188.813 205.035 188.32 206.102 186.413C207.142 184.556 206.913 183.625 206.684 183.235C206.487 182.9 206.498 182.48 206.711 182.164C206.949 181.813 207.007 181.495 206.886 181.216C206.776 180.969 206.778 180.676 206.89 180.414C207.225 179.633 207.334 178.972 207.181 178.646C207.125 178.528 207.034 178.455 206.893 178.413C206.754 178.374 206.605 178.424 206.52 178.54C206.182 179.007 205.483 179.874 204.612 180.429C204.105 180.752 203.685 181.03 203.326 181.269C202.855 181.583 202.482 181.83 202.139 182.026C202.013 182.097 201.869 182.112 201.736 182.063C201.416 181.951 201.26 181.554 201.002 180.896C200.735 180.214 200.37 179.28 199.789 178.828C199.328 178.468 199.033 178.386 198.91 178.424C198.83 178.451 198.787 178.566 198.769 178.633C198.775 178.657 198.842 178.757 198.895 178.837C199.11 179.163 199.469 179.706 199.71 180.902C200.095 182.8 199.824 184.427 199.644 185.503C199.61 185.702 199.582 185.881 199.56 186.037C199.416 187.094 198.012 189.525 197.603 190.217ZM200.029 192.777C198.46 192.777 196.995 190.512 196.929 190.406C196.86 190.298 196.859 190.162 196.924 190.054C197.432 189.214 198.777 186.84 198.899 185.947C198.921 185.785 198.952 185.6 198.986 185.394C199.159 184.366 199.418 182.812 199.057 181.034C198.84 179.965 198.539 179.509 198.338 179.206C198.187 178.975 198.044 178.759 198.126 178.457C198.217 178.12 198.422 177.884 198.699 177.791C199.096 177.658 199.589 177.826 200.2 178.302C200.923 178.868 201.328 179.899 201.624 180.652C201.719 180.898 201.845 181.216 201.936 181.372C202.225 181.199 202.554 180.981 202.958 180.713C203.32 180.473 203.743 180.191 204.254 179.865C205.033 179.371 205.67 178.578 205.981 178.149C206.231 177.803 206.673 177.653 207.081 177.773C207.404 177.869 207.648 178.072 207.785 178.361C208.092 179.018 207.801 179.984 207.503 180.678C207.463 180.769 207.462 180.869 207.497 180.948C207.713 181.443 207.633 181.994 207.263 182.538C207.193 182.644 207.19 182.781 207.259 182.897C207.627 183.523 207.827 184.698 206.684 186.739C205.482 188.885 203.538 189.446 202.494 189.747L202.429 189.766C202.338 189.889 202.16 190.271 202.027 190.558C201.511 191.667 201.07 192.53 200.49 192.709C200.337 192.756 200.182 192.777 200.029 192.777Z" fill="black"/>
<path d="M202.727 191.389L197.656 188.158C197.656 188.158 190.801 199.243 185.609 203.004C183.081 204.837 178.177 202.683 178.177 202.683C178.177 202.683 173.47 220.775 182.557 223.361C197.693 227.67 202.727 191.389 202.727 191.389Z" fill="white"/>
<path d="M185.003 224.048C184.172 224.048 183.326 223.926 182.465 223.682C173.173 221.037 177.659 203.351 177.855 202.599C177.902 202.42 178.083 202.314 178.262 202.36C178.44 202.407 178.547 202.589 178.5 202.767C178.455 202.945 173.98 220.573 182.648 223.039C185.057 223.726 187.358 223.37 189.485 221.984C198.428 216.152 202.001 193.964 202.365 191.554L197.761 188.62C196.626 190.421 190.584 199.81 185.804 203.275C185.656 203.383 185.447 203.35 185.339 203.201C185.231 203.051 185.263 202.843 185.413 202.734C190.493 199.053 197.303 188.093 197.372 187.982C197.419 187.906 197.494 187.853 197.582 187.832C197.669 187.814 197.76 187.829 197.835 187.876L202.906 191.108C203.017 191.178 203.075 191.305 203.058 191.435C202.917 192.445 199.515 216.24 189.849 222.542C188.312 223.546 186.69 224.048 185.003 224.048Z" fill="black"/>
<path d="M217.987 219.793C212.274 219.793 204.275 215.378 198.458 211.045C198.31 210.935 198.279 210.726 198.39 210.578C198.499 210.43 198.708 210.4 198.857 210.51C204.668 214.837 213.427 219.679 218.988 219.074C219.173 219.051 219.335 219.186 219.355 219.368C219.375 219.552 219.243 219.717 219.059 219.737C218.712 219.775 218.354 219.793 217.987 219.793Z" fill="black"/>
<path d="M210.312 205.851C207.106 205.851 201.245 203.107 200.972 202.98C200.807 202.901 200.734 202.703 200.813 202.536C200.892 202.369 201.09 202.298 201.257 202.377C201.328 202.41 208.452 205.747 211.058 205.108C215.388 204.047 214.393 198.631 214.349 198.402C214.314 198.221 214.433 198.045 214.613 198.011C214.792 197.974 214.968 198.094 215.004 198.274C215.016 198.336 216.165 204.545 211.217 205.756C210.95 205.821 210.644 205.851 210.312 205.851Z" fill="black"/>
</g>
<defs>
<clipPath id="clip0_71_387">
<rect width="379" height="379" fill="white"/>
</clipPath>
</defs>
</svg>
