<svg width="365" height="365" viewBox="0 0 365 365" fill="none" xmlns="http://www.w3.org/2000/svg">
<path d="M145.498 49.3507L309.82 48.9099C313.498 48.9099 316.513 51.5236 316.343 54.5586L314.589 209.576C314.44 212.252 311.838 214.303 308.595 214.303H301.383L299.849 213.522L93.4581 214.275C89.7817 214.275 86.7133 211.392 86.8849 208.358L88.6784 54.079C88.8296 51.4032 91.3126 49.0594 94.5548 49.0594L145.498 49.3507Z" fill="#B4FF5C"/>
<path d="M138.612 49.4528H302.521C306.187 49.4528 309.198 52.0643 309.027 55.0978L307.326 209.525C307.175 212.202 304.581 214.252 301.346 214.252H86.7389C83.0716 214.252 80.0613 211.64 80.2323 208.607L81.9335 54.1783C82.0845 51.5029 84.6794 49.4528 87.9136 49.4528H138.612Z" fill="white"/>
<path d="M87.9132 49.7768C84.8297 49.7768 82.3975 51.6779 82.2557 54.199L80.5548 208.611C80.488 209.805 80.9482 210.979 81.8509 211.934C83.0494 213.203 84.8311 213.93 86.7385 213.93H301.344C304.427 213.93 306.859 212.029 307.001 209.509L308.702 55.0962C308.768 53.9025 308.309 52.7282 307.406 51.7728C306.208 50.5055 304.427 49.7768 302.519 49.7768H87.9132ZM301.344 214.576H86.7385C84.6539 214.576 82.7014 213.775 81.3813 212.378C80.3556 211.293 79.8328 209.947 79.9093 208.589L81.6102 54.1777C81.7724 51.2942 84.4817 49.1315 87.9132 49.1315H302.519C304.604 49.1315 306.555 49.9319 307.875 51.3291C308.902 52.4143 309.425 53.7591 309.348 55.1175L307.648 209.531C307.485 212.413 304.776 214.576 301.344 214.576Z" fill="black"/>
<path d="M80.9911 150.404C80.9903 150.404 80.9893 150.404 80.9883 150.404C80.81 150.402 80.6667 150.256 80.668 150.078L81.099 97.6903C81.1003 97.5129 81.2448 97.3701 81.4219 97.3701C81.4226 97.3701 81.4236 97.3701 81.4246 97.3701C81.6029 97.3717 81.7464 97.5179 81.7449 97.6952L81.3141 150.083C81.3126 150.261 81.1681 150.404 80.9911 150.404Z" fill="black"/>
<path d="M295.035 66.94H266.148C264.922 66.94 263.895 65.8993 263.902 64.6657C263.908 63.5249 264.798 62.6345 265.931 62.6345H294.816C296.044 62.6345 297.069 63.6752 297.064 64.9087C297.056 66.0477 296.166 66.94 295.035 66.94Z" fill="#B4FF5C"/>
<path d="M294.532 93.5727H282.045C280.819 93.5727 279.791 92.5338 279.797 91.2984C279.804 90.1595 280.695 89.2679 281.827 89.2679H294.314C295.54 89.2679 296.568 90.3087 296.561 91.5422C296.555 92.683 295.664 93.5727 294.532 93.5727Z" fill="#B4FF5C"/>
<path d="M294.872 75.6763H256.966C255.74 75.6763 254.711 74.6362 254.718 73.4012C254.724 72.2627 255.615 71.372 256.748 71.372H294.654C295.881 71.372 296.909 72.4121 296.901 73.6453C296.896 74.7855 296.005 75.6763 294.872 75.6763Z" fill="#B4FF5C"/>
<path d="M294.749 84.4291H256.844C255.615 84.4291 254.59 83.3894 254.596 82.1549C254.603 81.0151 255.493 80.1248 256.624 80.1248H294.531C295.758 80.1248 296.785 81.1644 296.779 82.3989C296.772 83.5387 295.882 84.4291 294.749 84.4291Z" fill="#B4FF5C"/>
<path d="M105.817 181.989L106.247 143.521H92.5253L92.0968 181.989H105.817Z" fill="white"/>
<path d="M108.876 181.666H121.95L122.858 129.184H109.783L108.876 181.666ZM122.267 182.312H108.547C108.461 182.312 108.378 182.277 108.317 182.215C108.256 182.154 108.223 182.069 108.224 181.983L109.142 128.855C109.145 128.679 109.289 128.537 109.465 128.537H123.187C123.274 128.537 123.357 128.572 123.417 128.635C123.478 128.696 123.511 128.779 123.51 128.865L122.59 181.995C122.587 182.17 122.443 182.312 122.267 182.312Z" fill="black"/>
<path d="M125.326 181.666H138.4L139.154 133.238H126.078L125.326 181.666ZM138.717 182.312H124.997C124.911 182.312 124.828 182.277 124.767 182.215C124.707 182.154 124.673 182.071 124.674 181.983L125.437 132.91C125.44 132.734 125.584 132.593 125.76 132.593H139.482C139.569 132.593 139.651 132.626 139.712 132.689C139.773 132.75 139.806 132.834 139.805 132.92L139.04 181.993C139.038 182.17 138.894 182.312 138.717 182.312Z" fill="black"/>
<path d="M141.776 181.666H154.851L156.009 115.148H142.933L141.776 181.666ZM155.167 182.312H141.447C141.361 182.312 141.278 182.276 141.217 182.217C141.156 182.155 141.123 182.071 141.124 181.983L142.293 114.819C142.296 114.644 142.44 114.502 142.616 114.502H156.338C156.424 114.502 156.507 114.538 156.569 114.599C156.629 114.661 156.663 114.744 156.661 114.831L155.49 181.995C155.487 182.17 155.344 182.312 155.167 182.312Z" fill="black"/>
<path d="M158.226 181.666H171.301L172.627 97.6806H159.552L158.226 181.666ZM171.618 182.312H157.897C157.811 182.312 157.728 182.277 157.668 182.215C157.607 182.154 157.573 182.072 157.575 181.983L158.911 97.3518C158.914 97.1759 159.057 97.0345 159.233 97.0345H172.956C173.042 97.0345 173.125 97.069 173.185 97.1315C173.247 97.1923 173.28 97.2762 173.278 97.3633L171.942 181.993C171.938 182.17 171.794 182.312 171.618 182.312Z" fill="black"/>
<path d="M174.679 181.666H187.751L189.374 102.983H176.3L174.679 181.666ZM188.069 182.312H174.349C174.262 182.312 174.178 182.277 174.118 182.215C174.057 182.153 174.023 182.069 174.027 181.982L175.661 102.653C175.664 102.477 175.806 102.337 175.983 102.337H189.704C189.791 102.337 189.875 102.372 189.935 102.433C189.996 102.496 190.03 102.58 190.028 102.665L188.391 181.995C188.388 182.172 188.244 182.312 188.069 182.312Z" fill="black"/>
<path d="M191.439 181.666H204.512L206.493 89.8822H193.417L191.439 181.666ZM204.83 182.311H191.11C191.022 182.311 190.939 182.277 190.878 182.214C190.819 182.152 190.785 182.069 190.786 181.981L192.779 89.5523C192.781 89.3764 192.927 89.2359 193.101 89.2359H206.823C206.909 89.2359 206.994 89.2715 207.055 89.3324C207.114 89.395 207.148 89.4796 207.146 89.5658L205.152 181.996C205.15 182.172 205.004 182.311 204.83 182.311Z" fill="black"/>
<path d="M208.196 181.627H221.27L223.654 85.2706H210.578L208.196 181.627ZM221.585 182.274H207.865C207.778 182.274 207.695 182.239 207.633 182.176C207.573 182.114 207.54 182.031 207.54 181.944L209.94 84.9386C209.945 84.7632 210.088 84.6239 210.263 84.6239H223.984C224.07 84.6239 224.155 84.6583 224.215 84.7219C224.275 84.7838 224.31 84.8681 224.306 84.9541L221.908 181.959C221.903 182.135 221.76 182.274 221.585 182.274Z" fill="black"/>
<path d="M224.957 181.627H238.029L239.642 111.248H226.566L224.957 181.627ZM238.346 182.273H224.627C224.538 182.273 224.456 182.239 224.395 182.177C224.336 182.114 224.301 182.03 224.303 181.943L225.926 110.917C225.931 110.742 226.074 110.602 226.251 110.602H239.971C240.058 110.602 240.143 110.638 240.202 110.699C240.263 110.761 240.297 110.845 240.294 110.933L238.669 181.958C238.665 182.133 238.521 182.273 238.346 182.273Z" fill="black"/>
<path d="M241.725 181.666H254.799L256.565 126.829H243.489L241.725 181.666ZM255.112 182.312H241.39C241.304 182.312 241.22 182.277 241.16 182.214C241.098 182.151 241.065 182.065 241.068 181.979L242.853 126.494C242.86 126.321 243.003 126.182 243.177 126.182H256.898C256.985 126.182 257.07 126.218 257.13 126.28C257.191 126.343 257.223 126.428 257.221 126.515L255.435 181.999C255.429 182.173 255.285 182.312 255.112 182.312Z" fill="black"/>
<path d="M258.483 181.666H271.558L272.724 134.174H259.648L258.483 181.666ZM271.873 182.312H258.152C258.065 182.312 257.983 182.277 257.921 182.213C257.859 182.153 257.827 182.067 257.829 181.982L259.009 133.843C259.014 133.667 259.157 133.528 259.333 133.528H273.056C273.141 133.528 273.225 133.563 273.286 133.625C273.346 133.687 273.379 133.771 273.378 133.858L272.195 181.997C272.19 182.171 272.048 182.312 271.873 182.312Z" fill="black"/>
<path d="M275.243 181.667H288.318L289.579 132.304H276.504L275.243 181.667ZM288.633 182.312H274.912C274.825 182.312 274.741 182.276 274.68 182.214C274.62 182.153 274.588 182.068 274.59 181.981L275.865 131.971C275.87 131.797 276.012 131.658 276.187 131.658H289.91C289.997 131.658 290.081 131.691 290.141 131.754C290.202 131.818 290.236 131.902 290.232 131.989L288.955 181.998C288.95 182.171 288.808 182.312 288.633 182.312Z" fill="black"/>
<path d="M182.664 94.6801C182.585 94.6801 182.508 94.6502 182.448 94.5978L172.312 85.4638C172.179 85.3441 172.168 85.1402 172.287 85.0073C172.406 84.8764 172.611 84.8651 172.744 84.9849L182.638 93.8981L206.966 66.2623C207.022 66.1968 207.103 66.1575 207.189 66.1538C207.275 66.1482 207.361 66.1781 207.424 66.2361L220.334 77.8678L235.9 60.1836C236.018 60.0489 236.222 60.0358 236.357 60.1537C236.489 60.2715 236.503 60.4755 236.387 60.6102L220.603 78.5395C220.545 78.6031 220.465 78.6424 220.379 78.648C220.291 78.6536 220.208 78.6237 220.143 78.5657L207.235 66.934L182.907 94.5716C182.85 94.6352 182.77 94.6745 182.683 94.6801C182.677 94.6801 182.67 94.6801 182.664 94.6801Z" fill="black"/>
<path d="M129.185 124.74C129.105 124.74 129.028 124.71 128.969 124.657L114.684 111.787C114.551 111.667 114.54 111.463 114.66 111.331C114.779 111.198 114.984 111.186 115.116 111.306L129.158 123.959L163.165 85.326C163.283 85.1921 163.487 85.1784 163.622 85.2968C163.755 85.4136 163.768 85.6178 163.651 85.7517L129.427 124.63C129.37 124.695 129.29 124.734 129.203 124.74C129.197 124.74 129.191 124.74 129.185 124.74Z" fill="black"/>
<path d="M112.589 111.546C112.442 110.264 113.357 109.224 114.633 109.224C115.91 109.224 117.064 110.264 117.211 111.546C117.358 112.828 116.443 113.869 115.167 113.869C113.891 113.869 112.737 112.828 112.589 111.546Z" fill="#B4FF5C"/>
<path d="M180.414 94.2612C180.267 92.9797 181.183 91.9394 182.46 91.9394C183.735 91.9394 184.891 92.9797 185.036 94.2612C185.184 95.5445 184.267 96.5831 182.993 96.5831C181.716 96.5831 180.563 95.5445 180.414 94.2612Z" fill="#B4FF5C"/>
<path d="M205.105 66.2131C204.959 64.9311 205.873 63.8911 207.15 63.8911C208.426 63.8911 209.579 64.9311 209.727 66.2131C209.875 67.4951 208.958 68.5352 207.682 68.5352C206.407 68.5352 205.253 67.4951 205.105 66.2131Z" fill="#B4FF5C"/>
<path d="M218.358 78.1504C218.211 76.8677 219.127 75.8281 220.402 75.8281C221.678 75.8281 222.831 76.8677 222.978 78.1504C223.125 79.433 222.21 80.4726 220.934 80.4726C219.659 80.4726 218.504 79.433 218.358 78.1504Z" fill="#B4FF5C"/>
<path d="M233.379 61.0847C233.231 59.8015 234.148 58.7626 235.423 58.7626C236.699 58.7626 237.854 59.8015 238.001 61.0847C238.149 62.3679 237.234 63.4069 235.957 63.4069C234.681 63.4069 233.526 62.3679 233.379 61.0847Z" fill="#B4FF5C"/>
<path d="M127.057 124.148C126.91 122.865 127.825 121.825 129.101 121.825C130.377 121.825 131.531 122.865 131.678 124.148C131.826 125.429 130.91 126.469 129.634 126.469C128.358 126.469 127.204 125.429 127.057 124.148Z" fill="#B4FF5C"/>
<path d="M165.303 80.9612C165.155 79.6787 166.07 78.6387 167.347 78.6387C168.623 78.6387 169.776 79.6787 169.924 80.9612C170.071 82.2437 169.156 83.2837 167.879 83.2837C166.603 83.2837 165.45 82.2437 165.303 80.9612Z" fill="#B4FF5C"/>
<path d="M154.537 201.762H93.4152C92.0034 201.762 90.7845 200.731 90.8026 199.553L90.8915 193.765C90.9071 192.758 91.832 191.996 93.039 191.996H154.16C155.572 191.996 156.791 193.027 156.772 194.205L156.683 199.992C156.668 201 155.743 201.762 154.537 201.762Z" fill="#B4FF5C"/>
<path d="M97.6203 104.595C100.441 104.449 103.406 107.165 102.729 111.303C102.176 114.682 98.541 115.404 96.7431 117.08C90.9265 122.498 89.0039 140.233 80.5 144.863C73.7152 148.558 61.7094 147.164 55.5847 138.769C49.7611 130.787 49.2408 119.513 56.3345 114.708C62.7112 110.388 66.4275 116.39 73.1738 112.402C79.8248 108.47 78.479 103.988 82.5526 102.457C88.1233 100.364 89.626 105.01 97.6203 104.595Z" fill="black"/>
<path d="M107.864 148.711C110.85 166.993 111.196 167.263 111.6 169.178C111.6 169.178 112.784 174.562 113.112 179.749C113.397 184.249 112.551 211.278 98.5804 217.23C93.5355 219.38 92.0732 215.429 81.3308 215.858C70.3218 216.298 68.09 220.215 63.2868 218.842C52.8914 215.871 49.4962 193.567 50.0685 179.784C50.5348 168.56 56.1212 157.96 67.2943 136.761C68.996 133.532 71.72 128.601 76.1083 127.973C78.1201 127.686 78.9241 127.994 87.0007 130.212C95.7859 132.623 98.0159 130.058 101.787 132.434C105.683 134.889 106.37 139.56 107.864 148.711Z" fill="white"/>
<path d="M77.2277 128.206C76.8722 128.206 76.5361 128.238 76.154 128.293C71.7934 128.917 69.0526 134.117 67.58 136.912C56.444 158.039 50.8544 168.645 50.3913 179.798C49.7943 194.17 53.4279 215.689 63.3755 218.531C65.6222 219.174 67.2433 218.622 69.6966 217.785C72.2028 216.931 75.6347 215.762 81.3177 215.535C86.7031 215.319 89.8402 216.213 92.1312 216.864C94.4721 217.53 96.0183 217.971 98.4536 216.933C105.703 213.845 109.211 204.863 110.878 197.871C112.704 190.212 112.955 182.369 112.79 179.77C112.467 174.669 111.296 169.302 111.284 169.248C111.217 168.928 111.152 168.656 111.075 168.339C110.686 166.717 110.034 164.002 107.545 148.762L107.452 148.193C106.023 139.431 105.306 135.033 101.615 132.707C99.8368 131.587 98.457 131.615 96.367 131.657C94.1605 131.701 91.4129 131.758 86.9151 130.523L84.8263 129.947C80.0312 128.626 78.5055 128.206 77.2277 128.206ZM65.2877 219.457C64.6264 219.457 63.9426 219.365 63.198 219.152C57.2013 217.439 53.9362 209.669 52.2529 203.452C50.358 196.453 49.4208 187.6 49.746 179.771C50.2151 168.472 55.8273 157.825 67.0086 136.611C68.5349 133.714 71.3757 128.324 76.0626 127.654C77.9523 127.384 78.7547 127.604 84.998 129.325L87.0861 129.899C91.4934 131.109 94.1878 131.055 96.3538 131.012C98.4814 130.968 100.018 130.937 101.959 132.161C105.897 134.643 106.63 139.135 108.09 148.089L108.183 148.659C110.668 163.873 111.316 166.574 111.703 168.189C111.781 168.512 111.848 168.788 111.916 169.112C111.927 169.163 113.108 174.577 113.435 179.729C113.82 185.819 112.412 211.688 98.7069 217.527C96.0616 218.654 94.3388 218.165 91.9544 217.486C89.5802 216.81 86.6237 215.971 81.3436 216.181C75.7543 216.404 72.511 217.509 69.9049 218.397C68.184 218.983 66.7948 219.457 65.2877 219.457Z" fill="black"/>
<path d="M91.829 254.574V263.416L87.5749 263.158L86.7375 254.574H91.829Z" fill="white"/>
<path d="M87.8697 262.851L91.5061 263.073V254.897H87.0937L87.8697 262.851ZM91.829 263.739C91.8226 263.739 91.8159 263.739 91.8096 263.739L87.5553 263.48C87.3968 263.47 87.2687 263.346 87.2534 263.188L86.4162 254.606C86.4073 254.516 86.4371 254.425 86.4984 254.358C86.5596 254.29 86.6465 254.252 86.7376 254.252H91.829C92.0074 254.252 92.152 254.396 92.152 254.574V263.416C92.152 263.505 92.1153 263.59 92.0504 263.651C91.9904 263.708 91.9111 263.739 91.829 263.739Z" fill="black"/>
<path d="M86.9366 274.441C88.6687 274.626 91.5033 274.747 94.8073 274.178C95.8903 273.991 96.5764 272.912 96.2788 271.855C95.45 268.907 93.814 263.416 92.5107 260.785L91.7255 262.22L91.0976 260.706C90.9898 260.527 90.8034 260.409 90.5952 260.39L88.3371 260.403C87.6674 260.401 87.6171 260.766 87.5289 261.044L87.0811 262.22L86.4615 260.626L85.3008 272.421C85.2016 273.429 85.9297 274.333 86.9366 274.441Z" fill="white"/>
<path d="M86.9707 274.119C88.7338 274.309 91.515 274.417 94.7524 273.859C95.1806 273.786 95.5586 273.534 95.7898 273.167C96.023 272.798 96.0862 272.363 95.968 271.943C95.3365 269.697 93.794 264.41 92.4886 261.499L92.0089 262.375C91.9492 262.483 91.8322 262.549 91.7083 262.543C91.5842 262.536 91.4748 262.458 91.4272 262.344L90.8098 260.855C90.754 260.774 90.6639 260.721 90.5651 260.711L88.339 260.725C87.9593 260.728 87.9318 260.825 87.8593 261.067L87.8365 261.141L87.3829 262.334C87.3354 262.46 87.2158 262.543 87.0821 262.543C87.0818 262.543 87.0814 262.543 87.0811 262.543C86.9478 262.543 86.8282 262.461 86.78 262.337L86.6505 262.003L85.6221 272.454C85.5403 273.284 86.1454 274.032 86.9707 274.119ZM89.8936 274.918C88.7226 274.918 87.7084 274.848 86.9021 274.762C85.7255 274.636 84.8629 273.572 84.9793 272.391L86.1401 260.594C86.1549 260.445 86.2696 260.325 86.4177 260.305C86.5661 260.286 86.7086 260.369 86.7627 260.509L87.0779 261.32L87.2405 260.882C87.3245 260.601 87.4808 260.08 88.3311 260.08C88.3335 260.08 88.336 260.08 88.3383 260.08L90.5933 260.067C90.9345 260.098 91.2146 260.273 91.3744 260.54C91.3825 260.553 91.3897 260.568 91.3958 260.582L91.7658 261.474L92.2274 260.63C92.2851 260.525 92.3974 260.457 92.5172 260.463C92.6375 260.465 92.7465 260.534 92.8 260.642C94.179 263.425 95.9097 269.35 96.5896 271.767C96.7558 272.357 96.6634 272.994 96.336 273.512C96.0074 274.033 95.4701 274.391 94.8622 274.496C93.0313 274.811 91.3425 274.918 89.8936 274.918Z" fill="black"/>
<path d="M90.3874 272.915C88.1558 272.915 86.6254 272.443 86.5304 272.414C86.3603 272.36 86.266 272.179 86.3194 272.008C86.373 271.839 86.554 271.744 86.7244 271.798C86.758 271.808 90.1317 272.84 94.1177 271.794C94.2906 271.747 94.4668 271.851 94.5122 272.023C94.5574 272.197 94.4545 272.373 94.2819 272.418C92.8654 272.791 91.5338 272.915 90.3874 272.915Z" fill="black"/>
<path d="M92.5107 268.322H88.6283C88.4498 268.322 88.3053 268.177 88.3053 267.999C88.3053 267.821 88.4498 267.676 88.6283 267.676H92.5107C92.6889 267.676 92.8336 267.821 92.8336 267.999C92.8336 268.177 92.6889 268.322 92.5107 268.322Z" fill="black"/>
<path d="M60.5359 249.897L59.2784 260.556L55.291 260.417V249.897H60.5359Z" fill="white"/>
<path d="M55.6139 260.106L58.9925 260.223L60.1726 250.219H55.6139V260.106ZM59.2787 260.88C59.2749 260.88 59.2711 260.88 59.2673 260.88L55.2799 260.741C55.1058 260.734 54.968 260.592 54.968 260.417V249.897C54.968 249.718 55.1127 249.574 55.2911 249.574H60.536C60.6283 249.574 60.716 249.613 60.7774 249.682C60.8387 249.751 60.8674 249.843 60.8568 249.934L59.5991 260.594C59.58 260.757 59.4416 260.88 59.2787 260.88Z" fill="black"/>
<path d="M60.2269 258.013C60.2269 258.013 60.7398 262.747 60.5814 264.651C60.4681 266.013 58.5981 270.131 57.5437 272.36C57.1099 273.278 56.2831 273.867 55.3658 273.906C54.2473 273.956 52.6912 274.011 51.4367 274.013C49.7104 274.014 48.5232 272.052 49.1395 270.223C49.7083 268.535 50.6113 266.418 52.0321 264.165C53.1019 262.469 54.6643 257.858 54.6643 257.858H57.9134L58.5513 260.556L60.2269 258.013Z" fill="white"/>
<path d="M54.8949 258.181C54.5664 259.13 53.261 262.822 52.3053 264.337C51.1055 266.24 50.1434 268.255 49.4456 270.326C49.1595 271.175 49.2901 272.1 49.7947 272.801C50.2005 273.366 50.798 273.69 51.4343 273.69C51.4349 273.69 51.4356 273.69 51.4363 273.69C52.6921 273.689 54.2588 273.632 55.3519 273.584C56.1429 273.55 56.871 273.027 57.2515 272.223C59.0841 268.345 60.1804 265.577 60.2594 264.625C60.372 263.272 60.1341 260.413 59.9957 258.95L58.8209 260.733C58.7501 260.841 58.6222 260.896 58.4949 260.874C58.368 260.851 58.2665 260.756 58.2369 260.63L57.6578 258.181H54.8949ZM51.4343 274.335C50.5873 274.335 49.7989 273.914 49.2703 273.179C48.6445 272.309 48.4812 271.164 48.8335 270.119C49.5475 268.001 50.5317 265.939 51.759 263.993C52.7959 262.347 54.3428 257.8 54.3582 257.754C54.4028 257.623 54.5257 257.534 54.6643 257.534H57.9133C58.0633 257.534 58.1934 257.637 58.2277 257.783L58.6933 259.753L59.957 257.835C60.0319 257.721 60.1696 257.667 60.3028 257.699C60.4351 257.731 60.5332 257.842 60.5479 257.978C60.5689 258.172 61.0624 262.765 60.9031 264.678C60.7923 266.012 59.1738 269.668 57.8357 272.499C57.3521 273.521 56.4111 274.185 55.3799 274.229C54.2806 274.277 52.7041 274.334 51.4371 274.335C51.4362 274.335 51.435 274.335 51.4343 274.335Z" fill="black"/>
<path d="M53.913 272.306C53.9124 272.306 53.9119 272.306 53.9114 272.306L51.1063 272.303C50.9281 272.302 50.7837 272.157 50.7838 271.979C50.784 271.801 50.9286 271.656 51.1068 271.656C51.1069 271.656 51.1072 271.656 51.1073 271.656L53.9123 271.661C53.9124 271.661 53.9129 271.661 53.9132 271.661C54.8155 271.661 55.7995 270.361 56.1026 269.861L57.9326 266.319C58.0145 266.159 58.2094 266.097 58.3676 266.18C58.5262 266.262 58.5884 266.456 58.5063 266.615L56.666 270.176C56.6035 270.281 55.3644 272.306 53.913 272.306Z" fill="black"/>
<path d="M55.4781 268.455H51.9209C51.7426 268.455 51.5979 268.31 51.5979 268.13C51.5979 267.952 51.7426 267.808 51.9209 267.808H55.4781C55.6564 267.808 55.8011 267.952 55.8011 268.13C55.8011 268.31 55.6564 268.455 55.4781 268.455Z" fill="black"/>
<path d="M98.6634 166.182C98.6634 166.182 98.2397 198.715 96.8726 219.895C95.5054 241.074 92.8088 257.268 92.8088 257.268C92.8088 257.268 88.1688 258.935 85.1226 258.062C85.1226 258.062 82.6007 239.484 82.0279 233.203C81.4551 226.923 82.9763 223.808 83.1044 218.667C83.2325 213.528 80.8894 190.835 80.8894 190.835C80.8894 190.835 63.398 242.137 61.3974 253.468C61.3974 253.468 57.161 254.186 54.1756 252.554C54.1756 252.554 54.0828 232.379 54.5063 229.262C55.2911 223.487 59.8014 217.801 60.6117 211.668C61.422 205.533 61.892 190.137 64.1235 180.904C66.3548 171.67 70.7319 161.296 70.7319 161.296L98.6634 166.182Z" fill="black"/>
<path d="M69.7602 178.263C69.6328 178.263 69.5124 178.187 69.4612 178.062C69.3934 177.897 69.4724 177.708 69.6375 177.641C71.8631 176.729 73.7321 175.234 75.1925 173.194C75.2965 173.049 75.4977 173.016 75.6432 173.119C75.7882 173.223 75.8216 173.426 75.7177 173.571C74.1854 175.71 72.2222 177.28 69.8824 178.238C69.8424 178.254 69.8007 178.263 69.7602 178.263Z" fill="white"/>
<path d="M96.1448 178.136C96.0654 178.136 95.9857 178.107 95.9235 178.048C93.8967 176.139 93.5888 174.927 93.1623 173.248L93.0452 172.792C93.0004 172.619 93.1038 172.444 93.2765 172.398C93.4485 172.353 93.6255 172.457 93.6704 172.629L93.7884 173.089C94.2029 174.72 94.4766 175.797 96.3662 177.578C96.4963 177.701 96.5022 177.905 96.38 178.035C96.3164 178.102 96.2307 178.136 96.1448 178.136Z" fill="white"/>
<path d="M146.404 142.849C145.184 143.09 142.88 144.293 142.582 144.603C140.236 147.047 138.848 143.241 138.848 143.241C138.848 143.241 143.073 140.684 145.463 140.316C150.072 139.605 148.958 142.344 146.404 142.849Z" fill="white"/>
<path d="M139.254 143.376C139.515 143.95 140.095 144.921 140.836 145.076C141.301 145.174 141.811 144.94 142.349 144.379C142.704 144.01 145.095 142.778 146.342 142.533C147.626 142.278 148.367 141.467 148.292 141.042C148.238 140.74 147.594 140.313 145.512 140.635C143.531 140.94 140.173 142.839 139.254 143.376ZM141.051 145.745C140.935 145.745 140.818 145.733 140.702 145.708C139.312 145.416 138.575 143.435 138.545 143.352C138.492 143.206 138.549 143.044 138.681 142.965C138.856 142.858 142.988 140.37 145.414 139.996C148.356 139.542 148.853 140.497 148.929 140.929C149.089 141.846 147.962 142.87 146.467 143.166C145.283 143.4 143.038 144.594 142.815 144.828C142.229 145.438 141.637 145.745 141.051 145.745Z" fill="black"/>
<path d="M138.5 144.814C138.398 144.814 138.299 144.766 138.236 144.676C138.133 144.531 138.169 144.329 138.315 144.227L171.172 121.182C171.32 121.08 171.519 121.116 171.624 121.261C171.726 121.408 171.69 121.608 171.545 121.712L138.686 144.755C138.629 144.796 138.564 144.814 138.5 144.814Z" fill="black"/>
<path d="M142.531 139.316C141.85 140.021 140.56 140.662 139.6 140.862C139.185 140.948 138.739 141.002 138.304 140.986C134.871 140.858 135.685 145.711 128.36 146.858C128.103 146.899 127.733 151.316 127.745 152.465C130.74 151.19 134.703 148.381 136.572 148.9C140.02 149.857 141.159 148.078 141.881 147.257C143.778 145.104 141.215 142.998 141.215 142.998C141.215 142.998 141.652 142.922 143.014 142.184C145.096 141.055 145.562 136.176 142.531 139.316Z" fill="white"/>
<path d="M128.567 147.152C128.389 147.781 128.127 150.526 128.076 151.964C128.887 151.592 129.766 151.123 130.62 150.669C133.004 149.399 135.254 148.199 136.659 148.589C139.637 149.416 140.732 148.117 141.456 147.257C141.52 147.181 141.581 147.11 141.639 147.044C142.091 146.53 142.297 145.977 142.251 145.401C142.154 144.2 141.022 143.258 141.01 143.248C140.913 143.168 140.871 143.039 140.903 142.916C140.935 142.794 141.035 142.702 141.16 142.68C141.159 142.68 141.599 142.584 142.86 141.9C143.868 141.354 144.423 139.834 144.362 139.029C144.345 138.804 144.279 138.643 144.19 138.611C144.15 138.596 143.768 138.499 142.763 139.541C142.079 140.249 140.748 140.954 139.666 141.178C139.173 141.281 138.71 141.325 138.292 141.309C136.982 141.259 136.372 142.02 135.518 143.07C134.357 144.501 132.772 146.453 128.567 147.152ZM127.745 152.788C127.683 152.788 127.621 152.77 127.568 152.735C127.478 152.677 127.423 152.576 127.422 152.468C127.416 151.882 127.505 150.484 127.63 149.215C127.886 146.606 128.046 146.581 128.31 146.54C132.388 145.901 133.846 144.105 135.017 142.664C135.915 141.557 136.688 140.601 138.316 140.664C138.683 140.677 139.092 140.637 139.535 140.545C140.489 140.347 141.703 139.709 142.298 139.093C143.19 138.169 143.88 137.812 144.409 138.004C144.61 138.077 144.955 138.3 145.006 138.979C145.082 139.979 144.419 141.789 143.168 142.468C142.549 142.804 142.112 143.007 141.814 143.131C142.224 143.578 142.816 144.379 142.895 145.349C142.956 146.107 142.697 146.821 142.124 147.472C142.069 147.533 142.011 147.602 141.95 147.675C141.221 148.539 139.864 150.149 136.486 149.212C135.331 148.891 133.09 150.084 130.924 151.238C129.894 151.787 128.829 152.354 127.871 152.761C127.83 152.779 127.787 152.788 127.745 152.788Z" fill="black"/>
<path d="M138.569 146.895C138.541 146.895 138.512 146.892 138.483 146.883C137.727 146.675 137.428 146.19 137.311 145.819C137.032 144.94 137.484 143.845 138.056 143.152C138.614 142.473 139.248 142.137 139.932 142.146C141.18 142.167 142.109 143.36 142.148 143.411C142.257 143.553 142.23 143.755 142.089 143.864C141.948 143.972 141.745 143.946 141.636 143.806C141.628 143.795 140.853 142.806 139.919 142.792C139.444 142.788 138.981 143.043 138.555 143.562C138.01 144.223 137.751 145.071 137.926 145.623C138.028 145.945 138.266 146.153 138.654 146.261C138.827 146.308 138.927 146.486 138.88 146.658C138.841 146.802 138.711 146.895 138.569 146.895Z" fill="black"/>
<path d="M101.846 130.229C101.846 130.229 91.407 128.735 81.1318 128.438C81.1318 128.438 67.6208 164.522 67.6219 166.79C67.623 169.059 74.0928 174.206 80.5086 170.11C91.2103 163.278 97.8964 165.608 103.171 166.84C111.076 168.687 101.846 130.229 101.846 130.229Z" fill="white"/>
<path d="M81.3532 128.766C77.5438 138.947 67.944 164.99 67.9449 166.79C67.9453 167.62 69.0965 169.109 71.0227 170.164C72.4468 170.944 76.2051 172.474 80.3347 169.837C90.411 163.405 96.9092 164.986 102.13 166.257C102.509 166.349 102.88 166.44 103.245 166.525C103.847 166.666 104.331 166.541 104.725 166.144C108.843 162.002 102.235 133.298 101.582 130.518C100.042 130.306 90.6077 129.052 81.3532 128.766ZM75.4682 171.968C73.3169 171.968 71.5957 171.214 70.7124 170.731C68.7351 169.648 67.2995 167.991 67.299 166.79C67.2978 164.489 80.2769 129.8 80.8292 128.324C80.8775 128.194 81.0032 128.109 81.1412 128.114C91.317 128.41 101.787 129.895 101.891 129.909C102.022 129.928 102.129 130.025 102.16 130.153C102.471 131.453 109.741 162.013 105.183 166.599C104.625 167.161 103.924 167.347 103.098 167.154C102.732 167.069 102.358 166.979 101.977 166.885C96.8758 165.643 90.5264 164.097 80.6823 170.382C78.8221 171.569 77.0316 171.968 75.4682 171.968Z" fill="black"/>
<path d="M134.758 150.381C133.459 151.96 131.078 155.179 125.557 156.97C114.515 160.555 107.698 153.278 107.698 153.278L108.649 175.058C108.649 175.058 103.314 178.219 103.314 177.939C103.314 177.66 100.982 129.355 100.982 129.355C100.982 129.355 105.288 129.425 107.209 132.158C109.129 134.891 116.396 146.184 124.751 146.321C128.551 146.384 130.39 144.812 131.592 144.381L134.758 150.381Z" fill="white"/>
<path d="M102.591 163.078C102.42 163.078 102.277 162.943 102.268 162.77C101.584 148.516 100.659 129.371 100.659 129.371C100.655 129.282 100.688 129.194 100.75 129.13C100.812 129.065 100.901 129.029 100.987 129.032C101.169 129.035 105.481 129.137 107.473 131.972C107.588 132.136 107.723 132.331 107.877 132.555C110.15 135.849 117.068 145.873 124.756 145.999C127.586 146.044 129.255 145.181 130.475 144.55C130.854 144.355 131.181 144.185 131.483 144.077C131.634 144.023 131.802 144.087 131.877 144.23L135.044 150.23C135.105 150.345 135.09 150.485 135.007 150.586L134.78 150.865C133.445 152.504 130.959 155.557 125.656 157.278C123.462 157.991 121.425 158.277 119.572 158.277C113.598 158.277 109.514 155.305 108.055 154.049L108.372 161.304C108.38 161.482 108.241 161.632 108.063 161.641C107.894 161.65 107.734 161.511 107.726 161.331L107.376 153.293C107.37 153.157 107.448 153.033 107.573 152.98C107.697 152.928 107.841 152.958 107.934 153.058C108.001 153.128 114.75 160.139 125.457 156.664C130.579 155.001 132.986 152.044 134.279 150.456L134.372 150.342L131.443 144.79C131.242 144.88 131.018 144.996 130.772 145.124C129.563 145.749 127.732 146.693 124.745 146.644C116.726 146.512 109.665 136.282 107.345 132.921C107.193 132.701 107.059 132.507 106.944 132.343C105.447 130.212 102.356 129.782 101.322 129.698C101.452 132.387 102.284 149.631 102.914 162.739C102.922 162.917 102.785 163.069 102.607 163.078C102.601 163.078 102.596 163.078 102.591 163.078Z" fill="black"/>
<path d="M114.885 137.319H94.6995C94.0628 137.319 93.46 137.852 93.3533 138.512L88.7718 166.792C88.6649 167.452 89.0946 167.986 89.7315 167.986H109.917C110.554 167.986 111.157 167.452 111.263 166.792L115.845 138.512C115.951 137.852 115.522 137.319 114.885 137.319Z" fill="white"/>
<path d="M94.6995 137.642C94.2237 137.642 93.7531 138.063 93.6721 138.563L89.0906 166.844C89.0527 167.078 89.1039 167.293 89.2352 167.446C89.3537 167.586 89.5298 167.662 89.7314 167.662H109.917C110.393 167.662 110.863 167.24 110.944 166.741L115.526 138.459C115.564 138.226 115.513 138.011 115.381 137.858C115.263 137.717 115.087 137.642 114.885 137.642H94.6995ZM109.917 168.309H89.7314C89.3375 168.309 88.9864 168.151 88.7433 167.865C88.491 167.569 88.3852 167.158 88.4529 166.741L93.0344 138.459C93.1675 137.639 93.899 136.995 94.6995 136.995H114.885C115.279 136.995 115.63 137.152 115.873 137.439C116.126 137.735 116.231 138.145 116.164 138.563L111.582 166.844C111.449 167.665 110.718 168.309 109.917 168.309Z" fill="black"/>
<path d="M91.7044 148.762L91.3689 150.9C91.3448 151.872 92.2197 152.621 93.1762 152.447L98.4379 151.491C99.2482 151.344 99.9985 151.986 99.9512 152.808C99.9242 153.277 99.7136 153.821 99.1314 154.388C98.86 154.652 94.1909 158.207 90.6044 157.562C90.448 157.534 87.0883 159.423 86.9592 159.331C86.3957 158.928 86.0025 157.639 85.8774 156.554C85.8665 156.461 88.6613 154.886 88.9435 154.021C89.2351 153.128 88.9985 152.477 89.3523 150.951C89.7677 149.161 91.7044 148.762 91.7044 148.762Z" fill="white"/>
<path d="M86.2202 156.69C86.359 157.687 86.692 158.609 87.0418 158.975C87.3794 158.835 88.2585 158.375 88.8661 158.057C90.4829 157.211 90.5064 157.216 90.6618 157.245C93.9955 157.845 98.5004 154.548 98.9062 154.156C99.3587 153.716 99.6018 153.256 99.6287 152.79C99.6452 152.504 99.5298 152.23 99.3121 152.037C99.0874 151.839 98.7899 151.755 98.4955 151.808L93.2339 152.764C92.6817 152.865 92.121 152.713 91.6947 152.348C91.2685 151.983 91.032 151.453 91.046 150.892C91.0463 150.878 91.0477 150.863 91.0498 150.85L91.3039 149.231C90.7621 149.454 89.9128 149.964 89.6669 151.024C89.4913 151.782 89.4669 152.313 89.4452 152.78C89.4238 153.246 89.4053 153.646 89.2504 154.121C89.0299 154.797 87.8107 155.642 86.5811 156.451C86.4533 156.534 86.3145 156.624 86.2202 156.69ZM86.9502 159.667C86.8726 159.667 86.8293 159.635 86.7715 159.594C86.0727 159.095 85.6803 157.664 85.5563 156.591C85.5309 156.367 85.61 156.315 86.2263 155.91C86.897 155.47 88.4675 154.437 88.6363 153.921C88.7641 153.529 88.7798 153.186 88.7998 152.751C88.8217 152.279 88.8487 151.693 89.0377 150.878C89.4945 148.91 91.5518 148.464 91.6392 148.447C91.7435 148.425 91.8508 148.456 91.9272 148.529C92.0039 148.602 92.0397 148.708 92.0234 148.813L91.6914 150.928C91.6884 151.287 91.842 151.624 92.1148 151.858C92.3927 152.096 92.7575 152.195 93.1185 152.129L98.3801 151.173C98.87 151.084 99.3664 151.222 99.7402 151.552C100.107 151.878 100.302 152.342 100.274 152.827C100.237 153.461 99.9284 154.062 99.3567 154.618C99.3149 154.659 94.507 158.533 90.6207 157.893C90.4108 157.978 89.725 158.337 89.1654 158.629C87.5972 159.45 87.155 159.667 86.9502 159.667Z" fill="black"/>
<path d="M87.0126 155.049C84.6947 155.426 84.3732 156.567 81.4965 155.303C75.0142 152.455 76.2402 142.505 77.343 137.551C77.5698 136.533 77.853 135.541 78.1599 134.608C78.7246 132.889 71.7648 131.299 70.5321 132.623C69.0421 134.222 67.4701 136.252 66.1142 138.735C62.0754 146.133 60.7615 162.689 74.268 165.681C81.3829 167.256 87.0399 161.431 89.0756 158.922C89.5408 158.349 87.6747 154.941 87.0126 155.049Z" fill="white"/>
<path d="M76.7123 166.274C75.8987 166.274 75.0595 166.187 74.1982 165.996C65.0713 163.974 63.3028 156.165 63.0609 151.688C63.0513 151.51 63.1879 151.358 63.366 151.349C63.5421 151.339 63.6963 151.476 63.7059 151.655C63.9379 155.947 65.6276 163.437 74.3379 165.365C81.2946 166.906 86.7866 161.231 88.8249 158.72C88.8597 158.63 88.7991 158.117 88.3348 157.178C87.7904 156.077 87.2229 155.439 87.0404 155.372C86.3669 155.484 85.8606 155.665 85.4134 155.827C84.3294 156.217 83.4737 156.525 81.3665 155.6C75.3472 152.954 75.8054 144.442 76.6141 139.604C76.6434 139.429 76.8083 139.309 76.9859 139.338C77.1617 139.369 77.2804 139.535 77.2512 139.71C76.4733 144.363 76.0076 152.539 81.6264 155.008C83.4981 155.83 84.1731 155.586 85.1944 155.218C85.6734 155.046 86.2164 154.851 86.9608 154.731C87.4041 154.658 87.9532 155.191 88.6029 156.312C88.8969 156.819 89.8174 158.521 89.3264 159.125C87.4617 161.423 82.8021 166.274 76.7123 166.274Z" fill="black"/>
<path d="M92.2868 116.015C92.4872 116.135 92.743 116.05 92.8313 115.834C93.2508 114.803 93.9228 112.809 95.2968 112.492C97.0582 112.086 99.9094 111.561 100.155 112.954C100.37 114.175 100.116 116.281 101.401 117.807C101.524 117.953 101.418 118.188 101.266 118.303L100.457 118.985C100.287 119.114 100.141 119.55 100.12 119.764C100.055 120.427 99.3753 122.731 99.1463 122.913C98.7001 123.266 96.4725 123.129 96.4725 123.129L95.2825 128.376C95.2149 128.61 95.3527 128.852 95.586 128.913L97.712 129.634C97.712 129.634 96.0051 132.027 90.6724 131.666C87.2636 131.436 84.7692 129.034 84.7692 129.034C84.7692 129.034 91.3962 128.092 92.2909 120.259C92.3106 120.086 92.2361 119.917 92.0984 119.812C91.5696 119.416 90.1463 118.245 90.3952 117.059C90.6597 115.799 91.6008 115.607 92.2868 116.015Z" fill="white"/>
<path d="M85.4694 129.201C86.3326 129.875 88.2904 131.18 90.6945 131.343C94.5654 131.606 96.4434 130.387 97.1303 129.777L95.4824 129.218C95.3089 129.174 95.144 129.048 95.0424 128.871C94.9414 128.694 94.9159 128.481 94.9731 128.285L96.158 123.056C96.1928 122.902 96.333 122.797 96.4927 122.806C97.5846 122.873 98.6997 122.809 98.9294 122.669C99.1248 122.374 99.7346 120.391 99.7991 119.731C99.8229 119.485 99.9833 118.938 100.263 118.726L101.058 118.055C101.092 118.03 101.114 117.999 101.125 117.978C100.122 116.759 100.02 115.251 99.9378 114.037C99.912 113.656 99.888 113.297 99.837 113.009C99.8075 112.841 99.7243 112.717 99.5755 112.619C98.9937 112.233 97.5786 112.297 95.3697 112.806C94.2803 113.058 93.6585 114.625 93.2473 115.663L93.1308 115.954C93.0534 116.144 92.8983 116.291 92.705 116.355C92.5117 116.42 92.2989 116.397 92.1221 116.291C91.8514 116.131 91.5554 116.1 91.3107 116.207C91.0178 116.337 90.8104 116.654 90.7116 117.125C90.5086 118.092 91.7497 119.146 92.2928 119.553C92.5225 119.726 92.6448 120.01 92.6123 120.295C91.8692 126.802 87.2104 128.711 85.4694 129.201ZM91.7488 132.026C91.4002 132.026 91.0349 132.013 90.651 131.988C87.1649 131.752 84.6507 129.367 84.5454 129.266C84.4566 129.18 84.4244 129.051 84.4622 128.933C84.5 128.817 84.6015 128.731 84.7236 128.712C84.9842 128.675 91.116 127.703 91.9704 120.222C91.9769 120.163 91.9519 120.105 91.9044 120.07C91.1073 119.471 89.8102 118.274 90.0795 116.991C90.2609 116.128 90.7079 115.766 91.0512 115.617C91.4895 115.424 92.0004 115.467 92.4523 115.736C92.4523 115.736 92.4523 115.736 92.4525 115.736C92.4721 115.749 92.4892 115.747 92.4995 115.743C92.5147 115.738 92.5257 115.727 92.5324 115.71L92.6468 115.424C93.1078 114.262 93.8048 112.504 95.2247 112.178C97.7135 111.602 99.1655 111.573 99.9322 112.081C100.231 112.279 100.413 112.552 100.473 112.897C100.53 113.219 100.555 113.595 100.582 113.993C100.659 115.125 100.754 116.536 101.649 117.599C101.748 117.716 101.792 117.868 101.775 118.028C101.753 118.226 101.633 118.429 101.462 118.56L100.666 119.231C100.586 119.3 100.46 119.608 100.442 119.794C100.39 120.323 99.724 122.865 99.3476 123.163C98.909 123.512 97.4601 123.498 96.7278 123.465L95.5979 128.447C95.5818 128.504 95.5944 128.535 95.6029 128.549C95.613 128.568 95.6318 128.59 95.6659 128.599L97.8163 129.328C97.913 129.361 97.9884 129.439 98.0197 129.535C98.0512 129.633 98.0346 129.739 97.9752 129.821C97.9066 129.917 96.3456 132.026 91.7488 132.026Z" fill="black"/>
<path d="M228.224 258.518L200.829 283.161L124.95 282.928C124.871 282.928 124.831 282.841 124.887 282.792L152.185 258.237L228.119 258.287C228.252 258.287 228.319 258.433 228.224 258.518Z" fill="white"/>
<path d="M125.575 282.606L200.705 282.839L227.639 258.61L152.309 258.56L125.575 282.606ZM200.829 283.484H200.827L124.949 283.252C124.775 283.25 124.625 283.148 124.564 282.989C124.505 282.834 124.547 282.663 124.671 282.551L151.968 257.997C152.027 257.944 152.104 257.913 152.185 257.913L228.119 257.964C228.319 257.964 228.493 258.081 228.562 258.262C228.629 258.438 228.581 258.632 228.44 258.759L201.045 283.402C200.985 283.455 200.908 283.484 200.829 283.484Z" fill="black"/>
<path d="M228.347 258.309V291.028L201.038 315.607C200.96 315.677 200.829 315.627 200.829 315.529V283.161C200.829 283.161 227.954 258.328 228.347 258.309Z" fill="white"/>
<path d="M201.151 283.303V315.069L228.024 290.885V258.968C224.93 261.582 208.034 277.003 201.151 283.303ZM200.951 315.963C200.889 315.963 200.824 315.95 200.765 315.924C200.605 315.852 200.506 315.702 200.506 315.529V283.161C200.506 283.071 200.544 282.984 200.61 282.923C227.821 258.01 228.179 257.994 228.332 257.986C228.42 257.982 228.506 258.016 228.57 258.075C228.633 258.137 228.67 258.221 228.67 258.309V291.028C228.67 291.12 228.63 291.207 228.563 291.269L201.254 315.848C201.169 315.924 201.061 315.963 200.951 315.963Z" fill="black"/>
<path d="M200.829 315.767L124.852 315.537C125.014 315.683 124.91 282.98 124.91 282.98L200.829 283.161C200.829 283.161 200.829 315.852 200.829 315.767Z" fill="white"/>
<path d="M125.195 315.214L200.506 315.443V283.484L125.234 283.304C125.238 284.893 125.259 292.058 125.265 299.231C125.268 303.953 125.264 307.717 125.253 310.421C125.241 313.271 125.235 314.588 125.195 315.214ZM200.829 316.09H200.827L124.865 315.859C124.783 315.862 124.7 315.835 124.636 315.776C124.541 315.691 124.506 315.559 124.544 315.439C124.661 314.261 124.614 291.667 124.587 282.982C124.586 282.895 124.62 282.814 124.681 282.752C124.742 282.691 124.815 282.666 124.91 282.657L200.829 282.839C201.007 282.839 201.152 282.983 201.152 283.161V315.767C201.152 315.853 201.118 315.935 201.057 315.997C200.997 316.056 200.914 316.09 200.829 316.09Z" fill="black"/>
<path d="M177.228 302.243C177.14 302.243 177.051 302.207 176.988 302.137C176.869 302.004 176.879 301.8 177.012 301.68L183.928 295.459C184.061 295.34 184.265 295.351 184.385 295.484C184.503 295.616 184.493 295.821 184.36 295.939L177.444 302.16C177.383 302.216 177.305 302.243 177.228 302.243Z" fill="black"/>
<path d="M315.588 226.906L287.936 251.78L213.062 251.548C212.952 251.546 212.898 251.427 212.975 251.356L240.213 226.856L315.588 226.906Z" fill="white"/>
<path d="M213.603 251.226L287.813 251.457L314.747 227.228L240.335 227.179L213.603 251.226ZM287.935 252.102L213.062 251.87C212.874 251.87 212.709 251.758 212.643 251.587C212.581 251.42 212.626 251.237 212.76 251.115L239.996 226.615C240.054 226.562 240.132 226.533 240.213 226.533L315.589 226.583C315.722 226.583 315.842 226.666 315.891 226.79C315.937 226.916 315.905 227.057 315.804 227.146L288.152 252.021C288.094 252.073 288.017 252.102 287.935 252.102Z" fill="black"/>
<path d="M315.588 226.928V290.594L288.354 315.104C288.25 315.199 288.07 315.132 288.07 314.999V251.78C288.07 251.78 315.195 226.947 315.588 226.928Z" fill="white"/>
<path d="M288.394 251.923V314.636L315.266 290.449V227.586C312.175 230.202 295.276 245.621 288.394 251.923ZM288.239 315.472C288.169 315.472 288.098 315.458 288.032 315.428C287.855 315.35 287.749 315.186 287.749 314.999V251.78C287.749 251.689 287.785 251.603 287.853 251.542C315.064 226.628 315.423 226.612 315.574 226.605C315.661 226.6 315.748 226.634 315.812 226.695C315.876 226.755 315.911 226.84 315.911 226.929V290.594C315.911 290.686 315.873 290.772 315.805 290.833L288.57 315.345C288.477 315.428 288.359 315.472 288.239 315.472Z" fill="black"/>
<path d="M288.07 315.151L212.88 314.921C213.043 315.067 212.937 251.6 212.937 251.6L288.07 251.78C288.07 251.78 288.07 315.236 288.07 315.151Z" fill="white"/>
<path d="M213.215 314.598L287.746 314.827V252.103L213.259 251.923C213.263 254.252 213.286 268.738 213.291 283.233C213.295 292.419 213.291 299.741 213.279 304.997C213.273 307.968 213.263 310.444 213.25 312.182C213.243 313.461 213.236 314.183 213.215 314.598ZM288.069 315.474C288.069 315.474 288.069 315.474 288.068 315.474L212.888 315.243C212.801 315.246 212.725 315.217 212.663 315.16C212.573 315.08 212.536 314.956 212.566 314.842C212.682 313.41 212.649 272.927 212.613 251.601C212.613 251.515 212.647 251.433 212.709 251.372C212.767 251.312 212.851 251.277 212.935 251.277C212.937 251.277 212.937 251.277 212.937 251.277L288.069 251.458C288.248 251.458 288.391 251.602 288.391 251.78V315.151C288.391 315.236 288.358 315.319 288.296 315.379C288.237 315.441 288.154 315.474 288.069 315.474Z" fill="black"/>
<path d="M244.872 290.469C244.782 290.469 244.695 290.432 244.631 290.362C244.51 290.229 244.523 290.025 244.654 289.905L266.427 270.321C266.559 270.201 266.764 270.212 266.882 270.344C267.002 270.477 266.992 270.681 266.859 270.801L245.086 290.385C245.024 290.441 244.947 290.469 244.872 290.469Z" fill="black"/>
<path d="M244.101 275.723C244.013 275.723 243.924 275.686 243.861 275.615C243.742 275.483 243.751 275.279 243.884 275.159L250.801 268.938C250.933 268.818 251.138 268.83 251.257 268.963C251.376 269.094 251.365 269.299 251.232 269.419L244.317 275.64C244.256 275.695 244.178 275.723 244.101 275.723Z" fill="black"/>
<path d="M303.058 163.001H221.397C220.195 163.001 219.257 164.038 219.377 165.235L227.173 242.081C227.203 242.374 227.452 242.596 227.748 242.589L231.965 242.5C232.141 242.495 232.276 242.348 232.263 242.173L227.13 170.717C227.046 169.54 227.979 168.542 229.156 168.543L295.432 168.626C296.614 168.628 297.542 169.633 297.452 170.811L292 241.898C291.97 242.268 292.256 242.585 292.625 242.595L296.308 242.695C296.57 242.703 296.795 242.506 296.825 242.244L305.073 165.246C305.202 164.046 304.264 163.001 303.058 163.001Z" fill="white"/>
<path d="M229.154 168.22H229.156L295.431 168.304C296.085 168.306 296.713 168.58 297.157 169.059C297.599 169.537 297.824 170.186 297.773 170.836L292.32 241.923C292.314 242.012 292.343 242.098 292.404 242.165C292.464 242.231 292.545 242.269 292.635 242.272L296.317 242.373C296.42 242.371 296.494 242.303 296.503 242.209L304.752 165.212C304.805 164.732 304.649 164.249 304.327 163.891C304.003 163.531 303.54 163.325 303.058 163.325H221.396C220.914 163.325 220.453 163.529 220.131 163.885C219.808 164.243 219.651 164.723 219.7 165.203L227.496 242.049C227.507 242.174 227.625 242.265 227.739 242.266L231.958 242.177L226.808 170.74C226.763 170.092 226.99 169.443 227.434 168.967C227.876 168.491 228.504 168.22 229.154 168.22ZM296.321 243.018C296.314 243.018 296.306 243.018 296.297 243.018L292.616 242.917C292.35 242.91 292.103 242.796 291.923 242.598C291.745 242.398 291.657 242.141 291.677 241.873L297.129 170.785C297.166 170.307 297.007 169.85 296.681 169.498C296.357 169.145 295.913 168.951 295.431 168.951L229.156 168.866C229.154 168.866 229.154 168.866 229.154 168.866C228.674 168.866 228.232 169.059 227.906 169.408C227.58 169.76 227.417 170.216 227.452 170.693L232.585 242.151C232.597 242.322 232.539 242.491 232.424 242.618C232.308 242.744 232.143 242.82 231.973 242.822L227.754 242.913C227.297 242.925 226.898 242.571 226.853 242.114L219.057 165.266C218.991 164.607 219.207 163.945 219.651 163.454C220.097 162.961 220.732 162.678 221.396 162.678H303.058C303.724 162.678 304.361 162.963 304.807 163.458C305.251 163.954 305.466 164.618 305.395 165.279L297.146 242.278C297.101 242.697 296.739 243.018 296.321 243.018Z" fill="black"/>
<path d="M288.262 167.49C288.083 167.49 287.938 167.345 287.938 167.166V163.692C287.938 163.513 288.083 163.368 288.262 163.368C288.439 163.368 288.584 163.513 288.584 163.692V167.166C288.584 167.345 288.439 167.49 288.262 167.49Z" fill="white"/>
<path d="M247.44 228.727L245.852 236.642C245.797 236.909 245.548 237.09 245.316 237.032L240.669 235.849C240.47 235.798 240.352 235.586 240.394 235.356L241.732 228.283L247.44 228.727Z" fill="white"/>
<path d="M241.996 228.627L240.713 235.415C240.702 235.478 240.723 235.529 240.749 235.536L245.395 236.717C245.416 236.723 245.443 236.708 245.454 236.702C245.494 236.676 245.524 236.629 245.536 236.577L247.053 229.02L241.996 228.627ZM245.407 237.365C245.351 237.365 245.293 237.358 245.237 237.343L240.591 236.162C240.222 236.069 240.001 235.695 240.077 235.295L241.417 228.223C241.447 228.061 241.596 227.948 241.759 227.96L247.465 228.404C247.558 228.411 247.643 228.458 247.698 228.531C247.755 228.605 247.775 228.699 247.757 228.789L246.168 236.704C246.123 236.93 245.988 237.129 245.798 237.248C245.676 237.326 245.541 237.365 245.407 237.365Z" fill="black"/>
<path d="M262.416 221.937L266.331 228.37L261.857 230.741L257.833 224.984L262.416 221.937Z" fill="white"/>
<path d="M258.285 225.071L261.959 230.322L265.876 228.246L262.316 222.392L258.285 225.071ZM261.858 231.064C261.755 231.064 261.655 231.016 261.593 230.927L257.567 225.17C257.518 225.098 257.498 225.009 257.514 224.925C257.531 224.838 257.58 224.764 257.654 224.716L262.238 221.667C262.311 221.619 262.4 221.603 262.486 221.622C262.573 221.641 262.647 221.694 262.692 221.77L266.606 228.202C266.653 228.278 266.666 228.37 266.642 228.456C266.619 228.543 266.561 228.614 266.483 228.656L262.009 231.026C261.961 231.052 261.909 231.064 261.858 231.064Z" fill="black"/>
<path d="M247.507 233.162C247.823 234.301 248.493 237.507 248.773 239.437C248.949 240.648 248.183 241.794 247.013 242.111C243.702 243.006 235.789 242.966 229.202 243.258C228.752 243.277 227.919 243.057 227.55 241.965C226.297 238.256 233.221 237.109 240.064 233.339C240.199 233.264 240.362 233.272 240.487 233.361C240.567 233.418 240.666 233.486 240.784 233.561C241.975 234.319 243.954 234.32 245.162 233.593L246.529 232.771C246.904 232.546 247.388 232.739 247.507 233.162Z" fill="white"/>
<path d="M240.26 233.611C240.246 233.611 240.234 233.615 240.22 233.622C238.131 234.773 236.028 235.682 234.173 236.487C229.642 238.449 227.113 239.667 227.855 241.861C228.215 242.924 229.028 242.942 229.187 242.936C230.877 242.861 232.676 242.807 234.415 242.755C239.375 242.607 244.503 242.454 246.928 241.798C247.95 241.522 248.604 240.527 248.453 239.484C248.184 237.633 247.516 234.404 247.194 233.25C247.165 233.145 247.09 233.063 246.991 233.024C246.895 232.984 246.786 232.993 246.696 233.049L245.329 233.869C244.007 234.665 241.89 234.649 240.612 233.834C240.488 233.755 240.382 233.682 240.3 233.624C240.288 233.615 240.274 233.611 240.26 233.611ZM229.144 243.582C228.488 243.582 227.621 243.19 227.243 242.068C226.274 239.202 229.648 237.743 233.918 235.894C235.759 235.095 237.847 234.192 239.908 233.056C240.155 232.92 240.448 232.936 240.675 233.098C240.749 233.152 240.846 233.216 240.957 233.288C242.034 233.973 243.883 233.986 244.997 233.316L246.362 232.495C246.627 232.335 246.944 232.308 247.231 232.424C247.519 232.538 247.731 232.776 247.817 233.076C248.147 234.257 248.814 237.468 249.092 239.391C249.291 240.757 248.433 242.061 247.096 242.422C244.599 243.098 239.661 243.245 234.435 243.401C232.697 243.453 230.902 243.506 229.216 243.581C229.193 243.581 229.167 243.582 229.144 243.582Z" fill="black"/>
<path d="M248.974 240.31C248.98 240.344 248.983 240.367 248.984 240.379C249.16 241.589 248.011 242.332 246.912 242.849C243.651 244.379 230.479 243.502 229.972 243.468C229.961 243.467 229.954 243.467 229.944 243.467C229.781 243.47 228.107 243.47 227.625 242.43C227.566 242.3 227.529 242.119 227.506 241.948C227.47 241.671 227.488 241.388 227.549 241.115C227.601 240.891 227.82 240.753 228.04 240.808C230.484 241.435 236.218 241.842 241.896 241.013C243.991 240.708 247.337 239.769 248.216 239.243C248.456 239.1 248.761 239.239 248.816 239.515C248.861 239.745 248.916 240.026 248.974 240.31Z" fill="white"/>
<path d="M229.94 243.144C229.952 243.144 229.984 243.144 229.992 243.146C234.684 243.464 244.23 243.752 246.774 242.556C248.199 241.887 248.781 241.23 248.665 240.425L248.655 240.373L248.498 239.578C248.492 239.538 248.464 239.522 248.45 239.515C248.433 239.508 248.409 239.503 248.38 239.521C247.46 240.07 244.091 241.019 241.943 241.333C236.501 242.127 230.678 241.817 227.959 241.122C227.938 241.117 227.919 241.12 227.904 241.13C227.892 241.137 227.872 241.153 227.864 241.185C227.809 241.435 227.795 241.679 227.826 241.906C227.857 242.137 227.896 242.248 227.918 242.295C228.319 243.159 229.868 243.143 229.937 243.144C229.939 243.144 229.939 243.144 229.94 243.144ZM238.22 244.069C234.144 244.07 230.248 243.81 229.949 243.79C229.736 243.791 227.898 243.785 227.333 242.566C227.266 242.423 227.217 242.236 227.185 241.993C227.146 241.687 227.162 241.369 227.234 241.045C227.278 240.849 227.396 240.683 227.564 240.579C227.733 240.477 227.93 240.448 228.118 240.496C230.239 241.038 235.84 241.571 241.85 240.693C243.896 240.395 247.198 239.474 248.049 238.966C248.25 238.845 248.498 238.83 248.712 238.925C248.929 239.021 249.086 239.219 249.131 239.452L249.289 240.249C249.297 240.29 249.303 240.318 249.304 240.331C249.517 241.801 248.118 242.639 247.048 243.142C245.494 243.872 241.788 244.069 238.22 244.069Z" fill="black"/>
<path d="M239.596 236.657C239.528 236.657 239.46 236.636 239.401 236.591L237.404 235.07C237.261 234.962 237.233 234.759 237.342 234.617C237.449 234.475 237.652 234.448 237.794 234.556L239.793 236.077C239.934 236.185 239.962 236.388 239.855 236.53C239.79 236.613 239.694 236.657 239.596 236.657Z" fill="black"/>
<path d="M236.941 237.746C236.873 237.746 236.805 237.725 236.748 237.681L234.999 236.37C234.857 236.263 234.828 236.06 234.934 235.917C235.041 235.774 235.244 235.746 235.387 235.853L237.135 237.164C237.278 237.272 237.307 237.473 237.199 237.616C237.136 237.701 237.038 237.746 236.941 237.746Z" fill="black"/>
<path d="M261.565 229.368L266.709 228.624L269.745 235.068C270.193 236.034 269.838 237.287 268.933 237.859C267.755 238.605 265.996 239.576 263.975 240.226C260.161 241.451 256.357 244.966 253.08 243.238C249.799 241.511 250.018 241.382 249.852 240.198C249.688 239.015 252.939 236.685 255.137 235.152C256.93 233.9 261.565 229.368 261.565 229.368Z" fill="white"/>
<path d="M261.716 229.672C261.089 230.284 257.014 234.236 255.321 235.416C254.013 236.329 250.029 239.108 250.175 240.154C250.187 240.238 250.195 240.319 250.205 240.394C250.31 241.247 250.333 241.425 253.231 242.952C255.326 244.056 257.711 242.837 260.239 241.545C261.422 240.939 262.649 240.313 263.877 239.919C265.892 239.27 267.647 238.292 268.762 237.586C269.527 237.102 269.838 236.032 269.454 235.203L266.52 228.977L261.716 229.672ZM255.002 244.026C254.295 244.026 253.601 243.878 252.929 243.523C249.84 241.895 249.704 241.601 249.564 240.473C249.556 240.4 249.546 240.325 249.533 240.243C249.368 239.05 251.581 237.238 254.952 234.886C256.705 233.662 261.294 229.182 261.339 229.137C261.389 229.09 261.452 229.058 261.518 229.049L266.664 228.304C266.803 228.284 266.941 228.357 267.003 228.485L270.038 234.93C270.555 236.045 270.136 237.48 269.107 238.132C267.959 238.859 266.154 239.864 264.073 240.533C262.896 240.911 261.694 241.526 260.533 242.12C258.69 243.062 256.805 244.026 255.002 244.026Z" fill="black"/>
<path d="M259.876 234.955C259.815 234.955 259.754 234.938 259.7 234.903L257.379 233.394C257.23 233.297 257.187 233.097 257.283 232.948C257.382 232.797 257.582 232.755 257.732 232.853L260.051 234.361C260.2 234.459 260.243 234.659 260.147 234.808C260.083 234.903 259.98 234.955 259.876 234.955Z" fill="black"/>
<path d="M258.226 236.684C258.165 236.684 258.105 236.667 258.05 236.632L255.729 235.123C255.581 235.026 255.538 234.826 255.637 234.676C255.732 234.527 255.932 234.485 256.082 234.581L258.402 236.091C258.551 236.187 258.594 236.387 258.497 236.537C258.435 236.632 258.33 236.684 258.226 236.684Z" fill="black"/>
<path d="M250.077 241.085C250.077 241.085 252.657 242.965 255.494 241.984C258.333 241.001 269.745 234.992 269.745 234.992L270.334 236.284C270.633 236.938 270.376 237.716 269.747 238.071C266.904 239.671 259.318 243.753 255.368 244.022C250.449 244.356 250.077 241.085 250.077 241.085Z" fill="white"/>
<path d="M250.652 241.799C251.089 242.656 252.258 243.91 255.349 243.699C259.196 243.437 266.591 239.478 269.59 237.789C270.071 237.519 270.27 236.916 270.042 236.416L269.595 235.437C267.73 236.415 258.205 241.388 255.601 242.289C253.555 242.995 251.663 242.315 250.652 241.799ZM254.69 244.369C250.182 244.369 249.761 241.155 249.756 241.12C249.741 240.993 249.804 240.871 249.914 240.805C250.025 240.741 250.163 240.748 250.268 240.823C250.293 240.84 252.749 242.589 255.39 241.677C258.173 240.715 269.48 234.765 269.597 234.705C269.673 234.664 269.766 234.657 269.851 234.686C269.934 234.714 270.004 234.777 270.041 234.857L270.629 236.149C270.995 236.951 270.677 237.917 269.908 238.352C266.869 240.064 259.374 244.073 255.392 244.344C255.148 244.36 254.913 244.369 254.69 244.369Z" fill="black"/>
<path d="M258.13 178.198C258.13 178.198 240.411 185.404 233.873 193.323C227.627 200.89 255.763 228.37 255.763 228.37C255.797 228.502 265.324 223.119 265.324 222.952L258.028 207.037C255.149 200.829 249.388 197.283 251.737 195.101C253.874 193.116 265.756 194.142 271.855 193.929C282.689 193.552 282.585 177.757 282.585 177.757L258.13 178.198Z" fill="white"/>
<path d="M258.197 178.52C257.102 178.972 240.354 185.98 234.123 193.529C228.363 200.506 253.665 225.838 255.841 227.995C257.044 227.422 263.718 223.641 264.924 222.853L257.735 207.172C256.551 204.623 254.845 202.489 253.472 200.773C251.492 198.297 249.928 196.341 251.518 194.864C253.141 193.358 259.465 193.473 265.584 193.584C267.911 193.626 270.112 193.667 271.846 193.606C281.394 193.274 282.192 180.325 282.258 178.088L258.197 178.52ZM255.774 228.696C255.685 228.696 255.602 228.661 255.538 228.601C254.38 227.469 227.262 200.824 233.625 193.117C240.139 185.227 257.832 177.97 258.011 177.897C258.047 177.883 258.086 177.876 258.126 177.875L282.581 177.435C282.666 177.432 282.749 177.467 282.813 177.527C282.874 177.586 282.909 177.67 282.911 177.757C282.911 177.916 282.888 193.869 271.867 194.251C270.117 194.313 267.909 194.273 265.572 194.229C260.144 194.132 253.389 194.007 251.957 195.337C250.858 196.358 251.895 197.765 253.977 200.369C255.371 202.112 257.105 204.28 258.322 206.901L265.618 222.818C265.637 222.86 265.648 222.907 265.648 222.952C265.648 223.188 265.648 223.26 260.833 225.989C258.688 227.203 256.076 228.658 255.814 228.693C255.802 228.694 255.786 228.696 255.774 228.696Z" fill="black"/>
<path d="M243.036 197.817C241.506 203.539 240.052 220.752 239.716 230.378C239.711 230.511 249.467 230.604 249.487 230.43C249.586 229.584 256.796 203.517 260.822 196.623C262.964 192.961 276.763 194.011 279.843 193.399C288.06 191.767 287.521 175.173 287.521 175.173L249.042 190.542C245.751 191.043 243.902 194.574 243.036 197.817Z" fill="white"/>
<path d="M240.05 230.1C241.472 230.204 248.012 230.242 249.215 230.153C249.864 227.313 256.723 203 260.544 196.461C262.18 193.662 269.741 193.475 275.261 193.338C277.242 193.289 278.95 193.247 279.78 193.082C286.883 191.672 287.212 178.322 287.205 175.648L249.162 190.841C249.139 190.851 249.116 190.857 249.091 190.861C245.589 191.394 243.989 195.5 243.348 197.9C241.836 203.555 240.398 220.607 240.05 230.1ZM246.842 230.851C246.391 230.851 245.871 230.849 245.269 230.846C243.223 230.838 240.731 230.797 239.93 230.735C239.712 230.719 239.381 230.695 239.394 230.368C239.723 220.905 241.185 203.489 242.724 197.734C243.403 195.189 245.119 190.839 248.957 190.228L287.403 174.875C287.5 174.834 287.612 174.847 287.698 174.903C287.788 174.962 287.842 175.059 287.845 175.163C287.868 175.853 288.296 192.05 279.905 193.716C279.023 193.891 277.369 193.932 275.277 193.984C270.211 194.108 262.556 194.298 261.103 196.786C257.095 203.647 249.926 229.537 249.808 230.468C249.771 230.781 249.763 230.851 246.842 230.851Z" fill="black"/>
<path d="M289.988 148.896C289.988 148.896 289.658 135.657 281.872 133.087C281.211 132.869 280.517 132.76 279.823 132.734L272.953 132.475C270.916 132.459 269.227 132.951 267.046 133.75C265.223 134.417 263.191 135.66 262.007 136.738C256.783 141.482 256.731 157.414 252.212 157.038C250.696 156.911 248.156 154.379 245.645 151.277C243.631 148.794 240.164 145.746 240.164 145.746L234.127 148.794C235.561 151.227 236.856 153.747 237.911 156.373C240.121 161.852 243.745 166.453 248.286 170.381C249.797 171.69 251.935 171.957 253.719 171.067C256.614 169.625 260.953 167.299 263.648 165.103C264.64 168.529 263.755 172.266 261.313 174.907C260.58 175.701 259.785 176.429 258.95 177.021C258.128 177.608 257.932 178.762 258.497 179.603C259.407 180.957 261.226 182.514 264.695 182.149C269.256 181.669 282.238 181.721 287.97 181.771C289.492 181.783 290.719 180.522 290.683 178.988L289.988 148.896Z" fill="black"/>
<path d="M263.558 165.497C263.463 165.497 263.369 165.453 263.305 165.374C263.196 165.232 263.221 165.028 263.361 164.919C264.136 164.312 266.497 162.119 267.737 160.303C267.837 160.154 268.04 160.117 268.186 160.217C268.335 160.317 268.372 160.518 268.272 160.667C266.991 162.542 264.558 164.802 263.757 165.426C263.698 165.474 263.629 165.497 263.558 165.497Z" fill="white"/>
<path d="M239.41 145.915L238.488 140.921C238.488 140.921 237.733 137.111 236.811 136.603C236.13 136.23 235.68 137.643 235.822 139.429C235.847 139.724 235.443 139.831 235.321 139.561C234.839 138.497 234.337 137.252 234.294 136.603C234.209 135.334 233.958 132.709 232.785 132.963C231.61 133.217 229.512 137.28 231.107 140.75C232.699 144.223 236.39 147.439 236.39 147.439L239.41 145.915Z" fill="white"/>
<path d="M232.938 133.269C232.912 133.269 232.883 133.272 232.853 133.278C232.581 133.337 232.085 133.81 231.634 134.711C230.892 136.196 230.441 138.526 231.4 140.616C232.758 143.576 235.72 146.392 236.442 147.051L239.048 145.736L238.169 140.98C237.869 139.463 237.2 137.186 236.654 136.886C236.599 136.857 236.585 136.866 236.564 136.879C236.324 137.033 236.027 137.942 236.143 139.403C236.167 139.694 235.986 139.947 235.705 140.021C235.424 140.093 235.145 139.959 235.026 139.694C234.364 138.232 234.009 137.199 233.971 136.624C233.818 134.312 233.436 133.563 233.141 133.341C233.077 133.293 233.012 133.269 232.938 133.269ZM236.391 147.762C236.313 147.762 236.238 147.735 236.177 147.682C236.026 147.55 232.416 144.38 230.813 140.887C229.758 138.588 230.247 136.04 231.056 134.422C231.554 133.428 232.174 132.765 232.716 132.647C233.009 132.584 233.291 132.646 233.53 132.826C234.131 133.278 234.477 134.472 234.615 136.582C234.646 137.029 234.951 137.926 235.48 139.126C235.435 138.02 235.599 136.733 236.214 136.336C236.445 136.186 236.711 136.182 236.966 136.32C237.969 136.873 238.672 140.197 238.804 140.857L239.727 145.857C239.753 145.998 239.682 146.139 239.554 146.204L236.535 147.728C236.491 147.75 236.441 147.762 236.391 147.762Z" fill="black"/>
<path d="M270.527 134.516C270.335 134.481 270.289 134.222 270.458 134.124C271.031 133.792 271.84 133.193 271.788 132.467L271.912 129.666C271.904 129.324 271.679 129.027 271.354 128.928L269.34 128.317C269.029 128.222 268.819 127.93 268.825 127.601L268.889 124.63L267.912 123.843C267.834 123.781 267.822 123.668 267.881 123.591L269.294 121.727C269.75 121.026 270.171 119.376 270.574 119.471C270.574 119.471 278.92 118.155 279.592 122.304C279.694 122.936 279.54 123.587 279.191 124.123L278.483 125.206C277.775 126.294 277.431 127.605 277.619 128.894C277.68 129.298 278.623 133.024 278.623 133.024C278.623 133.024 280.297 133.782 281.323 134.067C281.542 134.127 281.554 134.438 281.34 134.518L279.466 134.965C277.595 135.406 275.654 135.454 273.762 135.108L270.527 134.516Z" fill="white"/>
<path d="M270.871 134.25L273.821 134.79C275.679 135.13 277.554 135.082 279.393 134.65L280.925 134.283C279.902 133.955 278.553 133.346 278.491 133.317C278.401 133.277 278.333 133.197 278.311 133.102C278.212 132.72 277.36 129.349 277.299 128.939C277.108 127.616 277.431 126.228 278.214 125.028L278.92 123.946C279.236 123.461 279.362 122.896 279.274 122.355C278.66 118.568 270.703 119.777 270.624 119.789C270.612 119.792 270.6 119.792 270.589 119.792C270.458 119.929 270.243 120.444 270.096 120.792C269.927 121.195 269.754 121.613 269.564 121.902L268.22 123.676L269.092 124.38C269.17 124.442 269.215 124.537 269.211 124.637L269.149 127.608C269.146 127.791 269.263 127.953 269.436 128.005L271.449 128.619C271.907 128.757 272.223 129.176 272.235 129.656L272.112 132.464C272.154 133.225 271.511 133.835 270.871 134.25ZM276.278 135.66C275.42 135.66 274.559 135.582 273.705 135.424L270.468 134.833C270.247 134.792 270.077 134.62 270.039 134.397C270 134.174 270.102 133.956 270.297 133.844C271.07 133.396 271.495 132.904 271.468 132.489C271.466 132.476 271.466 132.464 271.466 132.452L271.59 129.651C271.585 129.47 271.454 129.295 271.26 129.236L269.248 128.624C268.798 128.488 268.494 128.066 268.504 127.595L268.563 124.782L267.71 124.093C267.496 123.92 267.458 123.614 267.624 123.394L269.037 121.532C269.18 121.309 269.343 120.92 269.502 120.543C269.835 119.741 270.112 119.101 270.574 119.144C271.35 119.028 279.215 117.963 279.912 122.251C280.024 122.951 279.865 123.679 279.461 124.298L278.755 125.382C278.06 126.449 277.77 127.678 277.939 128.846C277.981 129.122 278.52 131.301 278.897 132.793C279.319 132.978 280.59 133.528 281.409 133.754C281.644 133.82 281.807 134.027 281.817 134.271C281.828 134.517 281.681 134.736 281.449 134.821C281.439 134.824 281.427 134.828 281.415 134.831L279.542 135.279C278.463 135.533 277.37 135.66 276.278 135.66Z" fill="black"/>
<path d="M270.019 113.018C271.947 112.839 269.589 114.92 276.657 112.575C279.475 111.642 278.151 115.025 278.881 114.784C281.58 113.898 281.488 113.924 282.831 114.229C283.721 114.43 284.35 116.042 284.227 117.266C284.063 118.882 282.358 121.509 280.846 124.272C280.064 125.704 278.58 125.893 276.69 123.892C276.49 123.679 277.416 122.334 276.879 121.795C275.488 120.391 274.99 122.62 273.889 121.985C272.832 121.375 272.388 120.97 271.256 120.028C269.889 118.887 267.757 120.842 266.879 118.182C266.422 116.795 267.38 113.266 270.019 113.018Z" fill="black"/>
<path d="M288.888 237.001H277.147V194.594H271.109V237.001H259.372C255.784 237.001 252.875 239.909 252.875 243.496V244.673H295.383V243.496C295.383 239.909 292.475 237.001 288.888 237.001Z" fill="black"/>
<path d="M292.159 149.84H289.122C281.022 149.84 274.014 155.531 272.284 163.519L268.747 179.832C267.921 183.649 264.571 186.371 260.699 186.371H254.316C250.976 186.371 248.271 189.101 248.271 192.471C248.271 195.84 250.976 198.572 254.316 198.572H264.685L264.679 198.6H282.928C289.315 198.6 294.839 194.112 296.204 187.815L301.81 161.942C303.158 155.722 298.466 149.84 292.159 149.84Z" fill="white"/>
<path d="M264.82 198.276H282.931C289.118 198.276 294.567 193.848 295.889 187.745L301.498 161.872C302.124 158.983 301.422 156.011 299.571 153.717C297.747 151.456 295.046 150.16 292.159 150.16H289.124C281.235 150.16 274.287 155.807 272.6 163.587L269.065 179.899C268.212 183.835 264.694 186.693 260.702 186.693H254.317C251.161 186.693 248.596 189.284 248.596 192.47C248.596 195.657 251.161 198.248 254.317 198.248H264.687C264.733 198.248 264.779 198.259 264.82 198.276ZM282.931 198.923H264.681C264.636 198.923 264.59 198.913 264.549 198.894H254.317C250.806 198.894 247.949 196.012 247.949 192.47C247.949 188.928 250.806 186.046 254.317 186.046H260.702C264.393 186.046 267.646 183.403 268.433 179.763L271.969 163.449C273.718 155.376 280.932 149.515 289.124 149.515H292.159C295.243 149.515 298.128 150.897 300.073 153.31C302.048 155.759 302.796 158.928 302.127 162.009L296.521 187.882C295.133 194.279 289.417 198.923 282.931 198.923Z" fill="black"/>
<path d="M212.621 196.271H130.961C129.759 196.271 128.821 197.309 128.942 198.503L136.737 275.35C136.767 275.644 137.017 275.864 137.312 275.858L141.53 275.769C141.704 275.765 141.84 275.616 141.827 275.442L136.695 203.985C136.61 202.81 137.542 201.81 138.72 201.811L204.996 201.896C206.177 201.898 207.107 202.903 207.016 204.08L201.563 275.168C201.534 275.536 201.82 275.854 202.19 275.864L205.872 275.965C206.134 275.972 206.359 275.775 206.388 275.512L214.637 198.515C214.766 197.316 213.827 196.271 212.621 196.271Z" fill="white"/>
<path d="M138.718 201.489C138.719 201.489 138.72 201.489 138.721 201.489L204.996 201.573C205.648 201.573 206.276 201.849 206.72 202.328C207.162 202.807 207.389 203.454 207.338 204.105L201.884 275.192C201.879 275.282 201.908 275.368 201.968 275.433C202.028 275.501 202.109 275.539 202.198 275.54L205.88 275.642C205.977 275.639 206.057 275.572 206.067 275.479L214.316 198.481C214.369 198.001 214.213 197.519 213.89 197.158C213.566 196.799 213.105 196.593 212.621 196.593H130.96C130.479 196.593 130.018 196.798 129.695 197.155C129.372 197.513 129.215 197.992 129.264 198.471L137.059 275.318C137.072 275.442 137.183 275.534 137.305 275.536L141.523 275.445L136.372 204.009C136.326 203.359 136.554 202.714 136.998 202.236C137.441 201.762 138.068 201.489 138.718 201.489ZM205.885 276.287C205.878 276.287 205.87 276.287 205.863 276.287L202.181 276.187C201.914 276.179 201.667 276.066 201.487 275.866C201.308 275.667 201.22 275.41 201.241 275.143L206.694 204.055C206.73 203.577 206.571 203.12 206.245 202.766C205.92 202.414 205.476 202.22 204.996 202.219L138.72 202.134C138.719 202.134 138.719 202.134 138.718 202.134C138.239 202.134 137.797 202.327 137.47 202.677C137.143 203.028 136.982 203.485 137.017 203.962L142.149 275.419C142.162 275.59 142.103 275.76 141.987 275.886C141.872 276.013 141.708 276.087 141.537 276.092L137.319 276.181C136.855 276.19 136.463 275.841 136.416 275.382L128.621 198.537C128.554 197.875 128.771 197.215 129.216 196.722C129.661 196.23 130.297 195.948 130.96 195.948H212.621C213.287 195.948 213.925 196.231 214.37 196.728C214.816 197.223 215.03 197.887 214.959 198.55L206.71 275.547C206.664 275.966 206.304 276.287 205.885 276.287Z" fill="black"/>
<path d="M197.827 200.757C197.649 200.757 197.504 200.613 197.504 200.435V196.96C197.504 196.782 197.649 196.637 197.827 196.637C198.005 196.637 198.15 196.782 198.15 196.96V200.435C198.15 200.613 198.005 200.757 197.827 200.757Z" fill="white"/>
<path d="M161.396 226.158C159.556 234.58 166.847 257.617 168.376 263.232C168.576 263.968 169.249 264.478 170.016 264.478H176.809C177.754 264.478 178.517 263.715 178.508 262.777C178.446 256.116 177.235 231.83 181.387 224.839C183.792 220.79 188.195 218.965 191.14 217.039C198.208 212.415 195.547 202.178 195.547 202.178L168.852 218.023C165.154 218.577 162.187 222.53 161.396 226.158Z" fill="black"/>
<path d="M171.521 204.826C171.521 204.826 148.216 205.035 140.869 213.789C134.265 221.659 144.055 256.3 146.105 263.235C146.318 263.953 146.981 264.445 147.736 264.445H156.49C156.675 264.445 156.824 264.297 156.824 264.114V227.408C156.824 225.096 157.277 226.335 159.235 225.082C161.978 223.326 166.955 224.817 173.814 224.868C195.593 225.028 192.085 204.526 192.085 204.526L171.521 204.826Z" fill="black"/>
<path d="M176.869 264.511L177.326 270.455L171.883 270.483L170.757 264.552L176.869 264.511Z" fill="white"/>
<path d="M171.147 264.873L172.15 270.158L176.977 270.134L176.57 264.837L171.147 264.873ZM171.883 270.805C171.728 270.805 171.594 270.696 171.565 270.542L170.44 264.612C170.423 264.518 170.448 264.421 170.508 264.348C170.569 264.273 170.659 264.229 170.756 264.229L176.867 264.188H176.869C177.038 264.188 177.178 264.318 177.191 264.486L177.648 270.43C177.656 270.52 177.625 270.608 177.564 270.674C177.502 270.739 177.418 270.777 177.327 270.779L171.884 270.805H171.883Z" fill="black"/>
<path d="M155.345 264.511L155.262 270.455L149.65 270.483L148.651 264.552L155.345 264.511Z" fill="white"/>
<path d="M149.032 264.873L149.923 270.158L154.944 270.134L155.017 264.837L149.032 264.873ZM149.65 270.805C149.492 270.805 149.357 270.691 149.33 270.537L148.333 264.606C148.317 264.513 148.343 264.416 148.405 264.345C148.466 264.272 148.555 264.229 148.65 264.229L155.343 264.188C155.344 264.188 155.344 264.188 155.345 264.188C155.432 264.188 155.513 264.222 155.575 264.283C155.636 264.345 155.67 264.429 155.668 264.515L155.585 270.459C155.582 270.636 155.439 270.777 155.264 270.779L149.651 270.805C149.65 270.805 149.65 270.805 149.65 270.805Z" fill="black"/>
<path d="M149.729 269.725H154.95C155.319 269.725 155.653 269.944 155.794 270.284C156.256 271.402 157.2 274.014 157.073 276.492C157.039 277.169 156.473 277.699 155.789 277.699H140.471C139.767 277.699 139.232 277.061 139.373 276.375C139.542 275.555 140.124 274.476 141.804 273.505C144.523 271.934 147.94 270.363 149.019 269.877C149.243 269.776 149.484 269.725 149.729 269.725Z" fill="white"/>
<path d="M149.729 270.047C149.529 270.047 149.335 270.088 149.151 270.172C148.153 270.621 144.688 272.213 141.966 273.785C140.681 274.527 139.894 275.445 139.689 276.441C139.643 276.667 139.701 276.901 139.848 277.082C140.001 277.269 140.228 277.377 140.471 277.377H155.789C156.302 277.377 156.725 276.981 156.75 276.476C156.876 274.035 155.915 271.42 155.496 270.408C155.405 270.189 155.191 270.047 154.95 270.047H149.729ZM155.789 278.022H140.471C140.033 278.022 139.623 277.828 139.347 277.489C139.077 277.158 138.971 276.727 139.057 276.311C139.226 275.486 139.812 274.283 141.642 273.226C144.39 271.637 147.882 270.036 148.886 269.583C149.152 269.462 149.437 269.401 149.729 269.401H154.95C155.453 269.401 155.902 269.7 156.093 270.161C156.528 271.213 157.527 273.935 157.395 276.509C157.353 277.358 156.646 278.022 155.789 278.022Z" fill="black"/>
<path d="M172.068 269.725H177.289C177.659 269.725 177.993 269.944 178.133 270.284C178.596 271.402 179.539 274.014 179.412 276.492C179.379 277.169 178.811 277.699 178.129 277.699H162.81C162.107 277.699 161.571 277.061 161.713 276.375C161.882 275.555 162.463 274.476 164.143 273.505C166.862 271.934 170.28 270.363 171.357 269.877C171.581 269.776 171.823 269.725 172.068 269.725Z" fill="white"/>
<path d="M172.068 270.047C171.868 270.047 171.674 270.088 171.49 270.172C170.493 270.621 167.028 272.211 164.304 273.785C163.021 274.527 162.234 275.445 162.028 276.441C161.981 276.667 162.04 276.901 162.187 277.082C162.34 277.269 162.568 277.377 162.81 277.377H178.129C178.641 277.377 179.065 276.981 179.089 276.476C179.215 274.035 178.254 271.42 177.835 270.408C177.745 270.189 177.53 270.047 177.289 270.047H172.068ZM178.129 278.022H162.81C162.372 278.022 161.962 277.828 161.686 277.489C161.416 277.158 161.31 276.727 161.396 276.311C161.565 275.486 162.152 274.283 163.981 273.226C166.732 271.637 170.221 270.036 171.224 269.583C171.492 269.462 171.776 269.401 172.068 269.401H177.289C177.791 269.401 178.241 269.7 178.432 270.161C178.867 271.213 179.866 273.937 179.735 276.509C179.691 277.358 178.986 278.022 178.129 278.022Z" fill="black"/>
<path d="M151.809 193.1L148.955 192.035C147.746 191.583 146.421 191.597 145.225 192.088C143.733 192.7 141.708 193.689 140.321 195.002C139.973 195.332 140.186 195.935 140.656 195.935H151.677L151.809 193.1Z" fill="white"/>
<path d="M147.153 192.031C146.539 192.031 145.926 192.149 145.348 192.387C143.905 192.977 141.901 193.951 140.543 195.237C140.459 195.316 140.46 195.421 140.489 195.493C140.507 195.538 140.552 195.612 140.656 195.612H151.368L151.475 193.32L148.843 192.337C148.295 192.133 147.723 192.031 147.153 192.031ZM151.676 196.259H140.656C140.312 196.259 140.018 196.056 139.889 195.732C139.755 195.393 139.837 195.015 140.099 194.768C141.529 193.413 143.61 192.4 145.103 191.789C146.369 191.27 147.777 191.25 149.069 191.732L151.922 192.797C152.053 192.847 152.138 192.974 152.132 193.116L151.999 195.951C151.99 196.123 151.849 196.259 151.676 196.259Z" fill="black"/>
<path d="M200.376 180.405C200.376 180.405 200.684 169.344 193.054 168.009C193.057 167.999 193.063 167.988 193.066 167.977L184.985 167.52C184.985 167.52 179.792 166.802 175.007 170.919C170.692 174.634 169.744 184.16 166.983 186.584C164.59 188.686 154.291 191.419 151.593 192.108C151.209 192.206 150.945 192.549 150.947 192.942L150.955 195.555H167.287C169.566 195.555 171.744 194.634 173.327 193.005C174.28 192.024 175.454 190.818 176.751 189.46C176.735 190.299 176.828 191.689 177.419 193.238C178.612 196.363 178.043 199.9 175.756 202.352C174.797 203.381 173.712 204.304 172.566 204.857C172.566 204.857 173.296 208.31 178.616 208.546C180.779 208.643 186.492 208.849 190.74 208.608C196.542 208.278 200.826 207.209 200.826 207.209L200.376 180.405Z" fill="white"/>
<path d="M172.953 205.023C173.222 205.769 174.384 208.035 178.631 208.224C180.364 208.301 186.359 208.532 190.723 208.285C195.643 208.006 199.505 207.183 200.499 206.955L200.054 180.411C200.054 180.406 200.054 180.401 200.054 180.396C200.056 180.288 200.262 169.599 192.999 168.328C192.962 168.322 192.927 168.309 192.895 168.291L184.966 167.843C184.89 167.833 179.827 167.198 175.217 171.165C172.88 173.176 171.531 177.018 170.341 180.406C169.344 183.245 168.484 185.696 167.196 186.826C164.774 188.955 154.702 191.647 151.672 192.421C151.434 192.482 151.268 192.697 151.269 192.94L151.276 195.231H167.287C169.465 195.231 171.582 194.338 173.095 192.78L173.322 192.546C174.232 191.609 175.323 190.488 176.517 189.236C176.609 189.14 176.75 189.111 176.873 189.161C176.996 189.212 177.076 189.333 177.073 189.466C177.057 190.32 177.156 191.647 177.72 193.123C178.99 196.447 178.329 200.068 175.993 202.572C174.963 203.674 173.943 204.498 172.953 205.023ZM186.042 209.044C182.993 209.044 180.063 208.933 178.602 208.869C173.095 208.624 172.281 205.076 172.249 204.924C172.219 204.778 172.292 204.631 172.425 204.566C173.419 204.086 174.461 203.267 175.52 202.131C177.686 199.808 178.298 196.446 177.117 193.354C176.67 192.183 176.496 191.099 176.445 190.247C175.46 191.273 174.558 192.202 173.787 192.996L173.559 193.231C171.924 194.913 169.639 195.878 167.287 195.878H150.955C150.777 195.878 150.633 195.733 150.633 195.555L150.622 192.943C150.621 192.402 150.987 191.93 151.513 191.796C157.683 190.218 164.932 187.956 166.77 186.341C167.931 185.322 168.805 182.831 169.732 180.193C170.948 176.727 172.328 172.8 174.797 170.674C179.635 166.51 184.811 167.17 185.029 167.201L193.085 167.655C193.149 167.658 193.211 167.681 193.262 167.719C200.833 169.186 200.706 180.049 200.699 180.406L201.149 207.205C201.151 207.355 201.049 207.486 200.903 207.523C200.861 207.533 196.525 208.602 190.759 208.93C189.285 209.014 187.646 209.044 186.042 209.044Z" fill="black"/>
<path d="M176.399 190.721C176.32 190.721 176.241 190.692 176.178 190.635C176.048 190.514 176.041 190.31 176.162 190.178C178.276 187.902 179.914 185.28 181.031 182.382C181.095 182.215 181.282 182.132 181.449 182.196C181.615 182.261 181.698 182.447 181.634 182.614C180.488 185.589 178.805 188.282 176.635 190.618C176.571 190.686 176.485 190.721 176.399 190.721Z" fill="black"/>
<path d="M180.167 153.52C180.167 153.52 179.865 156.223 178.51 157.724C178.406 157.839 178.383 158.006 178.463 158.137L179.021 159.07C179.069 159.152 179.11 159.238 179.139 159.327L180.066 162.053C180.151 162.301 180.376 162.479 180.64 162.501C181.22 162.549 182.688 162.324 182.81 162.711C182.942 163.143 182.84 166.643 182.788 168.166C182.773 168.57 183.058 168.923 183.456 168.996L186.594 169.576C188.007 169.836 189.46 169.662 190.765 169.088C191.187 168.902 191.377 168.405 191.181 167.986C190.463 166.455 188.893 162.796 189.101 160.558L190.495 156.657C190.46 154.786 188.899 153.303 187.017 153.35L180.167 153.52Z" fill="white"/>
<path d="M181.944 162.155C182.539 162.155 182.999 162.232 183.118 162.615C183.227 162.968 183.224 164.838 183.11 168.176C183.102 168.423 183.272 168.634 183.515 168.68L186.652 169.258C188.001 169.506 189.378 169.345 190.634 168.792C190.759 168.737 190.856 168.636 190.904 168.509C190.951 168.383 190.945 168.246 190.888 168.123C190.183 166.615 188.563 162.853 188.779 160.527C188.782 160.501 188.788 160.474 188.797 160.448L190.171 156.604C190.142 155.814 189.81 155.077 189.235 154.526C188.638 153.956 187.855 153.65 187.025 153.672L180.45 153.837C180.33 154.588 179.911 156.654 178.751 157.94C178.741 157.952 178.736 157.965 178.739 157.972L179.298 158.905C179.358 159.004 179.408 159.112 179.446 159.223L180.373 161.948C180.417 162.078 180.532 162.168 180.666 162.178C180.82 162.191 181.065 162.181 181.325 162.171C181.541 162.164 181.75 162.155 181.944 162.155ZM187.893 170.018C187.441 170.018 186.987 169.976 186.534 169.893L183.398 169.315C182.837 169.211 182.446 168.723 182.465 168.154C182.58 164.754 182.564 163.2 182.51 162.856C182.316 162.778 181.694 162.803 181.35 162.816C181.071 162.828 180.806 162.838 180.612 162.822C180.222 162.79 179.887 162.529 179.761 162.156L178.834 159.431C178.811 159.363 178.781 159.298 178.743 159.236L178.186 158.303C178.034 158.051 178.069 157.731 178.27 157.508C179.541 156.1 179.844 153.51 179.847 153.485C179.865 153.325 179.999 153.202 180.16 153.198L187.009 153.027C188.01 153.002 188.959 153.369 189.682 154.059C190.396 154.744 190.8 155.664 190.818 156.651C190.819 156.689 190.812 156.728 190.799 156.765L189.419 160.626C189.241 162.8 190.794 166.398 191.473 167.85C191.605 168.131 191.616 168.446 191.508 168.737C191.399 169.027 191.181 169.258 190.895 169.383C189.94 169.804 188.921 170.018 187.893 170.018Z" fill="black"/>
<path d="M179.533 152.564C179.256 152.989 179.424 153.563 179.887 153.776L180.167 153.904L185.548 156.556C185.684 156.623 185.849 156.614 185.972 156.525C186.195 156.363 186.595 156.165 186.997 156.42C187.556 156.778 187.668 158.683 186.232 159.188C186.042 159.255 185.938 159.455 186.014 159.639C186.097 159.839 186.22 160.105 186.388 160.396C187.657 162.575 190.791 162.705 192.302 160.683C193.416 159.193 194.435 156.743 193.181 153.393C191.212 148.139 183.17 147.007 179.533 152.564Z" fill="black"/>
<path d="M192.637 151.347C192.637 151.347 194.984 148.559 198.42 149.64C201.857 150.72 202.03 156.534 202.429 160.159C203.832 172.924 206.949 177.571 207.955 178.723C209.072 180.003 200.29 179.135 197.332 178.126C188.806 175.22 193.295 167.011 193.697 165.532C194.097 164.054 197.275 155.781 193.324 154.814L191.32 153.109L192.637 151.347Z" fill="black"/>
<path d="M193.717 155.331L193.675 155.345C193.301 155.483 192.885 155.291 192.748 154.921L191.701 152.091C191.564 151.719 191.755 151.307 192.129 151.17L192.171 151.155C192.546 151.018 192.961 151.209 193.098 151.58L194.145 154.411C194.284 154.782 194.091 155.194 193.717 155.331Z" fill="white"/>
<path d="M192.421 151.434C192.374 151.434 192.327 151.441 192.282 151.459L192.24 151.474C192.14 151.51 192.06 151.583 192.015 151.679C191.971 151.774 191.967 151.881 192.003 151.979L193.051 154.808C193.127 155.013 193.357 155.118 193.564 155.043L193.606 155.027C193.707 154.991 193.786 154.918 193.831 154.821C193.875 154.726 193.879 154.62 193.843 154.523L192.796 151.693C192.736 151.533 192.583 151.434 192.421 151.434ZM193.427 155.713C193.002 155.713 192.6 155.452 192.446 155.033L191.397 152.202C191.301 151.942 191.313 151.66 191.429 151.408C191.546 151.155 191.755 150.963 192.019 150.868L192.062 150.852C192.602 150.654 193.202 150.932 193.402 151.469L194.449 154.299C194.545 154.559 194.533 154.84 194.417 155.093C194.3 155.345 194.091 155.538 193.828 155.635L193.786 155.649C193.668 155.693 193.546 155.713 193.427 155.713Z" fill="black"/>
<path d="M195.926 273.097H184.186V230.69H178.148V273.097H166.408C162.821 273.097 159.912 276.006 159.912 279.593V280.771H202.422V279.593C202.422 276.006 199.513 273.097 195.926 273.097Z" fill="white"/>
<path d="M160.235 280.447H202.098V279.593C202.098 276.19 199.329 273.422 195.926 273.422H184.186C184.008 273.422 183.864 273.277 183.864 273.097V231.014H178.47V273.097C178.47 273.277 178.326 273.422 178.148 273.422H166.408C163.005 273.422 160.235 276.19 160.235 279.593V280.447ZM202.422 281.094H159.912C159.734 281.094 159.59 280.949 159.59 280.771V279.593C159.59 275.833 162.648 272.775 166.408 272.775H177.825V230.69C177.825 230.512 177.97 230.368 178.148 230.368H184.186C184.364 230.368 184.509 230.512 184.509 230.69V272.775H195.926C199.686 272.775 202.744 275.833 202.744 279.593V280.771C202.744 280.949 202.6 281.094 202.422 281.094Z" fill="black"/>
<path d="M199.197 185.935H196.158C188.058 185.935 181.052 191.629 179.32 199.616L175.785 215.93C174.958 219.746 171.608 222.467 167.738 222.467H161.352C158.014 222.467 155.307 225.199 155.307 228.569C155.307 231.939 158.014 234.67 161.352 234.67H171.724L171.718 234.698H189.965C196.352 234.698 201.876 230.208 203.241 223.911L208.847 198.04C210.196 191.821 205.504 185.935 199.197 185.935Z" fill="white"/>
<path d="M171.855 234.375H189.965C196.152 234.375 201.603 229.946 202.925 223.843L208.532 197.972C209.158 195.082 208.456 192.108 206.606 189.815C204.784 187.555 202.083 186.26 199.197 186.26H196.158C188.27 186.26 181.322 191.905 179.635 199.684L176.101 215.998C175.248 219.933 171.731 222.79 167.738 222.79H161.352C158.197 222.79 155.632 225.382 155.632 228.569C155.632 231.755 158.197 234.346 161.352 234.346H171.724C171.77 234.346 171.814 234.356 171.855 234.375ZM189.965 235.021H171.718C171.671 235.021 171.627 235.01 171.587 234.993H161.352C157.841 234.993 154.985 232.111 154.985 228.569C154.985 225.027 157.841 222.145 161.352 222.145H167.738C171.429 222.145 174.68 219.502 175.469 215.861L179.005 199.548C180.754 191.473 187.969 185.613 196.158 185.613H199.197C202.279 185.613 205.164 186.997 207.11 189.409C209.082 191.856 209.831 195.027 209.164 198.109L203.556 223.98C202.171 230.378 196.455 235.021 189.965 235.021Z" fill="black"/>
<path d="M101.068 72.2751C102.484 72.2751 103.631 73.4226 103.631 74.8378V92.4785C103.631 93.8936 102.484 95.0412 101.068 95.0412H73.0559L70.0411 98.8232L65.304 95.0412H52.4403C51.0246 95.0412 49.8767 93.8936 49.8767 92.4785V74.8378C49.8767 73.4226 51.0246 72.2751 52.4403 72.2751H101.068Z" fill="white"/>
<path d="M70.0413 99.5753C69.9624 99.5753 69.8858 99.5465 69.8266 99.4944L65.1814 95.3647H52.4402C50.8488 95.3647 49.554 94.0685 49.554 92.4774V74.8369C49.554 73.2459 50.8488 71.9514 52.4402 71.9514H62.0331C62.2115 71.9514 62.3562 72.0952 62.3562 72.275C62.3562 72.453 62.2115 72.5968 62.0331 72.5968H52.4402C51.2049 72.5968 50.1999 73.6018 50.1999 74.8369V92.4774C50.1999 93.7125 51.2049 94.7175 52.4402 94.7175H65.3043C65.3834 94.7175 65.4597 94.7463 65.519 94.8002L70.0044 98.7878L73.2366 94.8362C73.2979 94.7625 73.3896 94.7175 73.4865 94.7175H101.068C102.304 94.7175 103.309 93.7125 103.309 92.4774V74.8369C103.309 73.6018 102.304 72.5968 101.068 72.5968H68.4978C68.3193 72.5968 68.1748 72.453 68.1748 72.275C68.1748 72.0952 68.3193 71.9514 68.4978 71.9514H101.068C102.66 71.9514 103.955 73.2459 103.955 74.8369V92.4774C103.955 94.0685 102.66 95.3647 101.068 95.3647H73.6397L70.2914 99.4584C70.2355 99.5249 70.1545 99.5681 70.0668 99.5753C70.0582 99.5753 70.0497 99.5753 70.0413 99.5753Z" fill="black"/>
<path d="M96.5339 80.9958H57.887C57.7089 80.9958 57.5641 80.8509 57.5641 80.6728C57.5641 80.4947 57.7089 80.3497 57.887 80.3497H96.5339C96.7124 80.3497 96.8568 80.4947 96.8568 80.6728C96.8568 80.8509 96.7124 80.9958 96.5339 80.9958Z" fill="black"/>
<path d="M96.5342 86.1603H88.4534C88.2751 86.1603 88.1304 86.0146 88.1304 85.8363C88.1304 85.6579 88.2751 85.5139 88.4534 85.5139H96.5342C96.7127 85.5139 96.8572 85.6579 96.8572 85.8363C96.8572 86.0146 96.7127 86.1603 96.5342 86.1603Z" fill="black"/>
<path d="M83.2888 86.1603H57.8872C57.7089 86.1603 57.5642 86.0146 57.5642 85.8363C57.5642 85.6579 57.7089 85.5139 57.8872 85.5139H83.2888C83.4671 85.5139 83.6118 85.6579 83.6118 85.8363C83.6118 86.0146 83.4671 86.1603 83.2888 86.1603Z" fill="black"/>
</svg>
