<svg width="361" height="361" viewBox="0 0 361 361" fill="none" xmlns="http://www.w3.org/2000/svg">
<g clip-path="url(#clip0_71_94)">
<path d="M301.286 33.633H65.5303V52.4861H301.286V33.633Z" fill="#B4FF5C"/>
<path d="M301.286 52.4866H65.9805V207.397H301.286V52.4866Z" fill="white"/>
<path d="M257.972 48.5112H248.947C248.734 48.5112 248.562 48.3389 248.562 48.1258C248.562 47.9127 248.734 47.7404 248.947 47.7404H257.972C258.185 47.7404 258.357 47.9127 258.357 48.1258C258.357 48.3387 258.185 48.5112 257.972 48.5112Z" fill="#0C0C0C"/>
<path d="M292.479 48.5107C292.381 48.5107 292.282 48.4731 292.207 48.3981L283.288 39.4961C283.137 39.3456 283.137 39.1015 283.287 38.951C283.437 38.7997 283.682 38.8005 283.832 38.9503L292.751 47.8524C292.902 48.0029 292.902 48.2469 292.752 48.3974C292.677 48.4729 292.578 48.5107 292.479 48.5107Z" fill="#0C0C0C"/>
<path d="M283.56 48.5106C283.462 48.5106 283.362 48.473 283.287 48.3973C283.137 48.2468 283.137 48.0028 283.288 47.8523L292.207 38.9503C292.358 38.8005 292.602 38.7998 292.752 38.951C292.903 39.1015 292.903 39.3455 292.752 39.496L283.832 48.398C283.757 48.4729 283.659 48.5106 283.56 48.5106Z" fill="#0C0C0C"/>
<path d="M274.798 48.5109H265.524C265.311 48.5109 265.139 48.3386 265.139 48.1255V38.8688C265.139 38.6557 265.311 38.4834 265.524 38.4834H274.798C275.012 38.4834 275.184 38.6557 275.184 38.8688V48.1253C275.184 48.3384 275.012 48.5109 274.798 48.5109ZM265.91 47.7399H274.413V39.2542H265.91V47.7399Z" fill="#0C0C0C"/>
<path d="M301.286 207.783H65.9802C65.7673 207.783 65.5947 207.611 65.5947 207.398V33.2597C65.5947 33.0466 65.7673 32.8743 65.9802 32.8743H159.459C159.672 32.8743 159.845 33.0466 159.845 33.2597C159.845 33.4728 159.672 33.6451 159.459 33.6451H66.3656V207.012H300.901V33.6453H192.384C192.171 33.6453 191.999 33.473 191.999 33.2599C191.999 33.0468 192.171 32.8744 192.384 32.8744H301.286C301.499 32.8744 301.671 33.0468 301.671 33.2599V207.398C301.671 207.611 301.499 207.783 301.286 207.783Z" fill="black"/>
<path d="M287.923 175.026H180.016C179.803 175.026 179.63 174.853 179.63 174.64V154.491C179.63 154.277 179.803 154.105 180.016 154.105H287.923C288.136 154.105 288.308 154.277 288.308 154.491V174.64C288.308 174.853 288.136 175.026 287.923 175.026ZM180.401 174.255H287.537V154.876H180.401V174.255Z" fill="black"/>
<path d="M287.923 194.646H180.016C179.803 194.646 179.63 194.474 179.63 194.261V181.675C179.63 181.462 179.803 181.289 180.016 181.289H287.923C288.136 181.289 288.308 181.462 288.308 181.675V194.261C288.308 194.474 288.136 194.646 287.923 194.646ZM180.401 193.875H287.537V182.06H180.401V193.875Z" fill="black"/>
<path d="M287.923 140.994H285.61C285.397 140.994 285.225 140.822 285.225 140.609C285.225 140.396 285.397 140.223 285.61 140.223H287.537V138.296C287.537 138.083 287.71 137.91 287.923 137.91C288.136 137.91 288.308 138.083 288.308 138.296V140.609C288.308 140.822 288.136 140.994 287.923 140.994Z" fill="black"/>
<path d="M281.12 140.994H276.63C276.416 140.994 276.244 140.822 276.244 140.609C276.244 140.396 276.416 140.223 276.63 140.223H281.12C281.333 140.223 281.505 140.396 281.505 140.609C281.505 140.822 281.333 140.994 281.12 140.994ZM272.139 140.994H267.648C267.435 140.994 267.263 140.822 267.263 140.609C267.263 140.396 267.435 140.223 267.648 140.223H272.139C272.352 140.223 272.524 140.396 272.524 140.609C272.524 140.822 272.352 140.994 272.139 140.994ZM263.158 140.994H258.667C258.454 140.994 258.282 140.822 258.282 140.609C258.282 140.396 258.454 140.223 258.667 140.223H263.158C263.371 140.223 263.543 140.396 263.543 140.609C263.543 140.822 263.371 140.994 263.158 140.994ZM254.177 140.994H249.686C249.473 140.994 249.301 140.822 249.301 140.609C249.301 140.396 249.473 140.223 249.686 140.223H254.177C254.39 140.223 254.562 140.396 254.562 140.609C254.562 140.822 254.39 140.994 254.177 140.994ZM245.196 140.994H240.705C240.492 140.994 240.32 140.822 240.32 140.609C240.32 140.396 240.492 140.223 240.705 140.223H245.196C245.409 140.223 245.581 140.396 245.581 140.609C245.581 140.822 245.409 140.994 245.196 140.994ZM236.215 140.994H231.724C231.511 140.994 231.338 140.822 231.338 140.609C231.338 140.396 231.511 140.223 231.724 140.223H236.215C236.428 140.223 236.6 140.396 236.6 140.609C236.6 140.822 236.428 140.994 236.215 140.994ZM227.234 140.994H222.743C222.53 140.994 222.358 140.822 222.358 140.609C222.358 140.396 222.53 140.223 222.743 140.223H227.234C227.447 140.223 227.619 140.396 227.619 140.609C227.619 140.822 227.447 140.994 227.234 140.994ZM218.253 140.994H213.762C213.549 140.994 213.377 140.822 213.377 140.609C213.377 140.396 213.549 140.223 213.762 140.223H218.253C218.466 140.223 218.638 140.396 218.638 140.609C218.638 140.822 218.466 140.994 218.253 140.994ZM209.272 140.994H204.781C204.568 140.994 204.396 140.822 204.396 140.609C204.396 140.396 204.568 140.223 204.781 140.223H209.272C209.485 140.223 209.657 140.396 209.657 140.609C209.657 140.822 209.485 140.994 209.272 140.994ZM200.291 140.994H195.8C195.587 140.994 195.415 140.822 195.415 140.609C195.415 140.396 195.587 140.223 195.8 140.223H200.291C200.504 140.223 200.676 140.396 200.676 140.609C200.676 140.822 200.504 140.994 200.291 140.994ZM191.31 140.994H186.819C186.606 140.994 186.434 140.822 186.434 140.609C186.434 140.396 186.606 140.223 186.819 140.223H191.31C191.523 140.223 191.695 140.396 191.695 140.609C191.695 140.822 191.523 140.994 191.31 140.994Z" fill="black"/>
<path d="M182.328 140.994H180.016C179.803 140.994 179.63 140.822 179.63 140.609V138.296C179.63 138.083 179.803 137.91 180.016 137.91C180.229 137.91 180.401 138.083 180.401 138.296V140.223H182.328C182.542 140.223 182.714 140.396 182.714 140.609C182.714 140.822 182.541 140.994 182.328 140.994Z" fill="black"/>
<path d="M180.016 134.169C179.803 134.169 179.63 133.996 179.63 133.783V129.27C179.63 129.057 179.803 128.885 180.016 128.885C180.229 128.885 180.401 129.057 180.401 129.27V133.783C180.401 133.996 180.229 134.169 180.016 134.169ZM180.016 125.142C179.803 125.142 179.63 124.97 179.63 124.757V120.244C179.63 120.031 179.803 119.858 180.016 119.858C180.229 119.858 180.401 120.031 180.401 120.244V124.757C180.401 124.97 180.229 125.142 180.016 125.142ZM180.016 116.116C179.803 116.116 179.63 115.944 179.63 115.73V111.217C179.63 111.004 179.803 110.832 180.016 110.832C180.229 110.832 180.401 111.004 180.401 111.217V115.73C180.401 115.943 180.229 116.116 180.016 116.116ZM180.016 107.09C179.803 107.09 179.63 106.917 179.63 106.704V102.191C179.63 101.978 179.803 101.805 180.016 101.805C180.229 101.805 180.401 101.978 180.401 102.191V106.704C180.401 106.917 180.229 107.09 180.016 107.09ZM180.016 98.0629C179.803 98.0629 179.63 97.8905 179.63 97.6775V93.1645C179.63 92.9514 179.803 92.779 180.016 92.779C180.229 92.779 180.401 92.9514 180.401 93.1645V97.6775C180.401 97.8905 180.229 98.0629 180.016 98.0629ZM180.016 89.0368C179.803 89.0368 179.63 88.8644 179.63 88.6513V84.138C179.63 83.9249 179.803 83.7525 180.016 83.7525C180.229 83.7525 180.401 83.9249 180.401 84.138V88.6513C180.401 88.8644 180.229 89.0368 180.016 89.0368ZM180.016 80.0101C179.803 80.0101 179.63 79.8377 179.63 79.6246V75.1117C179.63 74.8986 179.803 74.7262 180.016 74.7262C180.229 74.7262 180.401 74.8986 180.401 75.1117V79.6246C180.401 79.8377 180.229 80.0101 180.016 80.0101Z" fill="black"/>
<path d="M180.016 70.9836C179.803 70.9836 179.63 70.8112 179.63 70.5982V68.2854C179.63 68.0723 179.803 67.8999 180.016 67.8999H182.328C182.542 67.8999 182.714 68.0723 182.714 68.2854C182.714 68.4985 182.542 68.6708 182.328 68.6708H180.401V70.5982C180.401 70.8112 180.229 70.9836 180.016 70.9836Z" fill="black"/>
<path d="M281.12 68.6708H276.629C276.416 68.6708 276.243 68.4985 276.243 68.2854C276.243 68.0723 276.416 67.8999 276.629 67.8999H281.12C281.333 67.8999 281.505 68.0723 281.505 68.2854C281.505 68.4983 281.333 68.6708 281.12 68.6708ZM272.139 68.6708H267.648C267.435 68.6708 267.262 68.4985 267.262 68.2854C267.262 68.0723 267.435 67.8999 267.648 67.8999H272.139C272.352 67.8999 272.524 68.0723 272.524 68.2854C272.524 68.4983 272.351 68.6708 272.139 68.6708ZM263.158 68.6708H258.667C258.454 68.6708 258.282 68.4985 258.282 68.2854C258.282 68.0723 258.454 67.8999 258.667 67.8999H263.158C263.371 67.8999 263.543 68.0723 263.543 68.2854C263.543 68.4983 263.37 68.6708 263.158 68.6708ZM254.176 68.6708H249.686C249.473 68.6708 249.301 68.4985 249.301 68.2854C249.301 68.0723 249.473 67.8999 249.686 67.8999H254.176C254.389 67.8999 254.562 68.0723 254.562 68.2854C254.562 68.4983 254.389 68.6708 254.176 68.6708ZM245.195 68.6708H240.705C240.492 68.6708 240.32 68.4985 240.32 68.2854C240.32 68.0723 240.492 67.8999 240.705 67.8999H245.195C245.408 67.8999 245.581 68.0723 245.581 68.2854C245.581 68.4983 245.408 68.6708 245.195 68.6708ZM236.215 68.6708H231.724C231.511 68.6708 231.338 68.4985 231.338 68.2854C231.338 68.0723 231.511 67.8999 231.724 67.8999H236.215C236.428 67.8999 236.6 68.0723 236.6 68.2854C236.6 68.4983 236.428 68.6708 236.215 68.6708ZM227.233 68.6708H222.743C222.53 68.6708 222.357 68.4985 222.357 68.2854C222.357 68.0723 222.53 67.8999 222.743 67.8999H227.233C227.447 67.8999 227.619 68.0723 227.619 68.2854C227.619 68.4983 227.447 68.6708 227.233 68.6708ZM218.252 68.6708H213.762C213.549 68.6708 213.376 68.4985 213.376 68.2854C213.376 68.0723 213.549 67.8999 213.762 67.8999H218.252C218.466 67.8999 218.638 68.0723 218.638 68.2854C218.638 68.4983 218.466 68.6708 218.252 68.6708ZM209.271 68.6708H204.781C204.568 68.6708 204.396 68.4985 204.396 68.2854C204.396 68.0723 204.568 67.8999 204.781 67.8999H209.271C209.484 67.8999 209.657 68.0723 209.657 68.2854C209.657 68.4983 209.484 68.6708 209.271 68.6708ZM200.29 68.6708H195.8C195.587 68.6708 195.415 68.4985 195.415 68.2854C195.415 68.0723 195.587 67.8999 195.8 67.8999H200.29C200.503 67.8999 200.676 68.0723 200.676 68.2854C200.676 68.4983 200.503 68.6708 200.29 68.6708ZM191.309 68.6708H186.819C186.606 68.6708 186.434 68.4985 186.434 68.2854C186.434 68.0723 186.606 67.8999 186.819 67.8999H191.309C191.522 67.8999 191.695 68.0723 191.695 68.2854C191.695 68.4983 191.522 68.6708 191.309 68.6708Z" fill="black"/>
<path d="M287.923 70.9836C287.71 70.9836 287.537 70.8112 287.537 70.5982V68.6708H285.61C285.397 68.6708 285.225 68.4985 285.225 68.2854C285.225 68.0723 285.397 67.8999 285.61 67.8999H287.923C288.136 67.8999 288.308 68.0723 288.308 68.2854V70.5982C288.308 70.8112 288.136 70.9836 287.923 70.9836Z" fill="black"/>
<path d="M287.923 134.169C287.709 134.169 287.537 133.996 287.537 133.783V129.27C287.537 129.057 287.709 128.885 287.923 128.885C288.136 128.885 288.308 129.057 288.308 129.27V133.783C288.308 133.996 288.136 134.169 287.923 134.169ZM287.923 125.142C287.709 125.142 287.537 124.97 287.537 124.757V120.244C287.537 120.031 287.709 119.858 287.923 119.858C288.136 119.858 288.308 120.031 288.308 120.244V124.757C288.308 124.97 288.136 125.142 287.923 125.142ZM287.923 116.116C287.709 116.116 287.537 115.943 287.537 115.73V111.217C287.537 111.004 287.709 110.832 287.923 110.832C288.136 110.832 288.308 111.004 288.308 111.217V115.73C288.308 115.943 288.136 116.116 287.923 116.116ZM287.923 107.09C287.709 107.09 287.537 106.917 287.537 106.704V102.191C287.537 101.978 287.709 101.805 287.923 101.805C288.136 101.805 288.308 101.978 288.308 102.191V106.704C288.308 106.917 288.136 107.09 287.923 107.09ZM287.923 98.0632C287.709 98.0632 287.537 97.8909 287.537 97.6778V93.1645C287.537 92.9514 287.709 92.779 287.923 92.779C288.136 92.779 288.308 92.9514 288.308 93.1645V97.6778C288.308 97.8909 288.136 98.0632 287.923 98.0632ZM287.923 89.0367C287.709 89.0367 287.537 88.8644 287.537 88.6513V84.138C287.537 83.9249 287.709 83.7525 287.923 83.7525C288.136 83.7525 288.308 83.9249 288.308 84.138V88.6513C288.308 88.8642 288.136 89.0367 287.923 89.0367ZM287.923 80.0104C287.709 80.0104 287.537 79.8381 287.537 79.625V75.1116C287.537 74.8986 287.709 74.7262 287.923 74.7262C288.136 74.7262 288.308 74.8986 288.308 75.1116V79.625C288.308 79.8381 288.136 80.0104 287.923 80.0104Z" fill="black"/>
<path d="M323.919 129.113L327.288 120.945L322.202 118.843C322.532 116.792 322.519 114.734 322.194 112.741L327.277 110.627L323.889 102.467L318.806 104.58C317.625 102.944 316.177 101.482 314.493 100.269L316.593 95.1783L308.433 91.805L306.333 96.8958C304.285 96.5655 302.229 96.5786 300.238 96.9039L298.126 91.8154L289.974 95.2057L292.086 100.294C290.451 101.476 288.991 102.926 287.78 104.612L282.694 102.509L279.325 110.677L284.411 112.78C284.08 114.83 284.094 116.889 284.419 118.881L279.336 120.995L282.723 129.156L287.806 127.042C288.987 128.678 290.435 130.14 292.12 131.353L290.02 136.444L298.179 139.817L300.279 134.726C302.328 135.057 304.384 135.044 306.374 134.718L308.487 139.807L316.639 136.417L314.526 131.328C316.161 130.146 317.621 128.697 318.833 127.011L323.919 129.113ZM299.058 126.11C293.375 123.761 290.671 117.246 293.017 111.557C295.364 105.869 301.872 103.162 307.555 105.512C313.237 107.861 315.941 114.376 313.595 120.065C311.249 125.753 304.74 128.459 299.058 126.11Z" fill="#B4FF5C"/>
<path d="M273.32 91.3392L271.705 86.0157L268.388 87.0192C267.731 85.8884 266.904 84.8906 265.951 84.0493L267.585 80.9923L262.68 78.3664L261.046 81.4235C259.818 81.097 258.53 80.962 257.225 81.0428L256.218 77.7245L250.897 79.3346L251.904 82.6529C250.774 83.3087 249.777 84.135 248.937 85.0875L245.879 83.4501L243.258 88.3529L246.316 89.9903C245.991 91.2184 245.858 92.5067 245.94 93.8116L242.623 94.8151L244.238 100.139L247.555 99.1351C248.212 100.266 249.039 101.264 249.992 102.105L248.359 105.162L253.263 107.788L254.897 104.731C256.125 105.057 257.414 105.192 258.718 105.112L259.725 108.43L265.047 106.82L264.04 103.501C265.17 102.846 266.167 102.019 267.007 101.067L270.065 102.704L272.685 97.8014L269.627 96.164C269.952 94.936 270.086 93.6476 270.004 92.3427L273.32 91.3392ZM260.009 99.7901C256.303 100.911 252.387 98.8149 251.262 95.1074C250.137 91.3998 252.229 87.4854 255.935 86.3642C259.641 85.2429 263.557 87.3394 264.682 91.0469C265.807 94.7543 263.715 98.6687 260.009 99.7901Z" fill="white"/>
<path d="M259.725 108.815C259.56 108.815 259.407 108.707 259.357 108.541L258.437 105.511C257.312 105.554 256.192 105.441 255.096 105.178L253.604 107.969C253.556 108.059 253.474 108.127 253.376 108.156C253.278 108.185 253.172 108.176 253.082 108.127L248.177 105.501C247.989 105.401 247.919 105.168 248.019 104.98L249.511 102.188C248.683 101.421 247.968 100.55 247.379 99.5911L244.351 100.507C244.147 100.569 243.931 100.453 243.87 100.25L242.255 94.9264C242.225 94.8285 242.236 94.7231 242.284 94.6328C242.332 94.5424 242.414 94.4754 242.512 94.4457L245.54 93.5296C245.498 92.4056 245.608 91.2843 245.87 90.1878L243.077 88.6927C242.889 88.5922 242.818 88.3588 242.919 88.1709L245.539 83.268C245.587 83.1779 245.669 83.1106 245.767 83.0809C245.864 83.0519 245.971 83.0613 246.061 83.1099L248.854 84.605C249.62 83.7784 250.491 83.064 251.449 82.4759L250.529 79.4461C250.499 79.3482 250.51 79.2428 250.558 79.1525C250.606 79.0621 250.688 78.9951 250.786 78.9654L256.107 77.3555C256.311 77.2931 256.526 77.4094 256.588 77.6127L257.507 80.6428C258.63 80.6007 259.752 80.7129 260.849 80.9756L262.341 78.1844C262.389 78.0944 262.471 78.0271 262.569 77.9974C262.667 77.9677 262.772 77.9778 262.863 78.0264L267.767 80.6523C267.955 80.7528 268.026 80.9861 267.925 81.174L266.433 83.9652C267.261 84.7328 267.977 85.6045 268.565 86.5629L271.594 85.6466C271.799 85.5849 272.013 85.7005 272.074 85.9038L273.69 91.2271C273.72 91.325 273.709 91.4304 273.661 91.5208C273.613 91.6112 273.531 91.6781 273.433 91.7078L270.405 92.6241C270.448 93.7481 270.337 94.8694 270.075 95.9663L272.868 97.461C273.056 97.5615 273.126 97.7949 273.026 97.9828L270.406 102.886C270.357 102.976 270.275 103.043 270.177 103.073C270.08 103.101 269.974 103.092 269.884 103.044L267.091 101.549C266.325 102.375 265.455 103.09 264.497 103.678L265.416 106.708C265.446 106.805 265.435 106.911 265.387 107.001C265.339 107.092 265.257 107.159 265.159 107.188L259.838 108.798C259.8 108.809 259.762 108.815 259.725 108.815ZM258.719 104.726C258.888 104.726 259.038 104.836 259.088 104.999L259.983 107.949L264.566 106.562L263.671 103.613C263.619 103.442 263.692 103.258 263.847 103.168C264.924 102.542 265.89 101.75 266.717 100.812C266.836 100.677 267.032 100.642 267.188 100.727L269.907 102.182L272.164 97.959L269.445 96.5038C269.288 96.4196 269.209 96.2381 269.255 96.0652C269.575 94.8555 269.698 93.6114 269.619 92.3665C269.608 92.188 269.721 92.0254 269.892 91.9735L272.84 91.0817L271.448 86.4956L268.5 87.3878C268.329 87.441 268.145 87.3675 268.055 87.2125C267.429 86.134 266.635 85.167 265.696 84.3381C265.562 84.2199 265.527 84.0248 265.611 83.8672L267.064 81.1501L262.838 78.8878L261.386 81.6049C261.302 81.7626 261.122 81.8412 260.947 81.7958C259.737 81.4743 258.492 81.3513 257.249 81.4273C257.071 81.4355 256.908 81.3252 256.856 81.1545L255.961 78.2049L251.378 79.5916L252.273 82.5408C252.325 82.7117 252.252 82.8962 252.098 82.986C251.02 83.6113 250.054 84.404 249.226 85.342C249.108 85.4767 248.912 85.5113 248.755 85.4271L246.037 83.9715L243.78 88.1947L246.498 89.6503C246.656 89.7345 246.735 89.916 246.689 90.0888C246.369 91.2983 246.246 92.5423 246.325 93.7873C246.336 93.9657 246.223 94.1283 246.052 94.1802L243.104 95.072L244.495 99.6584L247.443 98.7662C247.616 98.7147 247.799 98.7869 247.888 98.9416C248.515 100.02 249.308 100.987 250.248 101.816C250.382 101.934 250.417 102.129 250.332 102.287L248.88 105.004L253.105 107.266L254.557 104.549C254.641 104.391 254.824 104.313 254.996 104.358C256.205 104.68 257.45 104.803 258.695 104.726C258.703 104.726 258.711 104.726 258.719 104.726ZM257.983 100.476C254.807 100.476 251.862 98.4125 250.893 95.2189C250.319 93.3273 250.516 91.3259 251.447 89.5838C252.379 87.8414 253.932 86.5668 255.823 85.995C259.727 84.813 263.866 87.0291 265.051 90.9345C265.625 92.826 265.428 94.8275 264.497 96.5695C263.566 98.312 262.012 99.5866 260.121 100.159C260.121 100.159 260.121 100.159 260.12 100.159C259.41 100.374 258.691 100.476 257.983 100.476ZM257.962 86.4483C257.328 86.4483 256.684 86.54 256.047 86.7328C254.353 87.2452 252.961 88.3868 252.127 89.9471C251.293 91.5077 251.117 93.3006 251.631 94.9953C252.692 98.493 256.4 100.479 259.897 99.4209C261.591 98.9082 262.983 97.7669 263.817 96.2063C264.651 94.6457 264.827 92.8528 264.313 91.1581C263.445 88.2973 260.807 86.4483 257.962 86.4483Z" fill="black"/>
<path d="M113.484 52.4852L191.67 33.6324L212.45 28.6215L213.66 33.6324L218.213 52.4852H113.484Z" fill="white"/>
<path d="M218.213 52.4847L218.306 52.874L231.939 109.367L104.669 140.018L218.213 52.4847Z" fill="white"/>
<path d="M218.213 52.0995L83.9035 52.8297L83.3262 51.2091L157.908 33.247H213.661L218.213 52.0995Z" fill="white"/>
<path d="M193.453 31.2539C192.416 31.2539 191.471 30.5463 191.217 29.4946C191.073 28.898 191.171 28.2806 191.491 27.757C191.812 27.2335 192.317 26.8661 192.914 26.7219C194.148 26.4252 195.392 27.186 195.689 28.4173C195.833 29.0139 195.736 29.6312 195.416 30.1548C195.095 30.6783 194.59 31.0457 193.992 31.1899C193.812 31.2333 193.631 31.2539 193.453 31.2539ZM193.453 27.4288C193.335 27.4288 193.215 27.4428 193.095 27.4718C192.698 27.5674 192.362 27.8118 192.149 28.1594C191.936 28.5076 191.871 28.9175 191.967 29.314C192.165 30.1324 192.991 30.6386 193.812 30.4402C194.209 30.3446 194.545 30.1002 194.758 29.7526C194.971 29.4044 195.036 28.9948 194.94 28.598C194.771 27.8993 194.143 27.4288 193.453 27.4288Z" fill="#020202"/>
<path d="M199.921 29.6959C198.883 29.6959 197.939 28.9882 197.685 27.9366C197.541 27.34 197.638 26.7226 197.959 26.199C198.279 25.6755 198.785 25.3081 199.382 25.1639C200.615 24.8676 201.86 25.628 202.157 26.8589C202.157 26.8593 202.157 26.8593 202.157 26.8593C202.301 27.4559 202.204 28.0733 201.883 28.5968C201.562 29.1203 201.057 29.4877 200.46 29.6319C200.28 29.6753 200.099 29.6959 199.921 29.6959ZM199.921 25.8708C199.802 25.8708 199.682 25.8848 199.563 25.9138C199.166 26.0094 198.829 26.2538 198.616 26.6014C198.403 26.9496 198.339 27.3595 198.434 27.756C198.632 28.5744 199.458 29.0799 200.279 28.8822C200.676 28.7866 201.013 28.5424 201.226 28.1946C201.439 27.8464 201.503 27.4365 201.408 27.04C201.239 26.3413 200.611 25.8708 199.921 25.8708Z" fill="#020202"/>
<path d="M206.389 28.1384C205.351 28.1384 204.407 27.4308 204.153 26.379C204.009 25.7824 204.106 25.165 204.427 24.6415C204.747 24.1178 205.253 23.7505 205.85 23.6063C207.083 23.3097 208.327 24.0704 208.625 25.3014C208.625 25.3017 208.625 25.3017 208.625 25.3017C208.769 25.8983 208.672 26.5157 208.351 27.0392C208.03 27.5628 207.525 27.9302 206.928 28.0744C206.748 28.1177 206.567 28.1384 206.389 28.1384ZM206.389 24.3132C206.27 24.3132 206.15 24.3272 206.031 24.356C205.633 24.4517 205.297 24.696 205.084 25.0437C204.871 25.3919 204.806 25.8018 204.902 26.1983C205.1 27.0167 205.926 27.5225 206.747 27.3245C207.144 27.2289 207.481 26.9845 207.694 26.6368C207.907 26.2886 207.971 25.8787 207.876 25.4823C207.707 24.7838 207.079 24.3132 206.389 24.3132Z" fill="#020202"/>
<path d="M104.668 139.249C104.494 139.249 104.336 139.13 104.294 138.954L84.813 58.2427C84.7887 58.1419 84.806 58.0349 84.8616 57.9473C84.9168 57.8592 85.0054 57.7972 85.1072 57.7757L113.403 51.7243L191.58 32.8738L212.366 28.2463C212.569 28.2019 212.775 28.3276 212.825 28.5325L218.587 52.3962C218.588 52.3965 218.588 52.3969 218.588 52.3972L218.68 52.7865L232.314 109.278C232.338 109.378 232.321 109.483 232.267 109.571C232.213 109.658 232.126 109.72 232.026 109.744L104.756 139.239C104.726 139.246 104.697 139.249 104.668 139.249ZM85.6552 58.4467L104.954 138.402L231.473 109.081L212.164 29.0812L191.754 33.6246L113.574 52.4756L85.6552 58.4467Z" fill="#020202"/>
<path d="M157.907 34.0183C157.733 34.0183 157.575 33.8997 157.533 33.7232C157.483 33.5162 157.61 33.308 157.817 33.2579L210.505 20.5683C210.712 20.5193 210.92 20.6459 210.97 20.8528L212.824 28.5315C212.874 28.7381 212.747 28.9466 212.54 28.9964C212.336 29.0476 212.125 28.9193 212.075 28.7122L210.312 21.4082L157.998 34.0078C157.967 34.0149 157.937 34.0183 157.907 34.0183Z" fill="#020202"/>
<path d="M83.7112 51.9807C83.5815 51.9807 83.4581 51.9151 83.3863 51.8022L83.2167 51.536C83.1022 51.3565 83.1552 51.1182 83.3345 51.0037C83.5146 50.8898 83.7525 50.942 83.8668 51.1219L83.8885 51.1558L157.817 33.2584C158.022 33.2068 158.232 33.3351 158.282 33.5423C158.333 33.7492 158.206 33.9574 157.999 34.0076L83.8019 51.9698C83.7719 51.9774 83.7413 51.9807 83.7112 51.9807Z" fill="#020202"/>
<path d="M85.1757 58.4988C85.0017 58.4988 84.8439 58.3803 84.8012 58.2038L83.167 51.4194C83.1172 51.2125 83.2447 51.0043 83.4514 50.9541C83.6596 50.9059 83.8666 51.0317 83.9166 51.2387L85.5508 58.023C85.6006 58.23 85.4732 58.4382 85.2664 58.4883C85.2358 58.4955 85.2056 58.4988 85.1757 58.4988Z" fill="#020202"/>
<path d="M207.417 40.5909L133.012 59.2535L145.45 108.842L219.855 90.1798L207.417 40.5909Z" fill="#B9BEC6"/>
<path d="M181.672 84.7896C188.215 81.6893 191.003 73.8641 187.898 67.3116C184.793 60.759 176.972 57.9605 170.429 61.0608C163.886 64.1611 161.098 71.9863 164.203 78.5388C167.308 85.0913 175.129 87.8899 181.672 84.7896Z" fill="#B4FF5C"/>
<path d="M174.102 78.6917C174.067 78.6917 174.031 78.6868 173.997 78.6771C173.864 78.6395 173.762 78.5337 173.728 78.4003L171.418 69.2115C171.385 69.0777 171.425 68.9363 171.524 68.8404C171.623 68.7447 171.765 68.7094 171.898 68.7467L181.002 71.3477C181.134 71.3858 181.236 71.491 181.269 71.6247C181.303 71.7579 181.263 71.8995 181.164 71.9952L174.371 78.583C174.297 78.6536 174.201 78.6917 174.102 78.6917ZM172.329 69.6715L174.313 77.5648L180.149 71.906L172.329 69.6715Z" fill="#0C0C0C"/>
<path d="M215.799 85.1715L146.547 102.542L147.125 104.846L216.377 87.4761L215.799 85.1715Z" fill="white"/>
<path d="M111.296 129.956C111.124 129.956 110.967 129.84 110.923 129.665L109.663 124.655C109.638 124.556 109.654 124.451 109.706 124.363C109.759 124.275 109.844 124.212 109.943 124.187L221.377 96.2398C221.584 96.1886 221.792 96.3132 221.845 96.5195L223.104 101.53C223.129 101.629 223.114 101.734 223.061 101.822C223.009 101.91 222.924 101.973 222.824 101.998L111.39 129.945C111.359 129.953 111.327 129.956 111.296 129.956ZM110.505 124.841L111.576 129.104L222.262 101.344L221.19 97.0813L110.505 124.841Z" fill="#020202"/>
<path d="M125.749 61.3933L97.2559 68.5401L102.085 87.7913L130.578 80.6445L125.749 61.3933Z" fill="#B9BEC6"/>
<path d="M133.304 91.4445L104.812 98.5913L109.64 117.842L138.133 110.696L133.304 91.4445Z" fill="#B9BEC6"/>
<path d="M82.9763 337.183C82.7634 337.183 82.5908 337.01 82.5908 336.797V327.936C82.5908 327.723 82.7634 327.55 82.9763 327.55C83.1892 327.55 83.3617 327.723 83.3617 327.936V336.797C83.3619 337.01 83.1892 337.183 82.9763 337.183Z" fill="#0C0C0C"/>
<path d="M82.9763 328.32C82.7634 328.32 82.5908 328.148 82.5908 327.935V310.851C82.5908 310.638 82.7634 310.465 82.9763 310.465C83.1892 310.465 83.3617 310.638 83.3617 310.851V327.935C83.3619 328.148 83.1892 328.32 82.9763 328.32Z" fill="black"/>
<path d="M82.9763 311.236C82.7634 311.236 82.5908 311.064 82.5908 310.851V300.046C82.5908 299.833 82.7634 299.66 82.9763 299.66C83.1892 299.66 83.3617 299.833 83.3617 300.046V310.851C83.3619 311.064 83.1892 311.236 82.9763 311.236Z" fill="#0C0C0C"/>
<path d="M82.9763 300.431C82.7634 300.431 82.5908 300.259 82.5908 300.046V282.881C82.5908 282.668 82.7634 282.495 82.9763 282.495C83.1892 282.495 83.3617 282.668 83.3617 282.881V300.046C83.3619 300.259 83.1892 300.431 82.9763 300.431Z" fill="black"/>
<path d="M82.9763 283.266C82.7634 283.266 82.5908 283.094 82.5908 282.881V272.052C82.5908 271.839 82.7634 271.667 82.9763 271.667C83.1892 271.667 83.3617 271.839 83.3617 272.052V282.881C83.3619 283.094 83.1892 283.266 82.9763 283.266Z" fill="#0C0C0C"/>
<path d="M148.94 272.438H82.468C82.2551 272.438 82.0825 272.265 82.0825 272.052C82.0825 271.839 82.2551 271.667 82.468 271.667H148.94C149.153 271.667 149.326 271.839 149.326 272.052C149.326 272.265 149.153 272.438 148.94 272.438Z" fill="black"/>
<path d="M138.927 283.363H72.4553C72.2423 283.363 72.0698 283.19 72.0698 282.977C72.0698 282.764 72.2423 282.592 72.4553 282.592H138.927C139.14 282.592 139.313 282.764 139.313 282.977C139.313 283.19 139.14 283.363 138.927 283.363Z" fill="black"/>
<path d="M123.126 300.459H56.7204C56.5075 300.459 56.335 300.286 56.335 300.073C56.335 299.86 56.5075 299.688 56.7204 299.688H123.126C123.339 299.688 123.511 299.86 123.511 300.073C123.511 300.286 123.339 300.459 123.126 300.459Z" fill="black"/>
<path d="M113.124 311.383H46.9919C46.779 311.383 46.6064 311.21 46.6064 310.997C46.6064 310.784 46.779 310.612 46.9919 310.612H113.124C113.337 310.612 113.509 310.784 113.509 310.997C113.509 311.21 113.337 311.383 113.124 311.383Z" fill="black"/>
<path d="M97.5368 328.478H31.5148C31.3019 328.478 31.1294 328.306 31.1294 328.093C31.1294 327.88 31.3019 327.707 31.5148 327.707H97.5368C97.7497 327.707 97.9222 327.88 97.9222 328.093C97.9222 328.306 97.7497 328.478 97.5368 328.478Z" fill="black"/>
<path d="M87.5925 339.402H21.5705C21.3576 339.402 21.1851 339.23 21.1851 339.017C21.1851 338.804 21.3576 338.632 21.5705 338.632H87.5925C87.8054 338.632 87.9779 338.804 87.9779 339.017C87.9779 339.23 87.8054 339.402 87.5925 339.402Z" fill="black"/>
<path d="M87.1338 339.846C87.0408 339.846 86.9475 339.812 86.8735 339.744C86.7166 339.601 86.7061 339.357 86.8498 339.2L148.573 271.882C148.6 271.853 148.627 271.823 148.656 271.792C148.742 271.697 148.869 271.653 148.992 271.67C148.992 271.67 148.993 271.671 148.993 271.671C148.993 271.671 148.993 271.671 148.994 271.671C148.994 271.671 148.995 271.671 148.995 271.671C148.995 271.671 148.996 271.671 148.996 271.671C148.996 271.671 148.997 271.671 148.997 271.671C148.997 271.671 148.998 271.671 148.998 271.671C148.998 271.671 148.999 271.671 148.999 271.671C148.999 271.671 148.999 271.671 149 271.671C149 271.671 149 271.672 149.001 271.672C149.001 271.672 149.002 271.672 149.002 271.672C149.003 271.672 149.003 271.672 149.003 271.672C149.003 271.672 149.004 271.672 149.004 271.672C149.005 271.672 149.005 271.672 149.005 271.672C149.03 271.676 149.055 271.684 149.08 271.693C149.12 271.709 149.157 271.731 149.189 271.758C149.19 271.759 149.19 271.759 149.191 271.759C149.191 271.76 149.191 271.76 149.192 271.761C149.193 271.761 149.193 271.762 149.193 271.762C149.194 271.763 149.194 271.763 149.195 271.763C149.195 271.763 149.196 271.764 149.196 271.764C149.197 271.764 149.198 271.764 149.198 271.766C149.198 271.766 149.198 271.767 149.199 271.767C149.2 271.767 149.2 271.768 149.2 271.768C149.201 271.768 149.201 271.769 149.202 271.769C149.202 271.77 149.203 271.769 149.203 271.771C149.204 271.771 149.204 271.772 149.204 271.772C149.205 271.772 149.205 271.773 149.206 271.773C149.207 271.774 149.207 271.774 149.207 271.774C149.207 271.774 149.207 271.775 149.208 271.775C149.209 271.776 149.208 271.776 149.21 271.776C149.21 271.777 149.211 271.777 149.211 271.778C149.212 271.778 149.212 271.779 149.212 271.779C149.213 271.78 149.213 271.779 149.214 271.781C149.214 271.781 149.214 271.781 149.214 271.781C149.215 271.782 149.215 271.782 149.215 271.782C149.216 271.783 149.216 271.783 149.216 271.783C149.216 271.783 149.217 271.784 149.217 271.784C149.218 271.785 149.218 271.786 149.219 271.786C149.219 271.786 149.22 271.787 149.22 271.787C149.22 271.787 149.221 271.788 149.221 271.789C149.222 271.789 149.222 271.789 149.222 271.79C149.223 271.79 149.223 271.791 149.224 271.791C149.224 271.792 149.225 271.793 149.225 271.793C149.226 271.794 149.227 271.795 149.227 271.796C149.289 271.864 149.325 271.955 149.325 272.051C149.423 293.526 149.423 315.31 149.325 336.799C149.325 337.011 149.152 337.183 148.94 337.183C148.939 337.183 148.939 337.183 148.938 337.183C148.725 337.181 148.553 337.008 148.554 336.795C148.65 315.637 148.652 294.192 148.559 273.038L87.418 339.721C87.3422 339.804 87.2382 339.846 87.1338 339.846Z" fill="black"/>
<path d="M21.0249 339.882C20.9316 339.882 20.8381 339.849 20.7639 339.781C20.6073 339.636 20.5974 339.392 20.7417 339.236C32.4682 326.508 44.2158 313.495 55.5766 300.91C64.1878 291.372 73.0923 281.508 81.9639 271.794C82.1076 271.637 82.3511 271.626 82.5084 271.769C82.6655 271.913 82.6767 272.157 82.533 272.314C73.663 282.026 64.7594 291.889 56.1489 301.427C44.7869 314.013 33.0381 327.028 21.3086 339.759C21.2326 339.841 21.1289 339.882 21.0249 339.882Z" fill="black"/>
<path d="M84.2698 107.673C83.2925 107.673 82.5269 106.553 82.5269 105.123C82.5269 103.694 83.2923 102.574 84.2698 102.574C85.2471 102.574 86.0125 103.694 86.0125 105.123C86.0125 106.553 85.2471 107.673 84.2698 107.673ZM84.2698 103.345C83.8101 103.345 83.2979 104.075 83.2979 105.123C83.2979 106.171 83.8101 106.902 84.2698 106.902C84.7295 106.902 85.2417 106.171 85.2417 105.123C85.2417 104.075 84.7295 103.345 84.2698 103.345Z" fill="black"/>
<path d="M83.8151 104.423C83.8151 108.164 82.8586 112.352 79.3942 112.352C75.93 112.352 71.27 108.164 71.27 104.423C71.27 100.682 74.0784 97.649 77.5425 97.649C81.0067 97.6492 83.8151 100.682 83.8151 104.423Z" fill="#DFE3E8"/>
<path d="M79.3946 112.737C75.8358 112.737 70.8848 108.547 70.8848 104.423C70.8848 100.475 73.8716 97.2629 77.5427 97.2629C81.214 97.2629 84.2007 100.475 84.2007 104.423C84.2009 109.706 82.449 112.737 79.3946 112.737ZM77.5429 98.0338C74.2969 98.0338 71.6558 100.9 71.6558 104.422C71.6558 108.065 76.198 111.966 79.3947 111.966C83.0369 111.966 83.43 106.69 83.43 104.422C83.43 100.9 80.7889 98.0338 77.5429 98.0338Z" fill="black"/>
<path d="M79.1889 104.423H71.9893V116.29H79.1889V104.423Z" fill="#DFE3E8"/>
<path d="M79.1891 116.675H71.9894C71.7765 116.675 71.604 116.503 71.604 116.29V104.422C71.604 104.209 71.7765 104.037 71.9894 104.037H79.1891C79.402 104.037 79.5745 104.209 79.5745 104.422V116.29C79.5745 116.503 79.4018 116.675 79.1891 116.675ZM72.3749 115.904H78.8037V104.808H72.3749V115.904Z" fill="black"/>
<path d="M79.1887 116.675C78.9758 116.675 78.8032 116.502 78.8032 116.289V110.18C78.8032 109.967 78.9758 109.794 79.1887 109.794C79.4016 109.794 79.5741 109.967 79.5741 110.18V116.289C79.5741 116.502 79.4014 116.675 79.1887 116.675Z" fill="black"/>
<path d="M80.7347 103.267C80.7347 106.302 79.1014 111.072 75.2299 111.072C70.4792 111.072 69.7251 106.302 69.7251 103.267C69.7251 100.233 72.1898 97.773 75.2299 97.773C78.27 97.773 80.7347 100.233 80.7347 103.267Z" fill="black"/>
<path d="M80.3196 102.74C83.4015 102.74 85.8999 101.145 85.8999 99.1781C85.8999 97.2108 83.4015 95.616 80.3196 95.616C77.2377 95.616 74.7393 97.2108 74.7393 99.1781C74.7393 101.145 77.2377 102.74 80.3196 102.74Z" fill="black"/>
<path d="M85.6278 105.508C85.6184 105.508 85.609 105.507 85.5993 105.507L79.6133 105.069C79.4009 105.054 79.2413 104.869 79.2569 104.657C79.2725 104.445 79.4532 104.284 79.6694 104.301L85.6555 104.738C85.8678 104.753 86.0274 104.938 86.0119 105.151C85.9972 105.353 85.828 105.508 85.6278 105.508Z" fill="black"/>
<path d="M81.1732 108.026C82.0615 107.632 82.3993 106.45 81.9277 105.386C81.4562 104.321 80.3539 103.777 79.4657 104.171C78.5775 104.564 78.2397 105.746 78.7112 106.811C79.1827 107.875 80.285 108.419 81.1732 108.026Z" fill="#DFE3E8"/>
<path d="M95.9663 249.47L107.205 222.483L123.57 230.124L113.516 254.85L95.9663 249.47Z" fill="black"/>
<path d="M95.9663 249.469L99.1381 241.853L118.445 243.101L113.516 254.85L95.9663 249.469Z" fill="#DFE3E8"/>
<path d="M113.517 255.235C113.479 255.235 113.441 255.23 113.404 255.218L95.8536 249.838C95.7494 249.806 95.6639 249.732 95.6178 249.634C95.5715 249.535 95.5688 249.422 95.6106 249.321L98.7824 241.705C98.8458 241.553 99.0002 241.459 99.1631 241.469L118.471 242.717C118.595 242.725 118.708 242.793 118.773 242.899C118.839 243.005 118.849 243.136 118.801 243.251L113.872 254.999C113.811 255.145 113.668 255.235 113.517 255.235ZM96.4857 249.225L113.296 254.379L117.881 243.451L99.3884 242.256L96.4857 249.225Z" fill="black"/>
<path d="M140.539 266.771V263.17C140.539 260.483 138.556 258.205 135.89 257.83L128.438 256.782C127.255 256.616 126.133 256.154 125.175 255.441L123.477 254.276C119.796 251.751 118.891 248.221 118.68 247.839H94.4483L92.8901 266.538L140.539 266.771Z" fill="white"/>
<path d="M140.539 267.156C140.538 267.156 140.538 267.156 140.537 267.156L92.8885 266.923C92.781 266.922 92.6785 266.877 92.6061 266.798C92.5334 266.718 92.4974 266.612 92.5062 266.505L94.0643 247.806C94.0811 247.606 94.2481 247.453 94.4485 247.453H118.68C118.821 247.453 118.95 247.529 119.018 247.652C119.06 247.728 119.101 247.837 119.169 248.018C119.526 248.964 120.61 251.841 123.695 253.958L125.393 255.123C126.308 255.804 127.376 256.242 128.492 256.4L135.944 257.448C138.783 257.848 140.924 260.307 140.924 263.169V266.77C140.924 266.873 140.883 266.971 140.811 267.044C140.739 267.116 140.641 267.156 140.539 267.156ZM93.3092 266.153L140.154 266.383V263.17C140.154 260.689 138.297 258.558 135.836 258.211L128.385 257.163C127.141 256.988 125.951 256.499 124.945 255.75L123.259 254.593C119.974 252.34 118.825 249.292 118.448 248.291C118.439 248.267 118.431 248.245 118.423 248.224H94.8032L93.3092 266.153Z" fill="black"/>
<path d="M92.7686 266.399C92.1045 266.399 91.5655 266.935 91.5635 267.598L91.5483 272.547C91.5483 273.267 92.1332 273.851 92.8548 273.851H140.54C141.673 273.851 142.593 272.934 142.593 271.802V268.449C142.593 267.317 141.673 266.4 140.54 266.4L92.7686 266.399Z" fill="black"/>
<path d="M140.551 266.785C140.544 266.785 140.536 266.784 140.529 266.784C140.316 266.772 140.154 266.589 140.166 266.377L140.318 263.741C140.471 261.102 138.611 258.813 135.993 258.416L127.042 257.061C127.002 257.055 126.965 257.072 126.943 257.104L122.327 264.111C122.21 264.289 121.971 264.337 121.793 264.221C121.616 264.104 121.567 263.865 121.684 263.687L126.3 256.68C126.486 256.397 126.824 256.247 127.158 256.299L136.108 257.654C139.123 258.111 141.264 260.747 141.088 263.785L140.936 266.421C140.924 266.626 140.754 266.785 140.551 266.785Z" fill="black"/>
<path d="M118.681 258.083C118.549 258.083 118.419 258.015 118.348 257.892C118.241 257.708 118.303 257.472 118.487 257.365L123.376 254.518C123.56 254.411 123.796 254.473 123.903 254.657C124.01 254.841 123.948 255.077 123.764 255.184L118.875 258.031C118.814 258.066 118.747 258.083 118.681 258.083Z" fill="black"/>
<path d="M102.022 266.638C100.469 260.379 96.0036 257.727 93.6933 256.748L92.8233 266.423C92.5583 266.423 102.022 266.638 102.022 266.638Z" fill="#020202"/>
<path d="M40.1787 276.755L57.3217 251.248L72.6139 262.482L57.1581 285.902L40.1787 276.755Z" fill="black"/>
<path d="M40.1787 276.755L47.6278 265.672L63.0055 277.042L57.1581 285.902L40.1787 276.755Z" fill="#DFE3E8"/>
<path d="M57.1582 286.287C57.0964 286.287 57.0336 286.272 56.9756 286.241L39.9962 277.094C39.9004 277.042 39.831 276.953 39.8048 276.847C39.7786 276.742 39.7983 276.63 39.859 276.54L47.3081 265.456C47.3668 265.369 47.4586 265.31 47.5624 265.292C47.6654 265.273 47.7725 265.299 47.8573 265.362L63.2352 276.732C63.3998 276.853 63.4406 277.083 63.3276 277.254L57.48 286.114C57.4065 286.226 57.2839 286.287 57.1582 286.287ZM40.736 276.617L57.0308 285.395L62.483 277.134L47.7232 266.221L40.736 276.617Z" fill="black"/>
<path d="M44.4698 266.77L31.6675 276.399L50.4665 297.117C52.1591 298.983 54.5628 300.047 57.0841 300.047H72.4543C72.4543 291.852 66.8703 290.091 63.9759 289.729C62.7878 289.581 61.6916 289.021 60.8729 288.149L61.431 283.408L44.4698 266.77Z" fill="white"/>
<path d="M72.4552 300.432H57.0851C54.4603 300.432 51.9442 299.319 50.1819 297.376L31.3827 276.658C31.3098 276.578 31.2743 276.471 31.2844 276.363C31.2946 276.255 31.35 276.157 31.4365 276.091L44.2388 266.461C44.3907 266.347 44.6045 266.36 44.7403 266.494L61.7017 283.133C61.787 283.216 61.8286 283.334 61.8146 283.453L61.2778 288.011C62.0204 288.745 62.9889 289.218 64.0245 289.347C66.6753 289.678 72.8405 291.385 72.8405 300.047C72.8407 300.26 72.668 300.432 72.4552 300.432ZM32.2378 276.453L50.7529 296.859C52.3693 298.64 54.6774 299.661 57.0851 299.661H72.0654C71.899 292.229 66.9183 290.486 63.929 290.112C62.6573 289.953 61.4724 289.35 60.5928 288.413C60.5148 288.33 60.4776 288.217 60.4911 288.104L61.0273 283.551L44.4374 267.277L32.2378 276.453Z" fill="black"/>
<path d="M72.455 300.047H57.0848C54.5635 300.047 52.1597 298.983 50.4672 297.118L31.6682 276.4L31.4011 276.107C30.8215 275.506 29.8795 275.442 29.2235 275.959L26.8311 278.066C26.0868 278.652 26.0015 279.747 26.6462 280.441L47.0614 302.425C49.5027 305.053 52.9316 306.547 56.5228 306.547H72.455C73.3204 306.547 74.0219 305.847 74.0219 304.983V301.611C74.0221 300.747 73.3204 300.047 72.455 300.047Z" fill="#020202"/>
<path d="M37.0745 282.357C38.9126 280.426 40.0426 277.817 40.0426 274.942C40.0426 273.452 39.739 272.032 39.1903 270.741L31.668 276.399L37.0745 282.357Z" fill="#020202"/>
<path d="M72.4553 300.432C72.2424 300.432 72.0699 300.26 72.0699 300.047C72.0699 294.386 69.2201 291.037 63.8291 290.363C63.4103 290.311 62.9969 290.209 62.6001 290.063C62.4005 289.989 62.2984 289.767 62.3721 289.568C62.4461 289.368 62.6686 289.265 62.8673 289.34C63.2089 289.466 63.5646 289.553 63.9249 289.598C67.9921 290.106 72.8409 292.332 72.8409 300.047C72.8407 300.26 72.668 300.432 72.4553 300.432Z" fill="black"/>
<path d="M55.187 295.86C55.0713 295.86 54.9566 295.808 54.8808 295.708C54.7512 295.539 54.7834 295.297 54.9524 295.168L62.4694 289.416C62.6384 289.286 62.88 289.318 63.0097 289.487C63.1392 289.656 63.107 289.899 62.938 290.028L55.4211 295.78C55.351 295.834 55.2688 295.86 55.187 295.86Z" fill="black"/>
<path d="M53.2276 290.909C53.0771 290.909 52.9338 290.821 52.8719 290.673C52.7896 290.477 52.882 290.251 53.0783 290.169L57.5815 288.279C57.7771 288.196 58.0038 288.29 58.0862 288.486C58.1685 288.682 58.076 288.908 57.8797 288.99L53.3765 290.879C53.3278 290.9 53.2772 290.909 53.2276 290.909Z" fill="black"/>
<path d="M90.623 214.483L83.1802 157.641L56.3454 161.141L64.1644 220.855L45.3447 262.865L70.0683 273.851L87.7077 234.487C90.5057 228.213 91.5147 221.291 90.623 214.483Z" fill="white"/>
<path d="M70.0684 274.236C70.0161 274.236 69.963 274.225 69.9119 274.202L45.1884 263.217C45.0949 263.175 45.0216 263.098 44.9849 263.002C44.9484 262.907 44.9512 262.8 44.9932 262.707L63.7683 220.796L55.9633 161.191C55.9501 161.089 55.9776 160.987 56.0398 160.906C56.1022 160.824 56.1942 160.772 56.2956 160.758L83.1303 157.258C83.3404 157.23 83.535 157.379 83.5624 157.59L91.0052 214.432C91.9063 221.314 90.8878 228.303 88.0597 234.643L70.4199 274.008C70.3561 274.151 70.2156 274.236 70.0684 274.236ZM45.8549 262.669L69.8738 273.342L87.3563 234.328C90.1262 228.119 91.1237 221.273 90.241 214.532L82.8482 158.072L56.7778 161.473L64.5468 220.804C64.5561 220.875 64.5454 220.947 64.5164 221.012L45.8549 262.669Z" fill="black"/>
<path d="M95.0762 159.935H61.3091V176.2H95.0762V159.935Z" fill="white"/>
<path d="M141.871 192.224L140.374 196.333L88.1029 193.493C77.0272 192.891 67.5319 185.392 64.3979 174.772L61.3096 164.306L126.22 168.41C138.1 169.133 145.939 181.06 141.871 192.224Z" fill="white"/>
<path d="M122.981 244.363L97.5264 235.191L116.621 182.394L142.077 191.566L122.981 244.363Z" fill="white"/>
<path d="M111.942 194.798L126.831 195.596L105.088 214.283L111.942 194.798Z" fill="black"/>
<path d="M122.982 244.748C122.938 244.748 122.894 244.741 122.851 244.725L97.396 235.554C97.2997 235.52 97.2212 235.448 97.1777 235.355C97.1342 235.263 97.1293 235.157 97.1642 235.061L111.751 194.729C111.823 194.529 112.044 194.424 112.244 194.498C112.444 194.57 112.548 194.791 112.476 194.991L98.0202 234.96L122.75 243.87L141.714 191.435C141.787 191.235 142.007 191.13 142.208 191.204C142.408 191.276 142.512 191.497 142.439 191.697L123.344 244.494C123.287 244.651 123.14 244.748 122.982 244.748Z" fill="black"/>
<path d="M129.22 196.112C129.213 196.112 129.206 196.112 129.199 196.112L88.0823 193.878C87.8697 193.867 87.7068 193.685 87.7184 193.472C87.7297 193.26 87.9147 193.088 88.1241 193.109L129.24 195.342C129.453 195.354 129.616 195.536 129.604 195.748C129.593 195.953 129.423 196.112 129.22 196.112Z" fill="black"/>
<path d="M88.1031 193.878C88.0959 193.878 88.0889 193.878 88.0817 193.877C84.2868 193.671 80.6561 192.683 77.2903 190.939C77.1013 190.841 77.0274 190.609 77.1253 190.42C77.2233 190.231 77.4556 190.157 77.6449 190.255C80.913 191.947 84.4386 192.907 88.1237 193.108C88.3364 193.119 88.4992 193.301 88.4876 193.514C88.4766 193.719 88.3064 193.878 88.1031 193.878Z" fill="black"/>
<path d="M122.982 244.749C122.939 244.749 122.894 244.742 122.851 244.726C122.651 244.654 122.547 244.433 122.62 244.232L139.991 196.201C140.005 196.161 140.025 196.125 140.05 196.093L141.509 192.092C143.403 186.895 142.749 181.259 139.715 176.631C136.672 171.989 131.745 169.133 126.197 168.796L90.0116 166.508C89.799 166.494 89.6379 166.312 89.6512 166.099C89.6648 165.887 89.8499 165.728 90.0602 165.739L126.244 168.026C132.036 168.379 137.182 171.361 140.359 176.208C143.528 181.042 144.211 186.928 142.233 192.357L140.736 196.465C140.721 196.504 140.701 196.54 140.677 196.571L123.345 244.494C123.288 244.651 123.14 244.749 122.982 244.749Z" fill="black"/>
<path d="M72.6155 222.869C72.5914 222.869 72.5667 222.866 72.5421 222.862L64.0922 221.233C63.8833 221.193 63.7465 220.991 63.7868 220.782C63.8271 220.573 64.0295 220.438 64.2384 220.476L72.688 222.104C72.8969 222.145 73.0338 222.347 72.9934 222.556C72.9579 222.741 72.7966 222.869 72.6155 222.869Z" fill="black"/>
<path d="M96.3592 116.646C96.5676 116.358 98.3192 115.03 98.5711 112.371L98.6711 111.315C98.7828 110.135 98.3619 109.85 98.4731 108.676L98.9328 103.822C98.9999 103.113 98.4785 102.483 97.7679 102.416L97.6706 102.407C96.96 102.34 96.3297 102.861 96.2625 103.57L95.0361 116.521L96.3592 116.646Z" fill="#DFE3E8"/>
<path d="M95.4636 114.507L92.1793 109.363C91.3443 108.055 90.9751 106.505 91.1288 104.961C91.4265 101.972 91.6591 100.625 91.3553 98.5067L91.3125 98.208C91.1968 97.4011 91.8675 96.6988 92.6805 96.7753L92.7875 96.7855C93.3685 96.8403 93.8356 97.2857 93.9182 97.8622C94.0979 99.1149 94.301 100.29 94.1278 102.119L93.9698 103.787C93.8244 105.323 94.1981 106.864 95.0314 108.163L95.9312 109.567L95.4636 114.507Z" fill="#DFE3E8"/>
<path d="M87.7769 112.617L88.5229 104.163C88.6021 103.265 88.8732 102.394 89.3179 101.609L89.6184 101.079C90.1478 100.145 91.336 99.8155 92.2722 100.344C92.6213 100.541 92.7441 100.983 92.5468 101.331L92.0911 102.136C91.5424 103.104 91.2068 104.178 91.1064 105.286L90.4198 112.866L87.7769 112.617Z" fill="#DFE3E8"/>
<path d="M85.9625 114.412C85.4173 113.255 85.1858 111.976 85.2916 110.703L85.5174 107.983C85.5966 107.084 85.8677 106.214 86.3124 105.429L86.6129 104.898C87.1424 103.964 88.3305 103.635 89.2667 104.163C89.6158 104.36 89.7387 104.802 89.5413 105.15L88.2532 107.424L87.3222 117.354L85.9625 114.412Z" fill="#DFE3E8"/>
<path d="M86.7417 122.16L88.579 103.984L91.533 105.278L96.9264 110.559L95.6595 122.791L86.7417 122.16Z" fill="#DFE3E8"/>
<path d="M90.2581 111.168C90.2171 111.168 90.1753 111.161 90.1346 111.148C89.9328 111.079 89.8248 110.86 89.893 110.659L89.9683 110.437C90.2031 109.742 90.3571 109.02 90.4263 108.292L90.4579 107.959C90.5401 107.089 90.6313 106.127 90.645 105.975C90.7242 105.1 90.8025 104.354 90.872 103.693C91.1002 101.517 91.2258 100.319 90.9739 98.5612L90.9313 98.2623C90.8593 97.7609 91.0187 97.2629 91.3683 96.8955C91.7189 96.5274 92.2094 96.3456 92.7169 96.391L92.8242 96.4015C93.5848 96.4733 94.1915 97.0512 94.3002 97.8067L94.3373 98.0623C94.5046 99.214 94.6778 100.405 94.5121 102.155L94.3541 103.823C94.2174 105.266 94.5734 106.734 95.3565 107.955L96.043 109.026C96.158 109.205 96.1055 109.443 95.9264 109.558C95.7469 109.673 95.5086 109.621 95.3939 109.442L94.7075 108.371C93.8319 107.006 93.4339 105.365 93.5865 103.751L93.7445 102.082C93.9015 100.425 93.7424 99.3308 93.5743 98.1729L93.5372 97.9161C93.4794 97.5144 93.1565 97.207 92.7517 97.1685L92.6445 97.1584C92.3727 97.132 92.1129 97.2311 91.9266 97.4272C91.7408 97.6221 91.6562 97.8864 91.6943 98.153L91.7369 98.4519C92.0026 100.304 91.8658 101.609 91.6387 103.773C91.5698 104.431 91.4919 105.174 91.413 106.044C91.3991 106.197 91.308 107.16 91.2253 108.032L91.1938 108.365C91.1192 109.152 90.9526 109.932 90.6986 110.684L90.6233 110.906C90.5688 111.067 90.419 111.168 90.2581 111.168Z" fill="black"/>
<path d="M87.655 110.922C87.6157 110.922 87.5757 110.916 87.5362 110.903C87.3336 110.838 87.2227 110.62 87.2885 110.418L87.3767 110.146C87.5991 109.459 87.7429 108.747 87.8045 108.029L88.1387 104.129C88.2238 103.169 88.5075 102.257 88.9825 101.418L89.2829 100.888C89.7327 100.094 90.6121 99.6348 91.5219 99.7143C91.734 99.7332 91.8904 99.9206 91.8717 100.132C91.8528 100.344 91.6651 100.501 91.4534 100.482C90.8449 100.428 90.2548 100.736 89.9538 101.268L89.6532 101.798C89.2329 102.54 88.9818 103.347 88.9068 104.196L88.5727 108.094C88.5061 108.871 88.3504 109.641 88.1099 110.383L88.0216 110.655C87.9688 110.819 87.8176 110.922 87.655 110.922Z" fill="black"/>
<path d="M86.7418 122.545C86.7205 122.545 86.699 122.543 86.6773 122.54C86.4672 122.504 86.3259 122.305 86.3614 122.095C86.3958 121.892 86.4518 121.622 86.5168 121.308C86.7783 120.051 87.263 117.72 86.7986 116.751C85.578 115.051 84.9504 113.431 84.8237 111.656L84.8218 111.629L84.8237 111.602C84.8455 111.294 84.8625 110.966 84.88 110.627C85.0205 107.907 85.213 104.182 88.4872 103.549C88.6964 103.507 88.8985 103.645 88.9388 103.854C88.979 104.063 88.8425 104.265 88.6336 104.305C85.9519 104.824 85.7842 108.063 85.65 110.667C85.6327 111.001 85.6159 111.324 85.5946 111.629C85.7157 113.253 86.3034 114.747 87.4426 116.326L87.4733 116.377C88.0811 117.572 87.5938 119.915 87.2714 121.465C87.2087 121.767 87.1545 122.027 87.1213 122.224C87.0895 122.412 86.9264 122.545 86.7418 122.545Z" fill="black"/>
<path d="M95.6597 123.176C95.6511 123.176 95.6427 123.176 95.6344 123.175C95.4218 123.161 95.261 122.978 95.2746 122.765C95.2895 122.539 95.3049 122.234 95.323 121.881C95.3991 120.384 95.5143 118.122 95.799 117.089C95.9957 116.374 96.4668 115.898 96.8821 115.479C97.2651 115.092 97.6269 114.726 97.7701 114.206C98.5137 111.505 98.4317 108.9 98.3446 106.141C98.3151 105.204 98.2845 104.235 98.2885 103.26C98.2922 103.196 98.3008 103.077 98.1093 102.956C97.8389 102.786 97.317 102.732 96.9254 102.935C96.7302 103.121 96.5199 103.496 96.4939 103.863C96.3353 106.094 96.156 108.623 95.9476 110.984C95.9289 111.196 95.7434 111.354 95.5298 111.334C95.3178 111.315 95.1612 111.128 95.1797 110.916C95.3874 108.561 95.5667 106.037 95.7247 103.809C95.7693 103.18 96.1203 102.611 96.4482 102.327L96.5103 102.284C97.113 101.941 97.958 101.949 98.5203 102.304C98.8902 102.538 99.0861 102.896 99.0582 103.289C99.0552 104.224 99.0854 105.186 99.1148 106.117C99.2036 108.935 99.2875 111.597 98.5131 114.41C98.3163 115.125 97.8452 115.601 97.4297 116.021C97.0467 116.408 96.6849 116.773 96.5418 117.294C96.2794 118.246 96.1623 120.546 96.0923 121.92C96.0743 122.278 96.0584 122.586 96.0436 122.816C96.0306 123.019 95.8611 123.176 95.6597 123.176Z" fill="black"/>
<path d="M158.139 125.037C158.381 124.738 159.271 122.54 161.975 121.523L163.049 121.12C164.249 120.669 164.666 121.026 165.86 120.577L170.797 118.722C171.519 118.451 172.323 118.815 172.595 119.534L172.632 119.633C172.904 120.353 172.539 121.156 171.818 121.427L158.645 126.378L158.139 125.037Z" fill="#DFE3E8"/>
<path d="M160.627 125.361L166.929 127.317C168.531 127.815 170.255 127.759 171.823 127.161C174.859 126.004 176.199 125.379 178.497 125.094L178.821 125.054C179.696 124.945 180.239 124.049 179.928 123.225L179.887 123.116C179.665 122.528 179.068 122.168 178.442 122.246C177.084 122.414 175.799 122.537 173.939 123.236L172.242 123.873C170.68 124.46 168.965 124.509 167.372 124.011L165.652 123.473L160.627 125.361Z" fill="#DFE3E8"/>
<path d="M164.782 132.819L173.396 129.645C174.311 129.307 175.143 128.778 175.836 128.093L176.305 127.63C177.13 126.814 177.137 125.485 176.32 124.662C176.015 124.354 175.518 124.352 175.211 124.656L174.5 125.358C173.645 126.204 172.619 126.857 171.49 127.276L163.771 130.141L164.782 132.819Z" fill="#DFE3E8"/>
<path d="M163.423 135.216C164.785 135.455 166.185 135.332 167.485 134.861L170.261 133.854C171.176 133.517 172.008 132.988 172.701 132.303L173.17 131.84C173.995 131.024 174.002 129.695 173.185 128.871C172.88 128.564 172.383 128.562 172.076 128.866L170.067 130.851L159.965 134.636L163.423 135.216Z" fill="#DFE3E8"/>
<path d="M155.113 136.603L173.567 129.535L171.377 126.83L164.334 122.719L151.924 127.507L155.113 136.603Z" fill="#DFE3E8"/>
<path d="M165.992 130.104C165.868 130.104 165.745 130.044 165.671 129.933C165.553 129.756 165.6 129.517 165.777 129.398L165.988 129.257C166.697 128.782 167.462 128.388 168.261 128.087L168.924 127.839C169.711 127.543 170.485 127.252 170.621 127.201C171.509 126.872 172.264 126.58 172.932 126.321C175.123 125.472 176.445 124.96 178.449 124.712L178.773 124.672C179.072 124.634 179.334 124.465 179.489 124.207C179.644 123.95 179.673 123.642 179.567 123.361L179.526 123.252C179.367 122.829 178.941 122.575 178.49 122.628L178.213 122.662C176.954 122.816 175.765 122.961 174.074 123.597L172.377 124.234C170.742 124.848 168.923 124.901 167.257 124.379L165.944 123.969C165.741 123.905 165.628 123.689 165.691 123.486C165.755 123.282 165.972 123.169 166.174 123.233L167.487 123.643C168.991 124.113 170.631 124.067 172.106 123.512L173.803 122.875C175.58 122.207 176.871 122.05 178.12 121.897L178.395 121.864C179.201 121.765 179.962 122.223 180.248 122.98L180.289 123.09C180.478 123.593 180.428 124.146 180.149 124.606C179.87 125.068 179.403 125.371 178.868 125.437L178.544 125.477C176.635 125.714 175.419 126.185 173.211 127.04C172.54 127.3 171.782 127.593 170.89 127.924C170.754 127.975 169.982 128.265 169.195 128.56L168.533 128.81C167.789 129.089 167.078 129.455 166.417 129.898L166.206 130.039C166.14 130.083 166.066 130.104 165.992 130.104Z" fill="black"/>
<path d="M166.987 132.741C166.862 132.741 166.738 132.679 166.664 132.566C166.548 132.388 166.598 132.149 166.776 132.033L167.036 131.864C167.74 131.404 168.497 131.025 169.287 130.736L173.264 129.282C174.132 128.962 174.907 128.469 175.565 127.819L176.034 127.356C176.512 126.883 176.67 126.171 176.436 125.541C176.362 125.342 176.464 125.12 176.663 125.046C176.862 124.972 177.085 125.073 177.159 125.273C177.498 126.187 177.269 127.219 176.576 127.904L176.107 128.367C175.37 129.096 174.503 129.647 173.529 130.006L169.552 131.46C168.817 131.729 168.112 132.082 167.457 132.509L167.198 132.679C167.133 132.721 167.06 132.741 166.987 132.741Z" fill="black"/>
<path d="M153.449 138.239C153.303 138.239 153.164 138.156 153.098 138.015C153.009 137.821 153.094 137.593 153.287 137.503C153.539 137.387 154.021 137.115 154.579 136.8C157.23 135.302 159.71 133.976 160.935 134.23L160.992 134.247C162.971 134.985 164.703 135.173 166.44 134.837C166.753 134.728 167.086 134.619 167.431 134.506C170.121 133.624 173.468 132.526 173.247 129.567C173.231 129.354 173.39 129.17 173.602 129.154C173.814 129.138 174 129.297 174.016 129.51C174.282 133.071 170.461 134.324 167.672 135.238C167.322 135.353 166.984 135.464 166.669 135.574L166.616 135.588C164.733 135.959 162.87 135.766 160.753 134.98C159.688 134.798 156.615 136.535 154.958 137.471C154.362 137.808 153.891 138.074 153.61 138.204C153.558 138.228 153.503 138.239 153.449 138.239Z" fill="black"/>
<path d="M150.113 128.374C149.953 128.374 149.803 128.273 149.748 128.113C149.679 127.912 149.787 127.693 149.988 127.623C150.288 127.521 150.835 127.35 151.505 127.141C153.4 126.551 156.572 125.562 157.429 125.056C157.939 124.755 158.219 124.272 158.517 123.76C158.851 123.185 159.196 122.591 159.879 122.188C162.592 120.587 165.392 119.919 168.357 119.213C169.337 118.979 170.351 118.737 171.353 118.46C171.72 118.332 172.141 118.432 172.481 118.745C173 119.222 173.244 120.086 173.061 120.798L173.035 120.869C172.834 121.285 172.347 121.804 171.711 122.026C169.436 122.82 166.858 123.721 164.446 124.61C164.245 124.684 164.024 124.581 163.95 124.381C163.877 124.181 163.979 123.96 164.179 123.886C166.597 122.995 169.179 122.093 171.457 121.298C171.843 121.163 172.183 120.829 172.323 120.567C172.429 120.088 172.225 119.557 171.959 119.312C171.763 119.133 171.627 119.18 171.583 119.196C170.543 119.484 169.522 119.727 168.536 119.962C165.629 120.655 162.883 121.309 160.271 122.851C159.761 123.152 159.48 123.635 159.183 124.147C158.849 124.722 158.504 125.316 157.82 125.72C156.886 126.271 153.786 127.237 151.734 127.877C151.072 128.083 150.533 128.251 150.238 128.353C150.197 128.367 150.155 128.374 150.113 128.374Z" fill="black"/>
<path d="M153.448 137.856L150.113 127.989L154.484 126.66L157.771 135.587L153.448 137.856Z" fill="black"/>
<path d="M122.788 152.64L113.242 135.377L143.596 125.169C146.37 124.236 149.377 125.725 150.312 128.494L153.152 136.908C154.087 139.677 152.596 142.679 149.821 143.612L122.788 152.64Z" fill="#020202"/>
<path d="M75.5886 123.625C79.8643 123.625 83.3305 121.299 83.3305 118.43C83.3305 115.56 79.8643 113.234 75.5886 113.234C71.3128 113.234 67.8467 115.56 67.8467 118.43C67.8467 121.299 71.3128 123.625 75.5886 123.625Z" fill="#020202"/>
<path d="M103.238 120.584C99.5286 117.736 94.9768 116.196 90.2967 116.207L63.4578 116.269C53.4805 116.292 45.965 125.639 48.4461 135.285C48.4986 135.489 48.5547 135.692 48.6146 135.895L55.3815 158.001V166.883H97.614V140.819L110.746 150.903C116.992 155.699 126.076 153.546 129.496 146.461L131.508 142.291L103.238 120.584Z" fill="#020202"/>
<path d="M119.681 133.595C119.599 133.595 119.517 133.569 119.447 133.515L103.004 120.889C99.3935 118.117 94.9004 116.592 90.347 116.592C90.3306 116.592 90.3143 116.592 90.2979 116.592L82.9771 116.609C82.9768 116.609 82.9762 116.609 82.9762 116.609C82.7637 116.609 82.5913 116.437 82.5908 116.224C82.5903 116.012 82.7625 115.839 82.9754 115.838L90.2962 115.821C95.05 115.798 99.7158 117.392 103.473 120.278L119.916 132.904C120.085 133.033 120.117 133.276 119.987 133.444C119.911 133.543 119.797 133.595 119.681 133.595Z" fill="black"/>
<path d="M123.854 136.8C123.772 136.8 123.689 136.774 123.619 136.72L119.446 133.516C119.277 133.387 119.245 133.145 119.375 132.976C119.505 132.807 119.747 132.775 119.915 132.905L124.089 136.109C124.258 136.239 124.289 136.481 124.16 136.65C124.084 136.748 123.97 136.8 123.854 136.8Z" fill="white"/>
<path d="M55.3815 158.387C55.1686 158.387 54.9961 158.215 54.9961 158.002V129.165C54.9961 128.952 55.1686 128.78 55.3815 128.78C55.5944 128.78 55.767 128.952 55.767 129.165V158.002C55.767 158.215 55.5943 158.387 55.3815 158.387Z" fill="white"/>
<path d="M97.614 141.206C97.401 141.206 97.2285 141.033 97.2285 140.82V126.844C97.2285 126.631 97.401 126.459 97.614 126.459C97.8269 126.459 97.9994 126.631 97.9994 126.844V140.82C97.9994 141.033 97.8267 141.206 97.614 141.206Z" fill="white"/>
<path d="M118.268 153.867C115.493 153.868 112.789 152.959 110.511 151.209L97.3793 141.125C97.2104 140.996 97.1786 140.754 97.3083 140.585C97.4376 140.416 97.6797 140.384 97.8486 140.514L110.981 150.598C114.063 152.964 117.973 153.694 121.707 152.6L149.699 143.245C150.944 142.826 151.951 141.948 152.534 140.773C153.116 139.6 153.206 138.271 152.787 137.031L149.947 128.616C149.081 126.052 146.286 124.669 143.719 125.534L119.804 133.576C119.601 133.644 119.384 133.535 119.316 133.333C119.248 133.131 119.357 132.913 119.558 132.845L143.473 124.803C146.445 123.805 149.676 125.404 150.677 128.37L153.518 136.784C154.002 138.219 153.898 139.757 153.225 141.115C152.551 142.476 151.385 143.492 149.944 143.976L121.938 153.335C120.721 153.692 119.487 153.867 118.268 153.867Z" fill="black"/>
<path d="M194.893 324.991L208.316 325.06L208.455 297.88L195.032 297.811L194.893 324.991Z" fill="#DFE3E8"/>
<path d="M208.331 325.441C208.331 325.441 208.33 325.441 208.33 325.441L194.907 325.372C194.804 325.372 194.706 325.33 194.634 325.257C194.563 325.185 194.523 325.086 194.523 324.985L194.663 297.805C194.664 297.593 194.837 297.421 195.049 297.421C195.049 297.421 195.05 297.421 195.051 297.421L208.474 297.49C208.576 297.491 208.674 297.532 208.746 297.605C208.818 297.677 208.858 297.776 208.857 297.878L208.717 325.057C208.716 325.269 208.543 325.441 208.331 325.441ZM195.296 324.603L207.948 324.668L208.085 298.259L195.433 298.194L195.296 324.603Z" fill="black"/>
<path d="M208.4 314.036L194.977 313.967L194.909 324.986L208.332 325.055L208.4 314.036Z" fill="#020202"/>
<path d="M209.145 320.077L209.35 320.338C211.695 323.319 211.592 325.884 212.808 330.124L197.014 335.757L173.431 335.93L169.414 333.549L170.793 330.221L183.856 325.988L192.853 320.375L194.717 317.628L197.204 317.641L199.281 319.595L199.269 322.02C201.621 323.441 202.046 324.115 203.218 324.121C203.243 324.114 205.204 324.32 205.839 322.452L206.492 320.529C206.883 319.381 208.395 319.123 209.145 320.077Z" fill="white"/>
<path d="M173.431 336.315C173.362 336.315 173.294 336.297 173.235 336.261L169.218 333.88C169.053 333.782 168.985 333.578 169.058 333.401L170.437 330.073C170.48 329.968 170.567 329.888 170.674 329.853L183.693 325.636L192.58 320.091L194.399 317.411C194.47 317.306 194.59 317.242 194.718 317.242C194.719 317.242 194.719 317.242 194.72 317.242L197.206 317.255C197.304 317.256 197.398 317.293 197.469 317.36L199.546 319.314C199.624 319.387 199.668 319.49 199.667 319.597L199.656 321.804C200.337 322.222 200.849 322.571 201.266 322.856C202.173 323.476 202.549 323.732 203.22 323.736C203.235 323.735 203.249 323.736 203.261 323.736C203.775 323.756 205.021 323.661 205.474 322.327L206.128 320.405C206.358 319.73 206.915 319.255 207.619 319.135C208.322 319.014 209.008 319.277 209.449 319.839L209.654 320.099C211.381 322.295 211.82 324.265 212.376 326.759C212.59 327.722 212.834 328.814 213.179 330.017C213.235 330.213 213.13 330.418 212.938 330.486L197.144 336.12C197.103 336.134 197.06 336.142 197.017 336.142L173.434 336.315C173.433 336.315 173.432 336.315 173.431 336.315ZM169.898 333.387L173.535 335.543L196.946 335.372L212.339 329.881C212.039 328.794 211.819 327.807 211.623 326.927C211.088 324.528 210.666 322.634 209.047 320.575L208.842 320.315C208.578 319.98 208.167 319.823 207.748 319.895C207.328 319.967 206.994 320.25 206.858 320.653L206.204 322.575C205.566 324.451 203.77 324.529 203.23 324.507C203.225 324.507 203.219 324.507 203.216 324.506C202.308 324.502 201.783 324.143 200.83 323.492C200.384 323.187 199.828 322.807 199.07 322.35C198.954 322.279 198.883 322.153 198.883 322.018L198.895 319.76L197.05 318.025L194.921 318.014L193.172 320.591C193.142 320.635 193.102 320.672 193.057 320.701L184.06 326.314C184.034 326.331 184.005 326.344 183.975 326.354L171.081 330.532L169.898 333.387Z" fill="black"/>
<path d="M169.414 333.548L176.764 334.992L196.262 334.7L212.808 330.124L215.174 332.286L216.14 337.693L209.771 340.441C209.771 340.441 205.199 340.398 199.396 340.388L198 338.999L195.825 338.987L194.399 340.362C185.33 340.341 175.509 340.265 175.509 340.265L170.245 337.54L169.402 335.896L169.414 333.548Z" fill="#020202"/>
<path d="M193.278 323.854C193.202 323.854 193.125 323.831 193.058 323.785L190.467 321.979C190.293 321.857 190.25 321.616 190.372 321.442C190.493 321.268 190.733 321.225 190.908 321.346L193.499 323.152C193.674 323.274 193.716 323.514 193.595 323.689C193.52 323.796 193.4 323.854 193.278 323.854Z" fill="black"/>
<path d="M191.024 325.348C190.948 325.348 190.871 325.325 190.804 325.278L188.213 323.472C188.038 323.351 187.995 323.11 188.117 322.936C188.239 322.761 188.478 322.718 188.654 322.84L191.245 324.646C191.419 324.768 191.462 325.008 191.34 325.183C191.266 325.29 191.146 325.348 191.024 325.348Z" fill="black"/>
<path d="M188.769 326.84C188.693 326.84 188.616 326.818 188.548 326.771L185.958 324.965C185.783 324.843 185.741 324.603 185.862 324.428C185.984 324.254 186.223 324.211 186.399 324.332L188.99 326.139C189.164 326.26 189.207 326.501 189.085 326.675C189.01 326.782 188.891 326.84 188.769 326.84Z" fill="black"/>
<path d="M313.746 326.765L312.296 314.578L286.507 317.645L287.956 329.833L313.746 326.765Z" fill="#DFE3E8"/>
<path d="M287.961 330.218C287.768 330.218 287.602 330.073 287.578 329.878L286.129 317.69C286.117 317.589 286.146 317.487 286.209 317.406C286.272 317.326 286.365 317.274 286.466 317.262L312.257 314.205C312.469 314.18 312.66 314.331 312.685 314.542L314.135 326.73C314.147 326.832 314.118 326.933 314.055 327.014C313.991 327.094 313.899 327.146 313.797 327.158L288.007 330.215C287.991 330.217 287.976 330.218 287.961 330.218ZM286.94 317.982L288.298 329.404L313.323 326.438L311.965 315.016L286.94 317.982Z" fill="black"/>
<path d="M313.746 326.767L312.296 314.58L299.985 316.044L301.434 328.231L313.746 326.767Z" fill="#020202"/>
<path d="M310.314 308.328C307.983 311.973 306.628 312.111 305.692 315.687C305.692 315.687 305.111 317.178 306.283 317.562C306.98 317.791 308.484 317.709 309.216 317.654C311.078 317.513 312.043 318.749 312.236 319.129C312.754 320.152 312.663 320.862 313.146 323.509L311.353 325.075L311.265 327.866L312.871 329.696L316.104 329.277L325.941 332.733L333.304 338.866L336.756 339.645L337.742 336.265L333.351 322.685L324.721 316.238L310.314 308.328Z" fill="white"/>
<path d="M337.053 340.109L333.129 339.222L325.748 333.075L316.062 329.673L312.717 330.106L310.875 328.007L310.973 324.896L312.728 323.363C312.614 322.731 312.526 322.212 312.452 321.771C312.238 320.5 312.14 319.92 311.844 319.188C311.281 317.793 308.67 318.09 307.813 318.188C306.517 318.337 305.856 317.947 305.528 317.595C305.141 317.182 304.997 316.585 305.12 315.914L305.129 315.876L305.256 315.441C306.111 313.143 307.097 311.932 308.141 310.651C308.746 309.908 309.372 309.14 309.984 308.129L310.175 307.813L324.952 315.93L333.683 322.453L333.72 322.575L337.849 336.285L337.053 340.109ZM333.48 338.511L336.459 339.184L337.054 336.32L333.019 322.918L324.512 316.564L310.449 308.842C309.873 309.746 309.297 310.453 308.738 311.138C307.736 312.369 306.789 313.531 305.987 315.684L305.875 316.071C305.823 316.37 305.821 316.78 306.091 317.069C306.389 317.388 306.955 317.51 307.726 317.422C308.728 317.307 311.777 316.96 312.559 318.9C312.886 319.709 312.995 320.356 313.212 321.643C313.294 322.13 313.393 322.713 313.525 323.44L313.565 323.656L311.733 325.255L311.655 327.726L313.025 329.288L316.145 328.884L316.231 328.915L326.135 332.394L326.188 332.438L333.48 338.511Z" fill="black"/>
<path d="M310.369 305.192L310.314 308.328L324.432 317.477L332.662 325.855L336.09 333.061L336.48 339.842L339.08 340.424L340.28 338.441L340.36 332.47C340.36 332.47 339.499 330.793 338.006 325.024C338.006 325.024 331.526 317.109 329.809 315.164L327.871 315.013L326.466 313.411L326.581 311.486C322.819 307.23 319.88 303.852 319.88 303.852L313.719 300.971L310.369 305.192Z" fill="#020202"/>
<path d="M318.458 330.415C318.264 330.415 318.098 330.27 318.075 330.073L317.721 327.002C317.697 326.791 317.849 326.599 318.06 326.575C318.273 326.549 318.463 326.703 318.487 326.914L318.841 329.985C318.865 330.197 318.714 330.388 318.502 330.412C318.487 330.414 318.472 330.415 318.458 330.415Z" fill="black"/>
<path d="M321.022 331.096C320.828 331.096 320.662 330.952 320.639 330.755L320.285 327.684C320.261 327.473 320.413 327.281 320.624 327.257C320.839 327.231 321.026 327.385 321.051 327.596L321.405 330.667C321.429 330.878 321.277 331.07 321.066 331.094C321.051 331.096 321.036 331.096 321.022 331.096Z" fill="black"/>
<path d="M323.585 331.777C323.392 331.777 323.225 331.632 323.203 331.436L322.849 328.365C322.824 328.154 322.976 327.962 323.188 327.938C323.401 327.913 323.59 328.066 323.614 328.277L323.968 331.348C323.993 331.559 323.841 331.751 323.629 331.775C323.614 331.777 323.6 331.777 323.585 331.777Z" fill="black"/>
<path d="M189.307 307.247C189.307 307.247 187.702 280.924 187.556 269.225C187.424 258.712 195.475 253.698 208.631 252.426C228.802 250.476 283.275 246.238 283.275 246.238L280.109 259.449C277.578 267.734 265.269 275.046 265.269 275.046C265.269 275.046 243.308 276.743 213.047 279.63L212.875 306.685L189.307 307.247Z" fill="#020202"/>
<path d="M213.047 280.016C212.834 280.016 212.662 279.844 212.662 279.631V270.934C212.662 270.721 212.834 270.549 213.047 270.549C213.26 270.549 213.432 270.721 213.432 270.934V279.631C213.432 279.844 213.26 280.016 213.047 280.016Z" fill="white"/>
<path d="M292.739 333.514C292.739 333.514 256.152 339.907 240.17 339.603C239.071 339.582 237.753 339.571 236.29 339.568C224.158 339.543 216.707 326.309 223.006 315.96C226.153 310.789 228.827 306.478 229.753 305.199L261.805 256.456L267.57 247.475L288.67 257.393C295.784 263.011 293.928 276.213 286.319 283.796C275.394 294.684 260.449 309.742 256.047 313.743L292.073 307.961L292.739 333.514Z" fill="#020202"/>
<path d="M242.056 339.856C241.655 339.856 241.268 339.853 240.889 339.846C239.381 339.817 237.572 339.805 235.509 339.808C235.501 339.808 235.492 339.808 235.483 339.808C229.836 339.808 224.819 336.877 222.055 331.963C219.3 327.063 219.403 321.272 222.332 316.471C226.649 309.394 229.252 305.235 230.066 304.111L245.3 280.585C245.416 280.407 245.655 280.356 245.834 280.471C246.012 280.587 246.063 280.826 245.948 281.005L230.702 304.547C229.887 305.671 227.297 309.812 222.99 316.872C220.208 321.432 220.11 326.932 222.727 331.585C225.352 336.252 230.119 339.036 235.483 339.037C235.725 339.037 235.945 339.036 236.171 339.036C237.965 339.036 239.554 339.049 240.904 339.075C255.841 339.361 288.698 333.816 292.344 333.192L291.7 308.412L256.108 314.123C255.938 314.151 255.773 314.063 255.7 313.91C255.626 313.756 255.661 313.573 255.787 313.458C263.431 306.476 277.727 293.107 287.576 282.007C294.928 273.722 292.654 265.642 292.371 264.748C292.307 264.545 292.419 264.329 292.622 264.264C292.824 264.199 293.042 264.313 293.106 264.515C293.403 265.452 295.786 273.915 288.153 282.518C278.675 293.199 265.101 305.968 257.257 313.158L292.012 307.581C292.122 307.563 292.234 307.594 292.32 307.665C292.405 307.736 292.456 307.84 292.459 307.951L293.124 333.505C293.128 333.696 292.993 333.862 292.804 333.895C292.454 333.956 258.411 339.856 242.056 339.856Z" fill="black"/>
<path d="M245.623 281.18C245.552 281.18 245.479 281.16 245.414 281.118C245.236 281.003 245.184 280.764 245.3 280.585L252.422 269.588C252.538 269.41 252.776 269.358 252.955 269.474C253.134 269.59 253.185 269.829 253.069 270.008L245.947 281.004C245.873 281.118 245.75 281.18 245.623 281.18Z" fill="white"/>
<path d="M246.636 315.82C246.453 315.82 246.29 315.689 246.257 315.503C246.22 315.294 246.359 315.093 246.568 315.055L255.979 313.364C256.187 313.325 256.389 313.465 256.426 313.675C256.464 313.884 256.325 314.085 256.115 314.122L246.705 315.814C246.682 315.818 246.659 315.82 246.636 315.82Z" fill="white"/>
<path d="M290.936 267.075L291.593 274.734L248.998 248.967L266.577 253.451L278.632 251.23C282.093 252.66 285.677 254.882 287.525 258.272C287.869 258.904 290.649 266.398 290.936 267.075Z" fill="#020202"/>
<path d="M228.143 158.086L224.308 158.085L224.312 143.177C224.312 142.131 225.161 141.283 226.208 141.283H226.252C227.299 141.283 228.147 142.132 228.147 143.178L228.143 158.086Z" fill="#DFE3E8"/>
<path d="M220.367 156.902L224.324 156.903L224.329 140.692C224.329 139.625 223.464 138.76 222.397 138.759H222.303C221.236 138.759 220.371 139.624 220.371 140.691L220.367 156.902Z" fill="#DFE3E8"/>
<path d="M220.381 156.526L216.547 156.525L216.55 144.079C216.551 143.033 217.399 142.184 218.446 142.185H218.49C219.537 142.185 220.385 143.034 220.385 144.08L220.381 156.526Z" fill="#FDA4FF"/>
<path d="M228.141 156.08L212.694 156.074L212.644 168.533L215.212 171.249C218.011 174.209 222.681 174.352 225.658 171.571L226.273 170.996C227.463 169.885 228.138 168.331 228.138 166.704L228.141 156.08Z" fill="#DFE3E8"/>
<path d="M214.651 166.295L214.646 181.889L228.109 181.892L228.113 166.299L214.651 166.295Z" fill="#DFE3E8"/>
<path d="M214.108 149.045L209.767 148C208.79 147.765 207.814 148.393 207.626 149.378L207.566 149.69C207.39 150.611 207.969 151.507 208.882 151.727L211.906 152.455C212.386 152.571 212.724 152.999 212.724 153.492L212.722 162.285L216.559 162.286L216.562 152.156C216.562 150.678 215.548 149.392 214.108 149.045Z" fill="#DFE3E8"/>
<path d="M202.749 161.378L202.624 161.573C201.894 162.706 202.529 164.217 203.85 164.493L204.423 164.612C205.356 164.807 206.393 164.962 207.195 165.477L215.366 171.226L217.719 167.569L210.108 162.482C208.839 161.668 207.431 161.093 205.954 160.785L204.763 160.536C203.982 160.373 203.181 160.708 202.749 161.378Z" fill="#DFE3E8"/>
<path d="M214.649 175.397L214.647 181.89L228.109 181.893L228.112 173.185L214.649 175.397Z" fill="black"/>
<path d="M181.667 142.394C181.039 144.467 180.764 146.595 180.82 148.698L175.276 150.182L177.629 159.078L183.174 157.594C184.164 159.447 185.454 161.156 187.023 162.641L184.141 167.611L192.093 172.219L194.975 167.249C197.044 167.872 199.169 168.142 201.27 168.08L202.737 173.627L211.63 171.247L210.162 165.7C212.016 164.703 213.727 163.407 215.214 161.832L220.17 164.704L224.794 156.73L219.837 153.858C220.466 151.785 220.74 149.657 220.684 147.554L226.228 146.07L223.875 137.174L218.33 138.658C217.34 136.804 216.05 135.095 214.481 133.61L217.363 128.641L209.411 124.033L206.529 129.003C204.46 128.379 202.335 128.11 200.234 128.172L198.767 122.625L189.875 125.005L191.342 130.552C189.488 131.549 187.778 132.845 186.29 134.42L181.334 131.548L176.71 139.522L181.667 142.394ZM190.725 142.316C193.945 136.763 201.044 134.862 206.582 138.071C212.12 141.28 213.999 148.383 210.779 153.936C207.559 159.489 200.46 161.39 194.922 158.181C189.384 154.972 187.505 147.869 190.725 142.316Z" fill="#B9BEC6"/>
<path d="M224.325 154.834C224.112 154.834 223.94 154.661 223.94 154.448L223.943 140.687C223.943 140.275 223.783 139.888 223.491 139.597C223.199 139.305 222.811 139.144 222.398 139.144H222.303C221.451 139.144 220.757 139.836 220.756 140.686L220.753 153.988C220.753 154.201 220.58 154.373 220.367 154.373C220.154 154.373 219.982 154.201 219.982 153.988L219.986 140.686C219.986 139.411 221.025 138.373 222.302 138.373C222.303 138.373 222.303 138.373 222.303 138.373H222.398C223.017 138.374 223.598 138.614 224.036 139.051C224.474 139.488 224.714 140.069 224.714 140.687L224.711 154.448C224.71 154.661 224.538 154.834 224.325 154.834Z" fill="black"/>
<path d="M216.548 156.279C216.334 156.279 216.162 156.107 216.162 155.894L216.165 144.075C216.165 142.82 217.188 141.799 218.445 141.799C218.445 141.799 218.445 141.799 218.445 141.799H218.491C219.1 141.799 219.673 142.036 220.103 142.466C220.534 142.896 220.771 143.468 220.771 144.076L220.753 154.908C220.753 155.121 220.58 155.293 220.367 155.293C220.367 155.293 220.367 155.293 220.367 155.293C220.154 155.292 219.982 155.119 219.982 154.906L220 144.075C220 143.674 219.843 143.296 219.558 143.011C219.273 142.727 218.894 142.57 218.491 142.57H218.445C217.613 142.57 216.936 143.245 216.936 144.075L216.933 155.894C216.933 156.107 216.76 156.279 216.548 156.279Z" fill="black"/>
<path d="M228.494 182.278L214.261 182.275L214.264 170.966L206.952 165.822C206.278 165.39 205.391 165.207 204.534 165.029L203.771 164.87C203.026 164.715 202.405 164.203 202.111 163.502C201.819 162.802 201.888 162.002 202.3 161.364L202.425 161.17C202.939 160.371 203.911 159.965 204.842 160.159L206.033 160.407C207.491 160.712 208.925 161.311 210.294 162.189L212.279 163.586L212.338 153.49C212.338 153.176 212.123 152.904 211.815 152.83L208.791 152.102C207.677 151.833 206.973 150.742 207.187 149.618L207.246 149.306C207.357 148.725 207.693 148.229 208.19 147.908C208.688 147.587 209.28 147.486 209.857 147.625L214.198 148.67C215.817 149.06 216.947 150.494 216.946 152.156C216.946 152.369 216.774 152.541 216.561 152.541C216.348 152.541 216.176 152.369 216.176 152.156C216.176 150.851 215.288 149.726 214.017 149.42L209.677 148.375C209.307 148.285 208.927 148.35 208.608 148.556C208.289 148.762 208.075 149.079 208.004 149.451L207.944 149.762C207.807 150.482 208.258 151.18 208.972 151.352L211.996 152.08C212.651 152.238 213.109 152.819 213.109 153.493L213.042 165.065L209.864 162.829C208.588 162.011 207.241 161.447 205.875 161.162L204.684 160.913C204.062 160.784 203.416 161.055 203.073 161.587L202.948 161.782C202.671 162.213 202.625 162.731 202.823 163.204C203.021 163.678 203.424 164.011 203.929 164.116L204.69 164.275C205.573 164.457 206.574 164.665 207.382 165.182L215.035 170.566L215.032 181.504L227.724 181.508L227.761 143.174C227.761 142.772 227.605 142.394 227.32 142.11C227.035 141.825 226.656 141.668 226.253 141.668H226.207C225.804 141.668 225.425 141.825 225.14 142.109C224.855 142.393 224.698 142.771 224.698 143.173L224.695 154.449C224.695 154.662 224.522 154.834 224.309 154.834C224.096 154.834 223.924 154.661 223.924 154.449L223.927 143.173C223.927 142.565 224.164 141.993 224.595 141.563C225.026 141.134 225.598 140.898 226.206 140.898C226.207 140.898 226.207 140.898 226.207 140.898H226.253C226.862 140.898 227.434 141.135 227.865 141.564C228.296 141.995 228.533 142.566 228.532 143.174L228.494 182.278Z" fill="black"/>
<path d="M257.837 289.847L246.725 294.694C245.753 295.118 245.31 296.247 245.734 297.216L245.84 297.458C246.265 298.428 247.397 298.871 248.369 298.447L259.48 293.601L257.837 289.847Z" fill="#DFE3E8"/>
<path d="M254.113 279.283H271.376L271.577 285.286C272.836 289.69 269.523 294.073 264.935 294.073H253.719L254.113 279.283Z" fill="#DFE3E8"/>
<path d="M243.62 288.801L240.996 290.338C240.453 290.656 240.12 291.236 240.12 291.864V292.096C240.12 293.462 241.607 294.312 242.788 293.621L243.621 293.134C244.601 292.56 245.717 292.258 246.853 292.258H255.881V287.925H246.853C245.717 287.925 244.601 288.227 243.62 288.801Z" fill="#DFE3E8"/>
<path d="M241.602 284.477L238.977 286.014C238.435 286.331 238.102 286.912 238.102 287.539V287.771C238.102 289.138 239.589 289.988 240.77 289.297L241.603 288.809C242.583 288.236 243.699 287.933 244.835 287.933H255.064V283.601H244.835C243.699 283.601 242.583 283.903 241.602 284.477Z" fill="#DFE3E8"/>
<path d="M241.602 280.16L238.977 281.697C238.435 282.014 238.102 282.594 238.102 283.222V283.454C238.102 284.821 239.589 285.671 240.77 284.979L241.603 284.492C242.583 283.918 243.699 283.616 244.835 283.616H255.064V279.283H244.835C243.699 279.283 242.583 279.586 241.602 280.16Z" fill="#DFE3E8"/>
<path d="M275.103 268.502L261.963 280.073L261.244 294.073H263.847C268.782 294.073 273.162 290.919 274.719 286.245L285.823 277.403L275.103 268.502Z" fill="#DFE3E8"/>
<path d="M273.188 270.189L279.662 282.678L285.824 277.404L275.104 268.502L273.188 270.189Z" fill="black"/>
<path d="M241.892 294.253C241.524 294.253 241.155 294.156 240.818 293.963C240.14 293.574 239.735 292.876 239.735 292.095V291.863C239.735 291.102 240.144 290.39 240.801 290.005L243.426 288.468C244.465 287.86 245.65 287.539 246.853 287.539H253.681C253.894 287.539 254.067 287.712 254.067 287.925C254.067 288.138 253.894 288.31 253.681 288.31H246.853C245.787 288.31 244.736 288.595 243.815 289.134L241.191 290.671C240.768 290.918 240.506 291.375 240.506 291.863V292.095C240.506 292.596 240.766 293.045 241.201 293.294C241.638 293.545 242.159 293.542 242.594 293.288L243.426 292.8C244.465 292.193 245.65 291.872 246.853 291.872H252.313C252.526 291.872 252.698 292.044 252.698 292.257C252.698 292.47 252.526 292.643 252.313 292.643H246.853C245.786 292.643 244.736 292.927 243.816 293.466L242.983 293.953C242.642 294.153 242.268 294.253 241.892 294.253Z" fill="black"/>
<path d="M239.874 289.929C239.506 289.929 239.137 289.832 238.799 289.639C238.121 289.25 237.717 288.552 237.717 287.771V287.539C237.717 286.778 238.125 286.066 238.783 285.681L241.408 284.144C242.446 283.536 243.632 283.215 244.835 283.215H253.147C253.36 283.215 253.532 283.387 253.532 283.6C253.532 283.813 253.36 283.986 253.147 283.986H244.835C243.768 283.986 242.718 284.271 241.797 284.81L239.172 286.347C238.75 286.594 238.488 287.05 238.488 287.539V287.771C238.488 288.272 238.748 288.72 239.183 288.97C239.62 289.22 240.141 289.218 240.576 288.964L241.408 288.476C242.447 287.869 243.632 287.547 244.835 287.547H252.925C253.139 287.547 253.311 287.72 253.311 287.933C253.311 288.146 253.139 288.318 252.925 288.318H244.835C243.768 288.318 242.718 288.603 241.797 289.142L240.965 289.629C240.624 289.829 240.249 289.929 239.874 289.929Z" fill="black"/>
<path d="M247.645 298.968C246.725 298.968 245.847 298.435 245.456 297.541L245.414 297.446C245.159 296.863 245.146 296.216 245.378 295.624C245.61 295.031 246.06 294.564 246.645 294.309L256.472 290.023C256.667 289.938 256.894 290.028 256.979 290.222C257.064 290.417 256.975 290.645 256.78 290.73L246.953 295.016C246.557 295.188 246.253 295.504 246.096 295.905C245.939 296.306 245.948 296.743 246.12 297.136L246.162 297.232C246.518 298.045 247.472 298.418 248.288 298.063L258.244 293.72C258.293 293.699 258.345 293.688 258.398 293.688H263.971C268.601 293.688 272.871 290.577 274.353 286.123C274.377 286.053 274.421 285.99 274.479 285.944L285.213 277.397L275.11 269.008L263.034 279.574C262.963 279.635 262.873 279.669 262.78 279.669H244.836C243.769 279.669 242.718 279.954 241.798 280.493L239.173 282.03C238.751 282.277 238.488 282.734 238.488 283.223V283.455C238.488 283.956 238.748 284.404 239.183 284.654C239.621 284.904 240.141 284.902 240.576 284.648L241.408 284.16C242.447 283.552 243.632 283.231 244.835 283.231H254.021C254.234 283.231 254.407 283.403 254.407 283.616C254.407 283.83 254.234 284.002 254.021 284.002H244.835C243.769 284.002 242.718 284.287 241.798 284.826L240.966 285.313C240.289 285.709 239.48 285.712 238.8 285.322C238.122 284.934 237.717 284.235 237.717 283.455V283.223C237.717 282.462 238.126 281.75 238.783 281.365L241.409 279.828C242.447 279.22 243.632 278.898 244.836 278.898H262.635L274.85 268.212C274.993 268.088 275.204 268.085 275.35 268.205L286.07 277.107C286.159 277.181 286.211 277.291 286.21 277.408C286.209 277.524 286.155 277.633 286.064 277.705L275.048 286.477C273.43 291.18 268.896 294.455 263.98 294.459C263.98 294.459 263.979 294.459 263.978 294.459H258.479L248.596 298.77C248.286 298.904 247.963 298.968 247.645 298.968Z" fill="black"/>
<path d="M315.633 239.897C315.155 239.384 314.638 238.929 314.087 238.536L290.088 212.71C287.745 208.96 283.671 206.477 279.037 206.477H262.386C261.572 206.477 260.778 206.554 260.004 206.701V206.477H231.302V178.917H210.916V216.773C210.916 222.324 215.414 226.826 220.964 226.826H249.126L248.802 249.51L277.062 261.152L271.741 266.647L285.605 281.568L315.093 254.27C319.217 250.451 319.46 244.017 315.633 239.897Z" fill="white"/>
<path d="M285.605 281.954C285.502 281.954 285.399 281.913 285.323 281.831L271.458 266.91C271.319 266.76 271.321 266.527 271.464 266.38L276.39 261.293L248.655 249.867C248.509 249.806 248.414 249.663 248.416 249.505L248.735 227.212H220.964C215.211 227.212 210.53 222.529 210.53 216.773V178.918C210.53 178.705 210.703 178.532 210.916 178.532H231.302C231.516 178.532 231.688 178.705 231.688 178.918V206.092H260.004C260.134 206.092 260.249 206.157 260.319 206.255C261.003 206.147 261.696 206.092 262.386 206.092H279.037C283.64 206.092 287.883 208.478 290.396 212.475L314.343 238.246C314.901 238.648 315.43 239.115 315.915 239.634C317.836 241.703 318.836 244.394 318.73 247.211C318.624 250.028 317.425 252.636 315.355 254.553L285.867 281.851C285.793 281.92 285.699 281.954 285.605 281.954ZM272.272 266.653L285.626 281.024L314.831 253.987C316.75 252.21 317.862 249.793 317.96 247.182C318.058 244.571 317.131 242.077 315.351 240.16C314.892 239.668 314.391 239.227 313.863 238.85C313.842 238.835 313.823 238.818 313.805 238.799L289.806 212.973C289.79 212.955 289.774 212.936 289.762 212.915C287.394 209.125 283.384 206.863 279.037 206.863H262.386C261.614 206.863 260.836 206.936 260.075 207.08C259.962 207.101 259.846 207.071 259.758 206.998C259.713 206.961 259.678 206.915 259.654 206.863H231.303C231.09 206.863 230.917 206.691 230.917 206.478V179.303H211.301V216.773C211.301 222.104 215.636 226.441 220.965 226.441H249.126C249.229 226.441 249.328 226.482 249.401 226.555C249.473 226.629 249.513 226.729 249.512 226.832L249.191 249.253L277.209 260.796C277.327 260.845 277.413 260.949 277.44 261.074C277.466 261.2 277.428 261.329 277.339 261.421L272.272 266.653ZM293.596 246.801C293.493 246.801 293.389 246.759 293.314 246.677C293.244 246.603 293.21 246.508 293.211 246.414C293.211 246.311 293.253 246.208 293.334 246.132L294.471 245.08C294.627 244.935 294.872 244.944 295.016 245.101C295.085 245.175 295.119 245.27 295.119 245.364C295.118 245.467 295.077 245.57 294.995 245.645L293.858 246.698C293.784 246.767 293.69 246.801 293.596 246.801Z" fill="black"/>
<path d="M220.964 226.826H220.856C215.368 226.826 210.916 222.374 210.916 216.881V216.774C210.916 222.324 215.414 226.826 220.964 226.826Z" fill="white"/>
<path d="M220.964 227.211H220.856C215.162 227.211 210.53 222.577 210.53 216.881V216.773C210.53 216.56 210.703 216.388 210.916 216.388C211.129 216.388 211.301 216.56 211.301 216.773C211.301 222.104 215.636 226.44 220.964 226.44C221.177 226.44 221.35 226.613 221.35 226.826C221.35 227.039 221.177 227.211 220.964 227.211Z" fill="black"/>
<path d="M231.302 217.396C231.089 217.396 230.917 217.224 230.917 217.011L230.917 209.443C230.917 209.23 231.09 209.058 231.303 209.058C231.516 209.058 231.688 209.23 231.688 209.443L231.688 217.011C231.688 217.224 231.515 217.396 231.302 217.396Z" fill="black"/>
<path d="M289.499 249.931L293.596 246.415L281.207 233.268L289.499 249.931Z" fill="#020202"/>
<path d="M252.084 233.58C255.744 233.58 258.71 230.627 258.71 226.985C258.71 223.343 255.744 220.39 252.084 220.39C248.425 220.39 245.458 223.343 245.458 226.985C245.458 230.627 248.425 233.58 252.084 233.58Z" fill="white"/>
<path d="M250.065 233.654C250.026 233.654 249.987 233.649 249.947 233.636C247.095 232.728 245.137 230.075 245.073 227.033C245.011 224.062 247.084 221.17 249.82 220.369L252.397 215.942C252.504 215.758 252.74 215.696 252.924 215.802C253.108 215.909 253.17 216.145 253.063 216.329L250.407 220.893C250.356 220.982 250.271 221.046 250.171 221.072C247.73 221.709 245.789 224.376 245.844 227.017C245.9 229.729 247.644 232.093 250.181 232.901C250.384 232.966 250.496 233.183 250.432 233.386C250.38 233.55 250.228 233.654 250.065 233.654Z" fill="black"/>
<path d="M268.442 233.705C267.044 233.705 265.705 233.282 264.567 232.48C264.393 232.357 264.352 232.116 264.474 231.942C264.597 231.769 264.837 231.727 265.011 231.849C266.019 232.559 267.204 232.934 268.442 232.934C268.454 232.934 268.466 232.934 268.478 232.934C271.753 232.914 274.402 230.246 274.383 226.987C274.382 226.774 274.553 226.6 274.766 226.599C274.767 226.599 274.767 226.599 274.768 226.599C274.98 226.599 275.153 226.77 275.154 226.982C275.175 230.667 272.183 233.683 268.482 233.705C268.469 233.705 268.455 233.705 268.442 233.705Z" fill="black"/>
<path d="M293.599 246.799C293.496 246.799 293.392 246.758 293.316 246.676L278.63 230.872C278.485 230.716 278.494 230.472 278.65 230.327C278.805 230.183 279.049 230.191 279.194 230.347L293.881 246.151C294.026 246.307 294.017 246.551 293.861 246.696C293.787 246.765 293.693 246.799 293.599 246.799Z" fill="black"/>
<path d="M275.611 262.847C275.506 262.847 275.401 262.804 275.325 262.72C275.182 262.562 275.195 262.318 275.353 262.175L296.894 242.742C297.051 242.599 297.295 242.612 297.438 242.77C297.58 242.928 297.568 243.171 297.41 243.314L275.869 262.748C275.795 262.814 275.703 262.847 275.611 262.847Z" fill="black"/>
<path d="M274.94 205.928L266.29 214.138V195.141H274.94V205.928Z" fill="#DFE3E8"/>
<path d="M266.29 214.524C266.239 214.524 266.187 214.514 266.138 214.493C265.997 214.432 265.905 214.293 265.905 214.139V195.141C265.905 194.928 266.077 194.756 266.29 194.756H274.94C275.153 194.756 275.326 194.928 275.326 195.141V205.929C275.326 206.035 275.282 206.135 275.206 206.208L266.556 214.419C266.483 214.488 266.387 214.524 266.29 214.524ZM266.676 195.526V213.241L274.555 205.763V195.526H266.676Z" fill="black"/>
<path d="M274.94 198.415V195.142H266.29V202.367C267.071 202.523 268.627 202.718 270.414 202.13C273.21 201.21 274.583 199.027 274.94 198.415Z" fill="black"/>
<path d="M269.443 200.266C273.285 200.266 276.4 196.83 276.4 192.591C276.4 188.352 273.285 184.916 269.443 184.916C265.601 184.916 262.486 188.352 262.486 192.591C262.486 196.83 265.601 200.266 269.443 200.266Z" fill="#FDA4FF"/>
<path d="M272.467 195.961C271.795 196.576 270.929 196.991 269.952 197.09C267.773 197.311 265.81 195.899 265.27 193.85L272.467 195.961Z" fill="white"/>
<path d="M270.303 200.228C274.62 200.228 278.119 196.737 278.119 192.431C278.119 188.125 274.62 184.634 270.303 184.634C265.986 184.634 262.486 188.125 262.486 192.431C262.486 196.737 265.986 200.228 270.303 200.228Z" fill="#DFE3E8"/>
<path d="M270.303 200.613C265.78 200.613 262.101 196.942 262.101 192.43C262.101 187.918 265.78 184.248 270.303 184.248C274.825 184.248 278.505 187.918 278.505 192.43C278.505 196.942 274.825 200.613 270.303 200.613ZM270.303 185.019C266.205 185.019 262.872 188.343 262.872 192.43C262.872 196.517 266.205 199.842 270.303 199.842C274.4 199.842 277.734 196.517 277.734 192.43C277.734 188.343 274.4 185.019 270.303 185.019Z" fill="black"/>
<path d="M270.369 184.586C274.686 184.586 278.186 188.076 278.186 192.383C278.186 193.198 277.994 194.031 277.761 194.77L272.582 192.915C269.418 191.781 266.612 189.832 264.449 187.265C265.881 185.651 268.039 184.586 270.369 184.586Z" fill="black"/>
<path d="M266.316 185.725L262.659 194.063C262.546 193.536 262.486 192.991 262.486 192.431C262.486 189.578 264.023 187.084 266.316 185.725Z" fill="black"/>
<path d="M293.446 179.131L279.874 167.509C279.874 167.509 272.443 182.701 275.871 185.637C279.575 188.808 293.446 179.131 293.446 179.131Z" fill="black"/>
<path d="M272.382 194.635C272.262 195.244 271.955 195.823 271.459 196.272C270.352 197.274 268.7 197.294 267.571 196.387L272.382 194.635Z" fill="white"/>
</g>
<defs>
<clipPath id="clip0_71_94">
<rect width="361" height="361" fill="white"/>
</clipPath>
</defs>
</svg>
