<svg width="273" height="37" viewBox="0 0 273 37" fill="none" xmlns="http://www.w3.org/2000/svg">
<path fill-rule="evenodd" clip-rule="evenodd" d="M74.1276 21.6612C62.6626 24.9852 49.4256 28.2932 36.6916 29.1192C25.8076 29.8242 15.2947 28.7292 6.68966 24.0702C5.47666 23.4142 3.95766 23.8652 3.30166 25.0792C2.64466 26.2922 3.09666 27.8112 4.30966 28.4682C13.6967 33.5492 25.1426 34.8783 37.0146 34.1082C49.9776 33.2682 63.4536 29.9382 75.1486 26.5662C76.5056 29.3152 79.3157 31.8782 84.2656 33.7692C91.8686 36.6742 102.25 36.6382 113.186 35.0012C129.047 32.6282 146.109 26.9692 157.079 22.9482C157.529 22.7842 158.199 22.5232 159.019 22.1792C159.269 22.7312 159.549 23.2752 159.859 23.8092C162.549 28.4632 167.309 32.2262 172.159 33.5702C202.919 42.0922 238.819 31.8812 268.049 23.5712C269.369 23.1942 270.139 21.8102 269.769 20.4832C269.389 19.1562 268.009 18.3852 266.679 18.7622C238.269 26.8402 203.389 37.0322 173.489 28.7512C169.809 27.7312 166.229 24.8392 164.189 21.3072C163.959 20.9132 163.759 20.5102 163.569 20.1012C167.599 18.1042 172.339 15.3202 174.889 12.3402C177.509 9.28524 178.159 6.02425 175.879 2.94425C173.919 0.311248 170.949 0.0872439 167.859 1.45224C164.529 2.91424 161.099 6.33219 159.989 7.93619C157.909 10.9322 157.249 14.1822 157.629 17.3512C156.649 17.7652 155.853 18.0732 155.362 18.2532C144.632 22.1852 127.955 27.7352 112.446 30.0562C102.467 31.5502 92.9876 31.7492 86.0496 29.0992C83.0906 27.9682 81.1356 26.6482 80.0746 25.1162C82.1686 24.4902 84.1877 23.8742 86.1167 23.2862C89.9317 22.1232 97.8746 20.1982 103.55 16.7672C108.063 14.0392 111.123 10.3282 110.945 5.67624C110.854 3.28624 109.471 1.69121 107.27 0.797215C103.981 -0.537785 98.2926 0.108201 96.1746 0.558201C89.7506 1.9202 81.1767 7.55823 76.9347 13.9112C75.2417 16.4462 74.2346 19.0982 74.1276 21.6612ZM79.4046 20.0992C81.2196 19.5532 82.9737 19.0172 84.6587 18.5032C88.2197 17.4172 95.6636 15.6922 100.963 12.4882C103.769 10.7922 106.06 8.76022 105.949 5.86722C105.94 5.64222 105.717 5.57824 105.52 5.48624C105.215 5.34524 104.866 5.24821 104.494 5.17221C101.977 4.65821 98.5956 5.15519 97.2116 5.44919C91.8216 6.59219 84.6516 11.3572 81.0926 16.6882C80.3406 17.8142 79.7416 18.9612 79.4046 20.0992ZM162.569 15.0492C164.919 13.8402 167.379 12.3782 169.319 10.7872C170.349 9.9422 171.219 9.07324 171.769 8.17124C172.229 7.42524 172.409 6.66119 171.859 5.92319C171.639 5.62419 171.309 5.61823 170.969 5.67423C170.609 5.73423 170.239 5.8622 169.869 6.02719C167.429 7.10119 164.909 9.6102 164.099 10.7872C163.149 12.1522 162.679 13.5962 162.569 15.0492Z" fill="#B4FF5C"/>
</svg>
