<svg width="16" height="17" viewBox="0 0 16 17" fill="none" xmlns="http://www.w3.org/2000/svg">
<path d="M8 16.5127C6.41775 16.5127 4.87103 16.0435 3.55544 15.1645C2.23985 14.2854 1.21447 13.036 0.608967 11.5742C0.00346629 10.1124 -0.15496 8.50383 0.153721 6.95198C0.462403 5.40013 1.22433 3.97466 2.34315 2.85584C3.46197 1.73702 4.88743 0.975098 6.43928 0.666417C7.99113 0.357735 9.59966 0.516162 11.0615 1.12166C12.5233 1.72716 13.7727 2.75254 14.6518 4.06814C15.5308 5.38373 16 6.93045 16 8.5127C15.9977 10.6337 15.1541 12.6672 13.6543 14.167C12.1545 15.6668 10.121 16.5104 8 16.5127V16.5127ZM8 1.84603C6.68146 1.84603 5.39253 2.23703 4.2962 2.96957C3.19987 3.70211 2.34539 4.7433 1.84081 5.96148C1.33622 7.17965 1.2042 8.52009 1.46144 9.8133C1.71867 11.1065 2.35361 12.2944 3.28596 13.2267C4.21831 14.1591 5.4062 14.794 6.6994 15.0513C7.99261 15.3085 9.33305 15.1765 10.5512 14.6719C11.7694 14.1673 12.8106 13.3128 13.5431 12.2165C14.2757 11.1202 14.6667 9.83124 14.6667 8.5127C14.6647 6.74519 13.9617 5.05062 12.7119 3.8008C11.4621 2.55098 9.76752 1.84797 8 1.84603V1.84603ZM8 13.846C6.94517 13.846 5.91402 13.5332 5.03696 12.9472C4.1599 12.3612 3.47631 11.5282 3.07265 10.5537C2.66898 9.57914 2.56336 8.50678 2.76915 7.47222C2.97494 6.43765 3.48289 5.48734 4.22877 4.74146C4.97465 3.99558 5.92496 3.48763 6.95952 3.28184C7.99409 3.07606 9.06644 3.18167 10.041 3.58534C11.0155 3.98901 11.8485 4.6726 12.4345 5.54966C13.0205 6.42672 13.3333 7.45787 13.3333 8.5127C13.3317 9.9267 12.7693 11.2823 11.7695 12.2822C10.7696 13.282 9.414 13.8444 8 13.846V13.846ZM8 4.5127C7.20888 4.5127 6.43552 4.74729 5.77772 5.18682C5.11993 5.62635 4.60724 6.25106 4.30449 6.98197C4.00173 7.71287 3.92252 8.51714 4.07686 9.29306C4.2312 10.069 4.61217 10.7817 5.17158 11.3411C5.73099 11.9005 6.44372 12.2815 7.21964 12.4358C7.99557 12.5902 8.79983 12.511 9.53074 12.2082C10.2616 11.9055 10.8864 11.3928 11.3259 10.735C11.7654 10.0772 12 9.30382 12 8.5127C11.9989 7.45216 11.5772 6.43536 10.8273 5.68544C10.0773 4.93553 9.06055 4.51376 8 4.5127V4.5127ZM7.90467 10.856L9.90467 7.5227C9.96544 7.42155 9.99827 7.30609 9.99982 7.1881C10.0014 7.07011 9.97157 6.95383 9.91347 6.85113C9.85537 6.74842 9.77106 6.66298 9.66914 6.60352C9.56721 6.54406 9.45134 6.51272 9.33334 6.5127H6.66667C6.48986 6.5127 6.32029 6.58294 6.19527 6.70796C6.07024 6.83299 6 7.00255 6 7.17937C6 7.35618 6.07024 7.52575 6.19527 7.65077C6.32029 7.77579 6.48986 7.84603 6.66667 7.84603H8.156L6.762 10.1694C6.71502 10.2444 6.68347 10.3281 6.66919 10.4155C6.65491 10.5029 6.65819 10.5923 6.67884 10.6784C6.69948 10.7645 6.73707 10.8457 6.78943 10.9171C6.84178 10.9885 6.90784 11.0488 6.98375 11.0944C7.05966 11.1401 7.14389 11.1701 7.23154 11.1828C7.31919 11.1955 7.40848 11.1906 7.49422 11.1684C7.57995 11.1462 7.66041 11.1072 7.73088 11.0535C7.80135 10.9999 7.86043 10.9328 7.90467 10.856V10.856Z" fill="#0C0C0C"/>
</svg>
